<svg width="24" height="24" viewBox="0 0 24 24" fill="none" xmlns="http://www.w3.org/2000/svg">
<path d="M7.6 9H4.4C4.17909 9 4 9.17589 4 9.39286V19.6071C4 19.8241 4.17909 20 4.4 20H7.6C7.82091 20 8 19.8241 8 19.6071V9.39286C8 9.17589 7.82091 9 7.6 9Z" fill="#C1B3F3"/>
<path d="M6 8C7.10457 8 8 7.10457 8 6C8 4.89543 7.10457 4 6 4C4.89543 4 4 4.89543 4 6C4 7.10457 4.89543 8 6 8Z" fill="#C1B3F3"/>
<path d="M17.3077 20H19.6154C19.7174 20 19.8152 19.96 19.8873 19.8889C19.9595 19.8178 20 19.7213 20 19.6208V13.2496C20 10.3901 18.3615 9.00213 16.0692 9.00213C15.6171 8.98583 15.1665 9.06312 14.7465 9.22903C14.3265 9.39494 13.9464 9.64579 13.6308 9.9654C13.5886 10.0134 13.5325 10.0476 13.4701 10.0632C13.4077 10.0789 13.3419 10.0754 13.2816 10.0531C13.2212 10.0307 13.1693 9.99077 13.1327 9.93849C13.0961 9.8862 13.0767 9.82413 13.0769 9.76061C13.0769 9.66003 13.0364 9.56357 12.9643 9.49245C12.8921 9.42133 12.7943 9.38137 12.6923 9.38137H10.3846C10.2826 9.38137 10.1848 9.42133 10.1127 9.49245C10.0405 9.56357 10 9.66003 10 9.76061V19.6208C10 19.7213 10.0405 19.8178 10.1127 19.8889C10.1848 19.96 10.2826 20 10.3846 20H12.6923C12.7943 20 12.8921 19.96 12.9643 19.8889C13.0364 19.8178 13.0769 19.7213 13.0769 19.6208V13.9322C13.0769 13.4293 13.2795 12.947 13.6402 12.5914C14.0008 12.2358 14.49 12.036 15 12.036C15.51 12.036 15.9992 12.2358 16.3598 12.5914C16.7205 12.947 16.9231 13.4293 16.9231 13.9322V19.6208C16.9231 19.7213 16.9636 19.8178 17.0357 19.8889C17.1079 19.96 17.2057 20 17.3077 20Z" fill="#C1B3F3"/>
</svg>
