<svg width="894" height="814" viewBox="0 0 894 814" fill="none" xmlns="http://www.w3.org/2000/svg">
<path d="M704.519 382.675C693.186 355.05 727.185 341.197 696.937 302.245C677.451 277.065 646.305 258.159 592.413 284.399C631.385 274.05 655.763 290.674 672.069 311.698C702.236 350.65 668.319 364.503 679.652 392.128C690.985 419.753 724.576 446.4 708.596 472.558C667.993 538.972 706.802 570.427 648.507 597.645C655.682 595.445 662.612 592.919 669.379 589.985C733.463 562.36 692.045 530.905 733.463 463.106C749.443 436.866 715.852 410.3 704.519 382.675Z" fill="#E2BD69"/>
<path d="M708.596 472.558C724.576 446.4 690.985 419.753 679.652 392.128C668.319 364.503 702.318 350.65 672.069 311.698C655.763 290.673 631.385 274.05 592.413 284.399C562.979 298.741 526.779 326.447 481.937 373.874C354.991 508.332 357.437 608.809 357.437 608.809C356.214 617.61 508.271 625.107 512.103 618.832C515.446 613.209 587.358 616.632 648.425 597.563C706.802 570.427 667.993 538.891 708.596 472.558Z" fill="#F4D37D"/>
<path d="M778.877 483.804C797.221 494.561 810.837 504.095 820.376 512.733C820.947 498.228 804.152 479.322 761.184 454.223C588.907 353.665 387.767 601.23 387.767 601.23L421.195 612.965C471.663 558.122 635.298 400.033 778.877 483.804Z" fill="#418899"/>
<path d="M580.101 572.383C659.35 560.16 818.583 556.33 820.376 512.814C810.837 504.176 797.303 494.642 778.877 483.885C635.298 400.114 471.663 558.122 421.114 613.046L455.602 625.188C455.602 625.188 474.436 588.681 580.101 572.383Z" fill="#56A0BA"/>
<path d="M746.753 562.686C762.407 560.975 778.877 565.538 789.883 573.361C808.473 549.403 771.783 524.793 738.437 528.379C703.215 532.127 645.408 559.752 567.464 559.752C489.519 559.752 459.352 612.558 459.352 612.558C459.352 612.558 472.968 615.654 493.106 619.973C510.391 606.935 537.215 594.059 575.698 594.059C653.725 594.141 711.531 566.516 746.753 562.686Z" fill="#B54774"/>
<path d="M764.853 628.937C782.464 616.387 759.798 602.534 786.215 577.435C787.601 576.132 788.824 574.746 789.883 573.361C778.795 565.619 762.407 561.056 746.753 562.686C711.531 566.434 653.725 594.059 575.78 594.059C537.297 594.059 510.473 606.935 493.188 619.973C519.441 625.596 556.783 633.256 590.13 638.96C649.241 649.065 747.324 641.486 764.853 628.937Z" fill="#CC567E"/>
<path d="M372.031 762.172C534.18 762.172 665.628 725.871 665.628 681.09C665.628 636.31 534.18 600.008 372.031 600.008C209.882 600.008 78.4339 636.31 78.4339 681.09C78.4339 725.871 209.882 762.172 372.031 762.172Z" fill="#F8F9D7"/>
<path d="M356.703 628.53L402.769 613.454L531.019 639.368L496.694 661.207L356.703 628.53Z" fill="#E2BD69"/>
<path d="M437.991 51.3385L445.573 53.8647L446.389 626.003L437.991 630.159V51.3385Z" fill="#D1A856"/>
<path d="M437.991 51.3385H424.619V630.159H437.991V51.3385Z" fill="#E2BD69"/>
<path d="M543.982 119.627L223.48 114.086L239.378 444.119L371.379 469.625C509.168 406.226 538.846 225.971 543.982 119.627Z" fill="#F8F9D7"/>
<path d="M662.612 121.664L543.982 119.627C538.846 225.971 509.168 406.226 371.379 469.625L655.926 524.549L662.612 121.664Z" fill="#EAEAC5"/>
<path d="M675.168 125.005L662.612 121.664L655.926 524.63L667.667 517.948L675.168 125.005Z" fill="#E2BD69"/>
<path d="M376.842 104.062V120.849L504.195 125.901L505.092 104.959L376.842 104.062Z" fill="#E2BD69"/>
<path d="M256.174 140.977L259.517 213.014L353.36 223.037L351.648 144.318L256.174 140.977Z" fill="#56A0BA"/>
<path d="M576.269 324.41L577.166 395.632L629.917 404.841L631.63 328.566L576.269 324.41Z" fill="#56A0BA"/>
<path d="M416.222 391.395L418.749 450.882L517.648 467.669L519.278 401.499L416.222 391.395Z" fill="#56A0BA"/>
<path d="M500.037 387.239L569.584 233.957" stroke="#56A0BA" stroke-miterlimit="10"/>
<path d="M562.898 326.122L508.434 292.548" stroke="#56A0BA" stroke-miterlimit="10"/>
<path d="M358.415 179.522L526.045 187.019" stroke="#56A0BA" stroke-miterlimit="10"/>
<path d="M500.852 356.273L401.953 344.538V224.748L503.38 228.904L500.852 356.273Z" fill="#56A0BA"/>
<path d="M395.268 282.525L308.925 228.904" stroke="#56A0BA" stroke-miterlimit="10"/>
<path d="M635.135 194.679C635.217 193.945 635.298 193.212 635.298 192.479C635.298 181.966 626.819 173.41 616.301 173.247C614.019 163.713 605.947 156.623 596.326 156.623C595.429 156.623 594.451 156.705 593.554 156.868C589.885 150.674 583.526 146.6 576.188 146.6C566.567 146.6 558.495 153.689 556.212 163.224C554.582 162.653 552.788 162.409 550.913 162.409C541.455 162.409 533.709 170.069 533.709 179.603C533.709 183.352 534.932 186.856 537.052 189.708L635.135 194.679Z" fill="#CC567E"/>
<path d="M143.17 337.856C143.415 336.308 137.626 324.247 137.626 324.247C136.159 324.084 134.773 324.492 133.468 325.307C133.55 325.633 133.713 326.04 133.794 326.366C136.892 335.33 145.698 354.398 142.681 367.437C146.35 368.007 145.616 359.451 146.024 355.784C146.513 351.872 142.926 339.323 143.17 337.856Z" fill="#EF857F"/>
<path d="M133.794 326.366C133.631 325.959 133.55 325.633 133.468 325.307C129.881 327.425 126.946 332.396 124.337 336.063C120.749 341.116 116.754 358.473 120.423 361.325C124.092 364.177 125.804 378.275 125.804 378.275C133.468 382.105 144.067 377.949 144.067 377.949C138.442 375.504 137.056 364.992 137.056 364.992C137.056 364.992 137.056 364.992 141.703 367.192C142.029 367.355 142.355 367.437 142.6 367.437C145.698 354.398 136.892 335.33 133.794 326.366Z" fill="#FF9C94"/>
<path d="M131.267 651.836L129.065 665.363C129.065 665.363 133.142 669.437 138.197 667.563C138.197 667.563 135.343 679.216 151.405 677.912C167.467 676.69 176.517 675.386 176.517 675.386C176.517 675.386 190.378 671.312 190.622 670.008C190.867 668.704 191.274 663.733 182.469 662.755C173.663 661.777 165.836 658.355 165.836 658.355L151.079 651.428L131.267 651.836Z" fill="#CC5858"/>
<path d="M162.086 635.619C158.906 615.899 152.057 604.572 158.662 595.119C165.266 585.666 152.384 556.737 159.151 542.232C163.961 532.046 161.515 506.295 158.988 490.812L128.087 492.197C128.087 492.197 126.864 514.851 128.413 521.452C129.962 528.053 131.593 546.551 131.838 561.953C132.164 577.354 131.838 636.434 129.636 639.857C127.435 643.279 129.636 647.68 129.636 648.983C129.636 650.287 129.636 655.91 129.636 655.91C129.636 655.91 131.838 661.288 139.991 657.132C139.991 657.132 141.866 664.711 152.547 663.407C152.71 663.407 152.873 663.326 153.036 663.326C157.846 658.11 164.124 648.332 162.086 635.619Z" fill="#195266"/>
<path d="M171.462 622.01C171.136 615.41 170.484 607.261 170.484 607.261C170.484 607.261 184.344 508.006 184.018 502.058C183.692 496.109 182.795 489.834 182.795 489.834L158.988 490.894C161.515 506.377 163.961 532.127 159.151 542.314C152.302 556.737 165.184 585.666 158.662 595.2C152.057 604.653 158.906 615.98 162.086 635.701C164.124 648.413 157.846 658.192 153.117 663.489C163.309 662.266 165.51 661.044 167.059 659.496C168.609 657.947 168.935 649.717 169.587 647.272C170.239 644.746 172.441 642.546 171.788 637.249C171.136 631.789 171.788 628.611 171.462 622.01Z" fill="#114351"/>
<path d="M140.072 657.214C140.072 657.214 146.35 640.101 145.046 631.708C143.741 623.314 142.437 614.595 143.17 607.016C143.986 599.356 146.35 564.642 145.535 556.493C144.72 548.344 142.926 524.712 141.621 526.016C140.317 527.32 142.681 559.427 141.377 564.397C140.072 569.368 138.197 574.665 138.768 583.303C139.257 591.941 135.914 613.047 136.892 621.44C137.871 629.834 141.947 633.012 140.072 657.214Z" fill="#114351"/>
<path d="M142.355 407.611C138.034 399.544 140.398 388.461 144.801 377.949C142.763 377.541 140.969 377.216 139.665 376.971C133.713 375.749 124.907 374.119 124.907 374.119C124.907 374.119 112.922 378.927 110.068 384.55C107.215 390.172 105.666 399.299 109.416 405.574C113.167 411.849 121.646 424.398 122.298 445.748C122.951 467.099 119.771 496.679 119.771 496.679C119.771 496.679 127.353 512.081 146.187 508.006C148.715 507.436 150.998 507.028 153.036 506.703C181.572 454.794 153.117 427.495 142.355 407.611Z" fill="#56A0BA"/>
<path d="M187.524 499.531L181.898 434.177C181.898 434.177 171.87 397.751 167.793 389.276C164.532 382.594 152.71 379.579 144.964 378.031C140.48 388.543 138.197 399.625 142.518 407.693C153.199 427.576 181.735 454.794 153.362 506.703C166.815 504.421 171.462 505.562 176.354 503.932C181.817 501.976 187.524 499.531 187.524 499.531Z" fill="#418899"/>
<path d="M321.237 701.055C321.237 701.055 320.421 707.738 319.688 710.997C318.954 714.257 319.851 717.109 319.851 717.109C319.851 717.109 325.232 721.591 333.548 716.946C341.864 712.301 349.773 709.938 352.871 708.226C355.969 706.434 355.806 703.745 353.605 703.174C351.322 702.604 343.169 701.952 340.886 700.078C338.603 698.122 337.951 693.721 335.342 695.351C332.814 696.981 334.771 698.448 334.771 698.448C334.771 698.448 328.819 706.434 326.699 704.233C324.58 702.033 325.232 700.892 321.237 701.055Z" fill="#114351"/>
<path d="M298.082 479.404L285.526 486.086C285.526 486.086 274.6 499.45 277.535 522.919C280.471 546.388 287.156 561.464 286.749 573.606C286.341 585.748 294.739 610.846 294.739 610.846C294.739 610.846 308.599 692.499 321.563 700.078C321.563 700.078 330.776 702.604 332.896 691.684C332.896 691.684 319.932 632.604 324.498 603.757C329.145 574.828 322.786 503.199 322.786 503.199L298.082 479.404Z" fill="#BF5151"/>
<path d="M304.93 630.893C309.659 610.357 314.388 588.274 324.661 557.552C330.776 539.298 327.433 508.088 323.683 485.597L285.444 485.271C261.148 527.971 300.528 523.815 300.528 523.815C291.314 538.891 298.408 603.838 298.408 603.838C269.871 642.79 296.288 710.264 296.288 710.264C297.592 710.997 298.815 711.323 299.875 711.323C293.597 689.402 300.772 648.902 304.93 630.893Z" fill="#CC5858"/>
<path d="M335.342 485.678L323.683 485.597C327.433 508.006 330.776 539.298 324.661 557.552C314.388 588.355 309.659 610.439 304.93 630.893C300.772 648.902 293.597 689.402 299.875 711.323C305.664 711.567 308.028 703.5 308.028 703.5C303.87 686.306 316.019 620.951 316.019 620.951C318.954 620.136 321.889 608.809 324.824 599.601C327.759 590.392 335.749 548.099 338.195 531.72C340.804 515.422 335.342 485.678 335.342 485.678Z" fill="#BC4646"/>
<path d="M295.962 713.768C295.962 713.768 294.739 723.221 293.679 727.784C292.619 732.429 293.923 736.34 293.923 736.34C293.923 736.34 301.914 742.615 314.225 736.096C326.618 729.577 338.358 726.236 342.924 723.709C347.572 721.183 347.327 717.435 343.984 716.62C340.641 715.805 328.493 714.909 325.15 712.219C321.807 709.53 320.747 703.174 316.997 705.537C313.247 707.819 316.182 709.938 316.182 709.938C316.182 709.938 307.376 721.265 304.278 718.087C300.935 714.99 301.832 713.523 295.962 713.768Z" fill="#195266"/>
<path d="M288.787 463.92L285.444 486.086C285.444 486.086 313.98 505.317 335.342 485.678C335.342 485.678 333.222 466.447 335.749 455.12L288.787 463.92Z" fill="#56A0BA"/>
<path d="M410.759 304.282C410.759 304.282 412.879 287.577 414.999 286.11C417.118 284.643 426.005 275.109 426.413 277.554C426.739 280.08 422.5 283.258 422.5 285.377C422.5 287.495 427.881 288.555 427.473 291.407C427.147 294.259 419.646 306.401 419.646 306.401L410.759 304.282Z" fill="#FF9C94"/>
<path d="M331.021 392.617C333.385 383.164 383.935 361.814 395.757 357.902C402.443 355.702 413.694 327.425 422.255 303.304C418.912 298.823 410.433 300.126 410.433 300.126C410.433 300.126 394.534 327.751 389.887 334.433C385.239 341.116 343.821 365.4 343.821 365.4C340.886 362.466 338.358 364.177 331.265 367.926C324.172 371.674 296.695 373.141 296.695 373.141C286.83 371.267 269.219 377.542 267.589 380.883C265.958 384.224 266.773 397.669 267.996 402.64C269.219 407.693 286.015 422.768 286.015 422.768C288.542 436.133 283.08 469.299 283.08 469.299C290.254 473.373 297.429 475.166 304.196 475.736C334.2 457.157 328.901 401.011 331.021 392.617Z" fill="#195266"/>
<path d="M395.757 357.902C383.935 361.814 333.385 383.164 331.021 392.617C328.901 400.929 334.2 457.157 304.115 475.736C323.927 477.203 339.989 467.262 339.989 467.262C339.989 467.262 348.387 409.893 350.425 399.788C352.545 389.765 396.98 365.481 402.769 360.836C408.639 356.191 422.907 311.372 422.907 311.372C423.967 307.542 423.478 304.934 422.173 303.223C413.694 327.425 402.443 355.702 395.757 357.902Z" fill="#114351"/>
<path d="M301.261 334.759C301.18 334.433 301.098 334.108 301.098 333.863C298 334.026 295.473 335.248 295.962 339.323C298.082 355.458 293.027 373.467 293.027 373.467C295.554 375.423 300.446 375.586 305.012 375.097C305.175 368.089 305.256 350.324 301.261 334.759Z" fill="#FF9C94"/>
<path d="M315.122 371.919C305.419 362.221 310.393 335.493 310.393 335.493C310.393 335.493 305.256 333.619 301.017 333.782C301.098 334.107 301.098 334.352 301.18 334.678C305.175 350.324 305.093 368.007 304.849 375.015C310.637 374.363 315.856 372.652 315.122 371.919Z" fill="#EF857F"/>
<path d="M317.812 338.508C316.834 348.613 313.41 356.517 310.719 356.273C308.028 356.028 307.132 347.716 308.028 337.612C309.007 327.507 311.942 319.602 314.633 319.847C317.323 320.01 318.709 328.403 317.812 338.508Z" fill="#FF9C94"/>
<path d="M162.983 386.424C163.961 386.75 181.817 411.849 184.67 416.901C187.524 421.953 190.296 428.228 188.747 430.428C187.198 432.628 180.268 438.903 180.268 438.903C180.268 438.903 154.177 427.576 153.851 425.376C153.607 423.176 162.983 386.424 162.983 386.424Z" fill="#418899"/>
<path d="M180.594 410.3C180.594 410.3 187.524 409.974 190.622 414.701C193.72 419.427 196.574 428.554 188.095 430.102C188.095 430.102 183.04 432.303 183.04 426.68C183.121 420.975 180.594 410.3 180.594 410.3Z" fill="#FF9C94"/>
<path d="M291.559 337.938C288.95 330.033 296.288 324.818 304.686 318.462C307.702 316.18 308.273 312.513 307.784 308.846C307.621 308.764 307.458 308.601 307.213 308.52C301.75 305.179 291.314 308.112 289.195 311.046C287.075 313.98 283.732 323.188 283.732 323.188C283.732 323.188 288.053 337.856 288.379 343.723C290.825 341.686 292.13 339.73 291.559 337.938Z" fill="#542727"/>
<path d="M307.784 308.846C308.273 312.594 307.702 316.18 304.686 318.461C296.288 324.736 288.868 330.033 291.559 337.938C292.13 339.73 290.825 341.686 288.379 343.642C288.379 344.131 288.379 344.538 288.379 344.864C287.972 349.509 293.842 352.85 295.962 355.784C298.082 358.717 302.647 356.599 306.887 356.191C311.045 355.784 316.1 345.761 316.1 339.404C316.1 333.13 316.508 331.011 316.508 323.921C316.508 317.158 312.92 312.187 307.784 308.846Z" fill="#472020"/>
<path d="M315.448 342.582C316.393 342.582 317.16 340.795 317.16 338.589C317.16 336.384 316.393 334.596 315.448 334.596C314.502 334.596 313.736 336.384 313.736 338.589C313.736 340.795 314.502 342.582 315.448 342.582Z" fill="#FF9C94"/>
<path d="M142.518 334.27C142.518 334.27 147.166 328.892 142.763 324.899C138.36 320.906 139.828 316.261 133.55 317.484C127.272 318.706 122.135 315.609 116.346 319.276C110.558 322.862 112.759 325.796 108.438 330.848C104.117 335.9 101.589 334.189 103.22 338.997C104.85 343.723 103.383 342.582 104.361 347.961C105.34 353.339 109.09 357.414 110.558 358.473C112.025 359.614 110.313 361.162 112.188 362.955C114.063 364.666 113.574 362.547 115.776 364.911C117.977 367.192 124.826 366.296 124.826 366.296C124.826 366.296 124.5 357.251 126.538 355.621C128.576 353.991 129.228 345.516 129.228 345.516C129.228 345.516 134.12 344.375 134.365 342.501C134.691 340.708 140.398 334.922 142.518 334.27Z" fill="#114351"/>
<path d="M128.554 352.433C130.938 352.312 132.733 349.517 132.563 346.191C132.394 342.865 130.325 340.267 127.942 340.388C125.558 340.509 123.763 343.303 123.932 346.63C124.102 349.956 126.171 352.554 128.554 352.433Z" fill="#FF9C94"/>
<path d="M284.792 342.99C284.058 331.011 286.749 323.188 292.374 318.136C292.619 317.891 292.945 317.647 293.271 317.484C289.847 316.261 285.363 317.239 281.938 320.417C277.209 324.818 274.926 331.744 275.579 342.257C276.476 357.006 261.8 374.934 283.243 381.86C274.6 372.082 285.607 356.354 284.792 342.99Z" fill="#542727"/>
<path d="M291.07 354.235C296.614 345.597 299.875 333.13 298.571 324.41C298 320.743 295.962 318.461 293.19 317.565C292.863 317.81 292.619 317.973 292.293 318.217C286.667 323.188 283.895 331.092 284.71 343.071C285.526 356.436 274.6 372.163 283.243 381.942C285.363 382.594 287.808 383.164 290.662 383.653C290.662 383.572 281.449 369.311 291.07 354.235Z" fill="#472020"/>
</svg>
