<svg xmlns="http://www.w3.org/2000/svg" xmlns:xlink="http://www.w3.org/1999/xlink" viewBox="0 0 841.89 498.27"><defs><style>.cls-1{fill:none;}.cls-2,.cls-3,.cls-4,.cls-5{opacity:0.48;}.cls-2{fill:url(#Naamloos_verloop_53);}.cls-3{fill:url(#Naamloos_verloop_53-2);}.cls-4{fill:url(#Naamloos_verloop_53-3);}.cls-5{fill:url(#Naamloos_verloop_53-4);}.cls-6{fill:#73b4d8;}.cls-7{fill:url(#Naamloos_verloop_90);}.cls-8{fill:url(#Naamloos_verloop_90-2);}.cls-17,.cls-9{fill:#e8366b;}.cls-10{fill:#fff;}.cls-11{fill:#cbe7f4;}.cls-12{fill:url(#Naamloos_verloop_90-3);}.cls-13{clip-path:url(#clip-path);}.cls-14{clip-path:url(#clip-path-2);}.cls-15{clip-path:url(#clip-path-3);}.cls-16{fill:url(#Naamloos_verloop_90-4);}.cls-17,.cls-19,.cls-20{opacity:0.5;}.cls-18{fill:#611831;}.cls-19{fill:url(#Naamloos_verloop_105);}.cls-20{fill:url(#Naamloos_verloop_102);}</style><linearGradient id="Naamloos_verloop_53" x1="274.27" y1="27.22" x2="278.87" y2="275.42" gradientUnits="userSpaceOnUse"><stop offset="0.46" stop-color="#e8366b"/><stop offset="0.54" stop-color="#e8396d" stop-opacity="0.98"/><stop offset="0.61" stop-color="#e84273" stop-opacity="0.93"/><stop offset="0.68" stop-color="#e8517e" stop-opacity="0.85"/><stop offset="0.75" stop-color="#e8658c" stop-opacity="0.73"/><stop offset="0.81" stop-color="#e8809f" stop-opacity="0.58"/><stop offset="0.88" stop-color="#e8a1b6" stop-opacity="0.4"/><stop offset="0.95" stop-color="#e8c7d1" stop-opacity="0.18"/><stop offset="1" stop-color="#e8e8e8" stop-opacity="0"/></linearGradient><linearGradient id="Naamloos_verloop_53-2" x1="625.91" y1="-5.4" x2="631.66" y2="304.73" xlink:href="#Naamloos_verloop_53"/><linearGradient id="Naamloos_verloop_53-3" x1="225.04" y1="256.35" x2="228.95" y2="467.33" xlink:href="#Naamloos_verloop_53"/><linearGradient id="Naamloos_verloop_53-4" x1="634.89" y1="260.49" x2="639.21" y2="493.73" xlink:href="#Naamloos_verloop_53"/><linearGradient id="Naamloos_verloop_90" x1="532.11" y1="89.66" x2="561.34" y2="64.66" gradientUnits="userSpaceOnUse"><stop offset="0.46" stop-color="#73b4d8"/><stop offset="0.6" stop-color="#6fb1d6"/><stop offset="0.72" stop-color="#64aad0"/><stop offset="0.85" stop-color="#509dc6"/><stop offset="0.97" stop-color="#368ab8"/><stop offset="1" stop-color="#2f86b5"/></linearGradient><linearGradient id="Naamloos_verloop_90-2" x1="588.94" y1="175.72" x2="623.01" y2="146.58" xlink:href="#Naamloos_verloop_90"/><linearGradient id="Naamloos_verloop_90-3" x1="239.73" y1="206.49" x2="274.53" y2="176.72" xlink:href="#Naamloos_verloop_90"/><clipPath id="clip-path"><rect class="cls-1" x="579.51" y="313.22" width="136.48" height="92.9"/></clipPath><clipPath id="clip-path-2"><rect class="cls-1" x="524.86" y="359.67" width="39.41" height="72.01"/></clipPath><clipPath id="clip-path-3"><rect class="cls-1" x="692.45" y="344.31" width="74.89" height="104.28" rx="3.41"/></clipPath><linearGradient id="Naamloos_verloop_90-4" x1="472.87" y1="255.61" x2="511.48" y2="222.58" xlink:href="#Naamloos_verloop_90"/><linearGradient id="Naamloos_verloop_105" x1="372.88" y1="349.18" x2="423.61" y2="352.35" gradientUnits="userSpaceOnUse"><stop offset="0"/><stop offset="0.86" stop-color="#6d1932" stop-opacity="0.53"/><stop offset="1" stop-color="#e8366b" stop-opacity="0"/></linearGradient><linearGradient id="Naamloos_verloop_102" x1="406.03" y1="304.15" x2="411.02" y2="253.72" gradientUnits="userSpaceOnUse"><stop offset="0.37" stop-color="#1d1d1b"/><stop offset="0.7" stop-color="#2b1f21" stop-opacity="0.93"/><stop offset="0.85" stop-color="#5e2535" stop-opacity="0.68"/><stop offset="0.96" stop-color="#b53057" stop-opacity="0.25"/><stop offset="1" stop-color="#e8366b" stop-opacity="0"/></linearGradient></defs><title>illustratie_3</title><g id="Background_details" data-name="Background details"><path class="cls-2" d="M334.92,130.17c-32-46.29-75.06-14-110.34-1.24-13.87.33-41-10.73-55.61,10C158.85,164.28,152,253.64,183.45,255c41.64,18.62,47.91-17.47,85.7-22.78C367.94,240.84,457.12,189.66,334.92,130.17Z"/><path class="cls-3" d="M713.11,109.44c-19.79-13.32-44.66-16.93-68.5-16.25-15.89.46-35,5.21-39.59,20.42-3.2,10.51,2.11,21.55,2.86,32.51,1.1,16-8.76,32.21-23.5,38.58-17.27,7.48-38,1.88-55.43,8.83a40.82,40.82,0,0,0-16.54,63.73c11.45,14,30.53,18.83,48.33,22.15,30.36,5.67,63,9.21,91.11-3.53,6.32-2.86,12.33-6.51,19-8.54,15.07-4.62,31.25-.41,47,0s34.29-5.59,38.7-20.72c4.9-16.81-10.41-32.51-13.53-49.73-2.76-15.22,1.28-31-1.89-46.55C737.72,133.68,727.11,118.86,713.11,109.44Z"/><path class="cls-4" d="M204.34,324.54c15.74-2,34.43-.14,43.13,13.13,4.07,6.23,5.42,14.33,11,19.25,6.92,6.1,17.61,4.9,26.29,1.77s17.13-7.91,26.36-7.86c4.25,0,8.73,1.23,11.62,4.36s3.74,7.64,4.21,11.89c1.17,10.75-.11,23.39-9.05,29.46-9.55,6.47-24.28,2.81-32.16,11.23s-3.11,22.79-8.22,33.19c-3.45,7-11.27,11.29-19.09,11.78s-15.55-2.39-22.13-6.64c-8.22-5.32-15.23-12.94-24.6-15.79-12.36-3.76-25.39,1.67-37.61,5.87S147.11,443,137,435c-7.84-6.25-10.31-17.44-8.7-27.34s6.62-18.86,11.56-27.59c7.73-13.7,12.79-30.68,25.39-40.69C176.26,330.6,190.6,326.31,204.34,324.54Z"/><path class="cls-5" d="M634.45,377.05a107.38,107.38,0,0,1-40,14.84c-12.38,1.91-25.25,1.69-37,6-18.94,7-32.79,29.8-24.29,48.11,6.43,13.85,22.72,20.46,37.94,21.52s30.47-2.12,45.72-1.72c18.84.5,37.05,6.41,55.63,9.54s38.9,3.16,54.78-7,24.44-33.23,13.67-48.69c-6-8.64-16.69-13.51-21.56-22.84-7.63-14.62,2-34.09-6.29-48.38-7.21-12.51-24.17-14.68-38.61-14.34-15.37.36-13.72,5.56-17.59,17.33C653.21,362.46,644,371.1,634.45,377.05Z"/></g><g id="Background"><path class="cls-6" d="M581.9,207.58h-2v-1h2Zm-4,0h-2v-1h2Zm-4,0h-2v-1h2Zm-4,0h-2v-1h2Zm-4,0h-2v-1h2Zm-4,0h-2v-1h2Zm-4,0h-2v-1h2Zm-4,0h-2v-1h2Zm-4,0h-2v-1h2Zm-4,0h-2v-1h2Zm-4,0h-2v-1h2Zm-4,0h-2v-1h2Zm-4,0h-2v-1h2Zm-4,0h-2v-1h2Zm-4,0h-2v-1h2Zm-4,0h-2v-1h2Zm-4,0h-2v-1h2Zm-4,0h-2v-1h2Zm-4,0h-2v-1h2Zm-4,0h-2v-1h2Zm-4,0h-1.32v-1.67h1v.67h.32Zm81.21-1.79h-1v-2h1Zm-81.53-1.88h-1v-2h1Zm81.53-2.12h-1v-2h1Zm-81.53-1.88h-1v-2h1Zm81.53-2.12h-1v-2h1Zm-81.53-1.88h-1v-2h1Zm81.53-2.12h-1v-2h1Zm-81.53-1.88h-1v-2h1Zm81.53-2.12h-1v-2h1Zm-81.53-1.88h-1v-2h1Zm81.53-2.12h-1v-2h1Zm-81.53-1.88h-1v-2h1Zm81.53-2.12h-1v-2h1Zm-81.53-1.88h-1v-2h1Zm81.53-2.12h-1v-2h1Zm-81.53-1.88h-1v-2h1Zm81.53-2.12h-1v-2h1Zm-81.53-1.88h-1v-2h1Zm81.53-2.12h-1v-2h1Zm-81.53-1.88h-1v-2h1Zm81.53-2.12h-1v-2h1Zm-81.53-1.88h-1v-2h1Zm81.53-2.12h-1v-2h1Zm-81.53-1.88h-1v-2h1Zm81.53-2.12h-1v-2h1Zm-81.53-1.88h-1v-2h1Zm81.53-2.12h-1v-2h1Zm-81.53-1.88h-1v-2h1Zm81.53-2.12h-1v-2h1Zm-81.53-1.88h-1v-2h1Zm81.53-2.12h-1v-2h1Zm-81.53-1.88h-1v-2h1Zm81.53-2.12h-1v-2h1Zm-81.53-1.88h-1v-2h1Zm81.53-2.12h-1v-2h1Zm-81.53-1.88h-1v-2h1Zm81.53-2.12h-1v-2h1Zm-81.53-1.88h-1v-2h1Zm81-2.09h-1.53v-1h2v1Zm-3.53,0h-2v-1h2Zm-4,0h-2v-1h2Zm-4,0h-2v-1h2Zm-4,0h-2v-1h2Zm-4,0h-2v-1h2Zm-4,0h-2v-1h2Zm-4,0h-2v-1h2Zm-4,0h-2v-1h2Zm-4,0h-2v-1h2Zm-4,0h-2v-1h2Zm-4,0h-2v-1h2Zm-4,0h-2v-1h2Zm-4,0h-2v-1h2Zm-4,0h-2v-1h2Zm-4,0h-2v-1h2Zm-4,0h-2v-1h2Zm-4,0h-2v-1h2Zm-4,0h-2v-1h2Zm-4,0h-2v-1h2Zm-4,0h-2v-1h2Z"/><circle class="cls-7" cx="550" cy="74.36" r="18.57"/><circle class="cls-8" cx="609.79" cy="157.89" r="21.65"/><rect class="cls-9" x="147.79" y="68.93" width="72.47" height="84.7"/><path class="cls-9" d="M147.79,68.93v57.92a33.57,33.57,0,0,1,7-3.4c7.36-2.55,15.35-2.67,22.83-4.82a43.72,43.72,0,0,0,24.6-18.46c5-7.92,7.71-17.78,15.29-23.29a19.88,19.88,0,0,1,2.78-1.67V68.93Z"/><path class="cls-10" d="M200.79,101.26a40.37,40.37,0,0,1-22.71,17c-6.9,2-14.28,2.09-21.07,4.45a30.48,30.48,0,0,0-6.44,3.14v24.71h66.91V78.22a18.79,18.79,0,0,0-2.57,1.54C207.91,84.85,205.41,94,200.79,101.26Z"/><circle class="cls-10" cx="164.1" cy="84.78" r="10.42"/><rect class="cls-9" x="89.36" y="99.73" width="46.2" height="30.8"/><rect class="cls-9" x="89.36" y="141.85" width="46.2" height="76.55"/><rect class="cls-9" x="150.57" y="165.4" width="102.3" height="14.72" rx="5.37"/><rect class="cls-9" x="150.57" y="186.69" width="102.3" height="14.72" rx="5.37"/><path class="cls-11" d="M312.88,168a306.35,306.35,0,0,1-1.15,35.86,188.15,188.15,0,0,0,16.33-14.13S324.37,178.45,312.88,168Z"/><path class="cls-11" d="M194,189.73a86.17,86.17,0,0,0,16.46,18.62,112.85,112.85,0,0,1-6.1-36.7C195.77,180.91,194,189.73,194,189.73Z"/><path class="cls-6" d="M312.88,168c-10.6-9.64-27.85-18.57-55-17.26-28.69,1.4-44.69,11.39-53.5,20.91a112.85,112.85,0,0,0,6.1,36.7c18.94,16.23,53.69,32,101.28-4.49A306.35,306.35,0,0,0,312.88,168Z"/><circle class="cls-10" cx="261.03" cy="188.27" r="33.41"/><circle class="cls-11" cx="261.03" cy="188.27" r="31.13"/><circle class="cls-12" cx="261.03" cy="188.27" r="22.11"/><circle class="cls-10" cx="276.78" cy="172.76" r="10.59"/><circle class="cls-11" cx="266.19" cy="126.85" r="11.37"/><circle class="cls-11" cx="145.26" cy="289.68" r="11.37"/><circle class="cls-11" cx="290.01" cy="141.85" r="4.42"/><circle class="cls-11" cx="311.73" cy="154.87" r="6.91"/><circle class="cls-11" cx="685.88" cy="232.44" r="6.91"/><circle class="cls-11" cx="328.06" cy="161.78" r="4.38"/><circle class="cls-11" cx="232.94" cy="130.53" r="4.3"/><circle class="cls-11" cx="695.77" cy="252.44" r="4.3"/><circle class="cls-11" cx="242" cy="114.42" r="2.62"/><circle class="cls-11" cx="317.67" cy="453.68" r="11.37"/><circle class="cls-11" cx="284.43" cy="457.36" r="4.3"/><circle class="cls-11" cx="293.48" cy="441.25" r="2.62"/><circle class="cls-11" cx="713.38" cy="235.15" r="2.62"/><circle class="cls-11" cx="116.39" cy="290.86" r="4.3"/><circle class="cls-11" cx="125.45" cy="274.76" r="2.62"/><path class="cls-6" d="M236.8,69.73H241l9.93,27.18h-5.67l-2-5.76h-8.87l-1.9,5.76h-5.54Zm1.94,7.91L236,86.08h5.58Z"/><path class="cls-6" d="M261,78.22h2.86l6.83,18.69h-3.91l-1.35-4h-6.09l-1.31,4h-3.82Zm1.33,5.44-1.91,5.8h3.84Z"/><path class="cls-10" d="M130.13,106.11H93.89a.5.5,0,0,1-.5-.5.51.51,0,0,1,.5-.5h36.24a.51.51,0,0,1,.5.5A.5.5,0,0,1,130.13,106.11Z"/><path class="cls-10" d="M130.13,112.15H93.89a.5.5,0,0,1-.5-.5.51.51,0,0,1,.5-.5h36.24a.51.51,0,0,1,.5.5A.5.5,0,0,1,130.13,112.15Z"/><path class="cls-10" d="M130.13,118.19H93.89a.5.5,0,0,1-.5-.5.51.51,0,0,1,.5-.5h36.24a.51.51,0,0,1,.5.5A.5.5,0,0,1,130.13,118.19Z"/><path class="cls-10" d="M130.13,124.23H93.89a.5.5,0,0,1,0-1h36.24a.5.5,0,0,1,0,1Z"/><path class="cls-10" d="M130.13,146.31H93.89a.51.51,0,0,1-.5-.5.5.5,0,0,1,.5-.5h36.24a.5.5,0,0,1,.5.5A.51.51,0,0,1,130.13,146.31Z"/><path class="cls-10" d="M130.13,152.35H93.89a.51.51,0,0,1-.5-.5.5.5,0,0,1,.5-.5h36.24a.5.5,0,0,1,.5.5A.51.51,0,0,1,130.13,152.35Z"/><path class="cls-10" d="M130.13,158.39H93.89a.51.51,0,0,1-.5-.5.5.5,0,0,1,.5-.5h36.24a.5.5,0,0,1,.5.5A.51.51,0,0,1,130.13,158.39Z"/><path class="cls-10" d="M130.13,164.42H93.89a.5.5,0,0,1-.5-.5.51.51,0,0,1,.5-.5h36.24a.51.51,0,0,1,.5.5A.5.5,0,0,1,130.13,164.42Z"/><path class="cls-10" d="M130.13,171.56H93.89a.5.5,0,0,1-.5-.5.51.51,0,0,1,.5-.5h36.24a.51.51,0,0,1,.5.5A.5.5,0,0,1,130.13,171.56Z"/><path class="cls-10" d="M130.13,177.6H93.89a.5.5,0,0,1-.5-.5.51.51,0,0,1,.5-.5h36.24a.51.51,0,0,1,.5.5A.5.5,0,0,1,130.13,177.6Z"/><path class="cls-10" d="M130.13,183.64H93.89a.5.5,0,1,1,0-1h36.24a.5.5,0,0,1,0,1Z"/><path class="cls-10" d="M130.13,189.68H93.89a.5.5,0,1,1,0-1h36.24a.5.5,0,0,1,0,1Z"/><path class="cls-10" d="M130.58,195.72H94.35a.5.5,0,0,1,0-1h36.23a.5.5,0,0,1,0,1Z"/><path class="cls-10" d="M130.58,201.76H94.35a.5.5,0,0,1-.5-.5.5.5,0,0,1,.5-.5h36.23a.5.5,0,0,1,.5.5A.5.5,0,0,1,130.58,201.76Z"/><rect class="cls-6" x="89.36" y="305.81" width="62.66" height="41.77"/><rect class="cls-6" x="89.36" y="362.93" width="62.66" height="103.81"/><path class="cls-10" d="M144.65,314.29H95.51a.5.5,0,0,1-.5-.5.5.5,0,0,1,.5-.5h49.14a.51.51,0,0,1,.5.5A.5.5,0,0,1,144.65,314.29Z"/><path class="cls-10" d="M144.65,322.48H95.51a.5.5,0,0,1-.5-.5.5.5,0,0,1,.5-.5h49.14a.51.51,0,0,1,.5.5A.5.5,0,0,1,144.65,322.48Z"/><path class="cls-10" d="M144.65,330.67H95.51a.5.5,0,0,1-.5-.5.5.5,0,0,1,.5-.5h49.14a.51.51,0,0,1,.5.5A.5.5,0,0,1,144.65,330.67Z"/><path class="cls-10" d="M144.65,338.86H95.51a.5.5,0,0,1-.5-.5.5.5,0,0,1,.5-.5h49.14a.51.51,0,0,1,.5.5A.5.5,0,0,1,144.65,338.86Z"/><path class="cls-10" d="M144.65,368.8H95.51a.5.5,0,0,1-.5-.5.5.5,0,0,1,.5-.5h49.14a.51.51,0,0,1,.5.5A.5.5,0,0,1,144.65,368.8Z"/><path class="cls-10" d="M144.65,377H95.51a.5.5,0,0,1-.5-.5.5.5,0,0,1,.5-.5h49.14a.51.51,0,0,1,.5.5A.5.5,0,0,1,144.65,377Z"/><path class="cls-10" d="M144.65,385.18H95.51a.5.5,0,0,1-.5-.5.5.5,0,0,1,.5-.5h49.14a.51.51,0,0,1,.5.5A.5.5,0,0,1,144.65,385.18Z"/><path class="cls-10" d="M144.65,403.05H95.51a.5.5,0,0,1-.5-.5.5.5,0,0,1,.5-.5h49.14a.51.51,0,0,1,.5.5A.5.5,0,0,1,144.65,403.05Z"/><path class="cls-10" d="M144.65,411.24H95.51a.5.5,0,0,1-.5-.5.5.5,0,0,1,.5-.5h49.14a.51.51,0,0,1,.5.5A.5.5,0,0,1,144.65,411.24Z"/><path class="cls-10" d="M144.65,419.43H95.51a.5.5,0,0,1-.5-.5.5.5,0,0,1,.5-.5h49.14a.51.51,0,0,1,.5.5A.5.5,0,0,1,144.65,419.43Z"/><path class="cls-10" d="M144.65,427.62H95.51a.5.5,0,0,1-.5-.5.5.5,0,0,1,.5-.5h49.14a.51.51,0,0,1,.5.5A.5.5,0,0,1,144.65,427.62Z"/><path class="cls-10" d="M145.26,435.82H96.12a.5.5,0,0,1-.5-.5.5.5,0,0,1,.5-.5h49.14a.5.5,0,0,1,.5.5A.5.5,0,0,1,145.26,435.82Z"/><path class="cls-10" d="M145.26,444H96.12a.5.5,0,0,1-.5-.5.5.5,0,0,1,.5-.5h49.14a.5.5,0,0,1,.5.5A.5.5,0,0,1,145.26,444Z"/><path class="cls-10" d="M130.58,207.8H94.35a.5.5,0,0,1-.5-.5.5.5,0,0,1,.5-.5h36.23a.5.5,0,0,1,.5.5A.5.5,0,0,1,130.58,207.8Z"/><path class="cls-10" d="M130.58,213.84H94.35a.5.5,0,0,1-.5-.5.5.5,0,0,1,.5-.5h36.23a.5.5,0,0,1,.5.5A.5.5,0,0,1,130.58,213.84Z"/><path class="cls-9" d="M215.57,281.06s17.22,5,17.09,22.31c0,0,4.13-21.79,19.41-21.68,0,0-18.25-2.75-18.67-24.39C233.4,257.3,229.7,280.82,215.57,281.06Z"/><path class="cls-9" d="M192.74,306.73s8.95,2.59,8.88,11.6c0,0,2.15-11.32,10.09-11.27,0,0-9.48-1.43-9.7-12.67C202,294.39,200.09,306.61,192.74,306.73Z"/><path class="cls-9" d="M236.29,373.17a18.08,18.08,0,0,0-7.94-25.45,18.16,18.16,0,0,0-17.74-14.33,17.93,17.93,0,0,0-8.16,2,18.1,18.1,0,0,0-25.86-12.29,18.13,18.13,0,0,0-28.81,1.08,18.1,18.1,0,0,0-20.32,11.53,18.12,18.12,0,0,0-20.58,28,18.12,18.12,0,0,0,14.55,32.84,18.13,18.13,0,0,0,31.49,7.26,18.14,18.14,0,0,0,30.09,3,18.1,18.1,0,0,0,10.89,6.36c.26,3.56-.29,7.31-3.25,10.27-7.7,7.7,0,24,0,24,3.63,3.17,8.15,0,8.15,0s-10.41-20.83,17.22-34c11.48-5.46,16.91-13.34,19.35-20.68a18,18,0,0,0,.92-19.58Z"/><path class="cls-10" d="M135.75,354s0,14.38-12.44,14.06c12.64,1.38,12.44,14.61,12.44,14.61S137,368.3,147.81,368.3C137.28,368.3,135.75,354,135.75,354Z"/><path class="cls-10" d="M172.05,339.63s0,14.39-12.44,14.06c12.63,1.39,12.44,14.61,12.44,14.61S173.26,354,184.11,354C173.58,354,172.05,339.63,172.05,339.63Z"/><path class="cls-10" d="M187,368.3s0,14.39-12.45,14.06C187.15,383.75,187,397,187,397s1.2-14.33,12.06-14.33C188.49,382.64,187,368.3,187,368.3Z"/><rect class="cls-6" x="226.31" y="329.22" width="30.83" height="2" transform="translate(-138 177.64) rotate(-31.9)"/><rect class="cls-6" x="221.02" y="436.43" width="2" height="30.83" transform="translate(-205.23 185.55) rotate(-31.9)"/><rect class="cls-6" x="253.82" y="404.72" width="2" height="30.83" transform="translate(-234.01 370.14) rotate(-52.92)"/><rect class="cls-6" x="250.77" y="373.6" width="30.83" height="2" transform="translate(-44.08 35.61) rotate(-7.07)"/><path class="cls-6" d="M320.55,366.67c-.67,0-1.34,0-2-.05l.05-1c.66,0,1.32.05,2,.05Zm2,0-.05-1c.66,0,1.32-.07,2-.13l.08,1C323.92,366.56,323.25,366.6,322.58,366.63Zm-6.07-.15c-.67-.06-1.34-.14-2-.23l.14-1c.65.09,1.31.17,2,.23Zm10.09-.21-.13-1c.65-.09,1.3-.19,1.95-.31l.18,1C327.94,366.07,327.28,366.18,326.6,366.27Zm-14.1-.33c-.66-.12-1.32-.26-2-.41l.23-1c.64.14,1.29.27,1.93.39Zm18.08-.41-.23-1c.64-.16,1.28-.33,1.91-.52l.28,1C331.9,365.2,331.24,365.37,330.58,365.53Zm-22-.5c-.66-.18-1.3-.37-1.94-.58l.31-.95,1.89.57Zm25.9-.66-.34-.94q.93-.35,1.83-.72l.4.91Q335.43,364,334.47,364.37Zm-29.75-.6c-.63-.24-1.25-.49-1.87-.76l.41-.92c.6.27,1.2.52,1.82.75Zm33.48-1-.45-.9c.58-.29,1.16-.61,1.72-.94l.51.86C339.4,362.13,338.81,362.46,338.2,362.77ZM301,362.14c-.6-.3-1.2-.62-1.78-.95l.5-.87c.57.32,1.15.64,1.73.93Zm40.68-1.45-.58-.82c.54-.38,1.07-.77,1.58-1.18l.63.78C342.8,359.89,342.25,360.3,341.7,360.69Zm-44.19-.56c-.57-.37-1.12-.75-1.66-1.15l.59-.81c.53.39,1.07.76,1.62,1.12Zm47.35-2-.69-.73c.47-.45.93-.92,1.37-1.4l.74.66C345.83,357.17,345.35,357.66,344.86,358.13Zm-50.6-.41c-.52-.43-1-.89-1.52-1.35l.7-.73c.47.46.95.89,1.46,1.31Zm53.32-2.63-.8-.6.4-.56.81.59Zm-56.25-.18c-.46-.49-.9-1-1.32-1.55l.79-.62c.4.52.83,1,1.27,1.5Zm-2.52-3.19c-.38-.57-.74-1.15-1.08-1.73l.87-.5c.32.56.67,1.13,1,1.67Zm-2-3.54c-.29-.62-.55-1.25-.79-1.87l.93-.36c.23.6.49,1.21.77,1.8Zm-1.45-3.8c-.19-.65-.36-1.31-.5-2l1-.21c.14.63.3,1.27.48,1.89Zm-.86-4c-.09-.67-.16-1.35-.21-2l1-.07c.05.65.11,1.31.2,2Zm.72-4h-1v-.12c0-.63,0-1.26.05-1.91l1,.06c0,.63-.05,1.24-.05,1.85Zm.22-3.93-1-.12c.08-.66.18-1.32.29-2l1,.17C285.59,331.13,285.5,331.78,285.42,332.42Zm.67-3.89-1-.22c.14-.64.31-1.3.49-2l1,.26Q286.31,327.58,286.09,328.53Zm1.05-3.81-.95-.31c.2-.63.42-1.26.66-1.91l.93.35C287.55,323.48,287.34,324.1,287.14,324.72Zm1.37-3.72-.93-.38c.25-.61.52-1.23.8-1.85l.91.41C289,319.79,288.75,320.4,288.51,321Zm1.62-3.61-.89-.44c.14-.31.3-.61.45-.91s.36-.61.54-.89l.85.53-.51.84Zm2-3.36-.83-.57c.39-.56.78-1.1,1.17-1.64l.81.6C292.92,312.94,292.53,313.48,292.16,314Zm2.36-3.18-.78-.63c.42-.53.85-1,1.28-1.55l.76.65Q295.14,310.07,294.52,310.85Zm2.58-3-.74-.68c.46-.49.92-1,1.39-1.46l.71.7C298,306.87,297.55,307.35,297.1,307.84Zm2.77-2.84-.7-.72c.49-.47,1-.93,1.46-1.38l.68.73Zm2.91-2.71-.66-.74,1.5-1.33.66.76Zm3-2.61-.64-.76,1.53-1.29.64.76Zm3.06-2.57-.64-.77,1.53-1.28.65.76Zm3.06-2.59-.65-.76,1.5-1.3.66.75C312.92,293.65,312.42,294.09,311.91,294.52Zm3-2.66-.67-.73,1.44-1.36.69.72C315.89,291,315.41,291.41,314.91,291.86Zm2.89-2.8-.72-.69c.46-.48.91-1,1.36-1.45l.74.67Q318.51,288.34,317.8,289.06Zm2.7-3-.77-.64c.43-.51.84-1,1.24-1.55l.79.61C321.35,285,320.93,285.55,320.5,286.07Zm2.45-3.22-.83-.57c.37-.54.73-1.09,1.07-1.65l.85.52C323.69,281.73,323.33,282.29,323,282.85Zm2.1-3.46-.88-.47c.31-.57.6-1.16.88-1.76l.91.42C325.67,278.2,325.37,278.8,325.05,279.39Zm1.72-3.66-.93-.38c.24-.6.47-1.21.69-1.84l.94.32C327.25,274.48,327,275.11,326.77,275.73Zm1.3-3.83-1-.27c.18-.63.34-1.26.49-1.92l1,.23C328.42,270.61,328.25,271.26,328.07,271.9Zm1.12-3.83-.95-.29c.19-.64.37-1.27.51-1.9l1,.23C329.57,266.76,329.4,267.41,329.19,268.07Zm.93-3.95-1-.16c.11-.65.19-1.31.24-1.95l1,.08C330.31,262.76,330.23,263.44,330.12,264.12Zm-.68-4.06c0-.66,0-1.32-.11-1.95l1-.1c.07.66.11,1.35.12,2Zm-.42-3.87a16.58,16.58,0,0,0-.5-1.87l1-.32a19.25,19.25,0,0,1,.53,2Zm-1.21-3.68a18.74,18.74,0,0,0-.9-1.72l.85-.51a17.38,17.38,0,0,1,1,1.81Zm-42-3.26-.76-.64c.43-.52.9-1,1.38-1.5l.71.71C286.67,248.28,286.23,248.76,285.81,249.25Zm40-.07c-.4-.51-.82-1-1.26-1.48l.72-.68a18,18,0,0,1,1.33,1.56Zm-37.23-2.68-.64-.77c.52-.43,1.06-.85,1.61-1.24l.58.82C289.61,245.68,289.09,246.08,288.59,246.5Zm34.56-.14a18.22,18.22,0,0,0-1.54-1.21l.58-.82c.56.4,1.1.83,1.61,1.27Zm-31.36-2.11-.51-.87c.58-.34,1.19-.67,1.79-1l.44.9C292.93,243.6,292.35,243.91,291.79,244.25Zm28.18-.17c-.55-.32-1.13-.63-1.73-.92l.44-.9c.62.3,1.23.62,1.8,1Zm-24.67-1.56-.37-.93c.63-.25,1.28-.48,1.92-.69l.3.95C296.53,242.05,295.91,242.27,295.3,242.52Zm21.15-.14c-.61-.23-1.23-.45-1.86-.64l.3-1c.65.2,1.29.43,1.92.67ZM299,241.32l-.23-1c.65-.16,1.32-.3,2-.41l.17,1C300.32,241,299.68,241.17,299,241.32Zm13.66-.09c-.63-.14-1.28-.27-1.94-.37l.16-1c.68.11,1.35.24,2,.39Zm-9.78-.58-.11-1c.67-.08,1.35-.12,2-.15l0,1C304.23,240.53,303.57,240.58,302.92,240.65Zm5.89,0c-.65-.06-1.31-.1-2-.11l0-1c.68,0,1.36.05,2,.11Z"/><path class="cls-6" d="M309.94,144l-.68-.73,1-.93.7.72Zm2.42-2.37-.72-.7c.47-.47.92-1,1.36-1.44l.74.67Q313.07,140.93,312.36,141.66Zm2.71-3-.76-.65q.65-.76,1.26-1.53l.78.62C315.94,137.64,315.51,138.16,315.07,138.68Zm2.51-3.16-.8-.59c.39-.54.78-1.08,1.15-1.62l.82.57C318.37,134.43,318,135,317.58,135.52Zm2.29-3.32-.84-.54c.36-.56.7-1.12,1-1.69l.86.51C320.59,131.06,320.24,131.63,319.87,132.2Zm2.05-3.47-.88-.48c.32-.58.62-1.17.92-1.76l.89.45C322.55,127.54,322.24,128.13,321.92,128.73Zm1.8-3.61-.91-.42c.27-.6.53-1.2.78-1.81l.93.38C324.26,123.89,324,124.5,323.72,125.12Zm1.53-3.73-.94-.35c.23-.62.45-1.24.65-1.87l1,.32C325.71,120.12,325.48,120.76,325.25,121.39Zm1.26-3.83-1-.28c.18-.63.35-1.27.51-1.91l1,.24C326.87,116.26,326.7,116.91,326.51,117.56Zm1-3.91-1-.21c.14-.64.27-1.29.38-1.94l1,.17Q327.7,112.66,327.49,113.65Zm.7-4-1-.14c.1-.66.18-1.31.25-2l1,.11C328.37,108.35,328.29,109,328.19,109.68Zm.43-4-1-.07q.08-1,.12-2l1,0Q328.69,104.67,328.62,105.67Zm.16-4h-1v-.42c0-.52,0-1,0-1.56l1,0c0,.52,0,1.05,0,1.58Zm-1.1-4c0-.66-.08-1.32-.14-2l1-.09q.09,1,.15,2Zm-.34-4c-.08-.66-.17-1.32-.27-2l1-.15c.1.67.19,1.33.27,2Zm-.59-3.93c-.12-.66-.25-1.31-.38-2l1-.2c.13.66.26,1.32.38,2Zm-.82-3.9c-.15-.65-.32-1.29-.49-1.93l1-.26c.17.65.34,1.3.49,2Zm-1-3.85c-.19-.63-.39-1.27-.6-1.9l.95-.31c.21.64.41,1.28.61,1.93Zm-1.25-3.78c-.22-.63-.45-1.25-.69-1.87l.93-.36c.24.63.48,1.26.71,1.89Zm-1.44-3.72c-.25-.61-.52-1.22-.79-1.82l.91-.41c.28.61.55,1.23.8,1.85Zm-1.63-3.63c-.29-.6-.58-1.2-.88-1.79l.89-.45c.3.6.6,1.2.89,1.81Zm-1.81-3.55c-.32-.58-.64-1.16-1-1.74l.87-.5c.34.59.66,1.17,1,1.76Zm-2-3.45c-.34-.57-.7-1.13-1-1.69l.84-.54c.36.56.72,1.13,1.07,1.71Zm-2.15-3.35c-.37-.55-.75-1.1-1.14-1.64l.82-.58c.39.55.77,1.1,1.15,1.66Zm-2.31-3.24c-.4-.53-.81-1.06-1.22-1.58l.79-.62c.42.53.82,1.06,1.23,1.6ZM201.43,55l-.74-.67,1.37-1.47.73.69C202.33,54.06,201.88,54.55,201.43,55Zm108.42-.86c-.42-.51-.85-1-1.28-1.51l.75-.66c.44.51.88,1,1.3,1.54Zm-105.68-2-.71-.7L204.88,50l.7.72Zm103.07-1c-.45-.49-.9-1-1.36-1.45l.72-.69q.7.72,1.38,1.47ZM207,49.36l-.69-.72c.49-.47,1-.92,1.47-1.37l.68.74C208,48.45,207.49,48.9,207,49.36Zm97.48-1c-.47-.47-.95-.93-1.43-1.39l.69-.72c.48.46,1,.92,1.44,1.4ZM210,46.68l-.66-.75c.51-.45,1-.88,1.52-1.31l.65.76Zm91.65-1.09c-.5-.44-1-.88-1.5-1.31l.65-.76c.51.44,1,.88,1.52,1.33ZM213,44.12l-.63-.78,1.58-1.25.61.79ZM298.57,43,297,41.78l.61-.79c.53.41,1.05.82,1.58,1.25Zm-82.43-1.33-.6-.8,1.63-1.18.58.82Zm79.29-1.09q-.81-.59-1.62-1.14l.56-.83c.56.38,1.1.77,1.65,1.17Zm-76-1.19-.56-.84c.56-.37,1.13-.74,1.69-1.09l.53.84C220.5,38.66,219.94,39,219.39,39.4Zm72.77-1.06-1.68-1.06.52-.85c.57.35,1.14.71,1.7,1.08Zm-69.42-1.08-.51-.85q.87-.52,1.74-1l.49.87Zm66-1c-.57-.33-1.15-.65-1.73-1l.47-.88c.59.31,1.18.64,1.76,1Zm-62.57-1-.47-.88c.59-.32,1.19-.63,1.79-.92l.44.89C227.37,34.68,226.79,35,226.2,35.3Zm59.08-.91c-.59-.3-1.18-.59-1.78-.87l.42-.9c.61.28,1.21.57,1.81.88Zm-55.53-.86-.42-.91c.61-.28,1.22-.56,1.84-.82l.39.91C231,33,230.36,33.25,229.75,33.53Zm51.94-.82c-.61-.27-1.22-.52-1.84-.77l.37-.92c.63.24,1.25.5,1.86.77ZM233.4,32,233,31c.62-.25,1.25-.49,1.88-.72l.34.94Zm44.6-.71c-.62-.23-1.25-.45-1.87-.66l.31-.95,1.91.67Zm-40.88-.65-.31-.95q1-.32,1.92-.6l.29,1C238.39,30.18,237.76,30.38,237.12,30.59Zm37.11-.6c-.63-.19-1.27-.37-1.91-.54l.25-1c.66.17,1.3.35,1.95.54Zm-33.3-.53-.26-1c.65-.17,1.31-.33,2-.48l.22,1Q241.89,29.21,240.93,29.46ZM270.39,29c-.64-.15-1.29-.29-1.94-.42l.19-1q1,.2,2,.42Zm-25.6-.42-.19-1q1-.2,2-.36l.16,1C246.09,28.32,245.44,28.43,244.79,28.56Zm21.7-.36-2-.29.14-1c.66.09,1.33.19,2,.3Zm-17.79-.28-.13-1c.67-.09,1.34-.17,2-.23l.09,1C250,27.76,249.36,27.83,248.7,27.92Zm13.85-.23c-.65-.07-1.31-.12-2-.16l.06-1c.68,0,1.35.1,2,.16Zm-9.9-.16-.06-1c.67,0,1.34-.08,2-.1l0,1C254,27.45,253.31,27.48,252.65,27.53Zm6-.1-2,0-.13,0,.12-.45V26.4h0c.67,0,1.33,0,2,0Z"/><path class="cls-6" d="M476.91,207.58l-1-.16.17-1,1,.16Zm-3-.55c-.66-.14-1.32-.3-2-.47l.25-1c.64.16,1.28.32,1.93.46Zm-3.9-1q-1-.31-1.92-.66l.35-.94c.61.23,1.23.44,1.87.64Zm-3.8-1.41c-.62-.27-1.23-.55-1.84-.85l.45-.9c.58.29,1.18.57,1.79.83Zm-3.63-1.79c-.59-.33-1.17-.67-1.74-1l.53-.84c.55.34,1.12.68,1.7,1Zm-3.43-2.15c-.55-.39-1.1-.79-1.63-1.2l.62-.79c.52.4,1,.8,1.59,1.18Zm-3.19-2.49c-.51-.45-1-.91-1.49-1.38l.7-.71c.47.45.95.9,1.45,1.33Zm-2.9-2.82c-.46-.49-.91-1-1.34-1.52l.77-.64c.42.5.85,1,1.3,1.48Zm-2.6-3.1q-.6-.81-1.17-1.65l.83-.56c.36.55.75,1.08,1.14,1.61Zm-2.26-3.35c-.35-.58-.69-1.17-1-1.76l.88-.48c.32.58.64,1.16,1,1.72Zm-1.92-3.57c-.29-.61-.56-1.23-.82-1.85l.92-.38c.25.61.52,1.21.8,1.8Zm-1.55-3.73c-.23-.64-.45-1.28-.64-1.93l.95-.29c.19.63.4,1.26.63,1.88Zm-1.19-3.88c-.17-.65-.32-1.31-.45-2l1-.2c.13.64.28,1.29.44,1.93Zm-.81-4c-.11-.67-.19-1.34-.27-2l1-.11c.07.66.15,1.31.26,2Zm-.44-4c0-.67-.06-1.35-.07-2h1c0,.66,0,1.32.07,2Zm.95-4-1,0c0-.67.05-1.35.11-2l1,.08C443.26,164.38,443.23,165,443.21,165.7Zm.31-3.94-1-.13c.09-.66.19-1.33.3-2l1,.17C443.69,160.45,443.6,161.11,443.52,161.76Zm.67-3.9-1-.22c.14-.65.3-1.31.48-2l1,.26C444.48,156.57,444.33,157.22,444.19,157.86Zm1-3.83-.95-.3c.2-.64.42-1.28.65-1.91l.94.35C445.62,152.79,445.41,153.41,445.21,154Zm1.37-3.7-.92-.39c.26-.62.53-1.24.82-1.85l.9.43C447.1,149.12,446.83,149.72,446.58,150.33Zm1.69-3.58-.88-.46c.31-.6.64-1.19,1-1.77l.86.51C448.9,145.6,448.58,146.17,448.27,146.75Zm2-3.41-.84-.54c.37-.56.75-1.12,1.14-1.67l.81.58C451,142.25,450.63,142.79,450.27,143.34Zm2.3-3.22-.79-.61c.41-.53.83-1,1.27-1.57l.76.64C453.38,139.09,453,139.6,452.57,140.12Zm2.55-3-.73-.68c.45-.49.91-1,1.39-1.45l.71.7C456,136.14,455.57,136.62,455.12,137.1Zm2.8-2.8-.68-.74c.49-.45,1-.9,1.5-1.34l.65.76Q458.64,133.63,457.92,134.3Zm3-2.58-.62-.78c.52-.42,1.06-.83,1.61-1.23l.59.81C462,130.91,461.44,131.31,460.92,131.72Zm3.2-2.35-.57-.82c.55-.38,1.11-.75,1.69-1.11l.53.85C465.21,128.64,464.66,129,464.12,129.37Z"/><path class="cls-6" d="M452,332.32c-.2-.66-.38-1.31-.55-1.94l1-.26c.16.63.34,1.27.54,1.91Zm-1-3.9c-.15-.67-.28-1.33-.4-2l1-.18c.11.63.24,1.28.39,1.94Zm-.71-4c-.09-.69-.16-1.36-.22-2l1-.07c0,.64.12,1.29.21,2Zm-.31-4v-.54c0-.5,0-1,0-1.5l1,.06c0,.47,0,.95,0,1.44v.52Zm1.21-3.93-1-.13c.09-.68.21-1.35.35-2l1,.22C451.35,315.17,451.24,315.82,451.16,316.47Zm.83-3.79-.95-.31a19.59,19.59,0,0,1,.72-1.9l.91.4C452.42,311.45,452.19,312.05,452,312.68Zm1.55-3.54-.87-.49a17.27,17.27,0,0,1,1.1-1.72l.81.58A16.6,16.6,0,0,0,453.54,309.14Zm2.25-3.14-.75-.66c.44-.5.91-1,1.41-1.46l.69.73C456.66,305.06,456.2,305.53,455.79,306Zm2.82-2.65-.61-.79c.51-.41,1.07-.81,1.64-1.19l.56.83C459.64,302.57,459.11,303,458.61,303.35Zm3.26-2.17-.5-.87c.58-.33,1.18-.65,1.79-.95l.44.89C463,300.55,462.43,300.86,461.87,301.18Zm3.52-1.75-.39-.92c.61-.26,1.24-.51,1.87-.75l.36.93C466.6,298.93,466,299.17,465.39,299.43Zm3.7-1.39-.31-1q.95-.31,1.92-.6l.29.95C470.34,297.63,469.71,297.83,469.09,298Zm3.81-1.12-.25-1q1-.26,2-.48l.23,1C474.18,296.59,473.53,296.75,472.9,296.92Zm3.87-.91-.2-1,2-.38.19,1Zm3.92-.73-.16-1,2-.31.15,1Zm3.95-.6-.14-1,2-.26.12,1Zm4-.5-.12-1,2-.22.1,1Zm4-.44-.1-1,2-.2.09,1Zm4-.38-.09-1,2-.18.09,1Zm4-.35-.09-1,2-.17.09,1Zm4-.35-.08-1,2-.17.09,1Zm4-.36-.09-1,2-.19.1,1Zm4-.41-.11-1,2-.22.12,1Zm4-.48-.14-1c.67-.08,1.33-.18,2-.27l.15,1C517.84,291.24,517.18,291.33,516.51,291.41Zm4-.58-.17-1c.67-.1,1.32-.22,2-.34l.18,1Zm4-.74-.21-1c.66-.14,1.3-.28,1.94-.44l.23,1C525.77,289.8,525.12,290,524.45,290.09Zm3.92-1-.28-1c.65-.18,1.28-.38,1.9-.58l.31,1C529.68,288.75,529,288.94,528.37,289.13Zm3.84-1.28-.37-.93c.62-.25,1.23-.51,1.8-.79l.43.91C533.48,287.32,532.85,287.59,532.21,287.85Zm3.67-1.77-.51-.86a18.18,18.18,0,0,0,1.62-1.07l.59.81A20,20,0,0,1,535.88,286.08Zm3.27-2.45-.69-.72a12.81,12.81,0,0,0,1.26-1.42l.8.61A12.21,12.21,0,0,1,539.15,283.63Zm2.47-3.27-.88-.46a11.69,11.69,0,0,0,.72-1.75l.95.31A11.35,11.35,0,0,1,541.62,280.36Zm1.26-3.9-1-.15a13,13,0,0,0,.16-1.9l1,0A14.75,14.75,0,0,1,542.88,276.46Zm-.91-4c-.06-.61-.15-1.27-.28-1.93l1-.18c.13.69.23,1.37.29,2Zm-.72-3.84c-.16-.61-.35-1.24-.56-1.89l.94-.31c.23.66.42,1.31.59,1.94ZM540,264.89c-.23-.59-.49-1.2-.76-1.82l.91-.41c.28.64.54,1.26.78,1.87Zm-1.6-3.62c-.28-.58-.58-1.17-.89-1.77l.88-.47c.32.61.63,1.21.91,1.8Zm-1.84-3.52c-.32-.56-.65-1.14-1-1.72l.86-.51c.35.59.68,1.17,1,1.74Zm-2-3.42c-.35-.55-.7-1.11-1.07-1.68l.84-.55,1.08,1.7ZM532.39,251l-1.12-1.64.82-.57c.39.56.76,1.11,1.13,1.66Zm-2.27-3.28c-.38-.53-.77-1.07-1.17-1.61l.81-.59,1.17,1.62Z"/><path class="cls-6" d="M496.71,469.67c-.68,0-1.35,0-2-.06l.06-1c.65,0,1.31.06,2,.06Zm2,0,0-1c.65,0,1.31-.08,2-.14l.09,1C500.08,469.56,499.41,469.61,498.74,469.64Zm-6.07-.2c-.67-.08-1.34-.17-2-.28l.16-1q1,.16,1.95.27Zm10.1-.17-.14-1c.65-.09,1.3-.2,1.95-.32l.18,1C504.09,469.07,503.43,469.18,502.77,469.27Zm-14.1-.49c-.66-.15-1.31-.32-2-.5l.27-1c.63.18,1.27.34,1.91.48Zm18.07-.25-.23-1c.64-.15,1.28-.31,1.92-.49l.27,1C508,468.21,507.39,468.37,506.74,468.53Zm-22-.85q-1-.35-1.89-.72l.38-.93c.6.25,1.22.48,1.84.7ZM481,466.13c-.62-.3-1.22-.61-1.8-.94l.49-.87c.56.32,1.15.62,1.74.91Zm-3.54-2c-.57-.37-1.13-.75-1.67-1.15l.59-.81c.53.39,1.07.77,1.62,1.12Zm-3.26-2.41c-.52-.44-1-.9-1.51-1.36l.69-.72c.47.45,1,.89,1.46,1.31Zm-2.93-2.82c-.45-.5-.89-1-1.31-1.55l.79-.62c.4.51.83,1,1.27,1.5Zm-2.52-3.19c-.38-.56-.75-1.13-1.09-1.71l.86-.51c.33.56.69,1.12,1.06,1.66Zm-2.07-3.5c-.3-.6-.59-1.22-.85-1.84l.92-.39c.25.6.53,1.2.82,1.78Zm-1.58-3.74c-.22-.64-.42-1.28-.6-1.94l1-.26c.17.63.37,1.26.58,1.87Zm-1.07-3.92c-.13-.65-.25-1.32-.34-2l1-.14c.09.66.2,1.31.33,1.94Zm-.56-4c-.05-.66-.08-1.34-.09-2l1,0c0,.66,0,1.32.09,2Zm.94-4-1,0c0-.67.07-1.34.14-2l1,.09C464.51,435.23,464.46,435.88,464.44,436.53Z"/><rect class="cls-9" x="574.38" y="307.33" width="146.75" height="104.67"/><rect class="cls-10" x="579.51" y="313.22" width="136.48" height="92.9"/><g class="cls-13"><rect class="cls-11" x="546.6" y="374" width="266.93" height="9.01" transform="translate(-68.46 591.74) rotate(-45)"/><rect class="cls-11" x="530.6" y="365.93" width="266.93" height="9.01" transform="translate(-67.44 578.06) rotate(-45)"/><rect class="cls-11" x="471.41" y="337.27" width="266.93" height="9.01" transform="translate(-64.5 527.82) rotate(-45)"/></g><rect class="cls-9" x="522.22" y="357.69" width="44.69" height="81.64"/><rect class="cls-10" x="524.86" y="359.67" width="39.41" height="72.01"/><g class="cls-14"><rect class="cls-11" x="459.56" y="381.78" width="155.81" height="8.76" transform="translate(-115.64 493.15) rotate(-45)"/><rect class="cls-11" x="464.85" y="400.2" width="155.81" height="8.76" transform="translate(-127.11 502.28) rotate(-45)"/></g><circle class="cls-10" cx="544.56" cy="436.01" r="1.81"/><rect class="cls-9" x="689.12" y="339.69" width="81.53" height="113.54" rx="3.41"/><rect class="cls-10" x="692.45" y="344.31" width="74.89" height="104.28" rx="3.41"/><g class="cls-15"><rect class="cls-11" x="660.44" y="371.54" width="151.58" height="10.81" transform="translate(-50.9 631) rotate(-45)"/><rect class="cls-11" x="665.27" y="393.11" width="151.58" height="10.81" transform="translate(-64.74 640.73) rotate(-45)"/></g><rect class="cls-9" x="645.64" y="408.83" width="5.44" height="32.01"/><ellipse class="cls-9" cx="648.36" cy="441.9" rx="21.74" ry="2.57"/><ellipse class="cls-9" cx="530.44" cy="318.75" rx="24.69" ry="3.32"/><polygon class="cls-9" points="588.65 247.13 562.68 226.08 566.61 259.31 572.8 249.31 581.72 265.46 586.52 262.82 577.87 247.13 588.65 247.13"/><path class="cls-9" d="M606.34,274.26c-.68,0-1.35,0-2-.08l.07-1c.65.05,1.31.08,2,.08Zm2,0,0-1c.65,0,1.31-.08,2-.15l.11,1C609.72,274.14,609,274.2,608.36,274.23Zm-6.07-.24c-.67-.09-1.34-.19-2-.3l.17-1c.65.12,1.3.21,1.95.29Zm10.11-.21-.17-1c.65-.11,1.29-.25,1.92-.4l.24,1C613.74,273.53,613.07,273.67,612.4,273.78Zm-14.1-.5c-.66-.15-1.31-.32-2-.5l.27-1c.64.18,1.27.35,1.92.5Zm18.05-.47-.31-.95c.62-.2,1.24-.43,1.84-.67l.38.92C617.64,272.37,617,272.6,616.35,272.81Zm-21.94-.64c-.64-.21-1.28-.45-1.9-.69l.36-.93c.62.24,1.23.46,1.86.68Zm25.71-.9-.45-.89c.58-.29,1.16-.61,1.72-.95l.51.86C621.32,270.64,620.72,271,620.12,271.27Zm-29.48-.59c-.61-.28-1.22-.57-1.82-.88l.46-.89c.58.3,1.18.59,1.78.86Zm33-1.51-.59-.82c.53-.38,1.05-.78,1.55-1.2l.64.76C624.7,268.35,624.15,268.77,623.61,269.17Zm3.1-2.64-.7-.71c.45-.45.9-.93,1.34-1.44l.75.66C627.65,265.56,627.18,266.06,626.71,266.53Zm2.67-3.08-.81-.6c.39-.52.77-1.06,1.12-1.61l.84.54C630.17,262.35,629.78,262.91,629.38,263.45Zm2.19-3.42-.88-.48c.31-.58.61-1.16.89-1.76l.9.42C632.2,258.83,631.89,259.43,631.57,260Zm1.71-3.69-.93-.36c.23-.61.45-1.23.65-1.85l1,.3C633.75,255.07,633.52,255.71,633.28,256.34Zm1.23-3.87-1-.24q.24-1,.42-1.92l1,.18C634.82,251.16,634.67,251.82,634.51,252.47Zm.74-4-1-.12c.08-.65.14-1.31.18-2l1,.06C635.4,247.14,635.33,247.81,635.25,248.48Zm-.75-4c0-.66,0-1.31-.07-2l1-.06c0,.68.06,1.35.07,2Zm-.24-3.93c-.07-.66-.17-1.31-.28-2l1-.16c.11.66.21,1.33.29,2Zm-.66-3.89c-.15-.64-.31-1.28-.48-1.91l1-.27c.18.65.35,1.3.49,2Zm-1.06-3.81c-.21-.62-.43-1.24-.66-1.85l.93-.36c.24.63.47,1.26.68,1.9Zm-1.41-3.69c-.27-.6-.54-1.2-.83-1.79l.9-.44q.43.92.84,1.83Zm-1.74-3.55c-.31-.58-.64-1.16-1-1.72l.86-.51c.35.57.68,1.16,1,1.75Zm-2-3.4c-.36-.56-.74-1.1-1.12-1.64l.82-.58c.39.55.77,1.11,1.13,1.67Zm-2.29-3.24-.16-.2c-.35-.46-.71-.9-1.08-1.35l.78-.63c.37.45.73.9,1.09,1.36l.16.22Zm-2.52-3.06c-.44-.49-.89-1-1.34-1.46l.73-.69c.46.49.91,1,1.36,1.49ZM619.84,213c-.47-.47-1-.93-1.43-1.38l.69-.73c.48.46,1,.93,1.44,1.4ZM617,210.25l-1.51-1.3.65-.76c.51.43,1,.87,1.52,1.32Zm-3-2.56-1.57-1.23.61-.79c.53.41,1.06.82,1.58,1.24Zm-3.16-2.42-1.61-1.16.57-.82,1.63,1.17ZM607.5,203l-1.66-1.1.54-.84,1.68,1.11Zm-3.34-2.17-.52-.33.53-.85.52.33Z"/><path class="cls-9" d="M685,189.27h-.91v-1c.67,0,1.33,0,2,0v1Zm-2.92-.07-2-.11.08-1c.67,0,1.33.08,2,.11Zm6,0-.05-1c.67,0,1.33-.08,2-.14l.09,1C689.44,189.11,688.77,189.15,688.09,189.19ZM678,188.91c-.66-.06-1.33-.14-2-.22l.13-1,2,.22Zm14.08-.07-.13-1c.67-.08,1.32-.17,2-.28l.16,1ZM674,188.41c-.66-.09-1.32-.2-2-.32l.17-1c.66.11,1.32.22,2,.31Zm22.05-.24-.21-1c.66-.14,1.3-.29,1.93-.45l.25,1C697.41,187.88,696.76,188,696.09,188.17Zm-26-.44c-.64-.13-1.3-.26-2-.41l.21-1,1.95.4Zm29.93-.56-.29-1c.64-.2,1.26-.4,1.87-.63l.34.95C701.3,186.75,700.66,187,700,187.17Zm-33.85-.29-1.95-.48.25-1,1.93.48Zm-3.9-1-1.93-.55.29-1,1.91.54Zm41.56-.09-.39-.93c.61-.25,1.21-.53,1.79-.81l.44.9C705.05,185.24,704.44,185.52,703.81,185.79Zm-45.41-1-1.91-.62.31-.95c.64.21,1.27.42,1.9.61Zm49.05-.74-.49-.87c.58-.33,1.14-.67,1.69-1l.54.85C708.62,183.33,708,183.67,707.45,184Zm-52.86-.52c-.63-.21-1.26-.44-1.89-.67l.34-.94,1.88.67Zm-3.77-1.36-1.88-.72.37-.93,1.86.71Zm60-.31-.59-.81c.54-.38,1.06-.79,1.56-1.2l.63.77C712,181,711.41,181.42,710.86,181.82Zm-63.78-1.15-1.86-.77.39-.92,1.84.76ZM714,179.24l-.69-.73c.49-.45,1-.91,1.4-1.39l.73.69C715,178.3,714.49,178.77,714,179.24Zm-70.61-.13-1.84-.81.41-.91,1.83.81Zm-3.66-1.63-1.82-.85.43-.91,1.81.85Zm77-1.2-.77-.63q.63-.77,1.2-1.56l.81.59C717.62,175.23,717.2,175.76,716.77,176.28Zm-80.68-.52-1.8-.88.45-.9,1.79.88ZM719.16,173l-.85-.54c.35-.55.69-1.12,1-1.69l.88.48C719.87,171.84,719.52,172.42,719.16,173Zm2-3.56-.91-.43c.28-.59.54-1.19.79-1.8l.93.37Q721.54,168.53,721.12,169.44Zm1.51-3.77-1-.31c.2-.63.39-1.25.57-1.89l1,.26C723,164.39,722.84,165,722.63,165.67Zm1.06-3.91-1-.2c.13-.65.25-1.29.35-1.94l1,.15C724,160.44,723.83,161.1,723.69,161.76Zm.62-4-1-.1c.07-.65.11-1.31.14-2l1,0C724.42,156.42,724.37,157.09,724.31,157.76Zm-.82-4c0-.66,0-1.31-.06-2l1-.06c0,.68.06,1.35.06,2Zm-.22-3.94c-.08-.65-.16-1.3-.27-1.95l1-.16q.16,1,.27,2Zm-.63-3.89c-.13-.65-.29-1.29-.45-1.92l1-.26c.17.65.33,1.31.47,2Zm-1-3.82c-.2-.62-.42-1.25-.65-1.86l.94-.35c.23.63.45,1.27.66,1.91Zm-1.39-3.69c-.26-.61-.54-1.2-.83-1.79l.9-.45c.3.61.58,1.22.85,1.84Zm-1.75-3.54c-.32-.57-.65-1.14-1-1.7l.84-.53c.36.57.71,1.15,1,1.74Zm-2.09-3.34c-.38-.54-.77-1.06-1.18-1.58l.79-.62q.62.8,1.2,1.62ZM714,128.4c-.43-.49-.88-1-1.34-1.44l.72-.7c.47.48.93,1,1.37,1.48Zm-2.75-2.81c-.48-.45-1-.88-1.49-1.3l.64-.77c.52.43,1,.87,1.53,1.33Zm-3-2.51c-.53-.38-1.07-.76-1.63-1.12l.55-.84c.57.38,1.12.76,1.67,1.16Zm-3.31-2.15c-.56-.32-1.14-.63-1.73-.93l.45-.9c.61.31,1.2.63,1.78,1Zm-3.51-1.77c-.6-.26-1.21-.51-1.83-.74l.35-.94c.64.24,1.26.49,1.88.76Zm-3.7-1.38c-.62-.2-1.25-.38-1.89-.55l.25-1c.66.18,1.3.36,1.94.56Z"/><rect class="cls-9" x="473" y="109.24" width="49.22" height="40.16"/><rect class="cls-9" x="486.29" y="170.23" width="56.27" height="51.44"/><rect class="cls-9" x="560.26" y="143.66" width="60.39" height="45.11"/><rect class="cls-9" x="585.29" y="68.93" width="108.7" height="51.18"/><rect class="cls-9" x="655.98" y="130.53" width="29.89" height="46.65" rx="10.9"/><rect class="cls-10" x="669.35" y="133.36" width="3.17" height="16.87" rx="1.16"/><rect class="cls-10" x="669.35" y="101.76" width="3.17" height="8.04"/><rect class="cls-10" x="661.87" y="108.22" width="3.17" height="8.04" transform="translate(551.22 775.7) rotate(-90)"/><rect class="cls-10" x="676.48" y="108.22" width="3.17" height="8.04" transform="translate(565.83 790.3) rotate(-90)"/><rect class="cls-10" x="590.46" y="73.91" width="59.18" height="39.91"/><circle class="cls-16" cx="496.5" cy="235.4" r="24.53"/><circle class="cls-11" cx="663.46" cy="248.05" r="9.06"/><circle class="cls-11" cx="682.09" cy="275.99" r="13.69"/></g><g id="Mensen"><path class="cls-17" d="M393.09,367.78a10.5,10.5,0,0,1,5.32-8.25c6-3.26,13.34,0,20.11-.61,5.7-.48,10.75-3.62,15.78-6.32a72.33,72.33,0,0,1,21.11-7.86,41.2,41.2,0,0,1,22.26,1.69,22.36,22.36,0,0,1,9.3,6.33c3.89,4.75,5,11.48,9.5,15.68,2.26,2.12,5.25,3.46,7.12,5.94s2.35,6.06,2.1,9.31a13.81,13.81,0,0,1-1.52,5.7c-2.81,5-9.36,6.21-15.06,6.15-11.16-.11-22.67-3.1-33.26.4-4.28,1.41-8.23,3.85-12.65,4.67A19,19,0,0,1,428.37,397c-2.73-2.11-4.85-4.9-7.27-7.36s-5.33-4.7-8.74-5.2c-2.52-.38-5.1.22-7.62-.15C398.44,383.31,392.62,373.88,393.09,367.78Z"/><path class="cls-18" d="M396.91,305l3.47,79.73s2.11,3,7.92,0c0,0,4.89,3.17,9.28.3l6.65-79.41S402.94,301.1,396.91,305Z"/><path class="cls-19" d="M406.76,386.28l.69-70.84a28,28,0,0,0,5.43,0s8.14,1.81,3.62,18.23,3.17,18.91.22,25.25-5.09,11.95-3,19.47S409.93,390.08,406.76,386.28Z"/><path class="cls-10" d="M406,228.81a28.34,28.34,0,0,0,.16,9.21c.87,4.38,3.17,4.15,3.47,3.78S414.12,228.66,406,228.81Z"/><path class="cls-18" d="M405.21,228.25a2.55,2.55,0,0,1,1.91-2.19,2.14,2.14,0,0,1,1.12-2,5.78,5.78,0,0,1,2.32-.64,13.23,13.23,0,0,1,3.61,0,5.62,5.62,0,0,1,3.2,1.55,5.75,5.75,0,0,1,1.39,4.28,15.23,15.23,0,0,1-1.13,4.47,4.35,4.35,0,0,0-.32,1.12,6.48,6.48,0,0,0,.07,1.39c.07.88.24.93,0,1.78-.38,1.19-.38,1.19-.82,2.54l-6.88.19c-.16-2.69-.79-3.71-2.64-5.68a6.14,6.14,0,0,1-.82-.94,8.84,8.84,0,0,1-.53-2.76A8.48,8.48,0,0,1,405.21,228.25Z"/><ellipse class="cls-10" cx="407.96" cy="235.15" rx="1.32" ry="2.72"/><path class="cls-18" d="M408.3,242.85s-16.6,7.63-16.53,8.91,4.53,54.2,4.08,56.84c0,0,9.21,6.42,29.14,0,0,0,1.13-21.36,1.51-24.15s3.09-31.63,2.87-32-11.79-8.38-11.79-8.38A20.6,20.6,0,0,0,408.3,242.85Z"/><path class="cls-20" d="M396.19,251.26q2.52-1,5.09-1.89a35.87,35.87,0,0,1,8.8-2.17,20.32,20.32,0,0,1,6.64.55c4.56,1.14,8.93,4.22,10.25,8.72a17.52,17.52,0,0,1,.51,5.21,58.38,58.38,0,0,1-2.4,15.47c-1,3.41-2.35,6.76-2.8,10.29-.76,6,1,12.54-2,17.8a6.14,6.14,0,0,1-2.2,2.4,7.7,7.7,0,0,1-2.75.74,33.6,33.6,0,0,1-5.4.2c-2.46-.1-5.05-.53-6.95-2.12A9.67,9.67,0,0,1,400.2,302c-2.29-7,.24-14.86-2.18-21.78-.71-2-1.81-3.87-2.32-5.93-1.11-4.47.69-9.28-.48-13.73-.54-2.07-1.54-4-1.67-6.12C393.46,252.76,394.71,251.84,396.19,251.26Z"/><path class="cls-11" d="M405.65,244.06a24.35,24.35,0,0,1,1.83-2.87,10.17,10.17,0,0,1,9-.68l1.05,3.55A25,25,0,0,0,405.65,244.06Z"/><path class="cls-18" d="M394.49,251.51a4.67,4.67,0,0,0-3.17,0c-.83.53-2.66,24.06,0,28.76s13.54,20.63,13.85,20.48,4.9-3.47,4-6.72l-10.38-18.89S400.3,258.53,394.49,251.51Z"/><path class="cls-18" d="M429.37,252.44a18,18,0,0,1,2.26,7.93c.15,4.45-2.08,27.59-2.08,27.59l-15.63,14.83s-4.59-3.24-1.62-7.92c0,0,9.56-13,9.79-13.21S420.61,258.78,429.37,252.44Z"/><path class="cls-10" d="M409.44,304.35c.28.38.69.79,1.14.67s.57-.55.69-.93l1.54-5a.84.84,0,0,0,.05-.47,1,1,0,0,0-.22-.32,37.58,37.58,0,0,0-3.81-3.43,1.21,1.21,0,0,0-.72-.34,1.16,1.16,0,0,0-.83.52c-1.07,1.3-1.78,2.74-1,4.28A36.27,36.27,0,0,0,409.44,304.35Z"/><path class="cls-11" d="M412.86,298.66a1,1,0,0,0-.22-.32c-.78-.8-1.6-1.55-2.45-2.28a19,19,0,0,0-2.2,3.77,13.35,13.35,0,0,0-.54,1.54c.62,1,1.27,2,2,3,.28.38.69.79,1.14.67s.57-.55.69-.93c.51-1.65,1-3.31,1.54-5A.84.84,0,0,0,412.86,298.66Z"/><path class="cls-10" d="M408.63,300a9.25,9.25,0,0,0-.43,4.06,2.08,2.08,0,0,0,.22,1,1.72,1.72,0,0,0,.73.6,6.87,6.87,0,0,0,2.35.7,1.22,1.22,0,0,0,1.1-.29,1.43,1.43,0,0,0,.22-.74,5.92,5.92,0,0,1,2.31-4.47c.44-.27-2-4.46-2.76-4.48s-1.72,1.15-2.13,1.51A6.19,6.19,0,0,0,408.63,300Z"/><path class="cls-11" d="M413.56,300.58a3.76,3.76,0,0,0-1.17,2.53,8.29,8.29,0,0,0,0,2.63,1,1,0,0,0,.14.4.75.75,0,0,0,.88.13,2.41,2.41,0,0,0,1.08-1.44c.19-.51.37-1,.52-1.56a3.92,3.92,0,0,0,.22-1.43C415.13,301,414.46,299.89,413.56,300.58Z"/><path class="cls-9" d="M358,382.35c2.9-1.43,6.26-1.46,9.49-1.36s6.55.26,9.59-.83c4.84-1.74,8-6.32,12.32-9.16a19.31,19.31,0,0,1,11.34-3.16c2.16.09,4.3.54,6.45.78a35.06,35.06,0,0,0,13.55-1.21c5.77-1.65,11.5-4.71,17.43-3.77a20.4,20.4,0,0,1,6.65,2.54c2.67,1.5,5.34,3.52,6.2,6.45,1,3.34-.75,7-3.45,9.23s-6.17,3.18-9.6,3.82c-3.81.7-7.87,1.13-11,3.45-1.86,1.4-3.22,3.37-5,4.83-4.28,3.44-10.33,3.49-15.76,2.73a70.87,70.87,0,0,1-14.63-3.64c-3.48-1.28-6.93-2.84-10.63-3.12-7.32-.55-14.28,4-21.61,3.65-2.41-.11-5.54-1.68-5.9-4.33C353.05,386.4,355.65,383.51,358,382.35Z"/><ellipse class="cls-9" cx="375.69" cy="417.91" rx="48.54" ry="8.83"/><ellipse class="cls-9" cx="485.45" cy="413.5" rx="28.76" ry="4.42"/></g></svg>