<svg xmlns="http://www.w3.org/2000/svg" xmlns:xlink="http://www.w3.org/1999/xlink" viewBox="0 0 841.89 498.27"><defs><style>.cls-1,.cls-36{fill:#cbe7f4;}.cls-2{fill:url(#Naamloos_verloop_90);}.cls-3{fill:#73b4d8;}.cls-4{fill:url(#Naamloos_verloop_90-2);}.cls-5{fill:url(#Naamloos_verloop_90-3);}.cls-6{fill:#fff;}.cls-7{fill:url(#Naamloos_verloop_90-4);}.cls-8{fill:url(#Naamloos_verloop_90-5);}.cls-9{fill:url(#Naamloos_verloop_99);}.cls-10{fill:url(#Naamloos_verloop_90-6);}.cls-11{fill:url(#Naamloos_verloop_42);}.cls-12{fill:#e8366b;}.cls-13{fill:url(#Naamloos_verloop_53);}.cls-14{fill:url(#Naamloos_verloop_53-2);}.cls-15{fill:url(#Naamloos_verloop_53-3);}.cls-16{fill:url(#Naamloos_verloop_53-4);}.cls-17{fill:url(#Naamloos_verloop_53-5);}.cls-18{fill:url(#Naamloos_verloop_53-6);}.cls-19{fill:url(#Naamloos_verloop_53-7);}.cls-20{fill:url(#Naamloos_verloop_45);}.cls-21{fill:#611831;}.cls-22{fill:url(#Naamloos_verloop_53-8);}.cls-23{fill:url(#Naamloos_verloop_53-9);}.cls-24{fill:url(#Naamloos_verloop_53-10);}.cls-25{fill:url(#Naamloos_verloop_60);}.cls-26{fill:url(#Naamloos_verloop_53-11);}.cls-27{fill:url(#Naamloos_verloop_53-12);}.cls-28{fill:url(#Naamloos_verloop_42-2);}.cls-29{fill:url(#Naamloos_verloop_42-3);}.cls-30{fill:url(#Naamloos_verloop_42-4);}.cls-31{fill:url(#Naamloos_verloop_42-5);}.cls-32{fill:url(#Naamloos_verloop_60-2);}.cls-33{fill:url(#Naamloos_verloop_60-3);}.cls-34,.cls-45,.cls-46{opacity:0.47;}.cls-34{fill:url(#Naamloos_verloop_122);}.cls-35{fill:url(#Naamloos_verloop_53-13);}.cls-36,.cls-38,.cls-39,.cls-40,.cls-41,.cls-42,.cls-43,.cls-44,.cls-48,.cls-50,.cls-51,.cls-52,.cls-53,.cls-54,.cls-55,.cls-56,.cls-57,.cls-59,.cls-60,.cls-61,.cls-62,.cls-63,.cls-64,.cls-65,.cls-66,.cls-67,.cls-68,.cls-69,.cls-70,.cls-71,.cls-72,.cls-73,.cls-75,.cls-76{opacity:0.5;}.cls-37{fill:#a4c1d5;}.cls-38{fill:url(#Naamloos_verloop_2);}.cls-39{fill:url(#Naamloos_verloop_2-2);}.cls-40{fill:url(#Naamloos_verloop_2-3);}.cls-41{fill:url(#Naamloos_verloop_2-4);}.cls-42{fill:url(#Naamloos_verloop_2-5);}.cls-43{fill:url(#Naamloos_verloop_2-6);}.cls-44{fill:url(#Naamloos_verloop_46);}.cls-45{fill:url(#Naamloos_verloop_122-2);}.cls-46{fill:url(#Naamloos_verloop_122-3);}.cls-47{fill:#f47aa3;}.cls-48{fill:url(#Naamloos_verloop_46-2);}.cls-49{fill:#a6274d;}.cls-50{fill:url(#Naamloos_verloop_46-3);}.cls-51{fill:url(#Naamloos_verloop_46-4);}.cls-52{fill:url(#Naamloos_verloop_46-5);}.cls-53{fill:url(#Naamloos_verloop_46-6);}.cls-54{fill:url(#Naamloos_verloop_46-7);}.cls-55{fill:url(#Naamloos_verloop_46-8);}.cls-56{fill:url(#Naamloos_verloop_46-9);}.cls-57{fill:url(#Naamloos_verloop_46-10);}.cls-58{fill:#8a4d67;}.cls-59{fill:url(#Naamloos_verloop_2-7);}.cls-60{fill:url(#Naamloos_verloop_2-8);}.cls-61{fill:url(#Naamloos_verloop_2-9);}.cls-62{fill:url(#Naamloos_verloop_2-10);}.cls-63{fill:url(#Naamloos_verloop_2-11);}.cls-64{fill:url(#Naamloos_verloop_2-12);}.cls-65{fill:url(#Naamloos_verloop_2-13);}.cls-66{fill:url(#Naamloos_verloop_2-14);}.cls-67{fill:url(#Naamloos_verloop_2-15);}.cls-68{fill:url(#Naamloos_verloop_2-16);}.cls-69{fill:url(#Naamloos_verloop_2-17);}.cls-70{fill:url(#Naamloos_verloop_2-18);}.cls-71{fill:url(#Naamloos_verloop_2-19);}.cls-72{fill:url(#Naamloos_verloop_2-20);}.cls-73{fill:url(#Naamloos_verloop_2-21);}.cls-74{fill:none;}.cls-75{fill:url(#Naamloos_verloop_46-11);}.cls-76{fill:url(#Naamloos_verloop_2-22);}</style><linearGradient id="Naamloos_verloop_90" x1="421.26" y1="109.25" x2="474.54" y2="63.67" gradientUnits="userSpaceOnUse"><stop offset="0.46" stop-color="#73b4d8"/><stop offset="0.6" stop-color="#6fb1d6"/><stop offset="0.72" stop-color="#64aad0"/><stop offset="0.85" stop-color="#509dc6"/><stop offset="0.97" stop-color="#368ab8"/><stop offset="1" stop-color="#2f86b5"/></linearGradient><linearGradient id="Naamloos_verloop_90-2" x1="336.56" y1="83.12" x2="358.14" y2="64.66" xlink:href="#Naamloos_verloop_90"/><linearGradient id="Naamloos_verloop_90-3" x1="394.49" y1="44.41" x2="409.31" y2="31.74" xlink:href="#Naamloos_verloop_90"/><linearGradient id="Naamloos_verloop_90-4" x1="654.72" y1="116.74" x2="693.47" y2="83.59" xlink:href="#Naamloos_verloop_90"/><linearGradient id="Naamloos_verloop_90-5" x1="564.13" y1="38.48" x2="585.47" y2="20.23" xlink:href="#Naamloos_verloop_90"/><linearGradient id="Naamloos_verloop_99" x1="529.36" y1="112.81" x2="532.23" y2="260.12" gradientUnits="userSpaceOnUse"><stop offset="0.04" stop-color="#fff" stop-opacity="0"/><stop offset="0.16" stop-color="#73b4d8"/><stop offset="0.37" stop-color="#6fb1d6"/><stop offset="0.57" stop-color="#64aad0"/><stop offset="0.77" stop-color="#509dc6"/><stop offset="0.96" stop-color="#368ab8"/><stop offset="1" stop-color="#2f86b5"/></linearGradient><linearGradient id="Naamloos_verloop_90-6" x1="669.89" y1="99.01" x2="723.17" y2="53.43" xlink:href="#Naamloos_verloop_90"/><linearGradient id="Naamloos_verloop_42" x1="551.19" y1="228.05" x2="599.07" y2="204.31" gradientUnits="userSpaceOnUse"><stop offset="0.02" stop-color="#611831"/><stop offset="1" stop-color="#8a4d67"/></linearGradient><linearGradient id="Naamloos_verloop_53" x1="205.27" y1="264.54" x2="208.35" y2="306.15" gradientUnits="userSpaceOnUse"><stop offset="0.46" stop-color="#e8366b"/><stop offset="0.54" stop-color="#e8396d" stop-opacity="0.98"/><stop offset="0.61" stop-color="#e84273" stop-opacity="0.93"/><stop offset="0.68" stop-color="#e8517e" stop-opacity="0.85"/><stop offset="0.75" stop-color="#e8658c" stop-opacity="0.73"/><stop offset="0.81" stop-color="#e8809f" stop-opacity="0.58"/><stop offset="0.88" stop-color="#e8a1b6" stop-opacity="0.4"/><stop offset="0.95" stop-color="#e8c7d1" stop-opacity="0.18"/><stop offset="1" stop-color="#e8e8e8" stop-opacity="0"/></linearGradient><linearGradient id="Naamloos_verloop_53-2" x1="234.36" y1="264.95" x2="235.43" y2="322.44" xlink:href="#Naamloos_verloop_53"/><linearGradient id="Naamloos_verloop_53-3" x1="371.54" y1="173.01" x2="462.69" y2="392.97" xlink:href="#Naamloos_verloop_53"/><linearGradient id="Naamloos_verloop_53-4" x1="213.29" y1="246.69" x2="213.95" y2="282.36" xlink:href="#Naamloos_verloop_53"/><linearGradient id="Naamloos_verloop_53-5" x1="490.24" y1="317.2" x2="492.04" y2="414.34" xlink:href="#Naamloos_verloop_53"/><linearGradient id="Naamloos_verloop_53-6" x1="234.01" y1="316.91" x2="218.15" y2="355.44" xlink:href="#Naamloos_verloop_53"/><linearGradient id="Naamloos_verloop_53-7" x1="363.85" y1="330.17" x2="366.15" y2="454.45" xlink:href="#Naamloos_verloop_53"/><linearGradient id="Naamloos_verloop_45" x1="418.45" y1="364.36" x2="418.45" y2="412.58" gradientUnits="userSpaceOnUse"><stop offset="0.24" stop-color="#290a14"/><stop offset="0.48" stop-color="#551428"/><stop offset="0.62" stop-color="#701a34"/><stop offset="0.74" stop-color="#905265" stop-opacity="0.73"/><stop offset="0.98" stop-color="#e3dfe0" stop-opacity="0.05"/><stop offset="1" stop-color="#e8e8e8" stop-opacity="0"/></linearGradient><linearGradient id="Naamloos_verloop_53-8" x1="559.05" y1="319.82" x2="560.77" y2="412.79" xlink:href="#Naamloos_verloop_53"/><linearGradient id="Naamloos_verloop_53-9" x1="181.41" y1="346.67" x2="183.83" y2="477.33" xlink:href="#Naamloos_verloop_53"/><linearGradient id="Naamloos_verloop_53-10" x1="245.64" y1="322.46" x2="248.52" y2="477.77" xlink:href="#Naamloos_verloop_53"/><linearGradient id="Naamloos_verloop_60" x1="351.79" y1="294.77" x2="340.12" y2="311.07" gradientUnits="userSpaceOnUse"><stop offset="0.02" stop-color="#e8366b"/><stop offset="1" stop-color="#a6274d"/></linearGradient><linearGradient id="Naamloos_verloop_53-11" x1="247.09" y1="209.31" x2="236.74" y2="237.27" xlink:href="#Naamloos_verloop_53"/><linearGradient id="Naamloos_verloop_53-12" x1="268.34" y1="204.61" x2="283.75" y2="238.3" xlink:href="#Naamloos_verloop_53"/><linearGradient id="Naamloos_verloop_42-2" x1="237.7" y1="223.42" x2="278.51" y2="203.19" xlink:href="#Naamloos_verloop_42"/><linearGradient id="Naamloos_verloop_42-3" x1="337.98" y1="300.09" x2="379.44" y2="279.53" xlink:href="#Naamloos_verloop_42"/><linearGradient id="Naamloos_verloop_42-4" x1="381.38" y1="242.83" x2="424.25" y2="221.58" xlink:href="#Naamloos_verloop_42"/><linearGradient id="Naamloos_verloop_42-5" x1="431.37" y1="186.8" x2="492.5" y2="156.5" xlink:href="#Naamloos_verloop_42"/><linearGradient id="Naamloos_verloop_60-2" x1="430.66" y1="188.55" x2="428.24" y2="212.99" xlink:href="#Naamloos_verloop_60"/><linearGradient id="Naamloos_verloop_60-3" x1="396.98" y1="249.95" x2="382.23" y2="261.62" xlink:href="#Naamloos_verloop_60"/><linearGradient id="Naamloos_verloop_122" x1="381.04" y1="233.93" x2="377.63" y2="270.59" gradientUnits="userSpaceOnUse"><stop offset="0.02" stop-color="#1d1d1b"/><stop offset="0.53" stop-color="#211f1e" stop-opacity="0.94"/><stop offset="1" stop-color="#8a4d67" stop-opacity="0"/></linearGradient><linearGradient id="Naamloos_verloop_53-13" x1="213.89" y1="103.76" x2="255.41" y2="194.49" xlink:href="#Naamloos_verloop_53"/><linearGradient id="Naamloos_verloop_2" x1="423.15" y1="138.38" x2="440.12" y2="135.73" gradientTransform="translate(83.85 -133.93) rotate(19.04)" gradientUnits="userSpaceOnUse"><stop offset="0.02" stop-color="#1d1d1b"/><stop offset="0.48" stop-color="#2e1f22" stop-opacity="0.92"/><stop offset="0.74" stop-color="#672638" stop-opacity="0.64"/><stop offset="0.95" stop-color="#c8325e" stop-opacity="0.16"/><stop offset="1" stop-color="#e8366b" stop-opacity="0"/></linearGradient><linearGradient id="Naamloos_verloop_2-2" x1="422.69" y1="135.43" x2="439.66" y2="132.77" xlink:href="#Naamloos_verloop_2"/><linearGradient id="Naamloos_verloop_2-3" x1="422.71" y1="135.55" x2="439.68" y2="132.89" xlink:href="#Naamloos_verloop_2"/><linearGradient id="Naamloos_verloop_2-4" x1="422.82" y1="136.24" x2="439.79" y2="133.59" xlink:href="#Naamloos_verloop_2"/><linearGradient id="Naamloos_verloop_2-5" x1="423.51" y1="140.67" x2="440.48" y2="138.02" xlink:href="#Naamloos_verloop_2"/><linearGradient id="Naamloos_verloop_2-6" x1="423" y1="137.38" x2="439.97" y2="134.72" xlink:href="#Naamloos_verloop_2"/><linearGradient id="Naamloos_verloop_46" x1="436.85" y1="139.78" x2="457.09" y2="136.61" gradientTransform="matrix(1, 0, 0, 1, 0, 0)" xlink:href="#Naamloos_verloop_2"/><linearGradient id="Naamloos_verloop_122-2" x1="253.49" y1="207.77" x2="256.83" y2="221.07" xlink:href="#Naamloos_verloop_122"/><linearGradient id="Naamloos_verloop_122-3" x1="264.07" y1="205.11" x2="267.41" y2="218.4" xlink:href="#Naamloos_verloop_122"/><linearGradient id="Naamloos_verloop_46-2" x1="221.19" y1="208.56" x2="261.59" y2="202.23" gradientTransform="matrix(1, 0, 0, 1, 0, 0)" xlink:href="#Naamloos_verloop_2"/><linearGradient id="Naamloos_verloop_46-3" x1="328.1" y1="286.88" x2="350.37" y2="283.39" gradientTransform="matrix(1, 0, 0, 1, 0, 0)" xlink:href="#Naamloos_verloop_2"/><linearGradient id="Naamloos_verloop_46-4" x1="366.23" y1="254.32" x2="378.16" y2="252.45" gradientTransform="matrix(1, 0, 0, 1, 0, 0)" xlink:href="#Naamloos_verloop_2"/><linearGradient id="Naamloos_verloop_46-5" x1="506.11" y1="342.43" x2="559.75" y2="334.03" gradientTransform="matrix(1, 0, 0, 1, 0, 0)" xlink:href="#Naamloos_verloop_2"/><linearGradient id="Naamloos_verloop_46-6" x1="335.02" y1="246.39" x2="385.37" y2="238.51" gradientTransform="matrix(1, 0, 0, 1, 0, 0)" xlink:href="#Naamloos_verloop_2"/><linearGradient id="Naamloos_verloop_46-7" x1="313.3" y1="274.07" x2="360.14" y2="266.74" gradientTransform="matrix(1, 0, 0, 1, 0, 0)" xlink:href="#Naamloos_verloop_2"/><linearGradient id="Naamloos_verloop_46-8" x1="256.64" y1="332.37" x2="328.86" y2="321.06" gradientTransform="matrix(1, 0, 0, 1, 0, 0)" xlink:href="#Naamloos_verloop_2"/><linearGradient id="Naamloos_verloop_46-9" x1="216.04" y1="190.1" x2="259.17" y2="183.35" gradientTransform="matrix(1, 0, 0, 1, 0, 0)" xlink:href="#Naamloos_verloop_2"/><linearGradient id="Naamloos_verloop_46-10" x1="407.89" y1="173.93" x2="455.23" y2="166.52" gradientTransform="matrix(1, 0, 0, 1, 0, 0)" xlink:href="#Naamloos_verloop_2"/><linearGradient id="Naamloos_verloop_2-7" x1="418.48" y1="151.08" x2="443" y2="147.24" xlink:href="#Naamloos_verloop_2"/><linearGradient id="Naamloos_verloop_2-8" x1="419.68" y1="158.74" x2="444.2" y2="154.9" xlink:href="#Naamloos_verloop_2"/><linearGradient id="Naamloos_verloop_2-9" x1="418.71" y1="152.53" x2="443.23" y2="148.69" xlink:href="#Naamloos_verloop_2"/><linearGradient id="Naamloos_verloop_2-10" x1="418.95" y1="154.06" x2="443.47" y2="150.22" xlink:href="#Naamloos_verloop_2"/><linearGradient id="Naamloos_verloop_2-11" x1="401.12" y1="152.35" x2="442.65" y2="145.84" xlink:href="#Naamloos_verloop_2"/><linearGradient id="Naamloos_verloop_2-12" x1="418.26" y1="149.66" x2="442.78" y2="145.82" xlink:href="#Naamloos_verloop_2"/><linearGradient id="Naamloos_verloop_2-13" x1="400.46" y1="148.11" x2="441.99" y2="141.61" xlink:href="#Naamloos_verloop_2"/><linearGradient id="Naamloos_verloop_2-14" x1="417.6" y1="145.43" x2="442.12" y2="141.59" xlink:href="#Naamloos_verloop_2"/><linearGradient id="Naamloos_verloop_2-15" x1="400.89" y1="150.86" x2="442.42" y2="144.36" xlink:href="#Naamloos_verloop_2"/><linearGradient id="Naamloos_verloop_2-16" x1="418.03" y1="148.18" x2="442.55" y2="144.34" xlink:href="#Naamloos_verloop_2"/><linearGradient id="Naamloos_verloop_2-17" x1="400.52" y1="148.54" x2="442.06" y2="142.04" xlink:href="#Naamloos_verloop_2"/><linearGradient id="Naamloos_verloop_2-18" x1="417.66" y1="145.86" x2="442.19" y2="142.02" xlink:href="#Naamloos_verloop_2"/><linearGradient id="Naamloos_verloop_2-19" x1="400.7" y1="149.68" x2="442.24" y2="143.18" xlink:href="#Naamloos_verloop_2"/><linearGradient id="Naamloos_verloop_2-20" x1="417.84" y1="147" x2="442.37" y2="143.16" xlink:href="#Naamloos_verloop_2"/><linearGradient id="Naamloos_verloop_2-21" x1="433.36" y1="142.04" x2="438.02" y2="141.31" xlink:href="#Naamloos_verloop_2"/><linearGradient id="Naamloos_verloop_46-11" x1="407.8" y1="159.03" x2="457.78" y2="151.21" gradientTransform="matrix(1, 0, 0, 1, 0, 0)" xlink:href="#Naamloos_verloop_2"/><linearGradient id="Naamloos_verloop_2-22" x1="417.54" y1="145.04" x2="442.06" y2="141.2" xlink:href="#Naamloos_verloop_2"/></defs><title>illustratie_2</title><g id="Background_details" data-name="Background details"><path class="cls-1" d="M680.11,105.58a37.62,37.62,0,0,0-11.37,3,16.77,16.77,0,0,0-8.32,8c-2.42,5.51-.77,11.86-1.17,17.86a26.09,26.09,0,0,1-5.82,14.67c-3.51,4.26-8.33,7.34-11.61,11.78-6.28,8.49-5.62,20.78-.34,29.92,3.06,5.29,7.65,9.86,13.38,12s12.61,1.56,17.39-2.25c5.33-4.26,7.35-11.64,12.58-16,6.09-5.09,14.8-4.9,22.72-5.28a70.85,70.85,0,0,0,15.21-2.2,28,28,0,0,0,10.3-4.87,14.73,14.73,0,0,0,5.64-9.66,16.27,16.27,0,0,0-2.57-9.78,25.63,25.63,0,0,0-8.52-8.68c-3-1.85-6.77-3.64-7.24-7.12a8.29,8.29,0,0,1,.71-4,24.2,24.2,0,0,1,4.07-6.82c3.22-3.81,7.84-7.08,8.42-12,.54-4.67-2.94-8.94-6.93-11.42-8.26-5.14-18.67-5-28.35-4.07-7.68.76-15.55,2-22.16,6C678,104.49,678.75,104.35,680.11,105.58Z"/><path class="cls-1" d="M522.52,116.64c-4-3.78-6.74-9.08-6.49-14.55a27.63,27.63,0,0,1,2.36-8.88A126.42,126.42,0,0,1,533.57,66a29.2,29.2,0,0,1,6.91-7.24c2.78-1.87,6.34-2.85,9.55-1.89,2.57.77,4.68,2.69,7.24,3.5a18.11,18.11,0,0,0,5.55.55c3.13,0,6.43-.06,9.14-1.65C575,57.43,576.72,54,578.55,51a53.66,53.66,0,0,1,8.66-10.91,17.39,17.39,0,0,1,7.08-4.62c3.46-1,7.17-.1,10.51,1.23,2.9,1.15,5.77,2.73,7.61,5.25,3.43,4.7,2.38,11.4-.38,16.53-2.2,4.1-5.5,8.29-4.54,12.85.62,2.9,2.88,5.19,3.78,8,1.08,3.38.05,7.13-1.76,10.19s-4.32,5.62-6.56,8.38c-3.69,4.55-7.47,10.2-13.31,10.6-3,.21-5.95-1.13-9-1.62a16.45,16.45,0,0,0-13.51,4c-3,2.77-4.94,6.63-8.07,9.3C549.1,128.71,531.28,125,522.52,116.64Z"/><polygon class="cls-2" points="463.86 40.95 411.64 78.04 442.98 120.72 497.34 83.61 463.86 40.95"/><path class="cls-3" d="M371.44,136.65l-38.66-7a5.84,5.84,0,0,1-4.82-5.75h0a5.85,5.85,0,0,1,6.89-5.76l38.67,7a5.86,5.86,0,0,1,4.81,5.76h0A5.85,5.85,0,0,1,371.44,136.65Z"/><path class="cls-3" d="M404.64,120.63l-38.67-7a5.86,5.86,0,0,1-4.81-5.76h0a5.85,5.85,0,0,1,6.89-5.76l38.66,7a5.86,5.86,0,0,1,4.82,5.76h0A5.85,5.85,0,0,1,404.64,120.63Z"/><path class="cls-3" d="M371.44,160.42l-38.66-7a5.84,5.84,0,0,1-4.82-5.75h0a5.85,5.85,0,0,1,6.89-5.76l38.67,7a5.86,5.86,0,0,1,4.81,5.76h0A5.85,5.85,0,0,1,371.44,160.42Z"/><path class="cls-3" d="M626.93,202.35l-38.67-7a5.86,5.86,0,0,1-4.81-5.76h0a5.85,5.85,0,0,1,6.89-5.76l38.67,7a5.86,5.86,0,0,1,4.81,5.76h0A5.85,5.85,0,0,1,626.93,202.35Z"/><path class="cls-3" d="M653.61,175.06l-52.24-9.42a7.9,7.9,0,0,1-6.5-7.78h0a7.91,7.91,0,0,1,9.31-7.78l52.24,9.42a7.91,7.91,0,0,1,6.5,7.78h0A7.9,7.9,0,0,1,653.61,175.06Z"/><path class="cls-3" d="M696.73,211.69l-38.67-7a5.86,5.86,0,0,1-4.81-5.76h0a5.85,5.85,0,0,1,6.89-5.76l38.66,7a5.86,5.86,0,0,1,4.82,5.76h0A5.85,5.85,0,0,1,696.73,211.69Z"/><circle class="cls-4" cx="349.76" cy="71.82" r="13.71"/><circle class="cls-5" cx="403.56" cy="36.66" r="9.41"/><circle class="cls-6" cx="437.13" cy="92.91" r="7.66"/><circle class="cls-3" cx="505.98" cy="89.67" r="19.65"/><circle class="cls-7" cx="678.43" cy="96.45" r="24.63"/><circle class="cls-3" cx="540.66" cy="158.81" r="5.83"/><path class="cls-6" d="M443.86,112.62A7.82,7.82,0,0,1,449,104a12.09,12.09,0,0,1,1.74-.41,8.24,8.24,0,0,0,1.7-.44,3.88,3.88,0,0,0,1.75-4.8,10.14,10.14,0,0,0-.66-1.32,7.25,7.25,0,0,1-1.21-3.78c.09-2.79,2.59-4.51,3.93-5.43l1.7,2.47c-1.34.92-2.59,1.94-2.63,3.06a4.89,4.89,0,0,0,.84,2.23,14.75,14.75,0,0,1,.83,1.69,6.83,6.83,0,0,1-3.35,8.63,10.75,10.75,0,0,1-2.35.64,11.42,11.42,0,0,0-1.36.31,4.8,4.8,0,0,0-3.11,5.25Z"/><polygon class="cls-3" points="399.7 136.14 399.7 158.81 423.58 153.07 399.7 136.14"/><polygon class="cls-1" points="396.81 82.98 397.24 103.13 412.97 106.27 412.97 85.25 396.81 82.98"/><polygon class="cls-1" points="497.34 15.41 502.4 62.75 544.11 35.23 497.34 15.41"/><polygon class="cls-8" points="561.04 29.28 586.73 17.61 577.27 39.08 561.04 29.28"/><path class="cls-3" d="M484.57,44.93a59.85,59.85,0,0,1-6.34-21.26l2-.21A57.83,57.83,0,0,0,486.34,44Z"/><path class="cls-3" d="M487.1,39.89a38.77,38.77,0,0,1-3.8-16.77h2A36.83,36.83,0,0,0,488.9,39Z"/><path class="cls-3" d="M550,49.67l-1.87-.7a18.7,18.7,0,0,1,10-10.49l.79,1.83A16.76,16.76,0,0,0,550,49.67Z"/><path class="cls-3" d="M553.78,50.32l-1.89-.66a12,12,0,0,1,7.18-7.28l.68,1.88A10.18,10.18,0,0,0,553.78,50.32Z"/><path class="cls-3" d="M475.67,112.38a16.56,16.56,0,0,1-1.73-.08l.2-2a16.63,16.63,0,0,0,12.32-3.9l1.3,1.52A18.74,18.74,0,0,1,475.67,112.38Z"/><path class="cls-3" d="M476.81,108.57a11.89,11.89,0,0,1-1.79-.14l.31-2a10,10,0,0,0,8.15-2.43l1.33,1.49A12,12,0,0,1,476.81,108.57Z"/><path class="cls-3" d="M526.38,151.42l-1.87-.7a18.7,18.7,0,0,1,10-10.49l.79,1.84A16.71,16.71,0,0,0,526.38,151.42Z"/><path class="cls-3" d="M530.14,152.07l-1.89-.66a12.06,12.06,0,0,1,7.18-7.28l.68,1.88A10.21,10.21,0,0,0,530.14,152.07Z"/><polyline class="cls-9" points="407.75 182.36 448.59 190.33 652.35 113.83 603.22 112.29 407.75 182.36"/><polygon class="cls-6" points="669.3 52.4 669.3 91.42 727.87 98.09 727.87 55.73 669.3 52.4"/><polygon class="cls-10" points="672.38 48.98 672.38 88.01 730.95 94.67 730.95 52.31 672.38 48.98"/></g><g id="Organische_vormen" data-name="Organische vormen"><path class="cls-1" d="M264.21,317.92s7.31,7.09,11.14,8.17L256.5,340.58s-4.62-10.9-6.82-11.49C249.68,329.09,263.77,319.9,264.21,317.92Z"/><path class="cls-11" d="M549.46,210.09c5.39-.55,11-.77,16.07,1.16s9.47,6.5,9.65,11.92c.11,3.45-1.43,7-.49,10.26,1.65,5.84,9.76,7.53,12.22,13.08a14.25,14.25,0,0,1,.77,6.66c-.27,4.14-1.3,8.76-4.81,11s-8.48,1.06-12.42-.73c-11.22-5.11-21.35-14.16-33.69-14.37-7.77-.13-15.08,3.36-22.48,5.74s-16.07,3.5-22.51-.86c-5.56-3.76-8-10.69-9.09-17.32s-1-13.61,1.81-19.69a31.71,31.71,0,0,1,8.18-10.51c7.42-6.55,16.58-9,25.05-3.22C528.44,210.52,536.58,211.4,549.46,210.09Z"/><path class="cls-12" d="M250,283.34a11.28,11.28,0,0,1,.93,6.45c1.42-2.44,3.59-5.23,6.37-4.7s3.8,4.11,3.1,6.83-2.5,5-3.32,7.73a9,9,0,0,1,3.48-2.89c1.44-.52,3.34-.08,3.92,1.33a4.2,4.2,0,0,1-.18,2.83,28.38,28.38,0,0,1-5.29,9.5,21.1,21.1,0,0,1,5.17-.86c1.18,2.13-.18,4.78-1.76,6.65a27,27,0,0,1-9,6.89,2.33,2.33,0,0,1-1.25.32,2.5,2.5,0,0,1-1.2-.68c-3-2.55-25.92-19.42-28.89-22,0-7,1.82-5.31,8-10.59,1.94-1.67,12.46-1.71,13.81-3.95C244.32,285.45,249.09,281.47,250,283.34Z"/><polygon class="cls-13" points="180.84 272.8 180.84 314.2 211.1 315.85 224.31 291.08 234.86 284.5 223.87 283.15 180.84 272.8"/><path class="cls-14" d="M241.47,283.16l6.53,1.17v34.05s-28.75-13.49-26.11-19.95S241.47,283.16,241.47,283.16Z"/><path class="cls-15" d="M448.84,189.49v35.14l-44.7,20.26v39.44l-40.92,16.86v25.25c-9.8,3.07-67.31,21.53-73.35,33.61C283.26,373.26,360,436.23,360,436.23L527.45,378V160.62Z"/><path class="cls-16" d="M233.28,257.74v21.89s-46.15-.4-38.47-11.48S233.28,257.74,233.28,257.74Z"/><path class="cls-17" d="M554.72,406.73s-43.13-10.35-57.66-3.75-61.21-.66-61.21-.66l-9-53s31.93,8.95,45.8,5.86,79.11-.83,81.28,2.85.69,5.61.69,5.61Z"/><path class="cls-18" d="M198.87,305.82v46.25l34.41,13.43s28.88-17.61,27.9-18.27-28.06-31.37-28.94-31.87S198.87,305.82,198.87,305.82Z"/><path class="cls-19" d="M444.51,376.31v57.28s-101,29.94-155-2l-4.69-60.33S411.12,398.74,444.51,376.31Z"/><path class="cls-20" d="M412.07,345.08h-4.32v36.77s25.46,0,20.83-15.42S412.07,345.08,412.07,345.08Z"/><path class="cls-12" d="M356.69,361.48c-1.46-3.51-2.53-7.42-1.55-11.1a3.49,3.49,0,0,1,2.07-2.66,2.79,2.79,0,0,1,2.91,1.4,8.21,8.21,0,0,1,.9,3.32c-.14-3.82-.18-7.74,1.13-11.33s4.23-6.82,8-7.44a2,2,0,0,1,1.85.4,2.28,2.28,0,0,1,.44,1.25l.52,3.92c1.47-3.76,3.55-8.05,7.52-8.81a7.47,7.47,0,0,1,4.68.75,3.67,3.67,0,0,1,1.53,1.22,4.42,4.42,0,0,1,.1,3.45,53.23,53.23,0,0,1-3.38,9.4,16.9,16.9,0,0,1,2.94-4.14,5.68,5.68,0,0,1,4.64-1.67,2.59,2.59,0,0,1,1.56.8,3.53,3.53,0,0,1,.31,3.06,33.13,33.13,0,0,1-2.94,8,11,11,0,0,1,4.58-2.9c1.78-.43,4,.28,4.6,2a5,5,0,0,1-.08,3,20.11,20.11,0,0,1-3.88,7.67,9,9,0,0,1,4.73-2.14,1.71,1.71,0,0,1,1.05.12,1.68,1.68,0,0,1,.65,1.39c.3,3.46-1.69,6.68-3.73,9.49-1.6,2.19-3.27,4.32-5,6.38a4,4,0,0,1-4,1.78q-5.38.06-10.76-.33c-3.24-.23-8.3.06-11.26-1.34C362.21,374.21,358.57,366,356.69,361.48Z"/><path class="cls-21" d="M221.72,253.59l11.56,4.15s-51.52,5.21-33,14.78,50.84.51,47.75,11.81c-4.36,15.95-29.58,3.72-21.65,15.28s29.53,15.08,27.31,24.72,7.82,18.89,25.86,11.45,40.38-19.26,40.38-19.26l43.32,9.92s-69.58,23.37-62.6,34.27,32.91,3,48.51,7.92,81.66,21.47,77.69-2a165.54,165.54,0,0,0-17.17-17.29c-8.59-7.15,11.56-12.1,24.11-8.47s32.37,13.63,42.27,8.47,21.47-11.44,40-7.81,49.54,7.81,49.54,7.81l-10.95,14.32S512,350.8,499.15,357.41s-33.32,3.3-50-.33-22.64.66-14.05,4,16.18,25.1,0,27.41-52.64,9.25-80.82,0-66.48-10.57-69.46-17.17l-77.28,39.3-49.21-21.8,90.11-39.42s-18.11-1.26-17.12-12.79-23.12-11.31-31.38-26.12,32.7-21.08,27.09-24.38-28.74,2.87-40.3-4.3C177.37,276,173.17,259.42,221.72,253.59Z"/><polygon class="cls-22" points="565.54 349.36 565.54 393.07 554.72 406.73 554.59 363.68 565.54 349.36"/><polygon class="cls-23" points="158.31 388.78 158.31 445.48 206.51 468.23 207.52 410.58 158.31 388.78"/><polygon class="cls-24" points="207.52 410.58 206.51 468.23 289.49 431.61 284.8 371.28 207.52 410.58"/><polyline class="cls-25" points="319.52 292.19 319.9 316.52 363.22 326.44 363.22 301.19 319.52 292.19"/><polyline class="cls-26" points="219.14 214.83 219.14 235.8 257.75 250.49 257.75 226.24 219.14 214.83"/><polyline class="cls-27" points="303.22 208.73 303.22 239.12 257.75 253.59 257.75 224.94 303.22 208.73"/><path class="cls-12" d="M405.09,192.59c-1.52-1.38-3.35-2.67-5.67-1.71a5.31,5.31,0,0,0-2.9,3.2c-1,2.84-.09,5.78.8,8.55.45-2.14-2.31-3.92-4.35-3.15s-3.08,3.16-3,5.34a21.37,21.37,0,0,0,1.6,6.32c-1.23-1.46-3.9-.92-4.81.76a4.44,4.44,0,0,0,1.17,5.19l-.05,0a3.37,3.37,0,0,0-3.51,5.23,18.25,18.25,0,0,0,1.65,2c1.69,1.85,3.63,3.66,6.08,4.19a13.15,13.15,0,0,0,5.43-.32,130.42,130.42,0,0,0,18.19-5.26c-.32-5.54.61-13.13-1.67-18.27a42,42,0,0,0-3.32-5.17,36.82,36.82,0,0,0-2.69-3.85C407.58,195.13,405.09,193.11,405.09,192.59Z"/></g><g id="Background"><polygon class="cls-28" points="219.14 214.83 257.75 226.24 303.22 208.73 266.7 201.1 219.14 214.83"/><polygon class="cls-29" points="319.52 292.19 363.22 301.19 404.14 284.33 363.25 275.99 319.52 292.19"/><polygon class="cls-30" points="363.25 236.58 404.22 245.3 448.84 224.63 408.46 217.54 363.25 236.58"/><polygon class="cls-31" points="407.75 182.36 448.59 190.33 482.85 177.42 439.53 170.92 407.75 182.36"/><polygon class="cls-3" points="481.71 155.73 439.53 170.92 482.85 177.42 527.45 160.62 481.71 155.73"/><polygon class="cls-32" points="407.75 182.36 408.46 217.54 450.58 224.94 449.79 190.57 407.75 182.36"/><polygon class="cls-33" points="363.25 236.58 363.25 275.99 404.14 284.33 404.22 245.3 363.25 236.58"/><polygon class="cls-34" points="369.98 238.24 371.1 272.78 387.87 275.04 386.87 241.61 369.98 238.24"/></g><g id="Mensen"><path class="cls-1" d="M543.62,298.43s7.94,19.3,23,19.3l12.88-15.19s-16.68-7.77-16.85-12.56C562.62,290,548.39,300.6,543.62,298.43Z"/><path class="cls-1" d="M298.23,297.18l-4,19.84s14.17-1.63,16.11-1c0,0,.78-13.74,1.8-15.94C312.18,300,301.13,301.55,298.23,297.18Z"/><path class="cls-1" d="M287.14,286.72s1,6.95,2.6,9.15l-16.37-.1s2.1-7.88,1.15-9.13C274.52,286.64,286.06,287.61,287.14,286.72Z"/><path class="cls-35" d="M226.69,211.27a12.15,12.15,0,0,1-2.24-10.37c1.05-4.16,4.29-7.62,4.78-11.89.62-5.38-3.24-10.11-5.36-15.1a28.22,28.22,0,0,1-2.11-11.42,33.83,33.83,0,0,1,22.71-30.81,23.74,23.74,0,0,1,10.72-1.16,15.24,15.24,0,0,1,9.43,4.94c3.71,4.36,4.09,10.72,2.91,16.32-.79,3.72-2.18,7.4-2,11.2.24,4.64,2.88,8.86,6.1,12.21s7.06,6,10.52,9.14a12.32,12.32,0,0,1,3.21,3.95c1.15,2.62.54,5.68-.48,8.36a35.06,35.06,0,0,1-10.09,13.85,25.47,25.47,0,0,1-8.35,5c-3.45,1.16-7.16,1.23-10.79,1.3-5.87.1-11.74.11-17.61.33C233.93,217.3,229.27,214.5,226.69,211.27Z"/><polygon class="cls-36" points="390.32 161.21 551.81 185.75 551.83 88.07 390.3 68.08 390.32 161.21"/><path class="cls-37" d="M451.4,160.45c0,1.29,0,2.58,0,3.87a31.64,31.64,0,0,1,3.22.09c-.73,0-.13,3.27-.12,3.94,0,1.53.14,2.88.22,4.4a9.92,9.92,0,0,0,2.11-.08,1.18,1.18,0,0,0,.85-.43,1.32,1.32,0,0,0,.13-.63c.1-2.78.07-5.56-.06-8.33a2.37,2.37,0,0,0-.37-1.37,1.86,1.86,0,0,0-.75-.51,22.79,22.79,0,0,0-3.2-.84,5.47,5.47,0,0,1-1.29-.5A1.49,1.49,0,0,1,451.4,160.45Z"/><path class="cls-1" d="M466,143.91a.6.6,0,0,0-.35,0,.83.83,0,0,0-.36.4c-.37.68-.42.72-.79,1.39-.1-.16-.19-.32-.28-.49l-.06-.07c-.09-.08-.25,0-.28.12a.48.48,0,0,0,.11.34c.08.09-.16.47-.11.59a1.19,1.19,0,0,1,.58,1.32,1.23,1.23,0,0,0,.48-.18,1.43,1.43,0,0,0,.32-.33l1.34-1.66c.22-.28.33-.22.39-.58S466.48,144,466,143.91Z"/><path class="cls-6" d="M453.68,137.18a.42.42,0,0,0,0,.1c-.29.6.05.93,0,1.6s-.34,1.9.2,2.51a5,5,0,0,0,.62-2.64,6.6,6.6,0,0,0-.37-2.56,3.68,3.68,0,0,1-.15.35C454.05,136.71,454.09,137,453.68,137.18Z"/><path class="cls-21" d="M452.41,134.45a.59.59,0,0,1,.23,0A.86.86,0,0,0,452.41,134.45Z"/><path class="cls-21" d="M452.7,134.39a1.45,1.45,0,0,1,.68.15A1.45,1.45,0,0,0,452.7,134.39Z"/><path class="cls-21" d="M449.32,138l-.17-.32Z"/><path class="cls-21" d="M452.34,134.48a.76.76,0,0,0-.23.17,1.05,1.05,0,0,1-.6.24,1.05,1.05,0,0,0,.6-.24A.76.76,0,0,1,452.34,134.48Z"/><path class="cls-21" d="M448.84,136.9a.53.53,0,0,0,0,.17l.18.38-.18-.38A.53.53,0,0,1,448.84,136.9Z"/><path class="cls-21" d="M450.27,140.6h0c0,.13.05.26.07.39h0Z"/><path class="cls-21" d="M453.76,134.8a2.16,2.16,0,0,1,.29.31A2.16,2.16,0,0,0,453.76,134.8Z"/><path class="cls-21" d="M453.38,134.54a2.2,2.2,0,0,1,.32.21A2.2,2.2,0,0,0,453.38,134.54Z"/><polygon class="cls-21" points="450.33 140.98 450.33 140.98 450.33 140.99 450.33 140.98"/><polygon class="cls-21" points="451.91 141.05 451.91 141.05 450.33 140.99 451.91 141.05"/><path class="cls-21" d="M453.17,138a.77.77,0,0,1,.07-.42A.77.77,0,0,0,453.17,138Z"/><polygon class="cls-21" points="453.13 138.57 453.13 138.57 453.05 138.61 453.05 138.61 453.13 138.57"/><path class="cls-21" d="M451.91,141v0Z"/><polygon class="cls-21" points="453.31 138.47 453.31 138.47 453.13 138.57 453.13 138.57 453.31 138.47"/><path class="cls-38" d="M448.84,136.9a.55.55,0,0,1,.07-.3A.55.55,0,0,0,448.84,136.9Z"/><path class="cls-39" d="M452.64,134.4h0Z"/><path class="cls-40" d="M452.34,134.48l.07,0Z"/><path class="cls-41" d="M450.6,135c.32,0,.64-.06.91-.11C451.24,134.94,450.92,135,450.6,135Z"/><path class="cls-42" d="M449.32,138l.11.23a6.32,6.32,0,0,1,.83,2.41,6.32,6.32,0,0,0-.83-2.41Z"/><path class="cls-43" d="M450.14,135.07c-.43.08-.77.22-.81.52a2.54,2.54,0,0,1-.42,1,2.54,2.54,0,0,0,.42-1C449.37,135.29,449.71,135.15,450.14,135.07Z"/><path class="cls-21" d="M450.44,140.27c0-.31.06-.52.06-.52a.72.72,0,0,1,.23-.12c0-.12.07-.24.1-.36a1.43,1.43,0,0,1-.12-.31,1,1,0,0,1,.15-.94,2.06,2.06,0,0,1,0-1.13c.21-.51.78-.75,1.25-1a4.09,4.09,0,0,0,1.25-1.3h0a1.45,1.45,0,0,0-.68-.15h-.06a.59.59,0,0,0-.23,0l-.07,0a.76.76,0,0,0-.23.17,1.05,1.05,0,0,1-.6.24c-.27.05-.59.08-.91.11l-.46.07c-.43.08-.77.22-.81.52a2.54,2.54,0,0,1-.42,1,.55.55,0,0,0-.07.3.53.53,0,0,0,0,.17l.18.38.09.18.17.32.11.23a6.32,6.32,0,0,1,.83,2.41h0Z"/><path class="cls-21" d="M450.5,139.75s0,.21-.06.52a5.24,5.24,0,0,0,.29-.64A.72.72,0,0,0,450.5,139.75Z"/><path class="cls-21" d="M450.86,138a1,1,0,0,0-.15.94,1.43,1.43,0,0,0,.12.31,2.93,2.93,0,0,0,.09-.84A3.12,3.12,0,0,0,450.86,138Z"/><path class="cls-21" d="M453.7,134.75l.06.05Z"/><polygon class="cls-21" points="453.38 134.54 453.38 134.54 453.38 134.54 453.38 134.54"/><path class="cls-21" d="M453.2,138.16l0-.19Z"/><path class="cls-21" d="M453.2,138.16a.31.31,0,0,1,0,.08h0A.31.31,0,0,0,453.2,138.16Z"/><path class="cls-21" d="M452,139.48a1.25,1.25,0,0,1,.17-.48A1.25,1.25,0,0,0,452,139.48Z"/><path class="cls-21" d="M451.91,141h0v0Z"/><path class="cls-21" d="M453.31,138.47a1.19,1.19,0,0,1-.09-.23h0a1.19,1.19,0,0,0,.09.23Z"/><path class="cls-3" d="M454.08,136.14a.82.82,0,0,0,0-1,2.16,2.16,0,0,0-.29-.31l-.06-.05a2.2,2.2,0,0,0-.32-.21h0a1.45,1.45,0,0,0-.68-.15h-.06a.59.59,0,0,0-.23,0l-.07,0a.76.76,0,0,0-.23.17,1.05,1.05,0,0,1-.6.24c-.27.05-.59.08-.91.11l-.46.07c-.43.08-.77.22-.81.52a2.54,2.54,0,0,1-.42,1,.55.55,0,0,0-.07.3.53.53,0,0,0,0,.17l.18.38.09.18.17.32.11.23a6.32,6.32,0,0,1,.83,2.41h0l.06.38h0l1.58.07h0v-.26c0-.25,0-.65.07-1a2.54,2.54,0,0,1,0-.29,1.25,1.25,0,0,1,.17-.48l.09-.07a.86.86,0,0,1-.22-.41c-.08-.38.07-.72.34-.77s.55.21.63.58a.9.9,0,0,1,0,.28l.08,0,.18-.1a1.19,1.19,0,0,1-.09-.23.31.31,0,0,0,0-.08l0-.19a.77.77,0,0,1,.07-.42.66.66,0,0,1,.36-.33l.08,0c.41-.2.37-.47.28-.64a.88.88,0,0,0-.11-.14A1.41,1.41,0,0,0,454.08,136.14Z"/><path class="cls-44" d="M452.7,134.39h-.06a.59.59,0,0,0-.23,0l-.07,0a.76.76,0,0,0-.23.17,1.05,1.05,0,0,1-.6.24c-.27.05-.59.08-.91.11l-.46.07c-.43.08-.77.22-.81.52a2.54,2.54,0,0,1-.42,1,.55.55,0,0,0-.07.3.53.53,0,0,0,0,.17l.18.38.09.18.17.32.11.23a6.32,6.32,0,0,1,.83,2.41h0l.17-.33a5.24,5.24,0,0,0,.29-.64c0-.12.07-.24.1-.36a2.93,2.93,0,0,0,.09-.84,3.12,3.12,0,0,0-.06-.41,2.06,2.06,0,0,1,0-1.13c.21-.51.78-.75,1.25-1a4.09,4.09,0,0,0,1.25-1.3A1.45,1.45,0,0,0,452.7,134.39Z"/><polygon class="cls-1" points="453.05 138.61 453.05 138.61 452.82 138.73 453.05 138.61"/><path class="cls-1" d="M454.08,136.14a1.41,1.41,0,0,1-.23.26.88.88,0,0,1,.11.14,3.68,3.68,0,0,0,.15-.35Z"/><path class="cls-1" d="M453.66,138.88c0-.67-.31-1,0-1.6a.42.42,0,0,1,0-.1l-.08,0a.66.66,0,0,0-.36.33.77.77,0,0,0-.07.42l0,.19a.31.31,0,0,1,0,.08,1.19,1.19,0,0,0,.09.23h0l-.18.1-.08,0a.9.9,0,0,0,0-.28c-.08-.37-.36-.63-.63-.58s-.42.39-.34.77a.86.86,0,0,0,.22.41l-.09.07a1.25,1.25,0,0,0-.17.48,2.54,2.54,0,0,0,0,.29c-.05.36-.06.76-.07,1V141h0l-1.58-.07h0c0,.18-.07.36-.12.54a3.66,3.66,0,0,1,2.26.59,2.76,2.76,0,0,1,.06-.4.93.93,0,0,0,.31.13,1.13,1.13,0,0,0,.18,0,1,1,0,0,0,.84-.48C453.32,140.78,453.61,139.69,453.66,138.88Z"/><path class="cls-3" d="M464.07,145.9l-5.68,1.62a.52.52,0,0,1-.58-.21,29.15,29.15,0,0,0-3.72-3.53,12.06,12.06,0,0,0-1-.61h0a1.63,1.63,0,0,0-.58-1,3.66,3.66,0,0,0-2.26-.59h-.11l-.63.6h0c.09.16.17.33.25.5l.09.17c.08.18.17.35.25.53a8.58,8.58,0,0,1,.41,1.06c.07.21.11.42.16.63a2.48,2.48,0,0,1,.18.31,11.54,11.54,0,0,1,.76,5.61c-.08,2.88-.14,5.77-.17,8.65a3.5,3.5,0,0,0,.71.47.61.61,0,0,0,.17-.43c-.1-3.06,1.91-10.67,1.91-10.67s2.47,1.41,3.48,1.79,7.06-3.17,7.06-3.17a2,2,0,0,0,.09-.45A1.21,1.21,0,0,0,464.07,145.9Z"/><polygon class="cls-21" points="557.54 83.61 565.54 187.09 556.54 191.81 557.54 83.61"/><polygon class="cls-21" points="396.11 60.49 386.34 63.78 390.31 110.08 390.3 68.08 551.83 88.07 551.81 184.98 565.54 187.09 565.54 93.52 565.54 80.64 396.11 60.49"/><polygon class="cls-45" points="242.5 215.59 259.97 223.18 269.5 219.96 248 215.09 242.5 215.59"/><polygon class="cls-46" points="254.79 213.6 270.58 219.55 278.3 216.34 259.92 213.13 254.79 213.6"/><path class="cls-12" d="M386.34,63.78V165.65l170.2,26.16,1.09-107Zm165.47,122L390.32,161.21l0-93.13,161.53,20Z"/><path class="cls-21" d="M246.41,213.13s-.76,1.47-1.2,1.53-2.66.64-3.2.42c0,0-.46-.08-.49.22,0,0-.47.81,1.9.95a12,12,0,0,0,3,.17,2.4,2.4,0,0,0,2,.07v-3.11S246.85,212.72,246.41,213.13Z"/><path class="cls-21" d="M260.17,210.62a.3.3,0,0,0-.1-.14.3.3,0,0,0-.19,0c-.31,0-1.12-.2-1.37,0s-.06.81-.06,1.1a1,1,0,0,1-.06.42.91.91,0,0,1-.35.32,6.52,6.52,0,0,1-2.56.89,1.1,1.1,0,0,0-.48.12.37.37,0,0,0-.19.42c.07.17.29.22.48.24a8.52,8.52,0,0,0,2.85,0c.08.21.35.28.58.3a4,4,0,0,0,2-.19l-.53-3.45"/><path class="cls-47" d="M254.84,191.93a30.36,30.36,0,0,0,.57,3.5c.36,2.7,1.08,3.58.89,6.2a1.94,1.94,0,0,0,0,.68,1.89,1.89,0,0,0,.38.57,17,17,0,0,1,3.69,7.72,2.75,2.75,0,0,1-2.08.73,18.9,18.9,0,0,0-3.53-5.71,7.79,7.79,0,0,1-1.29-1.67,6.72,6.72,0,0,1-.48-2.06,16.56,16.56,0,0,0-2.19-6.08,17.05,17.05,0,0,1-.58,5.85,17.39,17.39,0,0,0-.5,2,15.88,15.88,0,0,0,0,2.58,34.24,34.24,0,0,1-1.15,8.07,6.65,6.65,0,0,1-2.27-.27.52.52,0,0,1-.32-.2.41.41,0,0,1,0-.29,8.47,8.47,0,0,0,.21-2.3V196.34c0-2.54,0-5.22,1.67-7.37a1.05,1.05,0,0,1,.48-.4,1.68,1.68,0,0,1,.55,0,13.46,13.46,0,0,0,2.54-.07q.66-.08,1.32-.21c.3-.07.14-.39.43-.35C254.08,188,254.9,191.24,254.84,191.93Z"/><path class="cls-48" d="M254.66,201.16c-.19-1.59-1.74-2.75-2-4.33-.12-.76.07-1.61-.35-2.25a1.64,1.64,0,0,0-1.75-.63,2.43,2.43,0,0,0-1.51,1.21,5.14,5.14,0,0,0-.58,1.89,11.16,11.16,0,0,0,0,2.77c.14,1.24.49,2.57,0,3.72a14.45,14.45,0,0,0-1.21,2.12,4.48,4.48,0,0,0,.18,2.14,9.17,9.17,0,0,1,0,5.09c-.15.42-.34.84-.51,1.25a6.55,6.55,0,0,0,1.65.15,34.24,34.24,0,0,0,1.15-8.07,15.88,15.88,0,0,1,0-2.58,17.39,17.39,0,0,1,.5-2,17.05,17.05,0,0,0,.58-5.85,16.56,16.56,0,0,1,2.19,6.08,6.72,6.72,0,0,0,.48,2.06,4.41,4.41,0,0,0,.69,1,12,12,0,0,1,.2-1.57A7,7,0,0,0,254.66,201.16Z"/><path class="cls-47" d="M258.31,211.33a2.75,2.75,0,0,0,2.08-.73,17,17,0,0,0-3.69-7.72,1.89,1.89,0,0,1-.38-.57,1.94,1.94,0,0,1,0-.68c.19-2.62-.53-3.5-.89-6.2a30.36,30.36,0,0,1-.57-3.5c.06-.69-.76-3.9-1.68-4-.29,0-.13.28-.43.35s-.88.16-1.32.21a13.46,13.46,0,0,1-2.54.07,1.68,1.68,0,0,0-.55,0,1.05,1.05,0,0,0-.48.4c-1.63,2.15-1.67,4.83-1.67,7.37v14.89a8.47,8.47,0,0,1-.21,2.3.41.41,0,0,0,0,.29.52.52,0,0,0,.32.2,6.18,6.18,0,0,0,.62.12c.17-.41.36-.83.51-1.25a9.17,9.17,0,0,0,0-5.09,4.48,4.48,0,0,1-.18-2.14,14.45,14.45,0,0,1,1.21-2.12c.51-1.15.16-2.48,0-3.72a11.16,11.16,0,0,1,0-2.77,5.14,5.14,0,0,1,.58-1.89,2.43,2.43,0,0,1,1.51-1.21,1.64,1.64,0,0,1,1.75.63c.42.64.23,1.49.35,2.25.24,1.58,1.79,2.74,2,4.33a7,7,0,0,1-.28,2.21,12,12,0,0,0-.2,1.57c.19.23.4.46.6.68A18.9,18.9,0,0,1,258.31,211.33Z"/><path class="cls-6" d="M262.06,188a.26.26,0,0,1,0,.21.28.28,0,0,1-.24.13c-.58,0-.91-.77-1.48-.81-.17,0-.37,0-.49-.07a.64.64,0,0,1-.13-.19c-.17-.28-.76-.48-.71-.88s.59-.44.89-.41A2.7,2.7,0,0,1,262.06,188Z"/><path class="cls-6" d="M240.4,187.62a1.47,1.47,0,0,0-.2.54,7.38,7.38,0,0,0-.17,1.56c.26.08.5-.18.6-.44a1.68,1.68,0,0,1,.33-.73,1,1,0,0,1,.76-.2,2.8,2.8,0,0,1,0,1,.38.38,0,0,0,.44-.23c.09-.15.11-.34.19-.5.28-.57,1.1-1.3.13-1.81C241.9,186.56,240.72,187.15,240.4,187.62Z"/><path class="cls-6" d="M250.65,173.66a13.53,13.53,0,0,0-.16-1.78,4.08,4.08,0,0,1,.17-1.3,3.89,3.89,0,0,1,1.2-2,2.2,2.2,0,0,1,2.22-.38,1.12,1.12,0,0,1,.49.37,1.44,1.44,0,0,1,.19.64,18,18,0,0,1,0,2.32,4.07,4.07,0,0,1-.07.85.88.88,0,0,1-.52.62.52.52,0,0,1-.68-.33,6.76,6.76,0,0,0-.18,1.85c0,.29-2,.59-2.27.58C249.83,175.1,250.59,174.39,250.65,173.66Z"/><polygon class="cls-12" points="322.21 336.25 310.32 335.96 313.95 332.98 325.68 332.98 322.21 336.25"/><ellipse class="cls-21" cx="299.73" cy="331.99" rx="4.76" ry="5.99"/><ellipse class="cls-12" cx="299.78" cy="331.99" rx="4.17" ry="5.59"/><path class="cls-21" d="M316,335.36a.49.49,0,0,0,.11.23.36.36,0,0,0,.25.08,2.47,2.47,0,0,0,1.5-.37.84.84,0,0,0,.92.47,2.28,2.28,0,0,0,1-.46,8.41,8.41,0,0,0,2.34-2.1.71.71,0,0,0,.16-.71.58.58,0,0,0-.56-.27c-.22,0-.43.08-.64.11a6,6,0,0,1-1-.07,5.72,5.72,0,0,0-1.54.16,4.12,4.12,0,0,0-2.06.8A1.89,1.89,0,0,0,316,335.36Z"/><path class="cls-49" d="M318,328.88l1.86,3.55s-.5,2.35-1.49,1.77l-1.4-3S317.46,328.71,318,328.88Z"/><path class="cls-49" d="M316.25,329.27,317.8,333s-.7,2.3-1.64,1.64L315,331.48S315.69,329.05,316.25,329.27Z"/><path class="cls-6" d="M305.33,309.86a4.23,4.23,0,0,0-1.65-.65,2.07,2.07,0,0,0-1,.05,1.85,1.85,0,0,0-.72.55,5.23,5.23,0,0,0-1,2.5,1.72,1.72,0,0,0,.25,1.54,1.83,1.83,0,0,0,1.49.33.64.64,0,0,0,.31-.07.8.8,0,0,0,.21-.2,9.18,9.18,0,0,0,.72-1,3.61,3.61,0,0,1,.64-.95c.38-.33,1-.43,1.26-.86S305.7,310.11,305.33,309.86Z"/><path class="cls-21" d="M343.06,294.42a1.23,1.23,0,0,0,1.07.66,2.1,2.1,0,0,0,1.23-.4c.11.3.69.62.69.62a9.23,9.23,0,0,0,.94.15,1.79,1.79,0,0,0,1.51-.38c0,.22.32.26.54.24a10.65,10.65,0,0,0,2.16-.53c0-.08,0-.41,0-.49a21.59,21.59,0,0,1-2.76-.62c-.2-.06-.36.09-.39-.12a.49.49,0,0,0,0-.21.27.27,0,0,0-.15-.1,9.15,9.15,0,0,0-3.32-.47c-.37,0-1.09,0-1.36.26A1.65,1.65,0,0,0,343.06,294.42Z"/><rect class="cls-37" x="359.7" y="265.34" width="0.67" height="24.86" transform="translate(-87.77 198.69) rotate(-27.64)"/><path class="cls-47" d="M349.13,275.48s-2-.29-3.79-.41c-.21,1.23-.65,2.43-.78,3.68-.3,2.61.73,5.17,1.22,7.75a24.64,24.64,0,0,1,.21,7,2.24,2.24,0,0,0,2.73,0s.45-9.28.41-10.28S349.13,275.48,349.13,275.48Z"/><path class="cls-47" d="M345.78,286.5c-.49-2.58-1.52-5.14-1.22-7.75.13-1.25.57-2.45.78-3.68a6.17,6.17,0,0,0-2.75.19,29.74,29.74,0,0,0,.18,4.84c.3,1.26,0,7.5,0,7.5v5.59s1.78,1.25,2.89,0a1.66,1.66,0,0,0,.33.33A24.64,24.64,0,0,0,345.78,286.5Z"/><path class="cls-50" d="M345.78,286.5c-.49-2.58-1.52-5.14-1.22-7.75.13-1.25.57-2.45.78-3.68a6.17,6.17,0,0,0-2.75.19,29.74,29.74,0,0,0,.18,4.84c.3,1.26,0,7.5,0,7.5v5.59s1.78,1.25,2.89,0a1.66,1.66,0,0,0,.33.33A24.64,24.64,0,0,0,345.78,286.5Z"/><path class="cls-21" d="M376.54,261.25a23.63,23.63,0,0,0-.21,3.14s.25,1.94,1.12,2.07l.33.53a1.18,1.18,0,0,0,1.19,1.16c1.16,0,0-3.14,0-3.26a8.47,8.47,0,0,0-.41-1l.12-2.07S377.29,260.51,376.54,261.25Z"/><path class="cls-21" d="M384.38,247.71l-.52,1.7a2,2,0,0,0,.52,2.35s.5,1.61,1.53,1.82,0-2.32,0-2.32-.69-1.36-.37-2a5.56,5.56,0,0,0,.41-1.57S385.37,247,384.38,247.71Z"/><path class="cls-47" d="M379.67,240.33a26.49,26.49,0,0,0,5.74-.75,13.68,13.68,0,0,1,1.91-.11,3.32,3.32,0,0,1,1.31.63.81.81,0,0,1,.39.45.72.72,0,0,1-.1.47c-1,2.4-2,4-2.19,6.65a1.08,1.08,0,0,1-.09.44,1,1,0,0,1-.26.28,2,2,0,0,1-2.62-.21,28.27,28.27,0,0,0,.7-4.47c-1.21.77-2.92,2.58-4.36,2.7A7.6,7.6,0,0,0,377,247c.08,1-.16,1.88-.09,2.89a9.48,9.48,0,0,0,.2,1.5c.14.58.39,1.12.58,1.69a23.26,23.26,0,0,1,.69,4.25,46.28,46.28,0,0,0,1.2,5.56,3.16,3.16,0,0,1-3.54,1,26.87,26.87,0,0,0-.73-6.16,12.64,12.64,0,0,0-.42-2.83c-.21-.45-.46-.87-.66-1.32a10.09,10.09,0,0,1-.43-1.42q-.62-2.41-1.22-4.83a5.35,5.35,0,0,1-.25-1.94,4.67,4.67,0,0,1,.37-1.26,7,7,0,0,1,.78-1.51,7.71,7.71,0,0,1,3.42-2.35,3.92,3.92,0,0,1,1.24-.36A2.43,2.43,0,0,1,379.67,240.33Z"/><path class="cls-51" d="M376.8,256.63a19.43,19.43,0,0,0-.8-2.21,38.72,38.72,0,0,1-1.24-4.1c-.62-2.38-1.24-4.87-.76-7.28a13.74,13.74,0,0,1,.4-1.43,4.74,4.74,0,0,0-1,1,7,7,0,0,0-.78,1.51,4.67,4.67,0,0,0-.37,1.26,5.35,5.35,0,0,0,.25,1.94q.6,2.41,1.22,4.83a10.09,10.09,0,0,0,.43,1.42c.2.45.45.87.66,1.32a12.64,12.64,0,0,1,.42,2.83,26.87,26.87,0,0,1,.73,6.16,2.93,2.93,0,0,0,1.14.18,10.2,10.2,0,0,1-.24-1.82C376.83,260.35,377.24,258.44,376.8,256.63Z"/><path class="cls-47" d="M388.63,240.1a3.38,3.38,0,0,0-1.31-.63,13.68,13.68,0,0,0-1.91.11,26.49,26.49,0,0,1-5.74.75,2.43,2.43,0,0,0-1.58-.45,3.92,3.92,0,0,0-1.24.36,10.33,10.33,0,0,0-2.45,1.37A13.74,13.74,0,0,0,374,243c-.48,2.41.14,4.9.76,7.28a38.72,38.72,0,0,0,1.24,4.1,19.43,19.43,0,0,1,.8,2.21c.44,1.81,0,3.72.09,5.59a10.2,10.2,0,0,0,.24,1.82,3.14,3.14,0,0,0,2.4-1.18,46.28,46.28,0,0,1-1.2-5.56,23.26,23.26,0,0,0-.69-4.25c-.19-.57-.44-1.11-.58-1.69a9.48,9.48,0,0,1-.2-1.5c-.07-1,.17-1.89.09-2.89a7.6,7.6,0,0,1,3.15-.56c1.44-.12,3.15-1.93,4.36-2.7a28.27,28.27,0,0,1-.7,4.47,2,2,0,0,0,2.62.21,1,1,0,0,0,.26-.28,1.08,1.08,0,0,0,.09-.44c.21-2.6,1.15-4.25,2.19-6.65a.72.72,0,0,0,.1-.47A.81.81,0,0,0,388.63,240.1Z"/><path class="cls-12" d="M547.53,349.48s3,2.6,5,2.84c0,0-.32.9-1.73.9a12.42,12.42,0,0,1-3.83,0l2.12,1.26a.27.27,0,0,1-.1.5c-1.39.18-4.29.46-5.27-.07a.29.29,0,0,0-.14,0c-.37.05-2.08.23-2.73-.29a.27.27,0,0,1-.08-.24,13.17,13.17,0,0,0,.15-2.56C540.74,351.27,547,348.79,547.53,349.48Z"/><path class="cls-47" d="M542.83,321.1s-1.52,18.35-1.71,20.62-.31,4.66-.56,6.07a21.22,21.22,0,0,0,0,4.12s3.22,1.28,4.46-.7c0,0,2.48.87,3.34-1.11,0,0,1.33-15,1.9-16.93s1.2-11.23,1.2-11.23S545.06,320.13,542.83,321.1Z"/><path class="cls-52" d="M546.76,340.57c-.7-2.68-1.91-5.36-1.49-8.09.31-2,1.48-3.78,2.25-5.67a20.18,20.18,0,0,0,1.26-5.5c-2-.41-4.67-.77-5.95-.21,0,0-1.52,18.35-1.71,20.62s-.31,4.66-.56,6.07a21.22,21.22,0,0,0,0,4.12s3.22,1.28,4.46-.7a3.9,3.9,0,0,0,1.8.13A22.18,22.18,0,0,0,546.76,340.57Z"/><path class="cls-47" d="M548.78,321.31a20.18,20.18,0,0,1-1.26,5.5c-.77,1.89-1.94,3.66-2.25,5.67-.42,2.73.79,5.41,1.49,8.09a22.18,22.18,0,0,1,.06,10.77,2,2,0,0,0,1.54-1.24s1.33-15,1.9-16.93,1.2-11.23,1.2-11.23S550.29,321.61,548.78,321.31Z"/><path class="cls-12" d="M552.39,319.86a8.07,8.07,0,0,1-.79,2.64,1,1,0,0,1-.31.37,1.14,1.14,0,0,1-.55.13,47.6,47.6,0,0,1-6.65-.09,30.09,30.09,0,0,1-.7-8.62c2.41-.15,4.83-.2,7.24-.13a3.42,3.42,0,0,1,1.11.15c1,.36,1.24.94,1.14,1.94C552.76,317.45,552.6,318.66,552.39,319.86Z"/><path class="cls-6" d="M556.91,306.26l.33-1.27s-.45-2.37-1-2.45-1.72-.5-1.62,0,1.48.7,1.32.82a2.47,2.47,0,0,0-.53,2.07,4.31,4.31,0,0,1,.25,1.49S556.78,306.75,556.91,306.26Z"/><path class="cls-12" d="M543.7,314.93l-.35.05c2.59,1,4.89,3,7.68,3.27a16.42,16.42,0,0,0-.77,1.9,5.89,5.89,0,0,1-3.14-.78c-1-.41-2.1-.67-3.12-1.08a22.57,22.57,0,0,1-2.46-1.23.76.76,0,0,1-.25-.18.79.79,0,0,1-.11-.29c-.27-1.35.45-2.69.62-4a4,4,0,0,1,.33-1.5,2.08,2.08,0,0,1,.44-.5c1.19-1.09,2.76-1.66,4-2.67a2.87,2.87,0,0,0,.82-.95,2.91,2.91,0,0,1,.37-.75c.38-.41,1-.29,1.57-.14a5.23,5.23,0,0,1,2.73,1.5,9.26,9.26,0,0,1,1.43,2.84,17.63,17.63,0,0,0,1.22,2.95l.83-6.09a.79.79,0,0,1,.08-.31,1,1,0,0,1,.25-.26,3.41,3.41,0,0,0,1.36-1.67q.33,5,.29,9.95a2.66,2.66,0,0,1-.44,1.74,2.51,2.51,0,0,1-2.06.54,24.1,24.1,0,0,1-3.28-.41c-2.92-.59-5.78-1.39-8.71-1.91"/><path class="cls-6" d="M550.07,303.62a4.72,4.72,0,0,1-1.25,2.52.35.35,0,0,0-.1.11.29.29,0,0,0,0,.16,4.3,4.3,0,0,0,.27,1.28,1.9,1.9,0,0,0,.86,1,2.3,2.3,0,0,0,.78.2c.24,0,.47,0,.71.05a2.4,2.4,0,0,1,.34-1.77.85.85,0,0,0,.15-.28.77.77,0,0,0,0-.26c-.16-.7-.33-1.4-.52-2.1"/><path class="cls-6" d="M553,301.19a3.15,3.15,0,0,0-2.62,3,6,6,0,0,0-.06,1.17,2.57,2.57,0,0,0,1.58,2.33c.92.16,3.13-1.87,2.85-4.63C554.55,301.66,553.68,301.15,553,301.19Z"/><path class="cls-21" d="M551.8,302.66a3,3,0,0,0,1-.2c-.15-.21-.39-.34-.55-.54s-.21-.55,0-.69a1.3,1.3,0,0,0-1.13.3,6,6,0,0,0-.89.78,1.77,1.77,0,0,0-.44.68.76.76,0,0,0,.15.75.5.5,0,0,0,.72,0c.16-.23.11-.53.34-.72A1.72,1.72,0,0,1,551.8,302.66Z"/><path class="cls-1" d="M547.62,313.23a13.41,13.41,0,0,1,4.28.21s-1.45,3.45-.87,4.81c0,0-2.5-.22-3.12-1S547.62,313.23,547.62,313.23Z"/><ellipse class="cls-6" cx="551.23" cy="303.16" rx="0.96" ry="0.59" transform="translate(74.91 714.1) rotate(-69.6)"/><path class="cls-21" d="M546.51,315.29a2.8,2.8,0,0,0-4.28-.09,4.71,4.71,0,0,0-.54.78c-1.48,2.59-2.12,5.68-4.07,7.94a2.8,2.8,0,0,1,.29,2,13.84,13.84,0,0,0-.2,3.9,2.4,2.4,0,0,0,.64,1.36,1.88,1.88,0,0,1,.45.44,1.67,1.67,0,0,1,.15.48,2.32,2.32,0,0,0,.84,1.12,3.29,3.29,0,0,0,2.43.83c.12-1.78.85-3.46,1.12-5.23.14-.92.16-1.85.24-2.78a40,40,0,0,1,.9-5.1,9.26,9.26,0,0,1,.59-1.94,6.6,6.6,0,0,1,1.51-1.89A1.3,1.3,0,0,0,546.51,315.29Z"/><path class="cls-6" d="M543.62,312.16a5.7,5.7,0,0,1,1.44,3.47,17.69,17.69,0,0,0,3.54,2s.13-4.13-.73-5A22.94,22.94,0,0,1,543.62,312.16Z"/><path class="cls-6" d="M551,318.25a3.69,3.69,0,0,0,1.28-.48c.31-.29.51.87.18,1.53a1.94,1.94,0,0,1-2.23.85S550.68,318.33,551,318.25Z"/><path class="cls-21" d="M552.29,316.42a1.55,1.55,0,0,0,.05.23c.09.26.44.29.69.4.58.24.77,1,.83,1.59a3.45,3.45,0,0,1-.37,2.29.46.46,0,0,1-.18.16.29.29,0,0,1-.33-.19.85.85,0,0,1,0-.42,7.1,7.1,0,0,0-.36-2.74,4.22,4.22,0,0,1-1.59.46,4,4,0,0,1-.06-2.37C551.26,315.29,552.16,316,552.29,316.42Z"/><path class="cls-21" d="M371.27,229.55a1.54,1.54,0,0,1,.36-.36,1.65,1.65,0,0,1,.91-.13c.55,0,1.2.13,1.46.62.11.21.15.5.38.58a.66.66,0,0,1,.15.05.35.35,0,0,1,.13.31,7.64,7.64,0,0,1,0,1.07,13.4,13.4,0,0,0-2,.67c-.39.17-1.31.87-1.66.54s-.35-1.26-.32-1.65A3.4,3.4,0,0,1,371.27,229.55Z"/><path class="cls-12" d="M383.2,231.9a2.48,2.48,0,0,0-1.15-.25c-1.37-.07-2.41-.16-3.77-.29l-2-.19a7.8,7.8,0,0,0-1.74,0,7.37,7.37,0,0,0-1.93.67,15.34,15.34,0,0,0-2.82,1.53h0a4.39,4.39,0,0,0-1.65,0s-3.43,2.08-3.47,3.44-.17,1.36.33,1.53,3.75-.41,5-.08v0a3,3,0,0,1,.28.88c.24,1.39.17,2.8.32,4.2a6.22,6.22,0,0,0,1.55,3.83,20.48,20.48,0,0,1,2.24-.33c.74-.17,1.5-.77,1.4-1.52a.38.38,0,0,0,.36.39,1.09,1.09,0,0,0,.58-.15,5.45,5.45,0,0,0,2.53-1.85c.38-.63.49-1.39.86-2,.26-.45.67-.9.59-1.42a2.22,2.22,0,0,0-.51-.89c-.71-1-.74-2.42-1.58-3.32a11.08,11.08,0,0,0,2.8-.46,3.79,3.79,0,0,0,2.16-1.38A1.66,1.66,0,0,0,383.2,231.9Z"/><path class="cls-53" d="M375.34,242.4c.47-.83,1.34-1.76.81-2.56-.37-.56-1.17-.56-1.84-.5a1.7,1.7,0,0,1,.38-1.93,12.2,12.2,0,0,0,1.43-1.54,1.38,1.38,0,0,0-.23-1.88,1.8,1.8,0,0,0-1-.13,17.46,17.46,0,0,0-3.2.57c-1.83.5-3.8,1.3-5.56.58L366,235a3.24,3.24,0,0,0-1.27,1.82c0,1.36-.17,1.36.33,1.53s3.75-.41,5-.08v0a3,3,0,0,1,.28.88c.24,1.39.17,2.8.32,4.2a6.22,6.22,0,0,0,1.55,3.83,20.48,20.48,0,0,1,2.24-.33,2,2,0,0,0,1.24-.84c-.05-.08-.11-.15-.16-.22A3.29,3.29,0,0,1,375.34,242.4Z"/><path class="cls-12" d="M383.2,231.9a2.48,2.48,0,0,0-1.15-.25c-1.37-.07-2.41-.16-3.77-.29l-2-.19a7.8,7.8,0,0,0-1.74,0,7.37,7.37,0,0,0-1.93.67,15.34,15.34,0,0,0-2.82,1.53h0a4.39,4.39,0,0,0-1.65,0A16.69,16.69,0,0,0,366,235l.14.06c1.76.72,3.73-.08,5.56-.58a17.46,17.46,0,0,1,3.2-.57,1.8,1.8,0,0,1,1,.13,1.38,1.38,0,0,1,.23,1.88,12.2,12.2,0,0,1-1.43,1.54,1.7,1.7,0,0,0-.38,1.93c.67-.06,1.47-.06,1.84.5.53.8-.34,1.73-.81,2.56a3.29,3.29,0,0,0,.11,3.36c.05.07.11.14.16.22a1.08,1.08,0,0,0,.16-.68.38.38,0,0,0,.36.39,1.09,1.09,0,0,0,.58-.15,5.45,5.45,0,0,0,2.53-1.85c.38-.63.49-1.39.86-2,.26-.45.67-.9.59-1.42a2.22,2.22,0,0,0-.51-.89c-.71-1-.74-2.42-1.58-3.32a11.08,11.08,0,0,0,2.8-.46,3.79,3.79,0,0,0,2.16-1.38A1.66,1.66,0,0,0,383.2,231.9Z"/><path class="cls-6" d="M347.28,256.24a10.16,10.16,0,0,1,.3,2.57c-.11.85.11,2.07-.45,1.81,0,0-.51.74-.37,1.15a11.47,11.47,0,0,1-2.25-.18,1.8,1.8,0,0,0,.33-1.71C344.62,258.74,345.51,255.19,347.28,256.24Z"/><path class="cls-21" d="M346.9,255.31a2.33,2.33,0,0,0-1.23-.39,2.77,2.77,0,0,0-1.43.15,1.25,1.25,0,0,0-.8,1.12.86.86,0,0,1,0,.32c0,.13-.14.21-.23.31a1.92,1.92,0,0,0-.35,1.8,5.62,5.62,0,0,0,.88,1.7,1.32,1.32,0,0,0,.51.51,1.82,1.82,0,0,0,.46.06h.86a.52.52,0,0,0,.37-.1.54.54,0,0,0,.11-.29,3.19,3.19,0,0,1,1.11-2.22s-.07-.77-.07-.86a3.67,3.67,0,0,1,.14-.87A1,1,0,0,0,346.9,255.31Z"/><ellipse class="cls-6" cx="346.54" cy="258.5" rx="0.49" ry="0.76"/><path class="cls-21" d="M347.06,257.83l.91-.09a1.51,1.51,0,0,1,0,.52.5.5,0,0,1-.29.39,2.56,2.56,0,0,0-.05-.62H347a.21.21,0,0,1,0-.19"/><path class="cls-6" d="M305.92,310.81a12.05,12.05,0,0,1-.06,3c-.26,1-.2,2.38-.79,2,0,0-.7.77-.6,1.25a12.63,12.63,0,0,1-2.54-.56,2.05,2.05,0,0,0,.65-1.89C302.5,313.24,304.06,309.33,305.92,310.81Z"/><path class="cls-6" d="M355.32,268.35a1.17,1.17,0,0,1,1.11.46,1.4,1.4,0,0,1,.2,1.21l0,.07a.2.2,0,0,1-.1.07c-.4.16-.83-.11-1.26-.12s-.6.09-.8-.1a1.38,1.38,0,0,1-.1-1.13C354.49,268.46,355,268.41,355.32,268.35Z"/><path class="cls-12" d="M349.26,271.3a.17.17,0,0,1,.14,0s0,.08,0,.14l.05,4.24a.33.33,0,0,1-.05.22.34.34,0,0,1-.16.1,9.32,9.32,0,0,1-6.6-.14c-.15-.06-.31-.14-.35-.29a.41.41,0,0,1,0-.19c.11-1.49.26-3,.37-4.45a4.44,4.44,0,0,1-.68-2.88,28.24,28.24,0,0,1,.23-4.31,1.4,1.4,0,0,1,.15-.53,1.7,1.7,0,0,1,.27-.33c.37-.38.86-.51,1.12-1s1-.54,1.51-.54a6.78,6.78,0,0,1,1.68.15,4.62,4.62,0,0,1,2.86,2.53,11.69,11.69,0,0,1,1,3.81c1.24.2,2.42.3,3.65.49a.39.39,0,0,1,.21.08.4.4,0,0,1,.11.2,2.56,2.56,0,0,1,0,1.45Z"/><path class="cls-54" d="M347.34,269.1a1.24,1.24,0,0,1-.86-.37,1.09,1.09,0,0,1-.19-.59,6.7,6.7,0,0,1,.19-2.4,7.54,7.54,0,0,0,.63-3.17,3.15,3.15,0,0,0-.45-1.09,7.83,7.83,0,0,0-1.37-.1c-.56,0-1.24.05-1.51.54s-.75.6-1.12,1a1.7,1.7,0,0,0-.27.33,1.4,1.4,0,0,0-.15.53,28.24,28.24,0,0,0-.23,4.31,4.44,4.44,0,0,0,.68,2.88c-.11,1.49-.26,3-.37,4.45a.41.41,0,0,0,0,.19c0,.15.2.23.35.29a9.32,9.32,0,0,0,6.6.14.34.34,0,0,0,.16-.1.33.33,0,0,0,.05-.22c0-1.42,0-2.83-.05-4.24,0-.06,0-.11,0-.14a.17.17,0,0,0-.14,0l3.26-.72.21-1.09A44.26,44.26,0,0,1,347.34,269.1Z"/><path class="cls-12" d="M354.77,268.64a.4.4,0,0,0-.11-.2.39.39,0,0,0-.21-.08c-1.23-.19-2.41-.29-3.65-.49a11.69,11.69,0,0,0-1-3.81,4.62,4.62,0,0,0-2.86-2.53c-.1,0-.21,0-.31,0a3.15,3.15,0,0,1,.45,1.09,7.54,7.54,0,0,1-.63,3.17,6.7,6.7,0,0,0-.19,2.4,1.09,1.09,0,0,0,.19.59,1.24,1.24,0,0,0,.86.37,44.26,44.26,0,0,0,5.39.39l-.21,1.09,2.22-.49A2.56,2.56,0,0,0,354.77,268.64Z"/><path class="cls-21" d="M305.45,313.11s0-.89.06-1a4.8,4.8,0,0,1,.29-1c.11-.24.17-.25.17-.48-.09,0-.19-.23-.27-.21a3.53,3.53,0,0,0-2,1,7.7,7.7,0,0,0-.8,1.43,1.07,1.07,0,0,1-.29.38.81.81,0,0,1-.33.14,1.07,1.07,0,0,1-1.21-.94c0-.59.44-1.14.36-1.74a.8.8,0,0,0,0-.15,1.54,1.54,0,0,1-.26.25,2.22,2.22,0,0,0-.68,2,6.75,6.75,0,0,0,.74,2.07,1.46,1.46,0,0,0,.51.66,1.43,1.43,0,0,0,.51.14l1,.13a.6.6,0,0,0,.44-.05.63.63,0,0,0,.17-.31A3.62,3.62,0,0,1,305.45,313.11Z"/><ellipse class="cls-6" cx="304.72" cy="313.26" rx="0.87" ry="0.56" transform="translate(-46.68 573.08) rotate(-82.27)"/><path class="cls-12" d="M301.13,315.41a6.72,6.72,0,0,1,4.65,1,8.63,8.63,0,0,1,1.14,1,11,11,0,0,1,1.69,2.05,8.77,8.77,0,0,1,.88,2.26c.17.6.31,1.21.44,1.82a.29.29,0,0,0,.11.21.39.39,0,0,0,.16,0l5.09-.18a3,3,0,0,1,1.7.28,2.89,2.89,0,0,1,1,1.56l1.48,4.08a10.51,10.51,0,0,1-2.87,3.1,3.6,3.6,0,0,1-4,.08c-.48-.36-.81-.87-1.26-1.27-1.17-1-2.88-1.12-4.45-1.15l-2.85-.05a2.49,2.49,0,0,1-1-.16,2.08,2.08,0,0,1-.65-.53c-1.47-1.71-1.58-4.15-2.12-6.34-.43-1.73-1.16-3.38-1.45-5.14-.11-.64-.29-1.35.21-1.84A3.36,3.36,0,0,1,301.13,315.41Z"/><path class="cls-55" d="M314.87,325.83c-2.84-1.24-6.66.63-9-1.4a5.39,5.39,0,0,1-1.46-4.38c.07-1.41.36-2.81.37-4.21a7.77,7.77,0,0,0-3.65-.43,3.36,3.36,0,0,0-2.12.83c-.5.49-.32,1.2-.21,1.84.29,1.76,1,3.41,1.45,5.14.54,2.19.65,4.63,2.12,6.34a2.08,2.08,0,0,0,.65.53,2.66,2.66,0,0,0,1,.16l2.85.05c1.57,0,3.28.11,4.45,1.15.45.4.78.91,1.26,1.27a3.6,3.6,0,0,0,4-.08,7.24,7.24,0,0,0,1.75-1.61C317.85,328.82,316.88,326.7,314.87,325.83Z"/><path class="cls-12" d="M318,325.46a2.89,2.89,0,0,0-1-1.56,3,3,0,0,0-1.7-.28l-5.09.18a.39.39,0,0,1-.16,0,.29.29,0,0,1-.11-.21c-.13-.61-.27-1.22-.44-1.82a8.77,8.77,0,0,0-.88-2.26,11,11,0,0,0-1.69-2.05,8.63,8.63,0,0,0-1.14-1,4.92,4.92,0,0,0-1-.56c0,1.4-.3,2.8-.37,4.21a5.39,5.39,0,0,0,1.46,4.38c2.34,2,6.16.16,9,1.4,2,.87,3,3,3.47,5.2.4-.48.77-1,1.12-1.49Z"/><ellipse class="cls-21" cx="309.76" cy="332.98" rx="5.2" ry="6.55"/><path class="cls-21" d="M294.62,316.52l7.28.44a1.5,1.5,0,0,1,1.29,1l4.24,11-9.87-.53-3.71-10.8A.77.77,0,0,1,294.62,316.52Z"/><path class="cls-21" d="M297.94,334.18q5.26.63,10.56,1.09a13.29,13.29,0,0,0,.21-3.22,6.06,6.06,0,0,1,.69-3.12q-3.79-.76-7.6-1.42a15.13,15.13,0,0,0-2.32-.27c-.42,0-1.8-.1-2,.31-.1.19.09.75.1,1a11,11,0,0,1,0,1.15A11.86,11.86,0,0,0,297.94,334.18Z"/><ellipse class="cls-12" cx="309.76" cy="332.98" rx="4.56" ry="5.74"/><path class="cls-12" d="M246,177.45a8.42,8.42,0,0,0-1,2.73,16.33,16.33,0,0,1-2.26,5.08,3.44,3.44,0,0,0-.7,1.37,1,1,0,0,0,.75,1.17,6.56,6.56,0,0,0,1.56-1.79l2.6-3.87c-.13,2.22.34,4.53-.36,6.64a3,3,0,0,0-.28,1.44c.17.83,1.12,1.22,2,1.36A10,10,0,0,0,255,190.3a6.45,6.45,0,0,1-.79-4.56L255,180a29,29,0,0,0,3.81,6.89,2.74,2.74,0,0,0,1.36-1.13,4,4,0,0,1-1.19-2.08l-2.25-6.93a4.72,4.72,0,0,0-.5-1.15,3.32,3.32,0,0,0-.88-.83,5.86,5.86,0,0,0-5.55-.5,6.92,6.92,0,0,0-1.48,1.22A12,12,0,0,0,246,177.45Z"/><path class="cls-56" d="M251.19,185.27a12,12,0,0,1-.87-.88,2.27,2.27,0,0,1-.42-1.71c.21-1.22,1.41-2.15,1.41-3.39a1,1,0,0,0-.12-.52,1.34,1.34,0,0,0-.32-.35,2.69,2.69,0,0,0-3.58.39c-1,1.18-.82,3.05-1.92,4.1-.2.19-.42.34-.61.52-.71.69-.89,1.78-1.51,2.56-.3.37-.69.66-1,1,0,.05-.09.11-.14.17a.86.86,0,0,0,.68.62,6.56,6.56,0,0,0,1.56-1.79l2.6-3.87c-.13,2.22.34,4.53-.36,6.64a3,3,0,0,0-.28,1.44c.17.83,1.12,1.22,2,1.36a9.79,9.79,0,0,0,2.86,0c0-1,.68-1.85,1-2.81A3.72,3.72,0,0,0,251.19,185.27Z"/><path class="cls-12" d="M259,183.64l-2.25-6.93a4.72,4.72,0,0,0-.5-1.15,3.32,3.32,0,0,0-.88-.83,5.86,5.86,0,0,0-5.55-.5,6.92,6.92,0,0,0-1.48,1.22,12,12,0,0,0-2.31,2,8.42,8.42,0,0,0-1,2.73,16.33,16.33,0,0,1-2.26,5.08,3.44,3.44,0,0,0-.7,1.37,1.31,1.31,0,0,0,.07.55c0-.06.09-.12.14-.17.33-.36.72-.65,1-1,.62-.78.8-1.87,1.51-2.56.19-.18.41-.33.61-.52,1.1-1,.94-2.92,1.92-4.1a2.69,2.69,0,0,1,3.58-.39,1.34,1.34,0,0,1,.32.35,1,1,0,0,1,.12.52c0,1.24-1.2,2.17-1.41,3.39a2.27,2.27,0,0,0,.42,1.71,12,12,0,0,0,.87.88,3.72,3.72,0,0,1,.87,3.55c-.28,1-.94,1.81-1,2.81A10,10,0,0,0,255,190.3a6.45,6.45,0,0,1-.79-4.56q.39-2.88.8-5.78a29,29,0,0,0,3.81,6.89,2.74,2.74,0,0,0,1.36-1.13A4,4,0,0,1,259,183.64Z"/><path class="cls-21" d="M254.41,167.94a2.51,2.51,0,0,0-1.29-.34,4.14,4.14,0,0,0-2.06.41,2.5,2.5,0,0,0-1.31,1.59c-.1.43-.06.88-.14,1.31a15.57,15.57,0,0,0-.52,1.73c0,.42.08.85.06,1.27s-.16.78-.21,1.18a1.21,1.21,0,0,0,.33,1.1,1.61,1.61,0,0,0,.75.27l1.57.25a2.79,2.79,0,0,0,.91,0,2.36,2.36,0,0,0,.75-.32,2.46,2.46,0,0,0,1.14-1.18,3.37,3.37,0,0,0-.51-2.39,2.34,2.34,0,0,1,.19-2.6C254.69,169.57,255.6,168.71,254.41,167.94Z"/><ellipse class="cls-6" cx="253.66" cy="170.78" rx="0.5" ry="0.8"/><path class="cls-47" d="M452.2,160.48c-1-2.23-3.19.16-4.34.05-.93-.08-1.65-.2-1.65-.2l0-.67-.51.48-.17,0a5.16,5.16,0,0,1-2-1.28c-.9,3.49-1.21,7.11-1.8,10.67a15.85,15.85,0,0,1-.55,2.36,16.91,16.91,0,0,1-1.13,2.4l-2.34,4.33a1.15,1.15,0,0,1,.86-.21,1.27,1.27,0,0,1,.9,1,4.38,4.38,0,0,1,0,1.4c0,.2,0,.41,0,.61a19.05,19.05,0,0,0,2.37-3.18l2.82-4.43a9.25,9.25,0,0,0,1.05-2,17.8,17.8,0,0,0,.78-2.3c.32-1.79,1.07-3.46,1.59-5.35a30.69,30.69,0,0,0,4.09.22C452.63,163.19,453.17,162.7,452.2,160.48Z"/><path class="cls-47" d="M452.2,160.48c-1-2.23-3.19.16-4.34.05-.93-.08-1.65-.2-1.65-.2v-.06c-.27.43-.55.84-.82,1.26a7.43,7.43,0,0,0-1.54,4.35c.06.85.38,1.66.5,2.5.3,2.17-.73,4.31-2,6.07-1.05,1.42-2.28,2.71-3.29,4.15a1.46,1.46,0,0,1,.45.74,4.38,4.38,0,0,1,0,1.4c0,.2,0,.41,0,.61a19.05,19.05,0,0,0,2.37-3.18l2.82-4.43a9.25,9.25,0,0,0,1.05-2,17.8,17.8,0,0,0,.78-2.3c.32-1.79,1.07-3.46,1.59-5.35a30.69,30.69,0,0,0,4.09.22C452.63,163.19,453.17,162.7,452.2,160.48Z"/><path class="cls-57" d="M444.35,168.38c-.12-.84-.44-1.65-.5-2.5a7.43,7.43,0,0,1,1.54-4.35c.27-.42.55-.83.82-1.26l0-.61-.51.48-.17,0a5.16,5.16,0,0,1-2-1.28c-.9,3.49-1.21,7.11-1.8,10.67a15.85,15.85,0,0,1-.55,2.36,16.91,16.91,0,0,1-1.13,2.4l-2.34,4.33a1.15,1.15,0,0,1,.86-.21,1,1,0,0,1,.45.24c1-1.44,2.24-2.73,3.29-4.15C443.62,172.69,444.65,170.55,444.35,168.38Z"/><path class="cls-6" d="M437,153.22a.46.46,0,0,1-.16-.15,2.6,2.6,0,0,1-.27.36,3.82,3.82,0,0,0-.34.36,2.79,2.79,0,0,0-.49,1.19.17.17,0,0,0,0,.1.22.22,0,0,0,.09.07,7.9,7.9,0,0,0,1.68.62.3.3,0,0,0,.21,0,.41.41,0,0,0,.13-.1,4.49,4.49,0,0,0,.63-1,.74.74,0,0,0-.24-.46.25.25,0,0,1-.11-.14.43.43,0,0,1,0-.11,1.4,1.4,0,0,1,.09-.17l-.13,0A8.68,8.68,0,0,1,437,153.22Z"/><path class="cls-12" d="M443,158.22h0s.22.26.56.59h0C443.2,158.48,443,158.22,443,158.22Z"/><path class="cls-12" d="M449.47,142.14h0a2.86,2.86,0,0,0-1.25.33h0A2.74,2.74,0,0,1,449.47,142.14Z"/><path class="cls-12" d="M448.24,142.46h0a2.41,2.41,0,0,0-.38.27A2.56,2.56,0,0,1,448.24,142.46Z"/><path class="cls-12" d="M449.48,142.13h0Z"/><path class="cls-58" d="M439.29,179.17a1.13,1.13,0,0,0-1.74-.29l.17-.31a3.93,3.93,0,0,0-.73.68.94.94,0,0,0-.16.23,1,1,0,0,1,.58-.31.93.93,0,0,1,.86.35,1.76,1.76,0,0,1,.26.91c.08.78.15,1.55.23,2.33a4.65,4.65,0,0,1-1.84.37s0,.09,0,.13a5.75,5.75,0,0,0,.31,1c.38-.5,1.49-.44,2.37-.46a2.61,2.61,0,0,0,.15.92,1,1,0,0,0,.57.63.64.64,0,0,0,.23-.34c.1-.35-.19-.67-.41-1a4.25,4.25,0,0,1-.68-2.67,1.29,1.29,0,0,0-.16.17A3.77,3.77,0,0,0,439.29,179.17Z"/><path class="cls-58" d="M439.48,179.34a1.27,1.27,0,0,0-.9-1,1.15,1.15,0,0,0-.86.21l-.17.31a1.13,1.13,0,0,1,1.74.29,3.77,3.77,0,0,1,0,2.35,1.29,1.29,0,0,1,.16-.17c0-.2,0-.41,0-.61A4.38,4.38,0,0,0,439.48,179.34Z"/><path class="cls-59" d="M446,147.72a1.67,1.67,0,0,1,0-.59h0a1.67,1.67,0,0,0,0,.59,4.68,4.68,0,0,1-.25,1.57A4.68,4.68,0,0,0,446,147.72Z"/><path class="cls-60" d="M443,158.22h0s.81-2.44,1.59-5C443.79,155.78,443,158.22,443,158.22Z"/><path class="cls-61" d="M445.5,150.06l.2-.77Z"/><path class="cls-62" d="M444.86,152.29c.24-.79.46-1.56.64-2.23C445.32,150.73,445.1,151.5,444.86,152.29Z"/><path class="cls-12" d="M446,146.44a5,5,0,0,0-.09.69h0A5,5,0,0,1,446,146.44Z"/><path class="cls-63" d="M446,146.44a5,5,0,0,0-.09.69h0A5,5,0,0,1,446,146.44Z"/><path class="cls-64" d="M446,146.44a5,5,0,0,0-.09.69h0A5,5,0,0,1,446,146.44Z"/><path class="cls-12" d="M447.84,142.73h0l-.07.06h0Z"/><path class="cls-65" d="M447.84,142.73h0l-.07.06h0Z"/><path class="cls-66" d="M447.84,142.73h0l-.07.06h0Z"/><path class="cls-12" d="M446.18,145.71c.07-.25.16-.51.25-.77C446.34,145.2,446.25,145.46,446.18,145.71Z"/><path class="cls-67" d="M446.18,145.71c.07-.25.16-.51.25-.77C446.34,145.2,446.25,145.46,446.18,145.71Z"/><path class="cls-68" d="M446.18,145.71c.07-.25.16-.51.25-.77C446.34,145.2,446.25,145.46,446.18,145.71Z"/><path class="cls-12" d="M447.77,142.79h0a3.13,3.13,0,0,0-.62.71A3.13,3.13,0,0,1,447.77,142.79Z"/><path class="cls-69" d="M447.77,142.79h0a3.13,3.13,0,0,0-.62.71A3.13,3.13,0,0,1,447.77,142.79Z"/><path class="cls-70" d="M447.77,142.79h0a3.13,3.13,0,0,0-.62.71A3.13,3.13,0,0,1,447.77,142.79Z"/><path class="cls-12" d="M446.59,144.55q.17-.37.36-.72Q446.76,144.18,446.59,144.55Z"/><path class="cls-71" d="M446.59,144.55q.17-.37.36-.72Q446.76,144.18,446.59,144.55Z"/><path class="cls-72" d="M446.59,144.55q.17-.37.36-.72Q446.76,144.18,446.59,144.55Z"/><polygon class="cls-3" points="449.48 142.13 449.48 142.13 449.48 142.13 449.48 142.13"/><polygon class="cls-73" points="449.48 142.13 449.48 142.13 449.48 142.13 449.48 142.13"/><path class="cls-12" d="M451.41,159.59c0-2.88.09-5.77.17-8.65a11.54,11.54,0,0,0-.76-5.61,2.48,2.48,0,0,0-.18-.31c-.05-.21-.09-.42-.16-.63a8.58,8.58,0,0,0-.41-1.06c-.08-.18-.17-.35-.25-.53a1,1,0,0,1-.14-.13l.05,0c-.08-.17-.16-.34-.25-.5h0a2.74,2.74,0,0,0-1.23.32,2.56,2.56,0,0,0-.4.27h0l-.07.06a3.13,3.13,0,0,0-.62.71,3.13,3.13,0,0,1,.62-.71l.07-.06h0a2.41,2.41,0,0,1,.38-.27,3.32,3.32,0,0,0-.73.22l-.45.18-1.24.44c-.84.31-1.68.65-2.5,1a5.07,5.07,0,0,0-1.05.57,5.38,5.38,0,0,0-1.06,1.17c-.6.83-1.17,1.7-1.72,2.57-.88,1.38-1.76,2.78-2.61,4.18a.29.29,0,0,0-.07.18s0,0,0,.08a.46.46,0,0,0,.16.15,8.68,8.68,0,0,0,1.1.55l.13,0a.22.22,0,0,0,.14,0c.13,0,.22-.15.3-.26l3.35-5.05a2.21,2.21,0,0,1,.48-.57,2,2,0,0,1,.7-.33,13.26,13.26,0,0,1,2.72-.48,5,5,0,0,1,.09-.69,5,5,0,0,0-.09.69,1.67,1.67,0,0,0,0,.59,4.68,4.68,0,0,1-.25,1.57l-.2.77c-.18.67-.4,1.44-.64,2.23-.09.31-.19.63-.29,1-.78,2.54-1.59,5-1.59,5s.22.26.56.59h0a.15.15,0,0,0,.06.05l0,0h0c.1-.39.23-.78.37-1.17-.14.39-.27.78-.37,1.17a5,5,0,0,0,1.92,1.19l.17,0,.51-.48,0,.67s.72.12,1.65.2a11.5,11.5,0,0,0,3.54-.08,1.49,1.49,0,0,0,.72-.39A3.5,3.5,0,0,1,451.41,159.59Z"/><path class="cls-74" d="M447.77,142.79a3.13,3.13,0,0,0-.62.71,3.13,3.13,0,0,1,.62-.71l.07-.06h0Z"/><path class="cls-12" d="M452.12,160.06a3.5,3.5,0,0,1-.71-.47c0-2.88.09-5.77.17-8.65a11.54,11.54,0,0,0-.76-5.61,2.48,2.48,0,0,0-.18-.31c-.05-.21-.09-.42-.16-.63a8.58,8.58,0,0,0-.41-1.06c-.08-.18-.17-.35-.25-.53a1,1,0,0,1-.14-.13l.05,0c-.08-.17-.16-.34-.25-.5h0a2.74,2.74,0,0,0-1.23.32,2.56,2.56,0,0,0-.4.27h0l-.07.06a3.13,3.13,0,0,0-.62.71,3.13,3.13,0,0,1,.62-.71l.07-.06h0a2.41,2.41,0,0,1,.38-.27,3.32,3.32,0,0,0-.73.22l-.45.18-1.24.44c-.84.31-1.68.65-2.5,1a5.07,5.07,0,0,0-1.05.57,5.38,5.38,0,0,0-1.06,1.17c-.6.83-1.17,1.7-1.72,2.57-.88,1.38-1.76,2.78-2.61,4.18a.29.29,0,0,0-.07.18s0,0,0,.08a.46.46,0,0,0,.16.15c.22.13.45.23.67.34a16.82,16.82,0,0,1,3-4.87,8.07,8.07,0,0,1,2.21-2.15c1-.54,2.16-.65,3.14-1.19.69-.39,1.53-1,2.16-.52a1.53,1.53,0,0,1,.42,1.36,10.27,10.27,0,0,1-.56,2.95,4.06,4.06,0,0,0-.39,2c.25,1.45,2.28,2.4,1.91,3.82-.27,1-1.65,1.41-1.91,2.43a2.25,2.25,0,0,0,.92,2,8.61,8.61,0,0,1,1.24,1.25,7.16,7.16,0,0,0,1.63-.17A1.49,1.49,0,0,0,452.12,160.06Z"/><path class="cls-75" d="M448.53,159.37a2.25,2.25,0,0,1-.92-2c.26-1,1.64-1.42,1.91-2.43.37-1.42-1.66-2.37-1.91-3.82a4.06,4.06,0,0,1,.39-2,10.27,10.27,0,0,0,.56-2.95,1.53,1.53,0,0,0-.42-1.36c-.63-.47-1.47.13-2.16.52-1,.54-2.16.65-3.14,1.19a8.07,8.07,0,0,0-2.21,2.15,16.82,16.82,0,0,0-3,4.87c.15.07.28.15.43.21l.13,0a.22.22,0,0,0,.14,0c.13,0,.22-.15.3-.26l3.35-5.05a2.21,2.21,0,0,1,.48-.57,2,2,0,0,1,.7-.33,13.26,13.26,0,0,1,2.72-.48,5,5,0,0,1,.09-.69,5,5,0,0,0-.09.69,1.67,1.67,0,0,0,0,.59,4.68,4.68,0,0,1-.25,1.57l-.2.77c-.18.67-.4,1.44-.64,2.23-.09.31-.19.63-.29,1-.78,2.54-1.59,5-1.59,5s.22.26.56.59h0a.15.15,0,0,0,.06.05l0,0h0c.1-.39.23-.78.37-1.17-.14.39-.27.78-.37,1.17a5,5,0,0,0,1.92,1.19l.17,0,.51-.48,0,.67s.72.12,1.65.2a16.76,16.76,0,0,0,1.91.09A8.61,8.61,0,0,0,448.53,159.37Z"/><path class="cls-12" d="M449.68,142.67a1,1,0,0,0,.14.13l-.09-.17Z"/><path class="cls-76" d="M449.68,142.67a1,1,0,0,0,.14.13l-.09-.17Z"/><path class="cls-21" d="M438.53,180.43a1.76,1.76,0,0,0-.26-.91.93.93,0,0,0-.86-.35,1,1,0,0,0-.58.31.76.76,0,0,0-.17.23c-.42.84-.13,2.5-.05,3.42h.31a4.65,4.65,0,0,0,1.84-.37C438.68,182,438.61,181.21,438.53,180.43Z"/><path class="cls-21" d="M440.34,185.32a1,1,0,0,1-.57-.63,2.61,2.61,0,0,1-.15-.92c-.88,0-2,0-2.37.46-.18.24-.18.61.11,1.18a.58.58,0,0,0,.19.25.73.73,0,0,0,.29.07,9.5,9.5,0,0,0,1.6,0,1.18,1.18,0,0,0,1-.39Z"/><path class="cls-12" d="M448.84,143.71l.63-1.57s3.28.76,3.7,2.8-.72,7.9-.89,9.05-.58,5.22-.16,6.07c0,0-2.09.91-3.28.25S448.84,143.71,448.84,143.71Z"/><path class="cls-6" d="M453.26,161.74a17.83,17.83,0,0,1,.09-9.48c.11-.46.22-.92.31-1.39a14.56,14.56,0,0,0,.18-6.32,4,4,0,0,0-.68-1.58,3.41,3.41,0,0,0-1.78-1.08,10.43,10.43,0,0,0-2.15-.25v-.25a10.42,10.42,0,0,1,2.21.26,3.64,3.64,0,0,1,1.91,1.17,4.19,4.19,0,0,1,.72,1.68,14.84,14.84,0,0,1-.17,6.42c-.1.47-.21.93-.31,1.4A23.23,23.23,0,0,0,453,156a22.81,22.81,0,0,0,.56,5.66Z"/><path class="cls-6" d="M455,149.19l-.21-.13a2.73,2.73,0,0,0,.27-1.19,16.48,16.48,0,0,0,0-3,5.38,5.38,0,0,0-1-2.73l.19-.15a5.64,5.64,0,0,1,1.06,2.85,16.92,16.92,0,0,1,0,3A2.8,2.8,0,0,1,455,149.19Z"/><path class="cls-6" d="M453.82,158.07c-.49-2.53.24-5.12.88-7.41l.25.07c-.64,2.26-1.37,4.82-.89,7.29Z"/><path class="cls-6" d="M455.28,159.83a14.92,14.92,0,0,1-.13-5.32l.25,0a14.58,14.58,0,0,0,.12,5.22Z"/><path class="cls-6" d="M446.8,142.58l-.23-.11a1.75,1.75,0,0,1,1.42-.95l0,.25A1.46,1.46,0,0,0,446.8,142.58Z"/><path class="cls-6" d="M451.08,155.41h-.25a18.94,18.94,0,0,1,.84-4.73,14.9,14.9,0,0,0,.75-5.79l.25,0a15,15,0,0,1-.76,5.89A19.17,19.17,0,0,0,451.08,155.41Z"/><path class="cls-6" d="M451.48,165.51a3.05,3.05,0,0,1-.74-.08l.05-.24a3.27,3.27,0,0,0,1.46,0,1.28,1.28,0,0,0,.41-.17,1.45,1.45,0,0,0,.34-.44,4.77,4.77,0,0,0,.54-2h.25a5,5,0,0,1-.57,2.1,1.55,1.55,0,0,1-.41.52,1.58,1.58,0,0,1-.5.21A3.31,3.31,0,0,1,451.48,165.51Z"/><circle class="cls-6" cx="548.03" cy="188.22" r="1.26"/><circle class="cls-3" cx="544.11" cy="187.52" r="1.15"/><circle class="cls-3" cx="395.5" cy="74.31" r="2.49"/><circle class="cls-12" cx="403.56" cy="75.55" r="2.49"/></g><g id="Details"><path class="cls-6" d="M468.23,284.44c-1.06-1.54-26.6-22.17-26.6-22.17s-14.37,21.65-12.29,23.52c.71.64,5.65,3.32,11.71,6.41,6.55-.93,11.77-1.55,12.68-1.37,1.16.24,1.91,4.1,2.35,8.65,5.91,2.69,10.52,4.49,10.75,3.77C467.44,301.35,469.27,286,468.23,284.44Z"/><rect class="cls-1" x="432" y="282.51" width="18.25" height="1" transform="translate(-15.33 25.45) rotate(-3.25)"/><path class="cls-1" d="M456.58,288.92a4.29,4.29,0,0,1-1.68-.31c-2.23-.95-3.87-4-5.37-7-2.51-5-5.1-10.27-7.18-15.69l.94-.36c2,5.38,4.64,10.58,7.13,15.6,1.42,2.84,2.95,5.68,4.87,6.48a4.39,4.39,0,0,0,2.38.15,31.8,31.8,0,0,0,9.25-2.58l.43.9a32.45,32.45,0,0,1-9.54,2.67A8.28,8.28,0,0,1,456.58,288.92Z"/><path class="cls-1" d="M465.42,301.84c-.61-2-1.29-3.87-2-5.67-.26-.66-.54-1.31-.81-1.95a45.53,45.53,0,0,1-2.32-6.29l1-.26a43.21,43.21,0,0,0,2.27,6.15c.27.66.55,1.31.82,2,.75,1.83,1.44,3.76,2.06,5.75Z"/><path class="cls-12" d="M243.32,351.47s9.31-18.77,1.67-17.82c0,0,1.91-21.26-11.65-11.39,0,0,.44-15.71-5.13-12.76s-5.76,15.24-5.76,15.24-2.29-13.22-7.06-5.69,1.14,19.41,1.14,19.41-6.49-8.44-6.68,1.11,3.24,11.9,3.24,11.9-6.69-4.07-5.35,1.46,8.38,10.44,8.38,10.44Z"/><path class="cls-6" d="M492.61,288.59c.33-1,23.78-1.91,23.78-1.91s-.5,24.75,5.28,33.51l-27.08,2.5S487.65,303.71,492.61,288.59Z"/><path class="cls-1" d="M453.73,290.83c-.91-.18-6.13.44-12.68,1.37,4.81,2.44,10.33,5.14,15,7.28C455.64,294.93,454.89,291.07,453.73,290.83Z"/><rect class="cls-1" x="410.11" y="313.13" width="18" height="1" transform="translate(-104.03 331.98) rotate(-38.82)"/><path class="cls-1" d="M432.08,310c-2.34,0-4.67-1.13-6.89-2.33a114.73,114.73,0,0,1-13.43-8.09l.59-.8a114.39,114.39,0,0,0,13.32,8c2.62,1.42,5.39,2.74,8,2a10.43,10.43,0,0,0,3.3-1.9,116,116,0,0,0,14.53-13.13l.73.69a117,117,0,0,1-14.65,13.23,11.29,11.29,0,0,1-3.63,2.07A6.63,6.63,0,0,1,432.08,310Z"/><path class="cls-1" d="M453.86,314a44.36,44.36,0,0,0-5.08-4l-1.95-1.27a29.87,29.87,0,0,1-5.81-4.41l.72-.69a29,29,0,0,0,5.63,4.26c.66.42,1.32.84,2,1.28a47.48,47.48,0,0,1,5.21,4.08Z"/><path class="cls-6" d="M408.46,298.43s.09,24.38,1.91,24.65,44.25-4.82,44.91-7.23.2-23.1-2.54-23.66S408.46,298.43,408.46,298.43Z"/><rect class="cls-1" x="409.12" y="314.49" width="18" height="1" transform="translate(-105.11 331.66) rotate(-38.82)"/><path class="cls-1" d="M431.09,311.38c-2.34,0-4.67-1.13-6.89-2.33A112.05,112.05,0,0,1,410.77,301l.59-.8a113.83,113.83,0,0,0,13.32,8c2.62,1.42,5.39,2.74,8,2a10.21,10.21,0,0,0,3.3-1.9,116.65,116.65,0,0,0,14.53-13.12l.73.68a117.8,117.8,0,0,1-14.65,13.23,11.32,11.32,0,0,1-3.63,2.08A7,7,0,0,1,431.09,311.38Z"/><path class="cls-1" d="M452.87,315.39a45.75,45.75,0,0,0-5.08-4l-2-1.27a30.11,30.11,0,0,1-5.8-4.41l.72-.69a29.29,29.29,0,0,0,5.62,4.26c.66.42,1.33.84,2,1.28a45.79,45.79,0,0,1,5.2,4.08Z"/><path class="cls-6" d="M289.49,220.4s4.59,13.87,11,19.6c0,0,27.76-2.2,29.74-12.77l-7.85-12.4S306.66,226.57,289.49,220.4Z"/><path class="cls-1" d="M287.28,275s4.19-10.21,3.53-14.14l10.07.13s-.15,13.1-3.46,16.19Z"/><path class="cls-1" d="M543.21,287.39s8.48-7.05,9.74-10.84l8.83,4.84s-6.27,11.5-10.64,12.68Z"/><path class="cls-1" d="M322.37,262.27l-8.06,7s6.22,2.66,6.66,4.64c0,0,4.63-6.9,6.17-7.31Z"/><path class="cls-6" d="M260.65,399l-8.06,7s6.22,2.65,6.66,4.63c0,0,4.63-6.9,6.17-7.3Z"/><path class="cls-1" d="M351.2,232.66s-2.71,6.9-5.35,8.66l8.12,2s4-6.91,3.77-10.06Z"/><path class="cls-6" d="M232,408.44s-5.77,14.67-11.38,18.41l17.26,4.22s8.49-14.69,8-21.39Z"/><path class="cls-6" d="M469.8,315.93S464,330.6,458.41,334.34l17.26,4.21s8.5-14.68,8-21.38Z"/><path class="cls-6" d="M187.42,413.68s-13,8.85-19.79,8.78l11.87,13.22s15.3-7.33,18.7-13.13Z"/></g></svg>