<svg width="32" height="32" viewBox="0 0 32 32" fill="none" xmlns="http://www.w3.org/2000/svg">
<path fill-rule="evenodd" clip-rule="evenodd" d="M16 32C24.8366 32 32 24.8366 32 16C32 7.16344 24.8366 0 16 0C7.16344 0 0 7.16344 0 16C0 24.8366 7.16344 32 16 32Z" fill="white"/>
<path fill-rule="evenodd" clip-rule="evenodd" d="M14.6754 8.99184C14.688 9.32547 14.839 9.64937 15.0898 9.88976C15.1901 9.83254 15.4427 9.68314 15.7112 9.48394L15.7314 9.46866C15.759 9.44815 15.787 9.42692 15.8146 9.40514L15.8293 9.39364L15.8293 9.39363C15.8436 9.38235 15.8579 9.37119 15.8717 9.35982C15.8752 9.35673 15.8789 9.35391 15.8825 9.35108C15.8861 9.34826 15.8897 9.34543 15.8934 9.34231C16.3084 9.00195 16.5429 8.68171 16.5681 8.4185C16.5525 8.40498 16.511 8.36873 16.4712 8.33332C15.9489 7.91516 15.302 7.88717 14.933 8.26789C14.7577 8.4484 14.6665 8.70231 14.6752 8.98323C14.6752 8.98612 14.6752 8.98898 14.6754 8.99184ZM22.2199 9.76378C23.3366 10.1247 23.9554 11.3401 23.5994 12.4724L23.2924 12.3731C23.5944 11.4123 23.0694 10.3812 22.1222 10.0753L22.2199 9.76378ZM23.0575 12.2835C23.3213 11.4935 22.8627 10.6456 22.0352 10.3937L21.9328 10.6998C22.5836 10.8981 22.9443 11.5647 22.7367 12.1861L23.0575 12.2835ZM21.8381 10.9606C22.2906 11.1117 22.5411 11.6206 22.397 12.0945L22.1007 11.9958C22.1927 11.6926 22.0325 11.3678 21.7435 11.2714L21.8381 10.9606ZM22.2409 13.9644C22.2917 13.7931 22.2341 13.6537 22.1019 13.6154C21.9699 13.5769 21.8454 13.6631 21.7944 13.8344C21.7644 13.935 21.678 14.0151 21.5901 14.0967C21.4987 14.1815 21.4056 14.2679 21.3721 14.3805C21.3696 14.3886 21.3677 14.3973 21.3659 14.4057L21.3648 14.4108L21.512 14.4052L21.5702 14.4032L21.614 14.441C21.7048 14.5201 21.7548 14.6567 21.7551 14.8267C21.7551 14.8766 21.7506 14.9295 21.7415 14.983C21.9834 15.0305 22.2261 14.8884 22.2971 14.6496C22.3305 14.5373 22.2995 14.4149 22.2691 14.2947C22.2398 14.1788 22.211 14.065 22.2409 13.9644ZM11.2984 17.6988L11.2807 18.1647L11.0062 18.1486L11.0101 18.0862C11.0101 18.0862 11.1703 18.096 11.2191 18.0988L11.2234 17.9867L11.2354 17.674C11.225 17.67 11.2147 17.6658 11.2044 17.6616C10.916 17.5452 10.6305 17.4063 10.3801 17.2598C10.2323 17.8324 10.3618 18.4162 10.7046 18.8346C11.2523 18.776 11.7717 18.4543 12.0869 17.9493C11.8318 17.887 11.5607 17.8004 11.2984 17.6988ZM18.0421 19.4646C17.758 20.4531 17.6266 21.3443 17.9833 21.8913L17.9953 21.2909L18.0593 21.2919L18.0456 21.9774C18.1048 22.051 18.1747 22.1168 18.2561 22.1749L18.2736 21.2962L18.3379 21.2975L18.3194 22.2174C18.368 22.2469 18.4203 22.2744 18.4762 22.2992C18.4919 22.2878 18.5083 22.2725 18.5232 22.2585L18.5341 22.2484L18.5522 21.302L18.6162 21.3031L18.5985 22.1845C18.9593 21.758 18.9141 20.8924 18.9141 20.8924C18.9141 20.8924 19.4401 20.9626 19.5976 20.69C19.206 20.6021 19.0111 20.3516 18.8098 20.0929C18.6181 19.8466 18.4206 19.5928 18.0421 19.4646ZM18.9596 19.2138L18.9338 19.2707L19.4477 19.5017C19.3811 19.5192 19.3137 19.5276 19.2453 19.5276C18.9419 19.5276 18.6254 19.3745 18.3359 19.2346C18.1532 19.1463 17.9813 19.0633 17.8304 19.0272C18.098 18.682 18.2858 18.525 18.4474 18.3898C18.6077 18.2558 18.7423 18.1432 18.9037 17.8898C18.9596 17.965 18.9771 18.0723 18.9771 18.1771C18.9769 18.3553 18.926 18.5274 18.926 18.5274L19.6135 18.8549L19.6647 19.0747L19.1358 18.8371L19.1101 18.8941L19.6824 19.1511L19.7238 19.3295L19.0476 19.0253L19.0218 19.0825L19.6943 19.3846C19.6426 19.4217 19.5893 19.451 19.5356 19.4726L18.9596 19.2138ZM15.1164 21.0014C14.7983 20.8785 14.2752 21.193 14.2752 21.193C14.2752 21.193 13.5719 20.1281 13.0616 20.227L13.7401 20.9978L13.6912 21.0402L13.0191 20.2761C12.9732 20.3369 12.9358 20.4118 12.9076 20.4962L13.5084 21.1795L13.4595 21.222L12.8857 20.5691C12.8617 20.6622 12.8476 20.764 12.8443 20.8696L13.2765 21.361L13.2279 21.4032L12.8443 20.9671C12.8523 21.2317 12.9277 21.5067 13.0801 21.7114C13.268 22.0037 13.478 22.1592 13.7257 22.3425L13.7257 22.3425L13.7257 22.3425L13.7258 22.3425L13.7258 22.3426L13.7258 22.3426L13.7258 22.3426L13.7258 22.3426C13.9261 22.4908 14.151 22.6573 14.4088 22.9291C14.7772 22.5559 14.7661 22.2437 14.7554 21.9414C14.7445 21.6357 14.734 21.3401 15.1164 21.0014ZM12.4059 19.4683L12.3555 19.5077L12.8325 20.1251C12.7855 20.1758 12.7311 20.2121 12.6731 20.2369L12.2141 19.6423L12.1635 19.6818L12.6098 20.2596C12.5342 20.2814 12.4553 20.2867 12.381 20.2818L12.0223 19.8167L11.9718 19.8561L12.2911 20.2702C12.2478 20.2624 12.2074 20.2513 12.1721 20.2382C11.9395 20.1531 11.2449 19.7321 10.9509 19.1449C11.7128 19.0104 12.1083 18.7079 12.5023 18.2047C12.7516 18.5899 12.3744 19.0502 12.3744 19.0502L12.9705 19.8422C12.9501 19.9371 12.9164 20.0134 12.8736 20.0738L12.4059 19.4683ZM17.5148 20.4307C17.0912 20.3293 16.6665 20.6009 16.5681 21.0362L16.8454 21.1024C16.9083 20.8245 17.1796 20.6512 17.4504 20.7155L17.5148 20.4307ZM17.6346 21.2854C17.6661 21.1497 17.5817 21.0144 17.4458 20.9831C17.3099 20.9514 17.1743 21.0355 17.1427 21.1711C17.1113 21.3066 17.1956 21.4423 17.3315 21.4737C17.4673 21.5053 17.6031 21.421 17.6346 21.2854ZM17.641 19.8786C16.907 19.7061 16.1706 20.1689 16 20.9097L16.2843 20.9764C16.4188 20.3938 16.9975 20.03 17.5749 20.1655L17.641 19.8786ZM15.4951 20.7836C15.7314 19.7365 16.7507 19.0832 17.7673 19.3264L17.7022 19.6142C16.8398 19.408 15.975 19.9624 15.7746 20.8504L15.4951 20.7836ZM22.4359 16.666C22.411 16.3744 22.1537 16.1573 21.8618 16.1817C21.8034 16.1867 21.7463 16.2015 21.6921 16.2259L21.6537 16.243L21.6189 16.2193C21.5378 16.1633 21.4443 16.1315 21.3483 16.1266C21.1917 16.1193 21.041 16.1821 20.9354 16.2994L20.879 16.362L20.8233 16.2986C20.7583 16.2248 20.6656 16.1871 20.5683 16.1951C20.494 16.2015 20.4243 16.2345 20.3721 16.2887L20.3283 16.3339L20.2761 16.2986C20.0832 16.168 19.8284 16.1736 19.6417 16.3118C19.487 16.4269 19.4036 16.6187 19.4245 16.812L19.4327 16.8902L19.3544 16.8951C19.1778 16.9056 19.0384 17.0471 19.03 17.2237C19.0253 17.3157 19.0573 17.404 19.1194 17.4723C19.1813 17.5411 19.2665 17.5812 19.3586 17.5858C19.5209 17.5936 19.6688 17.4849 19.7098 17.3282L19.7295 17.2516L19.8049 17.2753C19.9544 17.3228 20.1168 17.3038 20.2508 17.2237L20.3433 17.1681L20.3632 17.2738C20.385 17.3891 20.4317 17.4961 20.5016 17.5909C20.6098 17.7361 20.7656 17.8389 20.9409 17.8805L21.0458 17.9053L20.9859 17.9951C20.8955 18.1306 20.8947 18.3063 20.984 18.4428L21.0206 18.499L20.9689 18.5419C20.8719 18.6216 20.8547 18.7636 20.9299 18.8653C20.9673 18.9159 21.0224 18.9485 21.0848 18.958C21.1475 18.9673 21.2101 18.9518 21.2608 18.9142C21.3284 18.8638 21.3636 18.7838 21.3551 18.6997L21.3483 18.6338L21.4134 18.6189C21.4704 18.6063 21.5226 18.5826 21.5684 18.5485C21.723 18.4336 21.7765 18.2239 21.6955 18.0494L21.6552 17.9622L21.7496 17.9441C21.8201 17.9308 21.8844 17.9026 21.9411 17.8601C22.1164 17.7306 22.1789 17.4918 22.0898 17.2926L22.0595 17.2247L22.1269 17.1935C22.3307 17.1002 22.4548 16.8884 22.4359 16.666ZM21.4997 12.081C21.6489 12.1286 21.8085 12.0463 21.8562 11.8971C21.9039 11.7478 21.8214 11.5886 21.672 11.5409C21.5225 11.4936 21.3628 11.5757 21.3152 11.7249C21.2675 11.874 21.35 12.0336 21.4997 12.081ZM15.8107 16.1902L16.2374 16.6265L16.3158 16.578C16.3158 16.578 16.0639 16.3208 15.989 16.2438L16.2518 16.204L16.2333 16.126L15.8107 16.1902ZM21.6854 13.0525C21.7972 13.0174 21.937 13.0529 22.0456 13.157C22.1542 13.261 22.2018 13.4045 22.1805 13.5269C22.0686 13.5618 21.9289 13.526 21.8202 13.4219C21.7119 13.3179 21.664 13.1742 21.6854 13.0525ZM17.8935 22.5453C17.8512 22.2566 17.6174 21.8137 17.2029 21.8137C16.7353 21.2941 15.301 21.0394 15.301 21.0394C15.3197 21.1764 15.3647 21.6654 15.3647 21.6654C15.3647 21.6654 15.0137 22.0066 14.9271 22.0892C15.0153 22.1681 15.3373 22.4572 15.3373 22.4572L15.0143 23.0016C15.332 22.9087 15.9129 22.7583 16.3321 22.6499L16.3322 22.6498L16.3324 22.6498L16.3328 22.6497L16.3336 22.6495C16.5244 22.6001 16.6815 22.5595 16.7649 22.5369L16.8145 22.5236C16.8145 22.5236 17.088 22.8989 17.2015 23.0551C17.2514 22.8877 17.3549 22.5419 17.3549 22.5419C17.3549 22.5419 17.7819 22.5464 17.8935 22.5453ZM16.6418 22.7042L16.7419 22.6772L16.9132 22.911L17.073 23.1294C16.8449 23.5648 16.4582 23.8793 16.0185 24C15.7434 23.7514 15.5576 23.4041 15.4951 23.0178C15.8019 22.9329 16.1569 22.8361 16.4817 22.7476C16.4817 22.8938 16.4823 23.1911 16.4825 23.2443L16.2501 23.1902L16.2352 23.2526L16.5476 23.326L16.5466 22.73L16.6418 22.7042ZM16.9748 9.21968C17.0023 9.19069 17.0285 9.16207 17.0535 9.13386C17.2684 9.59151 17.3194 10.0979 17.1975 10.5582C16.5156 10.7713 15.711 10.5944 15.1164 10.0355C15.1938 9.99101 15.3685 9.88781 15.5739 9.74449C15.7914 9.84766 16.1067 9.87769 16.5148 9.61305L16.5869 9.6425C16.6471 9.66711 16.713 9.69404 16.7414 9.70581C16.7054 9.75576 16.5807 9.93088 16.5807 9.93088L16.6324 9.96835L16.8403 9.6765L16.5786 9.56989C16.7 9.48378 16.8295 9.37191 16.9666 9.22838L16.9748 9.21968ZM20.7258 15.498L20.7234 15.434L21.5104 15.4034C21.5609 15.3393 21.6002 15.2645 21.6285 15.1864L20.72 15.2259L20.717 15.162L21.649 15.121C21.6682 15.0519 21.6784 14.9823 21.6804 14.9165L20.7134 14.9537L20.7108 14.8897L21.6797 14.8524C21.6738 14.7452 21.6431 14.6549 21.5877 14.6067L20.5388 14.646L20.3885 14.6514C20.3885 14.6514 20.3736 13.9458 20.0568 13.9213C19.9769 14.48 19.5107 14.7837 19.2189 14.8724V15.7808C19.4098 15.8465 19.6307 15.874 19.8592 15.874C20.3994 15.874 20.9843 15.7206 21.3268 15.555C21.3721 15.5332 21.4129 15.5042 21.4495 15.47L20.7258 15.498ZM13.1599 11.1491C12.9879 11.2828 12.688 11.3176 12.4324 11.2193C12.3065 11.1708 12.0183 11.0158 12.0636 10.6256L12.0816 10.4712L11.9488 10.5563C11.8921 10.5929 10.5434 11.444 9.35546 11.1509C8.91777 11.0431 8.56382 10.7867 8.30005 10.3898C8.46508 10.4173 8.64275 10.3982 8.83964 10.3269L8.93685 10.2919L8.87153 10.2122L8.87103 10.2115C8.86552 10.2043 8.81614 10.1395 8.80079 10.0578C9.28214 10.1079 9.72826 9.90652 10.1603 9.7101L10.1609 9.70984C10.7449 9.44487 11.2964 9.19461 11.8771 9.5963C12.2376 9.84584 12.3535 10.1239 12.4656 10.3936C12.5916 10.6964 12.7154 10.9822 13.1599 11.1491ZM16.8131 9.10378L16.8215 9.09531C17.0645 8.84339 17.2056 8.59089 17.199 8.41973C17.1965 8.35782 17.1751 8.30968 17.1337 8.27285C17.0031 8.15672 16.9051 8.15652 16.5523 8.30156C16.57 8.31718 16.6165 8.35878 16.6165 8.35878L16.6155 8.393C16.6147 8.41552 16.6126 8.43793 16.6094 8.46062L16.6084 8.46951C16.6051 8.49075 16.6007 8.51239 16.5956 8.53384C16.5948 8.5375 16.5939 8.54094 16.5928 8.5444C16.5873 8.56601 16.581 8.58728 16.5734 8.60887C16.5728 8.61104 16.5719 8.6132 16.5711 8.61534L16.5704 8.61739C16.5624 8.63988 16.5537 8.66251 16.5438 8.68498C16.5438 8.68498 16.5433 8.68537 16.5433 8.68577C16.5332 8.70846 16.5217 8.73149 16.5097 8.75441L16.5087 8.7564C16.5083 8.75727 16.5079 8.75813 16.5075 8.75881C16.4956 8.78091 16.4832 8.80238 16.4699 8.82419L16.464 8.8337C16.4513 8.85435 16.4375 8.87536 16.4235 8.89561C16.4214 8.89917 16.419 8.90222 16.4167 8.90529L16.4167 8.90531L16.415 8.90757C16.4009 8.92776 16.3864 8.94775 16.3715 8.96746L16.3675 8.97248C16.3653 8.97522 16.3631 8.97794 16.3609 8.98095L16.3563 8.98678L16.3562 8.98687C16.3454 9.00042 16.3344 9.01432 16.3232 9.02775C16.3165 9.03582 16.3097 9.04391 16.3026 9.05203C16.291 9.06578 16.2794 9.0791 16.2674 9.09267L16.2409 9.12201L16.2377 9.12547C16.0717 9.3055 15.8723 9.4714 15.6845 9.60999C16.0076 9.71033 16.3947 9.53854 16.8131 9.10378ZM14.3096 12.6075C14.2835 12.6801 14.2723 12.7593 14.2801 12.8413C14.3082 13.1365 14.5683 13.3542 14.864 13.3336C14.83 13.6384 14.5853 13.8882 14.2662 13.9182C13.9006 13.9528 13.5764 13.686 13.5416 13.3222C13.5068 12.9585 13.7751 12.6359 14.1407 12.6013C14.1982 12.5955 14.2549 12.5989 14.3096 12.6075ZM14.2686 12.2669C14.3657 12.1291 14.3835 11.9656 14.3282 11.843C14.1918 11.8358 14.042 11.9102 13.9447 12.0482C13.8476 12.1863 13.83 12.3498 13.8851 12.472C14.0218 12.4792 14.1716 12.4048 14.2686 12.2669ZM16.9427 11.2648C17.0827 11.1754 17.182 11.0797 17.2516 10.9995C17.2581 11.1196 17.2623 11.2364 17.2623 11.3462C17.2623 11.5101 17.2568 11.6635 17.2516 11.8075L17.2516 11.808L17.2444 12.1117C17.0915 12.1512 16.9261 12.3066 16.7242 12.497C16.3744 12.8268 15.9592 13.2161 15.4641 13.1599L16.0455 12.7449L16.0085 12.6939L15.3753 13.1448C15.283 13.1249 15.1881 13.0882 15.0903 13.0335L15.8839 12.4675L15.8469 12.416L15.0311 12.9975L15.0228 12.9923L15.0228 12.9923C15.0155 12.9879 15.0084 12.9835 15.0011 12.9783C14.995 12.9099 14.9902 12.841 14.9902 12.7723C14.9902 12.7601 14.9907 12.7479 14.9911 12.7358V12.7357V12.7357V12.7357V12.7357V12.7357V12.7357V12.7357V12.7356V12.7356V12.7356V12.7356V12.7356V12.7356V12.7356V12.7355V12.7355V12.7355V12.7355V12.7355V12.7354V12.7354V12.7354V12.7354V12.7354C14.9915 12.727 14.9918 12.7187 14.9919 12.7104L15.7224 12.1891L15.6853 12.138L14.9955 12.6299C15.0025 12.5175 15.0175 12.4052 15.0403 12.2932L15.8751 11.7178L15.8316 11.6567C15.7507 11.5437 15.5775 11.2505 15.5775 11.0532C15.5775 11.0188 15.5838 10.9879 15.5956 10.9606C16.0282 11.3093 16.8682 11.2782 16.9058 11.2764L16.9259 11.2758L16.9427 11.2648ZM20.2895 13.2577L20.3009 13.1957L21.0781 13.3341L21.3402 13.1645L20.3604 12.9898L20.3721 12.9278L21.3648 13.1047C21.3596 13.0249 21.3432 12.9511 21.3164 12.8836L20.4307 12.7222L20.4426 12.6603L21.2844 12.8135C21.0569 12.3873 20.386 12.2205 19.6558 12.2205C19.5162 12.2205 19.3746 12.2269 19.2332 12.2384C19.2232 12.3612 19.2187 12.4694 19.2189 12.5659C19.2193 12.9959 19.3081 13.1924 19.3882 13.3695C19.454 13.5149 19.5139 13.6473 19.5141 13.8853C19.5141 13.934 19.5115 13.9875 19.5061 14.0463C19.5137 14.0469 19.5209 14.0472 19.5282 14.0472C19.8186 14.0472 19.9542 13.4215 19.9542 13.4215L20.7222 13.5645L21.0007 13.3841L20.2895 13.2577ZM12.8443 14.7333C12.4928 14.9014 12.068 14.7555 11.8976 14.409L12.1284 14.2992C12.237 14.5207 12.5081 14.6136 12.7327 14.5063L12.8443 14.7333ZM12.3647 14.2176C12.3039 14.0931 12.3564 13.9437 12.4819 13.8831C12.6075 13.8233 12.7584 13.875 12.8193 13.9995C12.8799 14.1238 12.8275 14.2735 12.7019 14.3338C12.5764 14.3938 12.4257 14.3419 12.3647 14.2176ZM13.0337 15.1824C12.4473 15.4822 11.7396 15.2226 11.4558 14.6044L11.6829 14.4882C11.906 14.9746 12.4627 15.1786 12.9237 14.9432L13.0337 15.1824ZM11.014 14.8523C11.4228 15.6958 12.442 16.0497 13.2861 15.6412L13.1739 15.4093C12.4575 15.7558 11.5929 15.4556 11.246 14.7402L11.014 14.8523ZM16.8607 12.9764C17.2211 13.182 17.229 13.5209 16.8786 13.7323L16.6588 13.6067C16.6489 13.6231 16.6369 13.6385 16.6229 13.6528C16.5255 13.7522 16.3661 13.7543 16.2661 13.6583C16.1658 13.5619 16.1637 13.403 16.2607 13.3043C16.3582 13.2051 16.518 13.2028 16.6179 13.2991C16.6951 13.3738 16.7142 13.485 16.674 13.5774C16.8653 13.4417 16.8502 13.2397 16.6312 13.115L16.8607 12.9764ZM17.0504 12.7244C17.4929 13.084 17.5027 13.6775 17.0722 14.0472L16.901 13.9081C17.2395 13.6171 17.2315 13.1505 16.8837 12.8679L17.0504 12.7244ZM9.12588 11.4646C8.77184 11.8277 8.5197 12.3015 8.55598 12.9678C8.55842 13.0127 8.56307 13.0538 8.56938 13.0917L8.82296 12.5494L8.88051 12.5759L8.59297 13.1921C8.62041 13.281 8.66068 13.3446 8.7089 13.3891L9.05134 12.6553L9.10909 12.6817L8.76079 13.4282C8.81756 13.4631 8.88068 13.4777 8.94443 13.4803L9.28029 12.7611L9.33807 12.7876L9.01578 13.4781C9.11606 13.4692 9.21032 13.437 9.27185 13.4125L9.63636 12.6654C9.63636 12.6654 10.1946 12.9046 10.3828 12.6103C10.063 12.4773 9.96387 12.2491 9.86899 12.0308C9.75154 11.7606 9.64065 11.5055 9.12588 11.4646ZM11.9595 16.1421L11.9663 16.1435C12.2144 16.1959 12.5756 16.1663 12.7122 16.152C12.7395 16.2234 12.7474 16.3201 12.7408 16.416C12.7345 16.5089 12.7153 16.5987 12.6905 16.6575L12.5157 17.0712L12.5688 17.105C13.0381 17.3995 13.231 17.6416 13.2227 17.7595C13.2221 17.7691 13.2199 17.778 13.2167 17.7861C13.1412 17.9638 12.3789 17.9404 11.3078 17.4988C10.2366 17.0571 9.68352 16.5382 9.75841 16.3604C9.80262 16.2557 10.1172 16.2033 10.7036 16.3362L10.7649 16.3498L10.9397 15.9354C11.0076 15.7747 11.1537 15.693 11.3833 15.685C11.4685 15.7722 11.7624 16.0622 11.9535 16.1396L11.9595 16.1421ZM11.3314 14.2362L11.3711 13.4416L11.4361 13.4446L11.3965 14.2331C11.4553 14.2285 11.5098 14.2166 11.5605 14.2005L11.5962 13.4699L11.6612 13.4727L11.6268 14.1751C11.6888 14.1472 11.7441 14.1114 11.7935 14.0688L11.8217 13.4983L11.8864 13.5009L11.8619 14.0023C12.1599 13.6701 12.1864 13.0767 12.1201 12.8458C11.9549 12.2707 11.6543 12.1575 11.6543 12.1575C11.6543 12.1575 11.2639 12.5658 10.6353 12.7277C10.7456 12.9694 11.2386 13.0026 11.2386 13.0026L11.1528 14.2214C11.2162 14.232 11.2753 14.2366 11.3314 14.2362ZM13.4121 15.8969C13.643 15.5641 13.9344 15.3701 14.3308 15.3701C14.4535 15.4391 14.4707 15.5678 14.4902 15.7135C14.5171 15.9138 14.5483 16.1463 14.864 16.2998C14.7204 16.5761 14.207 16.4074 14.207 16.4074L13.9823 17.033C13.9143 17.0678 13.8348 17.0989 13.7526 17.125L13.9847 16.5551L13.924 16.5302L13.6721 17.149C13.601 17.1689 13.5304 17.185 13.4644 17.1968L13.7522 16.4902L13.6914 16.4657L13.3998 17.1821C13.3513 17.1377 13.3131 17.0754 13.2851 17.0022L13.5199 16.4248L13.4594 16.4002L13.2548 16.9029C13.1784 16.5878 13.243 16.1411 13.4121 15.8969ZM10.7939 13.3564L9.86028 13.1708C9.71154 13.1413 9.56665 13.2355 9.53644 13.3812L9.12618 15.3659C9.0957 15.5117 9.1919 15.6535 9.34032 15.6832L10.274 15.8686C10.4229 15.8982 10.5675 15.8037 10.5978 15.658L11.0086 13.6736C11.0383 13.5279 10.9426 13.3859 10.7939 13.3564ZM9.963 15.5264C9.95033 15.5879 9.88865 15.628 9.826 15.6149C9.7625 15.6026 9.72172 15.5427 9.73466 15.4808C9.74747 15.4191 9.80893 15.3793 9.8716 15.3915C9.93524 15.4042 9.97563 15.4649 9.963 15.5264ZM10.3312 15.2182L9.55749 15.062L9.86162 13.5645L10.6353 13.7209L10.3312 15.2182ZM13.349 10.3294L13.3939 10.2842L14.0019 10.8914C14.1006 10.8771 14.1876 10.8417 14.2635 10.7943L13.5763 10.1085L13.6209 10.0633L14.3169 10.7582C14.3881 10.7048 14.448 10.6425 14.4973 10.5799L13.8034 9.88728L13.8482 9.84216L14.5355 10.5287C14.6303 10.3942 14.6746 10.2746 14.6746 10.2746C14.1297 9.78981 13.8088 9.17712 13.8088 9.17712C13.8088 9.17712 14.1756 8.84668 14.0769 8.50394C13.7233 8.73106 13.4155 8.7766 13.1035 8.82277C12.7519 8.87481 12.3948 8.92764 11.9607 9.24215C12.3772 9.43949 12.6254 9.79768 12.8517 10.1242L12.8517 10.1242C13.0191 10.3658 13.1745 10.5901 13.3772 10.7191C13.5844 10.8511 13.7642 10.9002 13.9186 10.8975L13.349 10.3294ZM10.802 11.2519C11.3135 11.1064 11.7345 10.885 11.931 10.7717C11.9402 10.9244 11.9941 11.0604 12.0869 11.1713C11.7191 11.7965 11.132 12.2414 10.4744 12.4094C10.178 12.1345 9.95215 11.7844 9.8148 11.3926C10.1283 11.3988 10.4387 11.3487 10.7241 11.2734L10.5808 11.6364L10.9865 11.6736L10.9925 11.61C10.9925 11.61 10.739 11.5866 10.6723 11.5808L10.802 11.2519ZM20.2887 10.3395C20.1336 10.5727 20.1711 10.924 20.4002 11.3843L20.4563 11.4974C20.4563 11.4974 20.1319 11.483 20.0609 11.48C20.058 11.4873 20.0546 11.4961 20.051 11.5055C20.05 11.5088 20.0488 11.5123 20.0476 11.5155C20.045 11.5225 20.0425 11.53 20.04 11.5378C20.0386 11.5421 20.0371 11.5464 20.0356 11.5515C20.0327 11.5607 20.0299 11.571 20.0269 11.5814C20.0259 11.5851 20.0248 11.5878 20.024 11.5912C20.2079 11.7772 20.4212 11.9273 20.6546 12.0315C21.0334 11.7775 21.3263 11.3927 21.4866 10.938L21.49 10.8045C21.4902 10.7982 21.4903 10.7919 21.4903 10.7855C21.4903 10.4677 21.2924 10.1062 21.2296 9.99911C21.0803 9.99521 20.5123 10.0034 20.2887 10.3395ZM20.7387 11.1152L20.714 11.0572C20.714 11.0572 20.9683 10.9541 21.0235 10.9318C20.9909 10.8769 20.7416 10.4602 20.7416 10.4602L20.7972 10.4281L21.1166 10.9622L20.7387 11.1152ZM21.6651 9.61159C21.4338 9.57082 20.1348 9.32666 19.4435 8.88189C19.2957 9.13364 19.2189 9.56407 19.2189 10.0344C19.2189 10.4603 19.2811 10.9167 19.4089 11.2964C19.5173 11.6184 19.6615 11.842 19.8221 11.9456C19.8221 11.9363 19.8207 11.9257 19.8207 11.917C19.8207 11.5862 19.9308 11.3842 19.9361 11.3746L19.9585 11.3343C19.9585 11.3343 20.1116 11.341 20.2059 11.3449C20.0941 11.0964 20.0347 10.8739 20.0347 10.6832C20.0347 10.5217 20.0746 10.3809 20.1544 10.2622C20.4625 9.80352 21.2427 9.85532 21.276 9.85779L21.3129 9.86061L21.3331 9.89152C21.3443 9.90913 21.5722 10.2659 21.6275 10.6374C21.7613 10.47 21.8066 10.2925 21.8066 10.132C21.8066 9.88664 21.7052 9.68241 21.6651 9.61159ZM17.1992 14.3815C16.1753 14.2334 15.8389 14.9747 14.8009 15.328C15.2145 15.8013 15.1498 15.9058 15.2496 16.5431C15.3741 17.3376 15.7474 17.5602 16.3297 17.5035C17.0364 17.4349 17.1992 16.4794 17.143 16.0345C17.0482 15.2819 17.0731 15.0737 17.1992 14.3815ZM16.1978 16.9392L15.5032 16.8292V16.829C15.4242 16.309 15.6251 15.8171 15.9848 15.5361C16.411 15.6947 16.7491 16.1027 16.8281 16.623L16.1978 16.9392ZM16.1588 13.8854L15.8651 13.2748C15.7113 13.3259 15.548 13.347 15.376 13.3208L15.557 13.6974L13.7409 14.5L12.6813 12.2961L14.4973 11.4936L14.8566 12.2409C14.8566 12.2409 15.0568 12.1051 15.2418 11.9776L14.8414 11.1441C14.7649 10.9862 14.5691 10.917 14.4042 10.9893L12.3415 11.9005C12.1766 11.9734 12.1044 12.161 12.1801 12.3195L13.4982 15.0603C13.5745 15.2189 13.7701 15.2878 13.9352 15.2152L15.9977 14.3039C16.163 14.2311 16.2355 14.0439 16.1588 13.8854ZM14.8541 14.5195C14.7892 14.5462 14.7128 14.521 14.6831 14.4637C14.6531 14.4066 14.6811 14.3385 14.7458 14.312C14.8104 14.286 14.8873 14.3111 14.9169 14.3683C14.9469 14.4257 14.9185 14.4935 14.8541 14.5195ZM21.1971 13.4592L20.6708 13.8176L20.4812 14.5202L20.915 14.504L21.1971 13.4592ZM23.3561 12.8902L21.3939 12.2965C21.2565 12.2549 21.1152 12.3157 21.0539 12.4351C21.2024 12.5349 21.3203 12.6298 21.391 12.7694L23.1186 13.292L22.5297 15.4348L21.7108 15.1871C21.6515 15.3838 21.5278 15.5879 21.3201 15.6885C21.2889 15.7038 21.2546 15.7191 21.2192 15.734L22.4702 16.1128C22.6273 16.1606 22.7892 16.0744 22.8312 15.9199L23.5637 13.2553C23.6058 13.1012 23.5125 12.9373 23.3561 12.8902ZM20.7968 18.4448C20.7572 18.3665 20.7362 18.2819 20.7362 18.1969C20.7362 18.1214 20.7524 18.0468 20.7834 17.9762C20.6142 17.9168 20.4636 17.8104 20.3552 17.665C20.2921 17.5795 20.2454 17.4859 20.2153 17.3858C20.0882 17.4389 19.9478 17.4514 19.8124 17.4233C19.7332 17.6078 19.5453 17.7292 19.3401 17.7194C19.2545 17.7152 19.1736 17.6893 19.1034 17.6446C19.0769 17.6928 19.0519 17.7418 19.0296 17.7913L19.0387 17.8037C19.1245 17.9192 19.1571 18.0885 19.1354 18.3063C19.13 18.3615 19.1217 18.4129 19.1135 18.4558L19.7015 18.7366L19.7659 18.7675L19.7817 18.8366L19.8398 19.0866C20.1408 19.0669 20.4449 18.9843 20.7303 18.8358C20.7115 18.7896 20.7021 18.7412 20.7021 18.693C20.7021 18.6031 20.7355 18.5152 20.7968 18.4448ZM20.1684 18.7181L19.8277 18.457L19.8647 18.407C19.8647 18.407 20.0541 18.5527 20.1179 18.6012C20.1263 18.5112 20.1656 18.0945 20.1656 18.0945L20.2267 18.1005L20.1684 18.7181ZM20.923 19.3494L20.8402 19.3386C20.7963 19.6986 20.5473 19.7638 20.4266 19.7741C20.3216 19.5985 20.0402 19.5403 19.7644 19.6476C19.4642 19.7634 19.2848 20.0303 19.3637 20.2435C19.4425 20.4565 19.7499 20.5348 20.0498 20.4188C20.3352 20.308 20.5107 20.0619 20.4598 19.8548C20.6108 19.8337 20.875 19.7402 20.923 19.3494ZM19.7476 20.3126C19.6447 20.3525 19.5324 20.3072 19.4969 20.2105C19.4613 20.1144 19.5159 20.0035 19.6189 19.9635C19.7218 19.9237 19.8339 19.9694 19.8697 20.066C19.9052 20.162 19.8504 20.2726 19.7476 20.3126ZM15.397 19.5784L13.8269 18.2674C13.7113 18.1716 13.5405 18.1873 13.4449 18.3033L12.8438 19.0303C12.748 19.1463 12.764 19.3179 12.8791 19.4139L14.4494 20.7243C14.5647 20.8207 14.7358 20.8048 14.8314 20.6893L15.4328 19.9621C15.5282 19.8463 15.5124 19.6743 15.397 19.5784ZM14.3583 20.207L13.1854 19.2224L13.6873 18.611L14.86 19.596L14.3583 20.207ZM15.0063 20.2227C14.9657 20.2726 14.8929 20.2792 14.8442 20.2382C14.795 20.1971 14.7882 20.1239 14.8283 20.0747C14.8698 20.0253 14.9425 20.0189 14.9913 20.0597C15.0406 20.1004 15.0474 20.1742 15.0063 20.2227Z" fill="#6D0C36"/>
</svg>
