<svg width="134" height="44" viewBox="0 0 134 44" fill="none" xmlns="http://www.w3.org/2000/svg">
<path fill-rule="evenodd" clip-rule="evenodd" d="M23.5355 36.5802C23.0308 36.6328 22.5186 36.6597 22 36.6597C17.5179 36.6597 13.5057 34.6482 10.8166 31.4788L15.588 23.2863L23.5355 36.5802ZM24.9652 36.3597L19.9363 27.9476L35.403 27.9476C33.5094 32.2083 29.6439 35.3986 24.9652 36.3597ZM35.921 26.6073C36.4003 25.1585 36.6597 23.6095 36.6597 22C36.6597 18.7808 35.622 15.8039 33.8629 13.3856L26.1024 26.6073L35.921 26.6073ZM32.9643 12.2688L28.1745 20.4292L20.4012 7.4265C20.9263 7.36954 21.4597 7.34031 22 7.34031C26.3619 7.34031 30.2789 9.24537 32.9643 12.2688ZM18.9749 7.65279L23.8962 15.8848L8.67277 15.8848C10.5841 11.7262 14.3845 8.61582 18.9749 7.65279ZM19.613 6.17685C11.9086 7.3293 6 13.9746 6 22C6 30.8366 13.1634 38 22 38C30.8366 38 38 30.8366 38 22C38 13.1634 30.8366 6 22 6C21.2019 6 20.4175 6.05843 19.6507 6.17125L19.6433 6.15874L19.613 6.17685ZM8.13551 17.2251C7.62014 18.7219 7.34031 20.3283 7.34031 22C7.34031 25.0939 8.29876 27.964 9.93494 30.3295L17.5671 17.2251L8.13551 17.2251ZM27.4009 21.7472L24.6975 17.2251H19.1182L16.3586 21.9633L19.135 26.6073H24.5482L27.4009 21.7472Z" fill="url(#paint0_linear)"/>
<path d="M52.64 27.04C53.408 27.568 54.08 27.824 54.256 27.888C55.04 28.176 55.68 28.24 56.352 28.24C57.488 28.24 58.592 28.064 59.504 27.152C60.272 26.384 60.512 25.44 60.512 24.464C60.512 23.728 60.368 23.136 59.824 22.56C59.264 21.952 58.56 21.712 57.888 21.504L57.04 21.248C56.384 21.056 56.192 20.864 56.112 20.768C56 20.624 55.968 20.48 55.968 20.288C55.968 20.048 56.08 19.872 56.24 19.712C56.512 19.456 56.88 19.392 57.152 19.392C57.52 19.392 58.144 19.456 58.976 20.112L60.08 17.952C59.072 17.424 57.84 17.088 56.784 17.088C55.488 17.088 54.592 17.552 54.048 18.096C53.584 18.56 53.072 19.36 53.072 20.672C53.072 21.216 53.136 21.968 53.68 22.56C54.112 23.04 54.768 23.28 55.216 23.424L55.936 23.648C56.624 23.856 57.04 23.968 57.312 24.208C57.536 24.4 57.616 24.64 57.616 24.848C57.616 25.12 57.504 25.36 57.344 25.52C57.168 25.712 56.832 25.888 56.272 25.888C55.312 25.888 54.416 25.36 53.824 24.8L52.64 27.04ZM62.0206 28H64.5806V24.16C64.5806 23.728 64.7406 23.264 64.9966 23.024C65.2046 22.832 65.5406 22.688 65.9406 22.688C66.1966 22.688 66.5166 22.736 66.7566 22.992C67.0926 23.344 67.0766 23.968 67.0766 24.384V28H69.6366V23.456C69.6366 22.672 69.5726 22.064 68.9646 21.456C68.3726 20.864 67.5886 20.688 66.8526 20.688C66.2286 20.688 65.2846 20.816 64.5806 21.744V20.848H62.0206V28ZM76.916 21.536C76.612 21.2 75.924 20.608 74.772 20.608C73.748 20.608 72.804 21.008 72.196 21.616C71.62 22.192 71.092 23.136 71.092 24.48C71.092 25.552 71.428 26.368 72.116 27.104C72.98 28.016 73.924 28.24 74.692 28.24C75.396 28.24 76.324 28.032 76.916 27.216V28H79.476V20.848H76.916V21.536ZM75.348 22.784C75.892 22.784 76.26 23.024 76.5 23.248C76.9 23.632 76.996 24.08 76.996 24.416C76.996 24.992 76.74 25.344 76.516 25.568C76.196 25.888 75.78 26.064 75.364 26.064C74.932 26.064 74.484 25.84 74.212 25.584C73.892 25.28 73.716 24.832 73.716 24.416C73.716 24.048 73.876 23.584 74.228 23.248C74.596 22.896 75.028 22.784 75.348 22.784ZM83.7994 27.312C84.5994 28.144 85.5594 28.24 86.0234 28.24C86.7434 28.24 87.6714 28.032 88.4714 27.248C89.1594 26.576 89.6234 25.616 89.6234 24.416C89.6234 23.184 89.1274 22.24 88.5354 21.648C87.9594 21.072 87.0954 20.608 85.9914 20.608C84.9354 20.608 84.2474 21.072 83.7994 21.632V20.848H81.2394V31.664H83.7994V27.312ZM85.3674 22.784C85.8154 22.784 86.2154 22.96 86.5034 23.264C86.8234 23.584 86.9994 24.048 86.9994 24.448C86.9994 24.88 86.7754 25.312 86.5034 25.584C86.2154 25.888 85.8154 26.064 85.3674 26.064C84.9354 26.064 84.5194 25.888 84.2154 25.584C83.9434 25.312 83.7194 24.864 83.7194 24.448C83.7194 24.048 83.8954 23.584 84.2154 23.264C84.5194 22.96 84.9354 22.784 85.3674 22.784ZM90.6508 27.408C91.8828 28.16 92.8908 28.24 93.5308 28.24C94.1228 28.24 95.3388 28.176 96.1708 27.344C96.5228 27.008 96.8908 26.432 96.8908 25.568C96.8908 25.04 96.6988 24.48 96.3468 24.144C96.1388 23.936 95.6268 23.68 95.2908 23.584L94.8268 23.456C94.4268 23.344 94.2188 23.344 93.9788 23.248C93.8188 23.184 93.6748 23.072 93.6748 22.848C93.6748 22.688 93.7548 22.576 93.8988 22.496C94.0588 22.4 94.2348 22.352 94.4908 22.352C94.9548 22.352 95.4828 22.544 95.8348 22.704L96.6988 21.072C96.2828 20.896 95.4668 20.608 94.4108 20.608C93.3548 20.608 92.3948 20.912 91.8508 21.472C91.4508 21.888 91.1788 22.528 91.1788 23.216C91.1788 23.76 91.3708 24.16 91.6428 24.448C92.0268 24.864 92.5388 24.992 92.8908 25.072L93.5628 25.232C93.8188 25.296 94.0748 25.344 94.2348 25.488C94.3468 25.584 94.3628 25.696 94.3628 25.808C94.3628 25.936 94.3468 26.032 94.2348 26.144C94.0748 26.288 93.7708 26.336 93.5788 26.336C93.3068 26.336 92.9068 26.272 92.5868 26.16C92.2348 26.048 91.8668 25.856 91.5628 25.632L90.6508 27.408ZM98.2081 28H100.768V24.16C100.768 23.584 100.976 23.2 101.2 22.992C101.488 22.736 101.856 22.688 102.128 22.688C102.384 22.688 102.704 22.72 102.944 22.992C103.232 23.312 103.264 23.856 103.264 24.384V28H105.824V23.456C105.824 22.768 105.792 22.096 105.152 21.456C104.72 21.024 104.048 20.688 103.04 20.688C102.592 20.688 102.064 20.752 101.568 21.04C101.264 21.216 100.96 21.504 100.768 21.744V16.336H98.2081V28ZM111.271 22.784C111.671 22.784 112.119 22.976 112.407 23.248C112.727 23.568 112.903 24.032 112.903 24.416C112.903 24.832 112.727 25.248 112.407 25.552C112.103 25.856 111.687 26.032 111.271 26.032C110.839 26.032 110.423 25.856 110.119 25.552C109.831 25.264 109.623 24.848 109.623 24.416C109.623 24 109.799 23.552 110.119 23.248C110.407 22.976 110.855 22.784 111.271 22.784ZM115.559 24.416C115.559 23.136 114.983 22.304 114.455 21.792C113.863 21.232 112.839 20.608 111.255 20.608C109.703 20.608 108.663 21.216 108.071 21.792C107.543 22.304 106.967 23.136 106.967 24.416C106.967 25.376 107.287 26.288 108.071 27.056C109.063 28.032 110.215 28.24 111.255 28.24C112.407 28.24 113.511 27.984 114.455 27.056C115.239 26.288 115.559 25.376 115.559 24.416ZM121.324 22.944V20.848H119.868V18.496H117.308V20.848H116.492V22.944H117.308V28H119.868V22.944H121.324ZM121.838 27.408C123.07 28.16 124.078 28.24 124.718 28.24C125.31 28.24 126.526 28.176 127.358 27.344C127.71 27.008 128.078 26.432 128.078 25.568C128.078 25.04 127.886 24.48 127.534 24.144C127.326 23.936 126.814 23.68 126.478 23.584L126.014 23.456C125.614 23.344 125.406 23.344 125.166 23.248C125.006 23.184 124.862 23.072 124.862 22.848C124.862 22.688 124.942 22.576 125.086 22.496C125.246 22.4 125.422 22.352 125.678 22.352C126.142 22.352 126.67 22.544 127.022 22.704L127.886 21.072C127.47 20.896 126.654 20.608 125.598 20.608C124.542 20.608 123.582 20.912 123.038 21.472C122.638 21.888 122.366 22.528 122.366 23.216C122.366 23.76 122.558 24.16 122.83 24.448C123.214 24.864 123.726 24.992 124.078 25.072L124.75 25.232C125.006 25.296 125.262 25.344 125.422 25.488C125.534 25.584 125.55 25.696 125.55 25.808C125.55 25.936 125.534 26.032 125.422 26.144C125.262 26.288 124.958 26.336 124.766 26.336C124.494 26.336 124.094 26.272 123.774 26.16C123.422 26.048 123.054 25.856 122.75 25.632L121.838 27.408ZM130.948 28.304C131.364 28.304 131.78 28.144 132.116 27.808C132.404 27.52 132.596 27.168 132.596 26.64C132.596 26.112 132.404 25.76 132.132 25.488C131.78 25.136 131.348 24.976 130.948 24.976C130.596 24.976 130.164 25.088 129.78 25.472C129.572 25.68 129.284 26.064 129.284 26.64C129.284 27.216 129.572 27.6 129.78 27.808C130.164 28.192 130.596 28.304 130.948 28.304Z" fill="white"/>
<defs>
<linearGradient id="paint0_linear" x1="22" y1="6" x2="22" y2="38" gradientUnits="userSpaceOnUse">
<stop stop-color="#E5A8E0"/>
<stop offset="1" stop-color="#9EE1EC"/>
</linearGradient>
</defs>
</svg>
