<svg xmlns="http://www.w3.org/2000/svg" xmlns:xlink="http://www.w3.org/1999/xlink" viewBox="0 0 841.89 498.27"><defs><style>.cls-1{fill:none;}.cls-2{fill:#d63268;}.cls-12,.cls-13,.cls-2,.cls-26,.cls-34,.cls-38,.cls-39,.cls-40,.cls-41,.cls-42,.cls-43,.cls-44{opacity:0.5;}.cls-3{fill:#73b4d8;}.cls-4{fill:#e8366b;}.cls-12,.cls-5{fill:#a6274d;}.cls-6,.cls-9{opacity:0.48;}.cls-6{fill:url(#Naamloos_verloop_53);}.cls-7{clip-path:url(#clip-path);}.cls-24,.cls-43,.cls-8{fill:#fff;}.cls-8{opacity:0.2;}.cls-9{fill:url(#Naamloos_verloop_53-2);}.cls-10{fill:url(#Naamloos_verloop_36);}.cls-11{fill:url(#Naamloos_verloop_36-2);}.cls-14{fill:url(#Naamloos_verloop_30);}.cls-15{fill:url(#Naamloos_verloop_30-2);}.cls-16{fill:url(#Naamloos_verloop_36-3);}.cls-17{fill:url(#Naamloos_verloop_42);}.cls-18{fill:url(#Naamloos_verloop_19);}.cls-19{fill:url(#Naamloos_verloop_16);}.cls-20{fill:url(#Naamloos_verloop_42-2);}.cls-21{fill:url(#Naamloos_verloop_42-3);}.cls-22{clip-path:url(#clip-path-2);}.cls-23{fill:url(#Naamloos_verloop_36-4);}.cls-25{fill:url(#Naamloos_verloop_36-5);}.cls-26{fill:url(#Naamloos_verloop_46);}.cls-27{fill:url(#Naamloos_verloop_42-4);}.cls-28,.cls-29{fill:#1d1d1b;}.cls-28{opacity:0.39;}.cls-29{opacity:0.62;}.cls-30{fill:#f47aa3;}.cls-31{fill:#611831;}.cls-32{fill:#8a4d67;}.cls-33{fill:url(#Naamloos_verloop_47);}.cls-34{fill:url(#Naamloos_verloop_46-2);}.cls-35{fill:#e06997;}.cls-36{fill:#f5a4bd;}.cls-37{fill:#cbe7f4;}.cls-38{fill:url(#Naamloos_verloop_46-3);}.cls-39{fill:url(#Naamloos_verloop_46-4);}.cls-40{fill:url(#Naamloos_verloop_46-5);}.cls-41{fill:url(#Naamloos_verloop_46-6);}.cls-42{fill:url(#Naamloos_verloop_46-7);}.cls-44{fill:url(#Naamloos_verloop_46-8);}</style><linearGradient id="Naamloos_verloop_53" x1="241.96" y1="202.79" x2="245.6" y2="399.56" gradientUnits="userSpaceOnUse"><stop offset="0.46" stop-color="#e8366b"/><stop offset="0.54" stop-color="#e8396d" stop-opacity="0.98"/><stop offset="0.61" stop-color="#e84273" stop-opacity="0.93"/><stop offset="0.68" stop-color="#e8517e" stop-opacity="0.85"/><stop offset="0.75" stop-color="#e8658c" stop-opacity="0.73"/><stop offset="0.81" stop-color="#e8809f" stop-opacity="0.58"/><stop offset="0.88" stop-color="#e8a1b6" stop-opacity="0.4"/><stop offset="0.95" stop-color="#e8c7d1" stop-opacity="0.18"/><stop offset="1" stop-color="#e8e8e8" stop-opacity="0"/></linearGradient><clipPath id="clip-path"><polygon class="cls-1" points="597.18 287.34 660.92 288.97 660.92 332.04 597.18 329.28 597.18 287.34"/></clipPath><linearGradient id="Naamloos_verloop_53-2" x1="666.59" y1="198.7" x2="670.74" y2="422.83" xlink:href="#Naamloos_verloop_53"/><linearGradient id="Naamloos_verloop_36" x1="297.06" y1="108.89" x2="274.17" y2="139.35" gradientUnits="userSpaceOnUse"><stop offset="0.02" stop-color="#a6274d"/><stop offset="1" stop-color="#e8366b"/></linearGradient><linearGradient id="Naamloos_verloop_36-2" x1="467.97" y1="164.16" x2="446.45" y2="192.81" xlink:href="#Naamloos_verloop_36"/><linearGradient id="Naamloos_verloop_30" x1="358.39" y1="338.15" x2="356.95" y2="389.38" gradientUnits="userSpaceOnUse"><stop offset="0" stop-color="#611831"/><stop offset="1" stop-color="#380e1c"/></linearGradient><linearGradient id="Naamloos_verloop_30-2" x1="391.93" y1="133.97" x2="387.31" y2="297.46" xlink:href="#Naamloos_verloop_30"/><linearGradient id="Naamloos_verloop_36-3" x1="221.67" y1="331.94" x2="166.84" y2="404.93" xlink:href="#Naamloos_verloop_36"/><linearGradient id="Naamloos_verloop_42" x1="380.61" y1="121.48" x2="431.34" y2="96.33" gradientUnits="userSpaceOnUse"><stop offset="0.02" stop-color="#611831"/><stop offset="1" stop-color="#8a4d67"/></linearGradient><linearGradient id="Naamloos_verloop_19" x1="335.55" y1="409.24" x2="327.63" y2="459.45" gradientUnits="userSpaceOnUse"><stop offset="0.5" stop-color="#611831"/><stop offset="0.59" stop-color="#6d2940" stop-opacity="0.93"/><stop offset="0.71" stop-color="#8d586a" stop-opacity="0.72"/><stop offset="0.86" stop-color="#c2a5af" stop-opacity="0.39"/><stop offset="1" stop-color="#fff" stop-opacity="0"/></linearGradient><linearGradient id="Naamloos_verloop_16" x1="429.59" y1="316.4" x2="480.23" y2="415.48" gradientUnits="userSpaceOnUse"><stop offset="0.5" stop-color="#611831"/><stop offset="0.73" stop-color="#641c35" stop-opacity="0.98"/><stop offset="0.81" stop-color="#6f2d43" stop-opacity="0.91"/><stop offset="0.87" stop-color="#82495d" stop-opacity="0.79"/><stop offset="0.91" stop-color="#9e7180" stop-opacity="0.61"/><stop offset="0.95" stop-color="#c2a5af" stop-opacity="0.39"/><stop offset="0.99" stop-color="#ede5e8" stop-opacity="0.11"/><stop offset="1" stop-color="#fff" stop-opacity="0"/></linearGradient><linearGradient id="Naamloos_verloop_42-2" x1="272.48" y1="356.93" x2="350.42" y2="318.29" xlink:href="#Naamloos_verloop_42"/><linearGradient id="Naamloos_verloop_42-3" x1="257.25" y1="246.08" x2="329.89" y2="210.07" xlink:href="#Naamloos_verloop_42"/><clipPath id="clip-path-2"><polygon class="cls-1" points="426.34 116.66 426.34 313.76 457.36 300.81 457.36 108.11 426.34 116.66"/></clipPath><linearGradient id="Naamloos_verloop_36-4" x1="447.29" y1="220.82" x2="406.92" y2="274.56" xlink:href="#Naamloos_verloop_36"/><linearGradient id="Naamloos_verloop_36-5" x1="542.46" y1="242.57" x2="457.14" y2="356.17" xlink:href="#Naamloos_verloop_36"/><linearGradient id="Naamloos_verloop_46" x1="418.18" y1="310.7" x2="506.25" y2="304.54" gradientUnits="userSpaceOnUse"><stop offset="0.02" stop-color="#1d1d1b"/><stop offset="0.48" stop-color="#2e1f22" stop-opacity="0.92"/><stop offset="0.74" stop-color="#672638" stop-opacity="0.64"/><stop offset="0.95" stop-color="#c8325e" stop-opacity="0.16"/><stop offset="1" stop-color="#e8366b" stop-opacity="0"/></linearGradient><linearGradient id="Naamloos_verloop_42-4" x1="488.07" y1="230.86" x2="539.18" y2="205.52" xlink:href="#Naamloos_verloop_42"/><linearGradient id="Naamloos_verloop_47" x1="437.23" y1="415" x2="446.03" y2="414.56" gradientUnits="userSpaceOnUse"><stop offset="0.02" stop-color="#1d1d1b"/><stop offset="0.5" stop-color="#912b49" stop-opacity="0.43"/><stop offset="1" stop-color="#e8366b" stop-opacity="0"/></linearGradient><linearGradient id="Naamloos_verloop_46-2" x1="249.59" y1="207.48" x2="255.22" y2="207.48" xlink:href="#Naamloos_verloop_46"/><linearGradient id="Naamloos_verloop_46-3" x1="272" y1="322.64" x2="275.87" y2="322.64" xlink:href="#Naamloos_verloop_46"/><linearGradient id="Naamloos_verloop_46-4" x1="263.04" y1="297.15" x2="276.37" y2="297.15" xlink:href="#Naamloos_verloop_46"/><linearGradient id="Naamloos_verloop_46-5" x1="247.38" y1="182.77" x2="256.54" y2="182.77" xlink:href="#Naamloos_verloop_46"/><linearGradient id="Naamloos_verloop_46-6" x1="504.62" y1="202.72" x2="537.31" y2="197.6" xlink:href="#Naamloos_verloop_46"/><linearGradient id="Naamloos_verloop_46-7" x1="497.74" y1="158.78" x2="530.43" y2="153.66" xlink:href="#Naamloos_verloop_46"/><linearGradient id="Naamloos_verloop_46-8" x1="500.56" y1="176.84" x2="533.26" y2="171.72" xlink:href="#Naamloos_verloop_46"/></defs><title>illustratie_1</title><g id="Background_details" data-name="Background details"><polygon class="cls-2" points="331.86 262.24 331.86 325.07 382.91 331.15 384.2 264.07 331.86 262.24"/><polygon class="cls-3" points="575.34 169.91 542.97 113.86 543.83 113.36 575.27 167.79 595.41 127.26 596.3 127.71 575.34 169.91"/><polygon class="cls-4" points="597.18 287.34 660.92 288.97 660.92 332.04 597.18 329.28 597.18 287.34"/><ellipse class="cls-5" cx="606.75" cy="387.3" rx="10.9" ry="2.86"/><ellipse class="cls-5" cx="622.83" cy="373.15" rx="10.9" ry="2.86"/><ellipse class="cls-5" cx="633.73" cy="361.29" rx="10.9" ry="2.86"/><polygon class="cls-4" points="597.18 340.55 653.34 343.5 595.19 391.71 520.7 387.44 597.18 340.55"/><path class="cls-4" d="M553.73,272a42.57,42.57,0,0,1-1.12-14.24,23.83,23.83,0,0,1,6.15-13.9,35.63,35.63,0,0,1,6.46-5c2.4-1.57,4.66-3,6.11-5,1.6-2.18,2.42-5.18,2.67-9.73l7,.39c-.2,3.71-.84,9.16-4,13.49-2.2,3-5.1,4.89-7.92,6.73a30.22,30.22,0,0,0-5.25,4,16.93,16.93,0,0,0-4.24,9.83,36.06,36.06,0,0,0,1,11.93Z"/><path class="cls-4" d="M496.18,165.43a17.18,17.18,0,0,1-15.32-16.82c0-3.69,1.26-6.94,2.44-10.09.34-.89.67-1.78,1-2.67.9-2.67,1.65-6.36.09-8.72-.86-1.31-2.52-2.34-4.27-3.42-2.21-1.37-4.71-2.92-6.43-5.52a11.7,11.7,0,0,1-.6-11.69l6.21,3.23a4.73,4.73,0,0,0,.24,4.61c.86,1.31,2.52,2.33,4.27,3.42,2.21,1.37,4.72,2.92,6.43,5.53,2.49,3.78,2.72,8.76.7,14.79-.33,1-.69,1.94-1.05,2.9-1,2.7-2,5.24-2,7.71a10.25,10.25,0,0,0,8.89,9.77Z"/><path class="cls-4" d="M297.44,283.12a12.48,12.48,0,0,1-3.78-.58l2.11-6.68a5.6,5.6,0,0,0,7.29-4.94,15.81,15.81,0,0,0-.46-4,17.32,17.32,0,0,1-.3-7.51,11,11,0,0,1,10.45-8.29h.07l-.05,7h0a4,4,0,0,0-3.63,2.88,11.57,11.57,0,0,0,.35,4.58,21.36,21.36,0,0,1,.57,5.8,12.59,12.59,0,0,1-12.6,11.7Z"/><circle class="cls-4" cx="536.74" cy="115.6" r="25.1"/><circle class="cls-4" cx="575.3" cy="168.85" r="13.47"/><circle class="cls-4" cx="593.29" cy="127.49" r="10.82"/><circle class="cls-3" cx="395.38" cy="45.8" r="4.73"/><circle class="cls-3" cx="407.68" cy="53.28" r="2.87"/><rect class="cls-3" x="257.02" y="241.76" width="1" height="1"/><path class="cls-3" d="M258,283.34h-1v-2h1Zm0-4h-1v-2h1Zm0-4.06h-1v-2h1Zm0-4.06h-1v-2h1Zm0-4.06h-1v-2h1Zm0-4.06h-1v-2h1Zm0-4.06h-1v-2h1Zm0-4.05h-1v-2h1Zm0-4.06h-1v-2h1Zm0-4.06h-1v-2h1Z"/><rect class="cls-3" x="257.02" y="285.37" width="1" height="1"/><rect class="cls-2" x="299.04" y="173.37" width="44.7" height="28.56"/><rect class="cls-2" x="337.03" y="130.51" width="44.7" height="28.56"/><rect class="cls-3" x="333.22" y="144.67" width="1" height="1" transform="translate(2.98 297) rotate(-48.17)"/><path class="cls-3" d="M313.16,168.91l-.75-.67,1.29-1.44.74.67Zm2.57-2.88-.74-.67,1.28-1.44.75.67Zm2.58-2.88-.75-.67,1.29-1.44.75.67Zm2.57-2.88-.74-.67,1.29-1.44.74.67Zm2.58-2.88-.75-.67,1.29-1.44.75.67Zm2.58-2.88-.75-.67,1.29-1.44.74.67Zm2.57-2.88-.74-.66,1.28-1.44.75.66Zm2.58-2.88-.75-.66,1.29-1.44.75.66Z"/><rect class="cls-3" x="310.66" y="169.89" width="1" height="1" transform="translate(-23.33 288.59) rotate(-48.17)"/><path class="cls-3" d="M344.25,315.74h-1v-1.5h1Zm0-3.5h-1v-2h1Zm0-4h-1v-2h1Zm0-4h-1v-2h1Zm0-4h-1v-2h1Zm0-4h-1v-2h1Zm0-4h-1v-2h1Zm0-4h-1v-2h1Zm0-4h-1v-2h1Zm0-4h-1v-2h1Zm0-4h-1v-2h1Zm0-4h-1v-2h1Zm0-4h-1v-2h1Zm0-4h-1v-2h1Zm0-4h-1v-2h1Zm0-4h-1v-2h1Zm0-4h-1v-2h1Zm0-4h-1v-2h1Zm0-4h-1v-2h1Zm0-4h-1v-2h1Z"/><path class="cls-3" d="M600.64,252.9h-1v-2h1Zm0-4h-1v-2h1Zm0-4h-1v-2h1Zm0-4h-1v-2h1Zm0-4h-1v-2h1Zm0-4h-1v-2h1Zm0-4h-1v-2h1Zm0-4h-1v-2h1Zm0-4h-1v-2h1Zm0-4h-1v-2h1Zm0-4h-1v-2h1Zm0-4h-1v-2h1Zm0-4h-1v-2h1Zm0-4h-1v-2h1Zm0-4h-1v-2h1Zm0-4h-1v-2h1Zm0-4h-1v-2h1Zm0-4h-1v-2h1Zm0-4h-1v-2h1Zm0-4h-1v-2h1Zm0-4h-1v-2h1Zm0-4h-1v-2h1Zm0-4h-1v-2h1Zm0-4h-1v-2h1Zm0-4h-1v-2h1Zm0-4h-1v-2h1Zm0-4h-1v-2h1Zm0-4h-1v-2h1Z"/><path class="cls-6" d="M194.89,274c6.73-5.49,15.53-8.78,24.14-7.71s16.77,7,19.3,15.31c1.38,4.51,1.1,9.34,1.82,14A33.37,33.37,0,0,0,263.94,322c7.86,2.09,16.19,1.18,24.27,2.15S305,328.81,308,336.38c2.3,5.83.43,12.82-3.86,17.37s-10.69,6.8-16.95,6.88c-4.77.06-9.68-1-14.23.41-9.19,2.89-12.53,14.16-19.93,20.34-6.91,5.76-17,6.48-25.58,3.61s-15.66-8.86-21.83-15.42c-2.82-3-5.58-6.23-9.25-8.1s-8-2.26-11.18-4.75c-4.75-3.67-5.48-10.57-4.71-16.52s2.75-12.33,2.27-18.43c-.46-5.91-2.73-11.19-2.49-17.29C180.66,292.89,185.85,281.36,194.89,274Z"/><rect class="cls-3" x="420.81" y="50.53" width="33.4" height="10.57"/><g class="cls-7"><path class="cls-8" d="M666.53,275.22c-1-.86-84.07,43.07-84.07,43.07l.21,16.4,85.85-50.2Z"/><path class="cls-8" d="M670.83,288.48C669.84,287.62,586,336,586,336l.21,16.4,85.84-50.2Z"/></g><path class="cls-3" d="M543.54,410l-2-.11.05-1,2,.11Zm-4-.22-2-.1.06-1,2,.1Zm-4-.21-2-.1.05-1,2,.1Zm-4-.21-2-.11.05-1,2,.11Zm-4-.21-2-.11.05-1,2,.11Zm17.91-.17h-1v-2h1Zm-21.91-.05-2-.1,0-1,2,.11Zm-4-.21-2-.1,0-1,2,.11Zm-4-.21-2-.11,0-1,2,.1Zm-4-.21-2-.11.06-1,2,.11Zm-4-.21-2-.11.05-1,2,.11Zm-4-.22-2-.1.06-1,2,.11Zm-4-.21-2-.1,0-1,2,.1Zm-4-.21-2-.11.05-1,2,.1Zm-4-.21-2-.11.06-1,2,.11Zm-4-.21-2-.11.05-1,2,.11Zm-4-.22-2-.1.06-1,2,.11Zm-4-.21-2-.1.05-1,2,.1Zm-4-.21-2-.11v-.9h.52v-.07l1.57.08ZM545.47,405h-1v-2h1Zm-70.88-1.6h-1v-2h1Zm70.88-2.4h-1v-2h1Zm-70.88-1.6h-1v-2h1Zm70.88-2.4h-1v-2h1Zm-70.88-1.6h-1v-2h1Zm70.88-2.4h-1v-2h1Zm-70.88-1.6h-1v-2h1Zm70.88-2.4h-1v-2h1Zm-70.88-1.6h-1v-2h1Zm70.88-2.4h-1v-2h1Zm-70.88-1.6h-1v-2h1Zm70.88-2.4h-1v-2h1Zm-70.88-1.6h-1v-2h1Zm70.88-2.4h-1v-2h1Zm-70.88-1.6h-1v-2h1Zm70.88-2.4h-1v-2h1Zm-70.88-1.6h-1v-2h1Zm70.88-2.4h-1v-2h1Zm-70.88-1.6h-1v-2h1Zm70.88-2.4h-1v-2h1Zm-70.88-1.6h-1v-2h1Zm70.88-2.4h-1v-2h1Zm-70.88-1.6h-1v-2h1Zm70.88-2.4h-1v-2h1Zm-70.88-1.6h-1v-2h1Zm70.88-2.4h-1v-2h1Zm-70.88-1.6h-1v-2h1Zm70.88-2.4h-1v-2h1Zm-70.88-1.6h-1v-2h1Zm70.88-2.4h-1v-2h1Zm-70.88-1.6h-1v-2h1Zm70.88-2.4h-1v-2h1Zm-70.88-1.6h-1v-2h1Zm70.88-2.4h-1v-2h1Zm-70.88-1.6h-1v-2h1Zm70.88-2.4h-1v-2h1Zm-70.88-1.6h-1v-2h1Zm70.88-2.4h-1v-2h1Zm-70.88-1.6h-1v-2h1Zm70.88-2.4h-1v-2h1Zm-70.88-1.6h-1v-2h1Zm70.88-2.4h-1v-2h1Zm-70.88-1.6h-1v-2.51l1.66,0,0,1h-.64Zm68.63-.2-2,0,0-1,2,0Zm-4-.07-2,0,0-1,2,0Zm-4-.08-2,0,0-1,2,0Zm-4-.07-2,0,0-1,2,0Zm-4-.08-2,0,0-1,2,0Zm-4-.07-2,0,0-1,2,0Zm-4-.08-2,0,0-1,2,0Zm-4-.07-2,0,0-1,2,0Zm-4-.08-2,0,0-1,2,0Zm-4-.07-2,0,0-1,2,0Zm-4-.08-2,0,0-1,2,0Zm-4-.08-2,0,0-1,2,0Zm-4-.07-2,0,0-1,2,0Zm-4-.08-2,0,0-1,2,0Zm-4-.07-2,0,0-1,2,0Zm-4-.08-2,0,0-1,2,0Zm-4-.07-2,0,0-1,2,0Z"/><path class="cls-3" d="M137.81,328.87a16.37,16.37,0,0,1-1.59-.52l.36-.93a13.59,13.59,0,0,0,1.49.48Zm-3.46-1.38a18,18,0,0,1-1.75-1.08l.58-.82a14.86,14.86,0,0,0,1.64,1ZM131,325.14a19.73,19.73,0,0,1-1.47-1.43l.73-.68c.45.48.92.94,1.4,1.36Zm-2.8-3c-.41-.52-.81-1.08-1.19-1.66l.83-.55c.37.56.76,1.09,1.15,1.59Zm-2.25-3.39c-.33-.58-.65-1.18-.94-1.81l.9-.43c.29.6.59,1.19.91,1.75Zm-1.77-3.66c-.25-.63-.49-1.27-.71-1.9l1-.33c.21.62.44,1.24.69,1.85Zm-1.31-3.84-.12-.41c-.14-.52-.26-1-.39-1.55l1-.23c.12.51.24,1,.38,1.52l.11.4Zm-.92-3.94c-.12-.66-.23-1.33-.32-2l1-.14c.09.65.19,1.3.32,1.95Zm-.56-4c-.07-.67-.12-1.34-.16-2l1-.06c0,.66.09,1.32.15,2Zm-.22-4v-.62c0-.46,0-.93,0-1.4l1,0c0,.46,0,.92,0,1.37v.61Zm1.11-4-1-.07c0-.68.11-1.35.18-2l1,.12C122.37,294,122.31,294.67,122.27,295.33Zm.44-3.94-1-.15c.1-.66.22-1.33.34-2l1,.19C122.92,290.09,122.81,290.74,122.71,291.39Zm.75-3.88-1-.23c.16-.66.33-1.31.51-2l1,.27C123.78,286.23,123.62,286.87,123.46,287.51Zm1.07-3.81-1-.31c.21-.64.43-1.28.67-1.91l.94.35C125,282.45,124.74,283.07,124.53,283.7Zm1.39-3.71-.93-.39c.26-.62.54-1.24.82-1.85l.91.43C126.44,278.78,126.17,279.38,125.92,280Zm1.68-3.58-.89-.47c.32-.59.64-1.18,1-1.77l.86.5C128.22,275.25,127.9,275.82,127.6,276.41Zm2-3.43-.84-.53c.36-.57.74-1.13,1.12-1.68l.82.57C130.3,271.88,129.94,272.43,129.58,273Zm2.31-3.28-.83-.56c.44-.57.85-1.08,1.27-1.58l.76.65C132.68,268.7,132.28,269.19,131.89,269.7Zm2.51-3-.73-.68c.45-.5.92-1,1.4-1.46l.7.71C135.31,265.77,134.85,266.24,134.4,266.73Zm2.81-2.79-.68-.74c.5-.46,1-.9,1.53-1.33l.64.76C138.19,263.06,137.69,263.49,137.21,263.94Zm3-2.54-.61-.8c.54-.41,1.08-.81,1.63-1.2l.57.82C141.29,260.6,140.76,261,140.24,261.4Zm3.24-2.28-.55-.84c.57-.37,1.14-.72,1.72-1.06l.51.86C144.59,258.41,144,258.76,143.48,259.12Zm3.41-2-.47-.88c.59-.32,1.19-.63,1.8-.92l.43.9C148.06,256.5,147.47,256.8,146.89,257.11Zm3.56-1.72-.4-.92c.62-.27,1.24-.52,1.87-.77l.36.94Q151.36,255,150.45,255.39Zm3.69-1.43-.32-1c.64-.21,1.28-.42,1.93-.61l.28,1Zm37.47-.66h-.13c-.63,0-1.26,0-1.89,0l0-1c.62,0,1.23,0,1.85,0h.13Zm2-.06,0-1,.88-.05c.36,0,.72-.06,1.08-.11l.11,1-1.11.11Zm-6.06-.09c-.67-.05-1.33-.1-2-.17l.09-1c.66.06,1.32.12,2,.16Zm-29.64-.31-.24-1c.65-.16,1.31-.31,2-.45l.2,1C159.22,252.54,158.58,252.68,157.94,252.84Zm25.64-.06-2-.24.12-1,2,.23Zm14.1,0-.19-1c.64-.12,1.28-.27,1.91-.45l.26,1C199,252.48,198.34,252.63,197.68,252.76Zm-18.08-.46-2-.24.12-1,2,.24ZM161.81,252l-.15-1c.66-.11,1.33-.2,2-.28l.11,1Zm13.83-.2-2-.18.08-1,2,.19Zm26-.15-.34-.94c.63-.22,1.24-.47,1.82-.73l.41.91C202.9,251.2,202.26,251.46,201.61,251.69Zm-35.87-.11-.07-1c.67-.05,1.34-.08,2-.1l0,1C167.06,251.5,166.4,251.53,165.74,251.58Zm5.94-.05c-.66,0-1.32-.06-2-.07v-1c.67,0,1.34,0,2,.07Zm33.65-1.5-.49-.88a18.08,18.08,0,0,0,1.67-1l.56.83C206.52,249.33,205.94,249.69,205.33,250Zm3.38-2.31-.65-.76a18.2,18.2,0,0,0,1.42-1.34l.72.69A18.19,18.19,0,0,1,208.71,247.72Zm2.81-3-.81-.59a12.94,12.94,0,0,0,1-1.63l.89.46A15.59,15.59,0,0,1,211.52,244.73Zm1.93-3.66-.94-.33a12.91,12.91,0,0,0,.49-1.85l1,.18A12.26,12.26,0,0,1,213.45,241.07Z"/><path class="cls-3" d="M635.47,252.47c-.68,0-1.35,0-2-.07l0-1c.66,0,1.32.06,2,.07Zm2,0,0-1c.66,0,1.32-.07,2-.13l.09,1C638.84,252.37,638.17,252.41,637.49,252.44Zm-6.06-.21c-.67-.07-1.34-.15-2-.25l.15-1c.65.1,1.31.18,2,.25Zm10.09-.16-.14-1c.66-.09,1.3-.2,2-.32l.19,1C642.86,251.87,642.19,252,641.52,252.07Zm-14.09-.43c-.66-.13-1.32-.28-2-.43l.23-1c.64.16,1.29.3,1.93.42Zm18.07-.35-.25-1c.64-.16,1.27-.34,1.9-.54l.3,1C646.81,250.94,646.16,251.12,645.5,251.29Zm-22-.6c-.65-.18-1.29-.38-1.93-.59l.31-.95c.63.21,1.26.4,1.9.58Zm25.87-.63-.36-.93c.61-.23,1.22-.49,1.82-.76l.41.91C650.62,249.56,650,249.82,649.37,250.06Zm-29.71-.64c-.43-.16-.87-.33-1.3-.51l.38-.92,1.28.5Zm33.4-1-.47-.88c.58-.31,1.16-.63,1.72-1l.52.85C654.25,247.73,653.66,248.07,653.06,248.38Zm3.47-2.1-.57-.82q.81-.57,1.59-1.17l.61.79C657.63,245.49,657.09,245.89,656.53,246.28Zm3.19-2.51-.66-.74c.49-.44,1-.89,1.43-1.36l.71.71C660.72,242.86,660.23,243.32,659.72,243.77Zm2.86-2.88-.75-.66c.43-.49.85-1,1.25-1.52l.79.61C663.46,239.85,663,240.38,662.58,240.89Zm2.47-3.23-.83-.55c.36-.54.7-1.1,1-1.67l.87.49C665.78,236.52,665.42,237.11,665.05,237.66Zm2-3.53-.9-.43c.28-.59.54-1.2.78-1.81l.93.36C667.61,232.89,667.34,233.52,667.05,234.13Zm1.47-3.8-1-.29c.19-.62.35-1.26.49-1.9l1,.21C668.88,229,668.71,229.69,668.52,230.33Zm.86-4-1-.13c.09-.64.15-1.3.18-2l1,.05C669.53,225,669.46,225.67,669.38,226.34Zm-.78-4c0-.65-.06-1.31-.12-2l1-.1c.07.68.11,1.36.13,2Zm-.38-3.91c-.12-.64-.26-1.28-.42-1.91l1-.25c.17.65.31,1.32.43,2Zm-1-3.79c-.21-.62-.45-1.24-.7-1.83l.92-.4c.26.62.51,1.26.73,1.91ZM665.7,211c-.3-.58-.64-1.14-1-1.69l.84-.54c.37.57.72,1.16,1,1.76Zm-2.12-3.28c-.4-.52-.83-1-1.27-1.49l.73-.68c.46.49.91,1,1.33,1.55Zm-2.67-2.85c-.23-.2-.46-.4-.7-.59l-.82-.63.59-.81.85.66c.26.2.5.41.74.62ZM587.36,203h-.22c-.6,0-1.2,0-1.81-.07l.07-1c.59,0,1.18.06,1.76.07h.2Zm2,0,0-1,2-.12.08,1C590.73,202.92,590.06,203,589.38,203Zm-6.07-.26c-.67-.09-1.34-.2-2-.34l.2-1c.64.13,1.29.24,1.94.33Zm10.1-.07-.12-1c.66-.08,1.31-.16,2-.26l.14,1C594.74,202.5,594.07,202.59,593.41,202.66Zm64.35-.09c-.55-.33-1.12-.65-1.72-.95l.46-.9c.61.32,1.21.65,1.78,1Zm-60.37-.5-.17-1,2-.37.19,1Zm-18.07-.14c-.65-.18-1.31-.38-1.94-.6l.33-1c.61.22,1.24.41,1.87.58Zm22-.62-.2-1,2-.42.21,1Zm52.93-.52c-.6-.25-1.21-.49-1.84-.7l.33-1c.65.22,1.28.47,1.9.73Zm-78.78-.2c-.63-.27-1.24-.57-1.84-.88l.47-.89c.57.3,1.16.59,1.77.85Zm29.77-.14-.22-1,2-.43.22,1Zm3.9-.86-.21-1,2-.41.2,1Zm41.39-.1c-.63-.19-1.26-.35-1.91-.5l.23-1c.66.16,1.32.33,2,.52Zm-37.48-.68-.18-1c.66-.12,1.32-.24,2-.34l.16,1Zm-41.18-.14c-.58-.38-1.13-.78-1.66-1.19l.62-.79c.5.4,1,.78,1.59,1.14Zm74.82-.1c-.65-.12-1.3-.24-2-.34l.16-1c.66.11,1.33.22,2,.35ZM617,198.18l-.14-1c.66-.1,1.33-.18,2-.26l.12,1Zm25.79-.23-1.67-.19-.3,0,.1-1,.3,0,1.69.2Zm-21.84-.24-.1-1c.67-.07,1.33-.13,2-.18l.08,1Q621.93,197.61,620.94,197.71Zm17.88-.16q-1-.09-2-.15l.06-1c.67,0,1.34.09,2,.15Zm-13.92-.16,0-1,2-.1,0,1Zm10-.09c-.66,0-1.32-.05-2-.06l0-1q1,0,2,.06Zm-6-.06,0-1c.64,0,1.27,0,1.91,0h.1v1h-.1C630.14,197.22,629.51,197.22,628.88,197.24Zm-60.19-1.12a17.88,17.88,0,0,1-1.39-1.51l.77-.64c.41.5.85,1,1.31,1.44Zm-2.6-3.18a17.47,17.47,0,0,1-1-1.8l.9-.43a15.48,15.48,0,0,0,.94,1.69Z"/><path class="cls-3" d="M486,206.87c-.65,0-1.34,0-2-.07l.07-1c.68,0,1.34.07,2,.07Zm2-.08-.09-1c.66-.06,1.31-.15,1.93-.27l.19,1A18.71,18.71,0,0,1,488,206.79Zm-6.09-.19c-.67-.08-1.34-.17-2-.28l.15-1c.65.1,1.31.19,2,.27ZM492,206l-.31-.95a12.76,12.76,0,0,0,1.78-.73l.45.89A14.86,14.86,0,0,1,492,206Zm3.69-1.91-.62-.79a10.66,10.66,0,0,0,1.38-1.31l.75.66A11.4,11.4,0,0,1,495.71,204.07Zm2.74-3.13-.86-.51a10,10,0,0,0,.82-1.72l.94.34A10.2,10.2,0,0,1,498.45,200.94Zm1.4-3.94-1-.12a7.42,7.42,0,0,0,.06-.94,7,7,0,0,0-.06-.92l1-.14a8.06,8.06,0,0,1,0,2.12Zm-1.51-3.75a5.44,5.44,0,0,0-.37-.67,6.51,6.51,0,0,0-.66-.88l.76-.65a7.28,7.28,0,0,1,.74,1,6,6,0,0,1,.43.78Zm-2.4-2.92-.51-.45-1-.89.69-.73c.31.3.64.58,1,.87l.52.46ZM493,187.47a11,11,0,0,1-1.12-1.76l.88-.46a11.6,11.6,0,0,0,1,1.61Zm-1.93-3.68a12.72,12.72,0,0,1-.47-2l1-.14a12.06,12.06,0,0,0,.43,1.87Zm.42-4.07-1,0a11,11,0,0,1,.25-2.07l1,.21A10,10,0,0,0,491.52,179.72Z"/><path class="cls-3" d="M306.71,295.16h-.16l0-1h.14a15.46,15.46,0,0,0,1.79-.1l.12,1A15.4,15.4,0,0,1,306.71,295.16ZM304.5,295a14.79,14.79,0,0,1-2-.44l.28-1a14.61,14.61,0,0,0,1.88.41Zm6.14-.33-.23-1a15.75,15.75,0,0,0,1.85-.57l.35.94A16.59,16.59,0,0,1,310.64,294.68Zm-10.1-.85A12.67,12.67,0,0,1,299,293l.54-.84a12.26,12.26,0,0,0,1.42.79Zm13.95-.59-.46-.89a17.39,17.39,0,0,0,1.66-1l.57.82A16.64,16.64,0,0,1,314.49,293.24Zm3.38-2.35-.67-.74c.27-.25.53-.5.77-.76s.39-.42.57-.63l.76.64c-.19.23-.39.46-.6.68S318.16,290.63,317.87,290.89Zm2.67-3.13-.84-.56a16.23,16.23,0,0,0,1-1.67l.89.45A19.6,19.6,0,0,1,320.54,287.76Zm1.86-3.66-.94-.36a16.59,16.59,0,0,0,.59-1.85l1,.25A19.37,19.37,0,0,1,322.4,284.1Zm1-4-1-.16c.1-.64.17-1.29.21-1.94l1,.07A20,20,0,0,1,323.44,280.14Zm-.74-4.05c0-.65-.07-1.31-.15-1.95l1-.12c.08.67.13,1.36.15,2Zm-.48-3.87a19.25,19.25,0,0,0-.51-1.88l1-.31c.21.64.39,1.31.54,2Z"/><path class="cls-3" d="M270.32,377.49l-.92-.39.12-.25.9.42Zm1.09-1.82-.79-.62a10.4,10.4,0,0,1,1.47-1.5l.64.77A8.84,8.84,0,0,0,271.41,375.67Zm2.89-2.43-.49-.87a14.16,14.16,0,0,1,1.88-.88l.36.93A14.12,14.12,0,0,0,274.3,373.24Zm21.37-1c-.67,0-1.35,0-2-.07l.06-1c.66,0,1.31.07,2,.07Zm2-.07-.07-1c.67-.06,1.32-.14,1.93-.25l.18,1A18.31,18.31,0,0,1,297.71,372.18Zm-6.07-.17-2-.22.12-1,2,.22Zm-13.74-.17-.25-1c.65-.16,1.33-.3,2-.4l.15,1A18.44,18.44,0,0,0,277.9,371.84Zm9.76-.28c-.66-.07-1.32-.14-2-.19l.08-1c.67.06,1.34.12,2,.2Zm14.09-.13-.3-1a14.22,14.22,0,0,0,1.8-.7l.42.91A17.33,17.33,0,0,1,301.75,371.43Zm-20-.16-.05-1c.68,0,1.37,0,2,0l0,1C283.07,371.23,282.41,371.23,281.75,371.27Zm23.73-1.57-.53-.85a16.07,16.07,0,0,0,1.58-1.12l.63.78A16.44,16.44,0,0,1,305.48,369.7Zm3.21-2.57-.71-.7c.45-.47.88-1,1.28-1.46l.78.61A18.05,18.05,0,0,1,308.69,367.13Zm2.52-3.24-.85-.52a16.41,16.41,0,0,0,.9-1.71l.91.41A16.67,16.67,0,0,1,311.21,363.89Zm1.7-3.75-1-.29a15.56,15.56,0,0,0,.45-1.88l1,.16A15.42,15.42,0,0,1,312.91,360.14Z"/><path class="cls-9" d="M645.14,297.58c21.13-3.12,43.82-4.19,61.19-16.64,7-5.06,13.87-12.18,22.55-11.88,6.5.23,12.2,4.89,15.44,10.53s4.46,12.18,5.58,18.58c1.32,7.61,2.56,15.39,1.34,23s-5.36,15.18-12.29,18.59c-7.52,3.71-17.72,2.43-23.14,8.84-6,7.12-1.56,17.79-1.39,27.12.32,17.33-16.82,31.66-34.15,32s-33.4-10.5-43.5-24.58c-3-4.15-5.67-8.72-10-11.47-11.64-7.44-27.92,2.93-35.39-9.11-4.57-7.37-6.64-23.22-4.11-31.66C593.86,309.11,625.75,300.45,645.14,297.58Z"/></g><g id="Organische_vormen" data-name="Organische vormen"><circle class="cls-10" cx="283.08" cy="127.49" r="27.74"/><circle class="cls-4" cx="331.86" cy="115.6" r="5.17"/><circle class="cls-4" cx="577.5" cy="259.93" r="5.17"/><circle class="cls-11" cx="454.83" cy="181.65" r="26.09"/></g><g id="Background"><path class="cls-12" d="M505.6,413.92l-.55-.83,1.67-1.1.55.83Zm3.34-2.2-.55-.84,1.67-1.1.55.84Zm3.34-2.21-.55-.83,1.67-1.1.55.83Zm3.34-2.2-.55-.83,1.67-1.11.55.84Zm3.34-2.2-.55-.84,1.67-1.1.55.84Zm3.34-2.21-.55-.83,1.66-1.1.55.83Zm3.33-2.2-.55-.83,1.67-1.11.55.84Zm3.34-2.2-.55-.84,1.67-1.1.55.84Zm3.34-2.21-.55-.83,1.67-1.1.55.83Zm3.34-2.2-.55-.83,1.67-1.11.55.84Zm3.34-2.2-.55-.84,1.67-1.1.55.83Zm3.34-2.21-.55-.83,1.66-1.1.56.83Zm3.33-2.2-.55-.83,1.67-1.11.55.84Zm3.34-2.2-.55-.84,1.67-1.1.55.83Zm3.34-2.21-.55-.83,1.67-1.1.55.83Zm3.34-2.2-.55-.84,1.67-1.1.55.84Zm3.34-2.2-.55-.84,1.67-1.1.55.83Zm3.34-2.21-.55-.83,1.66-1.1.56.83Zm3.33-2.2-.55-.84,1.67-1.1.55.84Zm3.34-2.2-.55-.84,1.67-1.1.55.83Zm3.34-2.21-.55-.83,1.67-1.1.55.83Zm3.34-2.2-.55-.83,1.67-1.11.55.84Zm3.34-2.2-.55-.84,1.67-1.1.55.83Zm3.34-2.21-.55-.83,1.66-1.1.56.83Zm3.34-2.2-.56-.84,1.67-1.1.55.84Zm2.54-2.63v-2h1v2Zm0-4v-2h1v2Zm0-4v-2h1v2Zm0-4v-2h1v2Zm0-4v-2h1v2Zm0-4v-2h1v2Zm0-4v-2h1v2Zm0-4v-2h1v2Zm0-4v-2h1v2Zm0-4v-2h1v2Zm0-4v-2h1v2Zm0-4v-2h1v2Zm0-4v-2h1v2Zm0-4v-2h1v2Zm0-4v-2h1v2Zm0-4v-2h1v2Zm0-4v-2h1v2Zm0-4v-2h1v2Zm0-4v-2h1v2Zm0-4v-2h1v2Zm0-4v-2h1v2Zm0-4v-2h1v2Zm0-4v-2h1v2Z"/><g class="cls-13"><polygon class="cls-5" points="505.33 302.91 611.93 306.94 676.22 269.5 588.59 267.74 505.33 302.91"/><polygon class="cls-5" points="676.22 269.5 676.22 355.82 612.81 419.67 611.93 306.94 676.22 269.5"/><polygon class="cls-5" points="505.33 302.91 505.33 413.5 612.81 419.67 611.93 306.94 505.33 302.91"/></g><polygon class="cls-14" points="294.42 390.16 369.29 401.61 420.94 336.36 353.35 331.24 294.42 390.16"/><polygon class="cls-15" points="357.84 111.41 357.84 326.75 353.35 331.24 420.94 336.36 420.94 113.61 357.84 111.41"/><path class="cls-16" d="M234.77,349.77c-3.4-1.48-7.09-2.45-10-4.69-6-4.57-7.28-12.87-9.57-20.06-3.46-10.9-10.55-20.92-20.6-26.37s-23.14-5.7-32.59.74a16.66,16.66,0,0,0-6.56,7.76c-2.87,7.91,3,16.51,2,24.85-1,7.64-7.55,13.32-14.3,17s-14.27,6.3-19.93,11.52C114,369,111.57,383,114,395.26a26.54,26.54,0,0,0,4.41,11.07c5.83,7.72,16.72,9.23,26.39,9.11,5.12-.06,10.4-.44,15-2.75a60.17,60.17,0,0,0,7.4-5A55.54,55.54,0,0,1,215,400c4,1.25,7.91,3,12,3.93a40.57,40.57,0,0,0,9.89,1c5.74-.09,11.59-1.23,16.53-4.17s8.89-7.83,9.85-13.5-1.47-12-6.44-14.88c-2-1.16-4.28-1.75-6.32-2.83-4.44-2.35-6.2-6.26-7.57-10.8S239.2,351.7,234.77,349.77Z"/><polygon class="cls-17" points="357.84 111.41 400.99 102.61 461.76 102.61 420.94 113.61 357.84 111.41"/><polygon class="cls-18" points="294.42 390.16 294.42 458.86 369.29 475.15 369.29 401.61 294.42 390.16"/><polygon class="cls-19" points="420.94 113.61 420.94 336.36 369.29 401.61 369.29 475.15 461.76 424.07 461.76 311.34 461.76 102.61 420.94 113.61"/><polygon class="cls-3" points="426.34 116.66 426.34 313.76 457.36 300.81 457.36 108.11 426.34 116.66"/><polygon class="cls-20" points="238.17 342.82 341.32 353.92 395.38 324.33 309.18 318.38 238.17 342.82"/><polygon class="cls-21" points="225.23 232.84 320.68 241.76 372.86 217.88 293.92 212.44 225.23 232.84"/><polygon class="cls-4" points="393.4 440.92 483.89 449.17 532.44 419.67 450.2 416.15 393.4 440.92"/><path class="cls-4" d="M273.1,427a18.93,18.93,0,0,0,9.37,9.5,38.3,38.3,0,0,0,13.14,3.35,77.89,77.89,0,0,0,15.42.06,21.93,21.93,0,0,0,8-1.95,9.17,9.17,0,0,0,5.06-6.24c.63-3.7-1.86-7.33-5-9.37-7.31-4.75-17.09-2.79-25.32-5.68a4.2,4.2,0,0,1-2.31-1.52c-.75-1.19-.29-2.73-.15-4.13.69-6.85-8.27-12.58-13.66-7.67S270.47,420.49,273.1,427Z"/><g class="cls-22"><polygon class="cls-8" points="462.97 113.98 411.93 236.84 411.93 264.58 468.2 133.39 462.97 113.98"/><polygon class="cls-8" points="468.15 152.78 417.12 275.64 417.12 303.39 473.38 172.19 468.15 152.78"/></g><path class="cls-23" d="M442.52,274.43c-14.81,7.57-31.77,10.1-48.4,9.89-7.45-.09-15.72-1.11-20.55-6.78-4.68-5.5-3.94-15,2-19.09,4.95-3.35,11.5-2.47,17.45-1.78,10,1.16,20.35,1.38,30.1-1.26s19-8.39,24.16-17c1.77-3,3.13-6.3,5.78-8.51s6.16-2.93,9.56-3c3.19-.1,6.59.39,9,2.46,7.47,6.36-1.92,20.31-6.05,25.88A66.6,66.6,0,0,1,442.52,274.43Z"/><path class="cls-24" d="M476.15,443.24a136.71,136.71,0,0,1-15.41-.87,8,8,0,0,1-3.24-.85,3.24,3.24,0,0,1-1.73-3.1c.2-1.43,1.55-2.48,3.79-3,4.58-1,9.37-.73,14-.47,5.16.28,10.49.58,15.42-.92,1.11-.33,3-1.12,3.15-2.64a2.65,2.65,0,0,0-1.39-2.34,8,8,0,0,0-3.1-.87,58.65,58.65,0,0,0-14.8,0l-.44.06a13,13,0,0,1-4.9,0c-1.8-.46-3.63-2-3.66-4h1c0,1.53,1.48,2.7,2.91,3.06a12.07,12.07,0,0,0,4.52,0l.44-.06a59.69,59.69,0,0,1,15.05,0,8.69,8.69,0,0,1,3.49,1,3.57,3.57,0,0,1,1.88,3.3c-.16,1.55-1.53,2.8-3.86,3.5-5.1,1.55-10.52,1.25-15.76,1-4.56-.25-9.28-.51-13.73.46-1,.22-2.82.8-3,2.13a2.27,2.27,0,0,0,1.24,2.09,7.29,7.29,0,0,0,2.85.73,138,138,0,0,0,16.75.85l0,1Z"/><circle class="cls-24" cx="409.63" cy="391.99" r="5.89"/><circle class="cls-24" cx="403.63" cy="413.5" r="2.64"/><circle class="cls-24" cx="415.52" cy="409.54" r="3.96"/><polygon class="cls-24" points="290.68 329.61 307.52 322.68 335.89 325.24 321.39 332.61 290.68 329.61"/><circle class="cls-24" cx="517.48" cy="108.75" r="1.67"/><circle class="cls-24" cx="536.74" cy="112.04" r="7.19"/><circle class="cls-24" cx="544.66" cy="126.16" r="2.39"/><circle class="cls-24" cx="390.9" cy="164.46" r="4.39"/><circle class="cls-24" cx="374.24" cy="189.28" r="6.69"/><circle class="cls-24" cx="407.91" cy="218.74" r="3.26"/><path class="cls-25" d="M548,253.18c14.54-54.48-62.1-46.17-64.88,2.28a25.91,25.91,0,0,1-1,5.92,73.21,73.21,0,0,1-13.88,25.8c-29.26,32.67-66.6,21.44-69.77,66.4a27,27,0,0,0,.68,8.3c9.72,39.45,54.08,26.7,79.24,13.67a25.86,25.86,0,0,1,8.28-2.73c13.09-1.83,28.22,1.57,37.32-11,8.83-10.41,1-22.07,7.24-33.77a18.94,18.94,0,0,1,1.23-2c23.7-34.62-6.54-39.72,11.14-63.9A27.23,27.23,0,0,0,548,253.18Z"/><path class="cls-26" d="M437,333.65c5.08-4.49,11.43-7.26,17.77-9.64,9.65-3.62,19.61-6.53,28.79-11.2s17.74-11.38,22.34-20.6c6.48-13,4.11-28.67-.7-42.37-2.74-7.81-6.25-15.5-7.92-23.53a41.14,41.14,0,0,0-14.15,29.15,25.91,25.91,0,0,1-1,5.92,73.21,73.21,0,0,1-13.88,25.8c-29.26,32.67-66.6,21.44-69.77,66.4a27,27,0,0,0,.68,8.3c5.13,20.82,19.91,27.1,36.42,26.47a47.42,47.42,0,0,1-5.82-9.06C422.47,364.41,424.55,344.6,437,333.65Z"/><polygon class="cls-27" points="465.85 222.18 530.79 227.1 569.1 210.38 507.01 206.75 465.85 222.18"/></g><g id="Mensen"><polygon class="cls-28" points="451.52 428.44 427.44 444.02 415.52 442.74 443.94 428.44 451.52 428.44"/><polygon class="cls-29" points="255.34 214.16 259.2 227.28 244.56 234.65 232.09 233.49 255.07 225.42 255.34 214.16"/><path class="cls-29" d="M277.6,337s1.58.74.28,1.64-14.37,6.93-14.37,6.93L253,344.42,274.46,337Z"/><path class="cls-30" d="M445.68,418.82a14.1,14.1,0,0,0-1.35-2.76,9.32,9.32,0,0,1-1.1-5.56c.3-2.18,1.53-4.14,1.87-6.31a8,8,0,0,0,0-2.53c-2.16-.13-4.74.37-5.46,1.33l2.17,24.11s1.76,1.24,3,.17l.1.05a39.37,39.37,0,0,0,.9-5.48A8.27,8.27,0,0,0,445.68,418.82Z"/><path class="cls-3" d="M403.84,77.37a3.44,3.44,0,0,0-3.07,4.14v7.82c0,.82,0,1.65.07,2.47.15,1.53.56,3.09.2,4.58a2.55,2.55,0,0,0-.12.6,1.34,1.34,0,0,0,.77,1.12,3.83,3.83,0,0,0,1.38.33,67.11,67.11,0,0,0,9.19,0,1.09,1.09,0,0,0,.51-.11,1,1,0,0,0,.38-.68,28.3,28.3,0,0,0,.38-4.23c.23-3.06,1.21-6.07,1-9.14a4.91,4.91,0,0,0-.8-2.65,7.94,7.94,0,0,0-2.58-1.9,22.19,22.19,0,0,1-3.39-2.87C406.81,76,405,77,403.84,77.37Z"/><path class="cls-31" d="M440.41,103.52s-.5,1.4-1.49,1.67-2.42.57-2.42.57-.28.57,0,.77a7.68,7.68,0,0,0,3.91,0s1.88.68,2.42,0l-.16-3S441.18,103,440.41,103.52Z"/><path class="cls-31" d="M444.09,102.44s-.49,1.4-1.48,1.68-2.42.56-2.42.56-.28.57,0,.78a7.76,7.76,0,0,0,3.9,0s1.89.67,2.43,0l-.16-3S444.87,101.87,444.09,102.44Z"/><path class="cls-31" d="M406.18,109.44c-.12.21-.27.46-.17.69a.55.55,0,0,0,.21.22,1.94,1.94,0,0,0,2.2.05c.19-.12.36-.28.56-.38a2.14,2.14,0,0,1,1.3,0,12.21,12.21,0,0,0,4,.15,1.36,1.36,0,0,0,.62-.19.5.5,0,0,0,.19-.57c-.14-.29-.55-.27-.83-.42a1.3,1.3,0,0,1-.47-.54,13.08,13.08,0,0,1-.77-1.6,17.91,17.91,0,0,0-4.9-.28c-.83.07-1.19,0-1.3.79A5.12,5.12,0,0,1,406.18,109.44Z"/><path class="cls-31" d="M397.59,108.44s-1,.11-1,.88v2.48s1.82.55,2.42,0c0,0,4.18,0,4.9-1.12l-.39-.7-3.63-1.54Z"/><path class="cls-24" d="M396,105.76c1.26,3.95,1.1,3.56,1.1,3.56s1.82.79,2.75-.62l-1-3.74Z"/><path class="cls-4" d="M403.6,93.84a2.18,2.18,0,0,0-.06.88,36.77,36.77,0,0,0,1.57,6.13,57.32,57.32,0,0,1,1.29,6.62,2.59,2.59,0,0,0,3.21-.71,1.58,1.58,0,0,0,1.25.55,9.35,9.35,0,0,0,2.48-.12.89.89,0,0,0,.5-.2,1,1,0,0,0,.21-.48c1-4.25,1.79-8.55,2.4-12.87a1,1,0,0,0,0-.52.88.88,0,0,0-.57-.44,6.9,6.9,0,0,0-2.4-.27c-2,0-3.93.09-5.9.19C406.36,92.67,404.11,92.33,403.6,93.84Z"/><path class="cls-31" d="M423.26,106.92l-.68,3.14s1.14,1,2,.41a6.62,6.62,0,0,0,1.73-.41,3.74,3.74,0,0,1-1.44-2.59S424,106.55,423.26,106.92Z"/><path class="cls-31" d="M420.37,107.3a12.82,12.82,0,0,1-2.62,3s-.28.48,0,.8c0,0,2.21.54,2.82,0,0,0,2.16.61,2.51-.39l-.35-2.61Z"/><path class="cls-4" d="M423.2,107.34a.41.41,0,0,0,.06.24.28.28,0,0,0,.14.09,1.5,1.5,0,0,0,1.26,0,.61.61,0,0,0,.24-.18.72.72,0,0,0,.11-.33q.62-3.8,1.33-7.56l-1.53-.14a6.82,6.82,0,0,0-1.4-.19c-.82.09-.45,1.43-.43,2C423.05,103.31,423.13,105.33,423.2,107.34Z"/><polygon class="cls-32" points="382.17 90.5 422.9 84.74 457.36 84.74 419.38 90.5 382.17 90.5"/><path class="cls-24" d="M389.85,70.64l.44.87a5.78,5.78,0,0,1,.22,3c-.37,1.37-.5,1.89-1.09,1.7,0,0-.83-.22-1.45,1.33s-1.08-2.22-1.08-2.22Z"/><path class="cls-4" d="M437,81.09s1,4.49,1.1,4.51,3.46.56,3.46.56l4.73-.74s-2.81-.37-2.81-.44-.76-3.92-.76-3.92Z"/><path class="cls-3" d="M437.51,81.35l.85,3.78s4.47-.17,4.47-.29-.45-3.49-.45-3.49Z"/><path class="cls-31" d="M390.29,71.51s.93-2.17-1.05-2.46-3.22-.65-3.58.72-1.16,2.1-.73,3.26a20.24,20.24,0,0,0,1.3,2.6h2S390.24,73.32,390.29,71.51Z"/><ellipse class="cls-24" cx="389.42" cy="73.45" rx="0.65" ry="1.24"/><path class="cls-24" d="M384.81,76.57l1.32-1.12s2.27-.74,2.35.94l-.82,1.6Z"/><path class="cls-3" d="M381.33,75.86c-.17-1.25-1.94-1.9-3.14-1.51a2.84,2.84,0,0,0-1.66,1.74,7.74,7.74,0,0,0-.37,2.45c-.13,4.4.3,8.82,0,13.21a24.85,24.85,0,0,0-.07,6.67,4,4,0,0,0,1.31,2.45,4.35,4.35,0,0,0,2.15.7,15.57,15.57,0,0,0,5.92-.45,6.09,6.09,0,0,0,2.27-1.07,2.7,2.7,0,0,0,1-2.19l-8.56-.62c-.11,0,1.3-9.9,1.44-10.92A44.25,44.25,0,0,0,381.33,75.86Z"/><path class="cls-4" d="M387.66,76.57c-2.85-1.23-4.62.77-6,2.22-1.84,1.94-2.36,12.13-2.29,13.17s-.29,5.38.94,6.32a3.7,3.7,0,0,0,2.61.72s7.23-.29,8.24-1.37l3.48,9.4s3.69.37,5-1.88c0,0-2.46-12.08-3.62-12.44a31.61,31.61,0,0,0-7.81-.15c-.94.29-2.1-1.91-2.1-1.91Z"/><path class="cls-31" d="M442.05,426.71a18.65,18.65,0,0,1-1.09,3.75c-.44.55-1.35,2-1.35,2a2,2,0,0,0,2.44.22c1.93-1.16,1.89-2,1.89-2a1.91,1.91,0,0,0,1.31-.77v-3.41Z"/><path class="cls-30" d="M445.07,401.66c-2.16-.13-4.74.37-5.46,1.33l2.17,24.11s1.76,1.24,3,.17l.1.05a2.52,2.52,0,0,0,2.57-.44s.07-20.7.78-23.28C448.56,402.38,447,401.78,445.07,401.66Z"/><path class="cls-33" d="M445.68,418.82a14.1,14.1,0,0,0-1.35-2.76,9.32,9.32,0,0,1-1.1-5.56c.3-2.18,1.53-4.14,1.87-6.31a8,8,0,0,0,0-2.53c-2.16-.13-4.74.37-5.46,1.33l2.17,24.11s1.76,1.24,3,.17l.1.05a39.37,39.37,0,0,0,.9-5.48A8.27,8.27,0,0,0,445.68,418.82Z"/><path class="cls-30" d="M445.07,401.66a8,8,0,0,1,0,2.53c-.34,2.17-1.57,4.13-1.87,6.31a9.32,9.32,0,0,0,1.1,5.56,14.1,14.1,0,0,1,1.35,2.76,8.27,8.27,0,0,1,.1,3,39.37,39.37,0,0,1-.9,5.48,2.52,2.52,0,0,0,2.57-.44s.07-20.7.78-23.28C448.56,402.38,447,401.78,445.07,401.66Z"/><path class="cls-4" d="M448.22,388.68a3.75,3.75,0,0,0-5.17-2.42s-3.83,1.43-3.44,9.13A31.84,31.84,0,0,0,439,400c-.06,2-.39,4.07.33,4.57a10.2,10.2,0,0,0,5.17,1.15c1.77-.22,4.31-.44,4.25-1s.16-4.29.71-5,1.65-6,1.26-6.49S448.22,388.68,448.22,388.68Z"/><path class="cls-4" d="M527.29,213.41l-.81,4.78s2.8,1.05,3.61.23c0,0,3.38.59,5.13,0l-.12-.93s-5-1.28-5.24-3.49S527.29,213.41,527.29,213.41Z"/><path class="cls-4" d="M524,213.41l-.82,4.78s2.8,1.05,3.61.23c0,0,3.38.59,5.13,0l-.11-.93s-5-1.28-5.25-3.49S524,213.41,524,213.41Z"/><polygon class="cls-2" points="251.4 184.62 232.79 188.37 232.79 214.16 251.8 207.57 251.4 184.62"/><path class="cls-31" d="M256.35,224a5.33,5.33,0,0,1-2.81,2.4c-1.78.49-1.18,1-1.18,1s3.37.43,4.73,0a3.1,3.1,0,0,0,2.11-.1l-.39-3Z"/><path class="cls-31" d="M253.54,224.24a5.52,5.52,0,0,1-3.13,2.21c-1.88.35-1.31,1-1.31,1s3.44.77,4.89.43a3.23,3.23,0,0,0,2.19.08l.17-3.67Z"/><path class="cls-30" d="M250,190.46a38.28,38.28,0,0,0,0,11.67l2.92,22.73a3.56,3.56,0,0,0,3.35.22,3.07,3.07,0,0,0,2.76-.55s-.55-28.59-.39-33S250,190.46,250,190.46Z"/><path class="cls-30" d="M258.64,191.56c.1-2.54-2.83-2.5-5.3-2-.31,3-1.07,6.08-1.15,9.11-.14,4.72,1.37,9.31,2.22,14a50.44,50.44,0,0,1,.66,12.81,2.91,2.91,0,0,0,1.2-.34,3.07,3.07,0,0,0,2.76-.55S258.48,195.94,258.64,191.56Z"/><path class="cls-34" d="M254.41,212.61c-.85-4.65-2.36-9.24-2.22-14,.08-3,.84-6.1,1.15-9.11a24.55,24.55,0,0,0-3.34.92,38.28,38.28,0,0,0,0,11.67l2.92,22.73a4,4,0,0,0,2.15.56A50.44,50.44,0,0,0,254.41,212.61Z"/><path class="cls-31" d="M277.62,334.16s.28,3.86.26,4.46a1,1,0,0,1-1.35.29l-.15-.35a1.8,1.8,0,0,1-1.27.44,22.39,22.39,0,0,0-2.28-.09s-1.13-.24-.43-.51,3-1.52,3.18-3.87Z"/><path class="cls-31" d="M275.79,334.67s.31,3.86.3,4.46a1.1,1.1,0,0,1-1.46.29l-.16-.35a2,2,0,0,1-1.37.43c-.7-.1-2.45-.09-2.45-.09s-1.22-.25-.47-.52,3.14-1.63,3.12-3A1.6,1.6,0,0,1,275.79,334.67Z"/><path class="cls-35" d="M279.24,305s2.31,4.58,1.25,8.89-2.09,5.75-2.31,7.52a10.35,10.35,0,0,1,.19,6.38,16.64,16.64,0,0,0-.75,6.42s-1.11,1-2,.37c0,0-.33-11.51-.14-12.44,0,0-.74-13.12.12-14.37S279.24,305,279.24,305Z"/><path class="cls-30" d="M276.88,306.29s3.33,4.14,1.47,8.61a21.19,21.19,0,0,0-1.91,7.53,9.57,9.57,0,0,1-.07,5.87c-1.09,3-.45,7.15-.45,7.15s-1.77,1.08-2.7.42c0,0-.67-11.38-.48-12.31,0,0-1.31-13.29-.45-14.54S276.88,306.29,276.88,306.29Z"/><path class="cls-24" d="M272,282.11s.34-1.74-.26-2.07-1.27-.33-1.38,0,.7,1.76.77,2.37C271.13,282.41,272,281.81,272,282.11Z"/><path class="cls-4" d="M279.5,293.86s-6.39-5.82-6.72-7.09-.78-4.66-.78-4.66a.76.76,0,0,0-.87.3,55.69,55.69,0,0,0,.43,6.1c.29.83,4.83,7.22,5.92,7.16S279.5,293.86,279.5,293.86Z"/><polygon class="cls-36" points="263.04 281.53 271.13 280.26 272.1 298.81 263.92 300.96 263.04 281.53"/><path class="cls-24" d="M276,289.94s.35,3-.38,4,2.53,1.05,2.72.35S277.93,289.47,276,289.94Z"/><path class="cls-4" d="M277.31,293.24s-1.19-.45-3.34-1.14-9.44-8.26-9.44-8.26S263.1,284,263,285c0,0,6.94,7.93,8.86,10.3s-.11,2.82.28,4.91,1.43,3.51.71,5.49-1.21,3.25-1.21,3.25a8.28,8.28,0,0,0,7.26.71l.24-.71.37.66s1.77-1.35,1.82-2.51c0,0-1.76-1.95-1.6-3.82s1.59-8.24.06-10S277.31,293.24,277.31,293.24Z"/><path class="cls-24" d="M276.12,287.42a6.45,6.45,0,0,0-.73,3.28.62.62,0,0,0,.11.32.56.56,0,0,0,.38.14,3.09,3.09,0,0,0,.85-.1,5,5,0,0,0,1.08-.32,4.08,4.08,0,0,0,.61-.36,1.27,1.27,0,0,0,.5-.53,1.23,1.23,0,0,0,.08-.38,7.49,7.49,0,0,0-.1-2.91,1.54,1.54,0,0,0-.22-.49,1.24,1.24,0,0,0-.63-.42c-.19-.06-.57-.19-.76-.1a1.78,1.78,0,0,0-.48.54A7.29,7.29,0,0,0,276.12,287.42Z"/><path class="cls-37" d="M276.34,290.61a1,1,0,0,1-.23-.79,9.58,9.58,0,0,1,1.56-4.28.8.8,0,0,0-.38,0,1.78,1.78,0,0,0-.48.54,7.29,7.29,0,0,0-.69,1.33,6.45,6.45,0,0,0-.73,3.28.62.62,0,0,0,.11.32.56.56,0,0,0,.38.14,3.09,3.09,0,0,0,.85-.1,5,5,0,0,0,1.08-.32l0,0-.85,0A1,1,0,0,1,276.34,290.61Z"/><path class="cls-24" d="M278.92,289.85a1.23,1.23,0,0,0,.08-.38,7.49,7.49,0,0,0-.1-2.91,1.54,1.54,0,0,0-.22-.49,1.24,1.24,0,0,0-.63-.42c-.1,0-.24-.08-.38-.11a9.58,9.58,0,0,0-1.56,4.28,1,1,0,0,0,.23.79,1,1,0,0,0,.66.15l.85,0a5.36,5.36,0,0,0,.57-.34A1.27,1.27,0,0,0,278.92,289.85Z"/><path class="cls-31" d="M278.68,284.7s-2.37.25-2.05,1.71.18,2.41.63,3.09-.44.82-1.06,2.2a9.49,9.49,0,0,0-.5,7.13,12.79,12.79,0,0,0,.77,1.84,1.92,1.92,0,0,0,2.06,1.08s-.52-1.5,1.61-2.06.43-3.24,1.31-6.73S283.54,285.08,278.68,284.7Z"/><ellipse class="cls-24" cx="277.13" cy="288.48" rx="0.88" ry="0.6" transform="translate(-75.75 476.9) rotate(-74.25)"/><polygon class="cls-37" points="222.25 288.87 222.25 294.77 250.49 286.7 250.49 281.1 222.25 288.87"/><polygon class="cls-37" points="220.44 308.71 220.44 314.61 238.09 308.91 238.09 303.31 220.44 308.71"/><polygon class="cls-37" points="240.58 299.58 240.58 325.18 254.12 319.85 254.12 295.67 240.58 299.58"/><path class="cls-30" d="M275.33,310.12l-.21.54a14.58,14.58,0,0,0-1.31,4.48c-.11,2,.7,4,1.27,5.91a15,15,0,0,1,.35,8.3c-.44,1.5-1.22,2.9-1.62,4.42a6.22,6.22,0,0,0-.2,2.27,3.86,3.86,0,0,0,2.31-.59s-.64-4.18.45-7.15a9.57,9.57,0,0,0,.07-5.87,21.19,21.19,0,0,1,1.91-7.53,7.66,7.66,0,0,0,.23-5.14A9.22,9.22,0,0,1,275.33,310.12Z"/><path class="cls-38" d="M273.81,333.77c.4-1.52,1.18-2.92,1.62-4.42a15,15,0,0,0-.35-8.3c-.57-1.95-1.38-3.89-1.27-5.91a14.58,14.58,0,0,1,1.31-4.48l.21-.54a7.94,7.94,0,0,1-3.14-.88c-.65,2.13.55,14.32.55,14.32-.19.93.48,12.31.48,12.31a1.13,1.13,0,0,0,.39.17A6.22,6.22,0,0,1,273.81,333.77Z"/><path class="cls-4" d="M276.29,306.53a15,15,0,0,1-1,3.59,9.22,9.22,0,0,0,3.25-.36,10.62,10.62,0,0,0-1.7-3.47Z"/><path class="cls-39" d="M274.72,301.4a6.9,6.9,0,0,1-1.18-1.11c-1.05-1.51.35-3.58,0-5.4s-1.93-2.75-3.34-3.74a25.66,25.66,0,0,1-6.69-7,1,1,0,0,0-.52.81s6.94,7.93,8.86,10.3-.11,2.82.28,4.91,1.43,3.51.71,5.49-1.21,3.25-1.21,3.25a4.38,4.38,0,0,0,.51.3,7.94,7.94,0,0,0,3.14.88,15,15,0,0,0,1-3.59c0-.21.06-.42.07-.63A5.75,5.75,0,0,0,274.72,301.4Z"/><path class="cls-24" d="M263.54,285.16a18,18,0,0,1-1.27-1.32,1.69,1.69,0,0,1,0-2.31c.5-.72,1.38-1.16,1.54-.72a14.23,14.23,0,0,1,.72,3C264.47,284.33,263.54,285.16,263.54,285.16Z"/><path class="cls-24" d="M263,283.14a2.36,2.36,0,0,0,.76,1.21l.32.26a1.77,1.77,0,0,0,.46-.77,14.23,14.23,0,0,0-.72-3,.25.25,0,0,0-.12-.13,0,0,0,0,1,0,0C263.45,281.53,262.84,282.3,263,283.14Z"/><path class="cls-37" d="M263.75,284.35a2.36,2.36,0,0,1-.76-1.21c-.15-.84.46-1.61.69-2.43a0,0,0,0,0,0,0c-.3-.17-1,.24-1.42.85a1.69,1.69,0,0,0,0,2.31,18,18,0,0,0,1.27,1.32s.27-.25.53-.55Z"/><path class="cls-24" d="M257.47,172.14c-.53-.9-.12-3.09-.12-3.09a2.36,2.36,0,0,0-2,.47c-.47.53-.65,3-.65,3s.07-.33.87-.18C256.62,172.53,257.77,172.65,257.47,172.14Z"/><path class="cls-31" d="M258.28,166.63c0-.84-.53-.88-1.47-1.19a8.42,8.42,0,0,1-1.33-.55c-1.8-1-2.16-.17-2.86,1s.06,1.4.06,1.4c2.16-.39,2.16,1.4,2.16,1.4l.53.23.7,1.35.73.14.14,0s.41-.28,1-.73S258.34,167.81,258.28,166.63Z"/><path class="cls-24" d="M255.37,169.22a5.41,5.41,0,0,0-.61-1.16c-.54-.75-1.3-1.3-2.08-.81,0,0-.58,4.27.7,4.83a1.1,1.1,0,0,0,1.27-.33A2.81,2.81,0,0,0,255.37,169.22Z"/><path class="cls-37" d="M253.39,167.08a1.12,1.12,0,0,0-.71.17s-.58,4.27.7,4.83a.8.8,0,0,0,.33.08,11.21,11.21,0,0,1-.25-1.15A17.22,17.22,0,0,1,253.39,167.08Z"/><path class="cls-24" d="M254.65,171.75a2.81,2.81,0,0,0,.72-2.53,5.41,5.41,0,0,0-.61-1.16,2.12,2.12,0,0,0-1.37-1,17.22,17.22,0,0,0,.07,3.93,11.21,11.21,0,0,0,.25,1.15A1.2,1.2,0,0,0,254.65,171.75Z"/><ellipse class="cls-24" cx="255.69" cy="168.85" rx="0.58" ry="0.87"/><path class="cls-3" d="M254,173l.7-.7s1.6-1.12,2.57-.81l.47.73A12,12,0,0,0,254,173Z"/><path class="cls-4" d="M259.72,173.32a1,1,0,0,0-.59-.76,5.06,5.06,0,0,0-1.66-.42c-.93,0-4.85,1.42-5.89,1.54s-3.63,4.87-3.92,6.2-.66,2.93.62,3.38,1.86,0,1.86,0-.83,6-.87,7.47,0,2.07,0,2.07,4.17,1,6.11,0l.35-.75.18.62s2.4.25,3.43-1l-.94-8.54C258.32,182.76,260,175.75,259.72,173.32Z"/><path class="cls-40" d="M253.19,187.5a14.93,14.93,0,0,0,.82-5.31.72.72,0,0,0-.13-.38.64.64,0,0,0-.38-.17,4.77,4.77,0,0,0-2,0,1.86,1.86,0,0,1-1,.08,1.05,1.05,0,0,1-.51-1.35,2.94,2.94,0,0,1,1-1.21,38.8,38.8,0,0,0,3.36-2.76,7.09,7.09,0,0,0,2.13-3.72,3,3,0,0,0,.05-.42c-1.53.38-4.14,1.3-5,1.39-1,.13-3.63,4.87-3.92,6.2s-.66,2.93.62,3.38,1.86,0,1.86,0-.83,6-.87,7.47,0,2.07,0,2.07a18.38,18.38,0,0,0,3.35.45c0-.15-.07-.29-.1-.44A13.06,13.06,0,0,1,253.19,187.5Z"/><path class="cls-4" d="M259.72,173.32a1,1,0,0,0-.59-.76,5.06,5.06,0,0,0-1.66-.42,4.31,4.31,0,0,0-.93.15,3,3,0,0,1-.05.42,7.09,7.09,0,0,1-2.13,3.72,38.8,38.8,0,0,1-3.36,2.76,2.94,2.94,0,0,0-1,1.21,1.05,1.05,0,0,0,.51,1.35,1.86,1.86,0,0,0,1-.08,4.77,4.77,0,0,1,2,0,.64.64,0,0,1,.38.17.72.72,0,0,1,.13.38,14.93,14.93,0,0,1-.82,5.31,13.06,13.06,0,0,0-.71,5.31c0,.15.06.29.1.44a5.84,5.84,0,0,0,2.76-.45l.35-.75.18.62s2.4.25,3.43-1l-.94-8.54C258.32,182.76,260,175.75,259.72,173.32Z"/><polygon class="cls-2" points="211.91 158.99 239.8 160.35 239.8 182.7 211.91 187.76 211.91 158.99"/><polygon class="cls-2" points="198.87 194.86 226.76 189.28 226.76 216.5 198.87 226.16 198.87 194.86"/><path class="cls-30" d="M522.45,182.89l.86,32.12s.71,2.23,3.52.41c0,0-.25,1.84,3.8.71,0,0,2-33.82,1.92-34.07S523.69,181.4,522.45,182.89Z"/><path class="cls-30" d="M532.55,182.06a20.73,20.73,0,0,0-4.34-.24c-.31,3.92-2.44,7.61-2.55,11.56-.08,3,1,6,1.76,8.92a45.11,45.11,0,0,1,1,14.2,8,8,0,0,0,2.26-.37S532.66,182.31,532.55,182.06Z"/><path class="cls-41" d="M527.42,202.3c-.73-3-1.84-5.88-1.76-8.92.11-3.95,2.24-7.64,2.55-11.56-2.43,0-5.11.3-5.76,1.07l.86,32.12s.71,2.23,3.52.41c0,0-.14,1.05,1.54,1.08A45.11,45.11,0,0,0,527.42,202.3Z"/><rect class="cls-3" x="541.66" y="145.51" width="1" height="23.4" transform="translate(18.95 369.11) rotate(-38.22)"/><path class="cls-37" d="M543.18,160.14a8.85,8.85,0,0,1,1.11-1.65c.37-.29,1-.83,1.36-.49s1.28,1.3,1.08,1.93S544,161.5,544,161.5Z"/><path class="cls-37" d="M540.56,157.75a7.57,7.57,0,0,1,.57-1.57c.24-.31.6-.86,1-.67s1.31.79,1.27,1.34-1.89,1.84-1.89,1.84Z"/><path class="cls-4" d="M529.1,162.71s7.55-1.08,7.64-1l3.83-4.36s1.2.32,1.41,1.18c0,0-2.6,6.81-3.59,7.15s-9.5,2-9.5,1.4S529.1,162.71,529.1,162.71Z"/><path class="cls-37" d="M523.31,158s.81,3.27.24,4a3.75,3.75,0,0,0,3.74-.43s-.88-2-.49-3S524.14,156.76,523.31,158Z"/><path class="cls-24" d="M527.89,155a8.73,8.73,0,0,0-1.57-3.06c0,.52-.07,1.05-.13,1.57a6.8,6.8,0,0,0,.06,2.66,4.15,4.15,0,0,0,2,2.42A6.63,6.63,0,0,0,527.89,155Z"/><path class="cls-37" d="M526.91,155.56c-.25-.86-.82-1.12-.72-2,.06-.52.12-1.05.13-1.57a1.53,1.53,0,0,0-1.56-.65.91.91,0,0,0-.26.13c-.89.53-1.2,2.17-.79,4a.66.66,0,0,0-.52,0c-.36.22-.35.87,0,1.45s.93.85,1.3.69c.74,1.31,1.76,2.12,2.64,2a1,1,0,0,0,.24-.05,1.32,1.32,0,0,0,.85-1C527.32,158.1,527.21,156.6,526.91,155.56Z"/><path class="cls-4" d="M526.08,152.34a1.2,1.2,0,0,0-.31-1.71c-1-.7-2.33-.53-2.64.27s-3.33,1.34-3.1,2.39-.4,1.56.08,2.07,1.17,1.15,1.17,1.15a8.67,8.67,0,0,1,2.35,3.15l2-.61s-.76-2.11-.54-2.7a.86.86,0,0,1,.68-.61l.5-.54s-1-1-.17-1.7S526.08,152.34,526.08,152.34Z"/><path class="cls-42" d="M523.26,156.19a4.59,4.59,0,0,1-.71-1.92c0-.74.65-1.3,1.11-1.88a5.28,5.28,0,0,0,1-2.17,1.36,1.36,0,0,0-1.54.68c-.32.81-3.33,1.34-3.1,2.39s-.4,1.56.08,2.07,1.17,1.15,1.17,1.15a8.44,8.44,0,0,1,2.1,2.69A5,5,0,0,0,523.26,156.19Z"/><path class="cls-4" d="M526.13,153.5c.82-.74,0-1.16,0-1.16a1.2,1.2,0,0,0-.31-1.71,2.4,2.4,0,0,0-1.1-.41,5.28,5.28,0,0,1-1,2.17c-.46.58-1.08,1.14-1.11,1.88a4.59,4.59,0,0,0,.71,1.92,5,5,0,0,1,.12,3,5,5,0,0,1,.25.46l2-.61s-.76-2.11-.54-2.7a.86.86,0,0,1,.68-.61l.5-.54S525.3,154.23,526.13,153.5Z"/><ellipse class="cls-37" cx="525.31" cy="155.47" rx="0.66" ry="0.92" transform="translate(1.28 315.18) rotate(-33.44)"/><path class="cls-3" d="M522.93,162l.79-1.56s3.27-1.45,4.43.78V162S524.23,163.67,522.93,162Z"/><path class="cls-4" d="M534.22,182.31C532.75,178.49,532,168,532,168s3.71.7,5.16.74,7.51-7.06,7.51-7.06a1.66,1.66,0,0,0-1.57-1.83l-6.35,4.56c0-.83-7.15-2.89-7.15-2.89-6.89-1.7-8.22,1.23-8.34,1.4-1.23,1.82-.86,6.32-.2,7.1s.82,14.53.82,14.53a8,8,0,0,0,4.3,1.23l.44-.83.24.86S535,184.43,534.22,182.31Z"/><path class="cls-3" d="M529.33,129.35a10.58,10.58,0,1,0,10.58,10.58A10.58,10.58,0,0,0,529.33,129.35Zm0,20a9.42,9.42,0,1,1,9.41-9.41A9.41,9.41,0,0,1,529.33,149.34Z"/><circle class="cls-43" cx="529.33" cy="139.93" r="9.41" transform="translate(56.1 415.28) rotate(-45)"/><path class="cls-24" d="M451.05,387.72a7.3,7.3,0,0,0-2-1.92l-2,3.36s-.46,1.53,1.47,1.81a2.49,2.49,0,0,0,.56,0,6.78,6.78,0,0,1,1.84-2.38A.64.64,0,0,0,451.05,387.72Z"/><path class="cls-37" d="M449,385.8l-2,3.36s-.41,1.44,1.34,1.78a9.08,9.08,0,0,1,1.66-4.38C449.51,386.13,449,385.8,449,385.8Z"/><path class="cls-24" d="M451.05,387.72a4.37,4.37,0,0,0-1-1.16,9.08,9.08,0,0,0-1.66,4.38.61.61,0,0,0,.13,0,2.49,2.49,0,0,0,.56,0,6.78,6.78,0,0,1,1.84-2.38A.64.64,0,0,0,451.05,387.72Z"/><path class="cls-31" d="M453.56,384s-1.54-1.42-2.4-1.45-2.35-.07-2.73,1.91a8.88,8.88,0,0,0-.14,3.15l4.51-.33S454.51,385.38,453.56,384Z"/><path class="cls-24" d="M452.8,387.24c.19-.71,1.79-3.16.21-3.69l-.27-.09a3.1,3.1,0,0,0-4,1.66s-.77,1.84-.49,2.45.3,1.94,1.34,2.3l.17.05C450.94,390.15,452.61,388,452.8,387.24Z"/><path class="cls-37" d="M449.51,386.29a16.3,16.3,0,0,1,1.17-2.87,2.85,2.85,0,0,0-1.9,1.7s-.77,1.84-.49,2.45a6.06,6.06,0,0,0,.79,1.93A10.54,10.54,0,0,1,449.51,386.29Z"/><path class="cls-24" d="M453,383.54l-.27-.08a3.9,3.9,0,0,0-2.06,0,16.3,16.3,0,0,0-1.17,2.87,8.07,8.07,0,0,0-.73,2.77,4.1,4.1,0,0,0,.85.81l.17.05c1.14.23,2.81-2,3-2.68S454.59,384.08,453,383.54Z"/><path class="cls-4" d="M441.62,386.61s-4.61,6.91-3.64,8.62c2.95,5.15,6.46-.36,5-2.17C443,393.06,443.73,386.94,441.62,386.61Z"/><path class="cls-31" d="M454.2,385.16a1.48,1.48,0,0,0-.4-1.91,2.34,2.34,0,0,0-2.09-.47,2.14,2.14,0,0,0-.68.33c-1.53-.51-2,.68-2.18,1.44a4.39,4.39,0,0,0-.07.57,4,4,0,0,0,2.6-1.67c.24.15.22,1,.81,1.22a1.71,1.71,0,0,1,1.07,2A5.24,5.24,0,0,0,454.2,385.16Z"/><path class="cls-31" d="M446.88,426.35a11.23,11.23,0,0,0,2.93,1.75c.89.15,1.71.34,1.71.34a1,1,0,0,1-.94.93c-.56.05-3.19.34-3.7,0,0,0-1.21.65-1.8.16l-.15-2.3S446.47,426,446.88,426.35Z"/><path class="cls-31" d="M462.26,417.08l-22-36.77a2.86,2.86,0,0,0-3,2.19l21.8,37A3.38,3.38,0,0,1,462.26,417.08Z"/><path class="cls-24" d="M462.93,421l-.67-3.9a3.38,3.38,0,0,0-3.19,2.42l3.07,2A2.11,2.11,0,0,1,462.93,421Z"/><path class="cls-31" d="M462.93,421a2.11,2.11,0,0,0-.79.56l1,.66Z"/><path class="cls-24" d="M441.51,388.93s-2.1.83-.28,3,2.48.6,2.37,0S442.33,389.08,441.51,388.93Z"/><path class="cls-24" d="M450,396.27s-1.26,0-.9,1.16.57,1.76,1.29,1.76,1.15.44,1.21.28S451.41,396.55,450,396.27Z"/><rect class="cls-31" x="382.17" y="90.5" width="37.21" height="4.07"/><polygon class="cls-31" points="419.38 90.5 451.08 85.32 451.08 88.73 419.38 94.57 419.38 90.5"/><path class="cls-24" d="M421.22,87.75A3.82,3.82,0,0,0,420,89.13a.4.4,0,0,0-.06.26c.05.17.28.2.46.2l1.42,0a2.87,2.87,0,0,0,.58-.07,1.47,1.47,0,0,0,1-1.42.92.92,0,0,0-.85-.89C422.08,87.12,421.58,87.52,421.22,87.75Z"/><path class="cls-4" d="M425.63,77.5s-4.9,2.51-5.07,3.75,1.07,6.27,1.36,7.35,1,1.3,1.66,1c0,0,1.06,3.73.28,4.18,0,0-4.83-1.42-6,.9s1.92,13.47,1.92,13.47,2.39,1.32,3,0l-1.51-9.32s3.68,1.46,5.41,1.23,1.45-.91,1.45-.91l4.08-20.22-1.61-1.66A9.55,9.55,0,0,0,425.63,77.5Z"/><path class="cls-24" d="M395.78,88.22s1-1,1.56-.85,2.57.18,3.07.95l-2.89,1Z"/><path class="cls-4" d="M386.09,78.24l1.57-1.67s3.22.11,2.66,5.18-1.05,5.68-1.05,5.68l7-.81s1.66.14,1.23,2.67c0,0-9.55,2.12-10.63,2s-2.83.29-2.68-1.08S384.52,79.9,386.09,78.24Z"/><path class="cls-4" d="M406,76.84s-4.27,2.2-4.49,3,.6,7.63,1.07,7.82,7.73-.07,7.73-.07l2.32-.34s3.55-.71,3.58-1.4a50.17,50.17,0,0,0-2.1-7.35,14.42,14.42,0,0,0-3.51-1.89C410.15,76.5,407.18,76.18,406,76.84Z"/><path class="cls-24" d="M407,75.82l-1.05,1a13.83,13.83,0,0,1,1.31,3.1c0,.69.4,5.54.4,5.54a6.3,6.3,0,0,1,2.06.36,8.59,8.59,0,0,1,1.85-.54,51.26,51.26,0,0,1-.84-5.76,26.59,26.59,0,0,0,0-2.91l-1.44-1-.83.62Z"/><path class="cls-31" d="M406.42,75A4.12,4.12,0,0,1,405.6,73c0-1-.12-2.13.35-2.47s.91-1.4,1.73-1.3,2.5-.29,2.55.63,1,1.55.93,2.22a17,17,0,0,1-1,2.57Z"/><path class="cls-24" d="M406.18,72.15a14.58,14.58,0,0,0,.24,2.81c.25.76,1.36,2.54,2.08,2.18a3.34,3.34,0,0,0,1.69-2.47c0-1,.39-3-1.39-2.57C408.67,72.13,408.76,73.16,406.18,72.15Z"/><ellipse class="cls-24" cx="410.23" cy="73.47" rx="0.76" ry="0.32" transform="translate(283.4 470.46) rotate(-82.44)"/><path class="cls-4" d="M407.92,78.13c.19.39.88.53.88.53s.52-.67.52-.91S407.73,77.75,407.92,78.13Z"/><path class="cls-4" d="M408.37,78.13l.43,7.46s.42,1.6.71,1.11a7.47,7.47,0,0,1,.9-1.11l-1.29-7.4S408.59,77.88,408.37,78.13Z"/><path class="cls-24" d="M407.89,83.77s.41,1.45,0,1.92c0,0,1.65.06,2.6,0s1.57-.09,1.61-.21-.83-.48-1.45-.76A5.2,5.2,0,0,0,407.89,83.77Z"/><path class="cls-3" d="M380.93,100.4v10.32a1.47,1.47,0,0,0,2,0V100.4Z"/><path class="cls-3" d="M427.9,100.74v10.32a1.49,1.49,0,0,0,2,0V100.74Z"/><path class="cls-3" d="M451.08,95.28v10.49a1.25,1.25,0,0,0,1.66,0V95.28Z"/><path class="cls-3" d="M436,100.68c-.62.83-2.27.93-3.3,1.1a39.7,39.7,0,0,1-11.09.55,3.06,3.06,0,0,1-1.48-.45,2.88,2.88,0,0,1-.8-1.11c-.3-.6-.52-1.39-.05-1.87a1.79,1.79,0,0,1,1.33-.34,40.82,40.82,0,0,0,6.63-.45,37.46,37.46,0,0,1,4.47-.59,8.4,8.4,0,0,1,3.44.55c.54.22,1.05,0,1.07.57A4.31,4.31,0,0,1,436,100.68Z"/><path class="cls-31" d="M426.63,68.24a1.72,1.72,0,0,0-2.15,1.86c0,2.31-.9,1-.53,3.37s1.46,2.45,1.68,5.59-.15,6,3,7.1c0,0-1.28-2.45,1-3.75s.62-4.36,1.2-5.77a7.27,7.27,0,0,0,.05-5.38C430.06,69.48,430.43,67.54,426.63,68.24Z"/><path class="cls-3" d="M431.49,77.5s-5.29,0-5.07,5.18.55,18.93.55,18.93l9.25-3V82.24S436.3,77.5,431.49,77.5Z"/><path class="cls-4" d="M423,98.81a13.67,13.67,0,0,0,2,.5c1,.08,2,.28,2-.21a6.22,6.22,0,0,0-.28-2.24c-.27-.48-1-.64-1.56-.78a4.63,4.63,0,0,0-1.66-.06,6.19,6.19,0,0,0-1.54.31c-.52.2-1.79.8-1.45,1.51S422.3,98.66,423,98.81Z"/><path class="cls-24" d="M445.8,71l.66,2.52c.17.62,1.43,2.52,2.48,1.49s.11-3.68,0-3.79S447.89,69,445.8,71Z"/><path class="cls-31" d="M446.85,71.17l-1,.22s-.94,0-.64-.82.14-2,1.66-1.71,2.26-1.7,2.7-.44,2,1.76,1.42,2.7a3.76,3.76,0,0,0-.2,2.35l-1.81.8S448.23,71.39,446.85,71.17Z"/><ellipse class="cls-24" cx="448.35" cy="72.1" rx="0.73" ry="1.29" transform="translate(-4.29 35.59) rotate(-4.52)"/><path class="cls-24" d="M442.67,84.51a1,1,0,0,0-.15,1.1,9.94,9.94,0,0,1-2-.38s-1,.48-1.19.27.41-1,.66-1.14A3,3,0,0,1,442.67,84.51Z"/><path class="cls-24" d="M450.77,73.47a2.46,2.46,0,0,0-2.42,1.4,5.16,5.16,0,0,0-.36.76l3.45-1.36A1.55,1.55,0,0,0,450.77,73.47Z"/><path class="cls-4" d="M451.55,74c-.28,0-3.82.81-4.83,2.15s-.75,5.63-.27,7.47l-4.34.53a1.58,1.58,0,0,0,.56,1.91s3.76.1,4.33.14l.05,3.32-5,.92L439,91s-.74.9-.47,3.44,1.51,8.89,1.4,9.43c0,0,1,1.18,3-.31,0,0,.2-6.25.22-7.68l.75,7.33a2.35,2.35,0,0,0,2.72-.27s.23-7.86.29-7.86,5.93.59,6.26-.62,1.72-10.78,1.57-13.13S452.93,73.94,451.55,74Z"/><path class="cls-3" d="M454.89,74.27s-4.42,0-4.23,4.32.46,15.83.46,15.83l7.73-2.49V78.22S458.92,74.26,454.89,74.27Z"/><path class="cls-3" d="M458.85,91.93s.32,2.21-1.25,2.81-7.26,2.25-8.28,2.12-6.16-.18-6-1.17,5.29-2.24,7.82-1.27Z"/><path class="cls-4" d="M450.65,92.72l.47,1.7s-6.45,2-8.45,1.57,3.1-3.7,3.1-3.7S450,91.44,450.65,92.72Z"/><path class="cls-44" d="M523.48,180.24c1.15-3.78,4-7.16,3.86-11.12a9.68,9.68,0,0,0-2-5.23,17.63,17.63,0,0,0-2.24-2.41,3.41,3.41,0,0,0-1.82,1.47c-1.23,1.82-.86,6.32-.2,7.1s.82,14.53.82,14.53a11.2,11.2,0,0,0,1.13.58A12.6,12.6,0,0,1,523.48,180.24Z"/><polygon class="cls-28" points="535.22 218.43 519.14 226.22 504.04 225.07 524.51 218.43 535.22 218.43"/></g></svg>