<svg xmlns="http://www.w3.org/2000/svg" xmlns:xlink="http://www.w3.org/1999/xlink" viewBox="0 0 841.89 498.27"><defs><style>.cls-1,.cls-12,.cls-15,.cls-16{opacity:0.48;}.cls-1{fill:url(#Naamloos_verloop_53);}.cls-2{fill:url(#Naamloos_verloop_53-2);}.cls-3{fill:url(#Naamloos_verloop_90);}.cls-4{fill:url(#Naamloos_verloop_90-2);}.cls-5{fill:url(#Naamloos_verloop_90-3);}.cls-6{fill:url(#Naamloos_verloop_90-4);}.cls-7{fill:#e8366b;}.cls-8{fill:#611831;}.cls-9{fill:url(#Naamloos_verloop_42);}.cls-10{fill:url(#Naamloos_verloop_42-2);}.cls-11{fill:url(#Naamloos_verloop_53-3);}.cls-12{fill:url(#Naamloos_verloop_53-4);}.cls-13{fill:url(#Naamloos_verloop_53-5);}.cls-14{fill:url(#Naamloos_verloop_53-6);}.cls-15{fill:url(#Naamloos_verloop_53-7);}.cls-16{fill:url(#Naamloos_verloop_53-8);}.cls-17{fill:url(#Naamloos_verloop_42-3);}.cls-18{fill:url(#Naamloos_verloop_53-9);}.cls-19{fill:url(#Naamloos_verloop_42-4);}.cls-20{fill:url(#Naamloos_verloop_42-5);}.cls-21{fill:#8a4d67;}.cls-22{fill:#fff;}.cls-23{fill:url(#Naamloos_verloop_53-10);}.cls-24{fill:url(#Naamloos_verloop_53-11);}.cls-25{fill:#73b4d8;}.cls-26{fill:url(#Naamloos_verloop_60);}.cls-27{fill:url(#Naamloos_verloop_42-6);}.cls-28{fill:#f47aa3;}.cls-29,.cls-31,.cls-34,.cls-36,.cls-38,.cls-39{opacity:0.5;}.cls-29{fill:url(#Naamloos_verloop_2);}.cls-30{fill:url(#Naamloos_verloop_53-12);}.cls-31{fill:url(#Naamloos_verloop_2-2);}.cls-32{fill:#cbe7f4;}.cls-33{fill:#e5739f;}.cls-34{fill:url(#Naamloos_verloop_2-3);}.cls-35{opacity:0.47;fill:url(#Naamloos_verloop_112);}.cls-36{fill:url(#Naamloos_verloop_2-4);}.cls-37{fill:#dd6492;}.cls-38{fill:url(#Naamloos_verloop_2-5);}.cls-39{fill:url(#Naamloos_verloop_2-6);}</style><linearGradient id="Naamloos_verloop_53" x1="634.38" y1="88.23" x2="638.71" y2="322.06" gradientUnits="userSpaceOnUse"><stop offset="0.46" stop-color="#e8366b"/><stop offset="0.54" stop-color="#e8396d" stop-opacity="0.98"/><stop offset="0.61" stop-color="#e84273" stop-opacity="0.93"/><stop offset="0.68" stop-color="#e8517e" stop-opacity="0.85"/><stop offset="0.75" stop-color="#e8658c" stop-opacity="0.73"/><stop offset="0.81" stop-color="#e8809f" stop-opacity="0.58"/><stop offset="0.88" stop-color="#e8a1b6" stop-opacity="0.4"/><stop offset="0.95" stop-color="#e8c7d1" stop-opacity="0.18"/><stop offset="1" stop-color="#e8e8e8" stop-opacity="0"/></linearGradient><linearGradient id="Naamloos_verloop_53-2" x1="518.83" y1="236.38" x2="500.33" y2="287.68" xlink:href="#Naamloos_verloop_53"/><linearGradient id="Naamloos_verloop_90" x1="445.01" y1="202.84" x2="524.71" y2="134.66" gradientUnits="userSpaceOnUse"><stop offset="0.46" stop-color="#73b4d8"/><stop offset="0.6" stop-color="#6fb1d6"/><stop offset="0.72" stop-color="#64aad0"/><stop offset="0.85" stop-color="#509dc6"/><stop offset="0.97" stop-color="#368ab8"/><stop offset="1" stop-color="#2f86b5"/></linearGradient><linearGradient id="Naamloos_verloop_90-2" x1="508.02" y1="356.43" x2="540.63" y2="328.53" xlink:href="#Naamloos_verloop_90"/><linearGradient id="Naamloos_verloop_90-3" x1="131.59" y1="343.65" x2="164.2" y2="315.75" xlink:href="#Naamloos_verloop_90"/><linearGradient id="Naamloos_verloop_90-4" x1="160.41" y1="258.39" x2="193.03" y2="230.5" xlink:href="#Naamloos_verloop_90"/><linearGradient id="Naamloos_verloop_42" x1="459.28" y1="405.08" x2="481.06" y2="394.27" gradientUnits="userSpaceOnUse"><stop offset="0.02" stop-color="#611831"/><stop offset="1" stop-color="#8a4d67"/></linearGradient><linearGradient id="Naamloos_verloop_42-2" x1="534.32" y1="347.88" x2="556.11" y2="337.08" gradientTransform="matrix(0.16, 0.72, -0.81, 0.18, 812.55, -114.1)" xlink:href="#Naamloos_verloop_42"/><linearGradient id="Naamloos_verloop_53-3" x1="554.76" y1="227.8" x2="547.94" y2="293.2" xlink:href="#Naamloos_verloop_53"/><linearGradient id="Naamloos_verloop_53-4" x1="133.64" y1="77.84" x2="138.01" y2="313.55" xlink:href="#Naamloos_verloop_53"/><linearGradient id="Naamloos_verloop_53-5" x1="463.27" y1="206" x2="477.81" y2="233.52" xlink:href="#Naamloos_verloop_53"/><linearGradient id="Naamloos_verloop_53-6" x1="440.21" y1="203.19" x2="424.14" y2="235.78" xlink:href="#Naamloos_verloop_53"/><linearGradient id="Naamloos_verloop_53-7" x1="399.95" y1="22.19" x2="402.57" y2="163.27" xlink:href="#Naamloos_verloop_53"/><linearGradient id="Naamloos_verloop_53-8" x1="254.11" y1="21.64" x2="256.73" y2="162.72" gradientTransform="matrix(-1, 0, 0, 1, 511.34, 0)" xlink:href="#Naamloos_verloop_53"/><linearGradient id="Naamloos_verloop_42-3" x1="322.64" y1="184.05" x2="360.25" y2="165.4" xlink:href="#Naamloos_verloop_42"/><linearGradient id="Naamloos_verloop_53-9" x1="338.53" y1="86.58" x2="342.28" y2="288.8" xlink:href="#Naamloos_verloop_53"/><linearGradient id="Naamloos_verloop_42-4" x1="281.79" y1="253.32" x2="306" y2="241.32" xlink:href="#Naamloos_verloop_42"/><linearGradient id="Naamloos_verloop_42-5" x1="205.91" y1="242.93" x2="254.67" y2="218.76" xlink:href="#Naamloos_verloop_42"/><linearGradient id="Naamloos_verloop_53-10" x1="234.94" y1="103.12" x2="240.91" y2="425.35" xlink:href="#Naamloos_verloop_53"/><linearGradient id="Naamloos_verloop_53-11" x1="189.64" y1="139.93" x2="194.9" y2="423.64" xlink:href="#Naamloos_verloop_53"/><linearGradient id="Naamloos_verloop_60" x1="314.75" y1="175.88" x2="312.4" y2="199.58" gradientUnits="userSpaceOnUse"><stop offset="0.02" stop-color="#e8366b"/><stop offset="1" stop-color="#a6274d"/></linearGradient><linearGradient id="Naamloos_verloop_42-6" x1="293.06" y1="219.41" x2="312.78" y2="209.63" xlink:href="#Naamloos_verloop_42"/><linearGradient id="Naamloos_verloop_2" x1="224.25" y1="260.13" x2="433.03" y2="227.44" gradientUnits="userSpaceOnUse"><stop offset="0.02" stop-color="#1d1d1b"/><stop offset="0.48" stop-color="#2e1f22" stop-opacity="0.92"/><stop offset="0.74" stop-color="#672638" stop-opacity="0.64"/><stop offset="0.95" stop-color="#c8325e" stop-opacity="0.16"/><stop offset="1" stop-color="#e8366b" stop-opacity="0"/></linearGradient><linearGradient id="Naamloos_verloop_53-12" x1="450.91" y1="171.34" x2="451.24" y2="189.21" xlink:href="#Naamloos_verloop_53"/><linearGradient id="Naamloos_verloop_2-2" x1="390.53" y1="329.72" x2="647.38" y2="289.51" xlink:href="#Naamloos_verloop_2"/><linearGradient id="Naamloos_verloop_2-3" x1="476.03" y1="306.54" x2="614.14" y2="284.92" xlink:href="#Naamloos_verloop_2"/><linearGradient id="Naamloos_verloop_112" x1="404.58" y1="281.48" x2="447.52" y2="288.31" gradientUnits="userSpaceOnUse"><stop offset="0.02" stop-color="#1d1d1b"/><stop offset="0.35" stop-color="#221e1d" stop-opacity="0.97"/><stop offset="0.53" stop-color="#352024" stop-opacity="0.88"/><stop offset="0.68" stop-color="#542431" stop-opacity="0.72"/><stop offset="0.76" stop-color="#6e273b" stop-opacity="0.59"/><stop offset="0.82" stop-color="#852a44" stop-opacity="0.48"/><stop offset="0.94" stop-color="#c1315c" stop-opacity="0.19"/><stop offset="1" stop-color="#e8366b" stop-opacity="0"/></linearGradient><linearGradient id="Naamloos_verloop_2-4" x1="358.21" y1="277.63" x2="439.65" y2="264.87" xlink:href="#Naamloos_verloop_2"/><linearGradient id="Naamloos_verloop_2-5" x1="387.68" y1="248.76" x2="432.67" y2="241.71" xlink:href="#Naamloos_verloop_2"/><linearGradient id="Naamloos_verloop_2-6" x1="525.38" y1="306.33" x2="630.65" y2="289.85" xlink:href="#Naamloos_verloop_2"/></defs><title>illustratie_4</title><g id="Background_details" data-name="Background details"><path class="cls-1" d="M537.31,174.21c64.72-28.16,78.67,9.53,115.9,13.73,51.55-1.75,103.82-2.92,107,55,.76,30.27-31.31,13.07-45,28.6-12.35,16.45,7,38.6-24.38,33-49.62-8.5-48.67-51.27-84.38-45.27C494.05,298.48,501.83,195,537.31,174.21Z"/><polygon class="cls-2" points="487.69 234.43 473.15 294.96 522.69 313.98 533.92 249.7 487.69 234.43"/><circle class="cls-3" cx="493.78" cy="161.12" r="50.64"/><circle class="cls-4" cx="527.98" cy="339.36" r="20.72"/><circle class="cls-5" cx="151.55" cy="326.58" r="20.72"/><circle class="cls-6" cx="180.37" cy="241.32" r="20.72"/><path class="cls-7" d="M456.42,344.37l-15,40.07,44.51,11.2s14.4-42.25,14.14-42.47S456.42,344.37,456.42,344.37Z"/><polygon class="cls-8" points="485.92 395.64 502.22 413.28 514.77 377.61 500.06 353.17 485.92 395.64"/><polygon class="cls-9" points="441.41 384.44 466 404.04 502.22 413.28 485.92 395.64 441.41 384.44"/><path class="cls-7" d="M664.78,318.87l-35-3.38-1.92,33.9s36.7,2.54,36.83,2.31S664.78,318.87,664.78,318.87Z"/><polygon class="cls-8" points="627.83 349.39 616.11 364.29 647.16 366.71 664.66 351.7 627.83 349.39"/><polygon class="cls-10" points="629.75 315.49 617.78 336.68 616.11 364.29 627.83 349.39 629.75 315.49"/><polygon class="cls-8" points="478 241.32 453.34 289.1 495.17 298.11 517.41 249.14 478 241.32"/><polygon class="cls-8" points="532.27 226.16 487.69 234.43 533.92 249.7 576.86 237.14 532.27 226.16"/><polygon class="cls-11" points="576.86 237.14 559.93 316.4 522.69 313.98 533.92 249.7 576.86 237.14"/><path class="cls-12" d="M219.64,216.59c-3.74-5.55-11.09-11.23-18-14.75-52.68-21.61-34.61-37.79-58.16-47.64-70.44-9.79-28.16,49.87-47.06,59.27-19.79,16.13-50.39,13.26-46.11,44.42C55.3,286.06,79,278.36,96.45,288,140,320.62,244.6,267.37,219.64,216.59Z"/></g><g id="Background"><polygon class="cls-13" points="481.08 173.37 481.08 228.52 451.01 249.14 450.91 194.53 481.08 173.37"/><polygon class="cls-14" points="420.94 174.4 420.94 234.41 451.01 249.14 450.91 194.53 420.94 174.4"/><path class="cls-15" d="M338,102,449.37,66.28S465,77.28,465,111.41,449.37,153,449.37,153L339.06,123.08Z"/><path class="cls-16" d="M319.17,101.47,207.81,65.72s-15.64,11-15.64,45.14,15.64,41.62,15.64,41.62l110.31-29.95Z"/><polygon class="cls-17" points="354.64 191.08 323.43 173.55 302.95 170.92 353.59 148.79 373.08 150.44 354.64 191.08"/><polygon class="cls-18" points="323.65 210.14 323.43 173.55 373.08 150.44 373.08 241.32 308.68 275.98 308.24 219.55 323.65 210.14"/><path class="cls-19" d="M282.64,272.15c.16-.83,1.82-56.15,1.82-56.15l23.78,3.55.44,56.43Z"/><polygon class="cls-20" points="234.38 252.69 203.17 235.16 182.69 230.56 254.69 203.53 274.18 205.18 234.38 252.69"/><path class="cls-21" d="M621.25,297.66,193.08,249.14l-53.87,20.29,429.28,55,2.79,13.95,50-30.61a7.9,7.9,0,0,0,2.48-5.2C623.73,298.65,621.25,297.66,621.25,297.66Z"/><path class="cls-8" d="M134.73,276.3h0a7.52,7.52,0,0,0,6.54,7.46l425.27,55.53a7.51,7.51,0,0,0,8.49-7.45h0a7.52,7.52,0,0,0-6.54-7.45L143.22,268.85A7.52,7.52,0,0,0,134.73,276.3Z"/><circle class="cls-22" cx="567.5" cy="331.59" r="5.01"/><circle class="cls-22" cx="142.49" cy="276.04" r="5.01"/><polyline class="cls-23" points="203.17 404.64 269.56 367.68 274.18 205.18 203.17 235.16"/><polygon class="cls-24" points="182.69 230.56 182.69 400.05 203.17 404.64 203.17 235.16 182.69 230.56"/><rect class="cls-7" x="195.61" y="119.73" width="16.73" height="58.13" transform="translate(-26.15 44.93) rotate(-11.82)"/><rect class="cls-25" x="211.65" y="48" width="33.47" height="67.38" transform="translate(-9.07 32.19) rotate(-7.91)"/><polygon class="cls-7" points="263.32 42.72 263.32 106.57 232.44 106.57 232.44 120.66 263.32 120.66 272.57 120.66 280.93 120.66 280.93 42.72 263.32 42.72"/><polygon class="cls-25" points="275.43 110.48 253 142.62 267.81 152.95 262.52 160.53 247.71 150.21 243.68 155.99 268.6 173.37 270.62 170.48 272.63 167.59 277.93 160 285.48 149.17 300.35 127.86 275.43 110.48"/><polygon class="cls-25" points="201.09 139.19 255.67 128.5 235 158.88 201.09 139.19"/><polygon class="cls-26" points="302.95 170.92 302.95 207.41 323.65 210.14 323.43 173.55 302.95 170.92"/><polygon class="cls-27" points="302.95 207.41 284.46 216 308.24 219.55 323.65 210.14 302.95 207.41"/><path class="cls-7" d="M311.84,126.28c-.81-.56,4.84-34.13,4.84-34.13h0a27.92,27.92,0,0,1,22,.15l1.16.51,4,33.47S327.25,136.85,311.84,126.28Z"/><ellipse class="cls-28" cx="322.42" cy="109.1" rx="10.68" ry="5.37" transform="translate(173.01 414.93) rotate(-82.66)"/><ellipse class="cls-28" cx="334.57" cy="109.03" rx="4.79" ry="10.68" transform="translate(-3.16 10.23) rotate(-1.74)"/><ellipse class="cls-22" cx="328.44" cy="109.1" rx="6" ry="10.68" transform="translate(-3.17 10.05) rotate(-1.74)"/><polygon class="cls-8" points="414.61 186.72 376.05 282.15 396.97 278.58 437.08 194.53 414.61 186.72"/><polygon class="cls-7" points="414.61 186.72 345.67 216 376.05 282.15 414.61 186.72"/><path class="cls-29" d="M380.23,240.33c-4.15-4.49-11.74-5.8-13.84-11.54-1.2-3.29,0-7,2.07-9.85s5-4.84,7.82-6.93q5.84-4.35,11.23-9.24a22.26,22.26,0,0,0,5.55-6.69c0-.08.06-.17.1-.25L345.67,216l27,58.75c3-5.46,6.93-10.4,9.26-16.16C384.35,252.6,384.61,245.06,380.23,240.33Z"/><path class="cls-7" d="M414.61,186.72l-21.45,9.11c0,.08-.06.17-.1.25a22.26,22.26,0,0,1-5.55,6.69q-5.4,4.88-11.23,9.24c-2.8,2.09-5.72,4.13-7.82,6.93s-3.27,6.56-2.07,9.85c2.1,5.74,9.69,7.05,13.84,11.54,4.38,4.73,4.12,12.27,1.69,18.26-2.33,5.76-6.3,10.7-9.26,16.16l3.39,7.4Z"/><polygon class="cls-8" points="421.64 109.1 447.61 117.36 476.46 106.57 446.73 100.84 421.64 109.1"/><polygon class="cls-8" points="395.23 133.65 407.76 157.85 435.79 170.62 418.81 145.55 395.23 133.65"/><polygon class="cls-8" points="490.21 174.4 508.2 153.93 509.91 123.18 492.73 148.11 490.21 174.4"/><path class="cls-8" d="M420.94,174.4l30,20.13,30.17-21.16Zm14.1,2.94,31.95-.55L451,188Z"/><polygon class="cls-30" points="435.04 177.34 450.96 188.03 466.99 176.79 435.04 177.34"/><ellipse class="cls-8" cx="308.68" cy="278.74" rx="14.8" ry="2.16"/><circle class="cls-7" cx="308.24" cy="263.78" r="14.8"/><polygon class="cls-7" points="582.36 356.96 562.5 404.64 609.3 384.44 582.36 356.96"/><path class="cls-31" d="M546.77,296.51a5.15,5.15,0,0,0-2.3.57,1.75,1.75,0,0,0-.82,2,2.51,2.51,0,0,0,1.66,1.18c1.74.6,3.52,1.12,5.32,1.56.63,1.08-.59,2.3-1.7,2.88s-2.48,1.43-2.27,2.66a25.72,25.72,0,0,0,9.37,1.89,140,140,0,0,0,27.53-1,11.43,11.43,0,0,0,4.57-1.31,19.64,19.64,0,0,0,3-2.71c3.89-3.71,9.38-5.11,14.61-6.37C586.2,297.13,566.28,294.94,546.77,296.51Z"/></g><g id="Mensen"><path class="cls-25" d="M297.11,389.58h-2v-1h2Zm2,0v-1h2v1Zm-6,0h-2v-1h2Zm10,0,0-1,2,0v1Zm-14,0-2,0v-1l2,0Zm18,0v-1l2,0,0,1Zm-22,0-2,0,0-1,2,0Zm26,0,0-1,2,0,0,1Zm-30,0-2,0,0-1,2,0Zm34.06-.06-.06-1,2,0,0,1Zm-38.06,0-2,0,0-1,2,0Zm42-.07,0-1,2-.05,0,1Zm-46,0-2-.05,0-1,2,.05Zm50-.09,0-1,2-.05,0,1Zm-54,0-2-.05,0-1,2,.05Zm58-.09,0-1,2-.07,0,1Zm-62,0-2-.07,0-1,2,.07Zm66-.11,0-1,2-.07,0,1Zm-70,0-1.93-.07,0-1,2,.07Zm74-.12,0-1,2-.08,0,1Zm-78,0-2-.08,0-1,2,.08Zm82-.13,0-1,2-.09.05,1Zm-86,0-1.79-.08.05-1,1.79.08Zm90-.15-.05-1,2-.09.05,1Zm4.09-.2-.15-1,2-.11.05,1Zm3.9-.2-.05-1,2-.11.06,1Zm4-.23-.06-1,2-.12.06,1Zm4-.24-.06-1,2-.13.07,1Zm4-.26-.06-1,2-.13.07,1Zm4-.28-.07-1,2-.15.07,1Zm4-.3-.08-1,2-.19.11,1C372.42,386.67,371.75,386.73,371.08,386.78Zm4-.43-.14-1c.65-.1,1.3-.21,1.94-.33l.19,1C376.42,386.14,375.76,386.25,375.09,386.35Zm4-.79-.25-1c.64-.16,1.27-.35,1.87-.56l.33,1C380.39,385.19,379.74,385.39,379.07,385.56Zm3.85-1.33-.41-.91.3-.14c.48-.22,1-.48,1.42-.75l.52.85a14.76,14.76,0,0,1-1.52.81Zm3.53-2.12-.62-.78a13.73,13.73,0,0,0,1.43-1.3l.72.69A13.59,13.59,0,0,1,386.45,382.11Zm2.84-3-.83-.56a9.4,9.4,0,0,0,.91-1.67l.92.39A11,11,0,0,1,389.29,379.11Zm1.58-3.87-1-.16A8,8,0,0,0,390,374c0-.33,0-.56,0-.78l1-.09c0,.25,0,.51,0,.77V374A7.4,7.4,0,0,1,390.87,375.24Zm-1.3-3.88a12,12,0,0,0-.74-1.76l.88-.46a10.92,10.92,0,0,1,.81,1.92ZM387.81,368l-.33-.44c-.28-.36-.58-.72-.9-1.06l.74-.68c.33.36.65.74.95,1.13.12.15.24.3.35.46Zm-2.62-2.86c-.49-.42-1-.82-1.54-1.19l.56-.82a18.14,18.14,0,0,1,1.63,1.26Zm-3.2-2.19a17.65,17.65,0,0,0-1.77-.82l.37-.93a19.64,19.64,0,0,1,1.87.86Zm-3.61-1.43c-.61-.17-1.23-.31-1.91-.44l.18-1c.71.13,1.36.28,2,.46Zm-3.86-.73c-.65-.08-1.31-.14-2-.2l.08-1c.67.05,1.35.11,2,.2Zm-3.95-.34-2-.12.06-1,2,.13Zm-4-.24-2-.12.06-1,2,.12Zm-4-.24-2-.12.06-1,2,.12Zm-4-.24-2-.12.06-1,2,.12Zm-4-.24-2-.12.06-1,2,.12Zm-4-.25-2-.12.06-1,2,.12Zm-4-.24-2-.12.07-1,2,.13Zm-4-.24-2-.12.06-1,2,.12Zm-4-.24-2-.12.06-1,2,.12Zm-4-.24-2-.12.06-1,2,.12Zm-4-.24-2-.13.06-1,2,.12Zm-4-.25-2-.12.06-1,2,.13Zm-4-.24-2-.12.06-1,2,.12Zm-4-.24-2-.12.06-1,2,.12Zm-4-.24-2-.12.06-1,2,.12Zm-4-.24-2-.15.08-1,2,.14Zm-4-.33c-.68-.08-1.34-.16-2-.26l.15-1c.65.1,1.31.18,2,.25Zm-4-.63c-.68-.14-1.35-.31-2-.49l.28-1c.61.17,1.25.34,1.9.47Zm-3.94-1.16a19.17,19.17,0,0,1-1.84-.84l.46-.89a18.25,18.25,0,0,0,1.74.8l-.15.47Zm-3.61-1.9a15.38,15.38,0,0,1-1.63-1.26l.66-.75a17.86,17.86,0,0,0,1.53,1.19ZM292,350.05a13,13,0,0,1-1.23-1.67l.85-.52a12.66,12.66,0,0,0,1.13,1.54Zm-2.16-3.54a9.31,9.31,0,0,1-.39-1.2,7.91,7.91,0,0,1-.19-.81l1-.18c0,.25.1.49.16.73a10.87,10.87,0,0,0,.36,1.1Zm.24-4.09h-1a12.17,12.17,0,0,1,.19-2.07l1,.17A11.27,11.27,0,0,0,290.12,342.42Zm31.12-.9h-.17v-1h.18c.6,0,1.2,0,1.8,0l0,1C322.48,341.51,321.86,341.52,321.24,341.52Zm-2.2-.06-.37,0c-.55,0-1.1-.08-1.65-.14l.11-1c.53.05,1.07.1,1.6.13l.35,0Zm6.07-.1-.08-1c.65-.05,1.31-.12,2-.2l.11,1C326.44,341.24,325.78,341.3,325.11,341.36ZM315,341c-.66-.11-1.33-.24-2-.39l.23-1c.64.14,1.28.27,1.93.38Zm14.1-.13-.15-1c.66-.1,1.31-.21,2-.33l.18,1C330.44,340.68,329.78,340.79,329.11,340.89Zm4-.71-.2-1,1.95-.42.22,1Zm-22-.07c-.65-.19-1.3-.4-1.93-.63l.34-.94c.61.22,1.24.43,1.87.62Zm25.93-.82-.23-1,1.93-.49.25,1Zm-29.74-.58c-.62-.28-1.24-.58-1.83-.9l.48-.88c.57.31,1.16.6,1.75.86Zm-16.48-.06-.95-.31a14.31,14.31,0,0,1,.78-1.92l.9.45A13.6,13.6,0,0,0,290.77,338.65Zm50.11-.36-.26-1,.52-.14,1.39-.4.29.95c-.47.15-.95.29-1.42.41Zm3.87-1.24-.38-.92a10.9,10.9,0,0,0,1.71-.87l.53.85A12.89,12.89,0,0,1,344.75,337.05Zm-41.08-.28c-.58-.37-1.14-.77-1.67-1.18l.61-.79c.51.39,1.05.77,1.6,1.13Zm-11.21-1.59-.83-.55a16.3,16.3,0,0,1,1.23-1.64l.76.64C293.21,334.13,292.82,334.65,292.46,335.18Zm55.8-.4-.73-.68a5.47,5.47,0,0,0,1-1.51l.45.19h.51l-.06.23A6.29,6.29,0,0,1,348.26,334.78Zm-47.82-.51a19.84,19.84,0,0,1-1.44-1.46l.75-.66c.43.48.89.94,1.37,1.39Zm-5.48-2-.68-.73c.49-.46,1-.9,1.56-1.33l.61.8C295.93,331.37,295.43,331.8,295,332.23Zm2.75-1a16.41,16.41,0,0,1-1.1-1.75l.88-.47a14.3,14.3,0,0,0,1,1.63Zm52.24-.35-1-.05v-.25a6.17,6.17,0,0,0-.21-1.57l1-.26a7.3,7.3,0,0,1,.24,1.83Zm-51.9-1-.55-.84c.56-.36,1.14-.71,1.75-1l.48.87C299.15,329.14,298.58,329.49,298.05,329.83Zm3.43-1.92-.43-.9c.6-.29,1.22-.57,1.84-.84l.39.92C302.68,327.35,302.08,327.62,301.48,327.91Zm-5.7-.35a9.14,9.14,0,0,1-.46-2.05l1-.11a8.57,8.57,0,0,0,.41,1.85Zm52.25-.29a8.25,8.25,0,0,0-1.12-1.5l.73-.69a8.77,8.77,0,0,1,1.25,1.7Zm-42.91-.93-.37-.93.79-.31,1.1-.4.34.94-1.08.4Zm3.74-1.36-.32-.94c.63-.22,1.27-.42,1.91-.62l.3.95Zm36.6-.43a12.09,12.09,0,0,0-1.67-.94l.42-.9a12.13,12.13,0,0,1,1.81,1Zm-32.81-.74-.27-1,1.95-.52.24,1Q313.61,323.54,312.65,323.81Zm-16.27-.32-.51,0-.49-.09a8.07,8.07,0,0,1,.64-2l.9.42A7,7,0,0,0,296.38,323.49Zm45.6-.57c-.58-.19-1.2-.36-1.88-.51l.22-1c.71.16,1.35.34,2,.53Zm-25.47-.07-.22-1,2-.41.19,1C317.8,322.57,317.15,322.7,316.51,322.85Zm3.89-.75-.16-1c.67-.11,1.33-.2,2-.29l.13,1C321.71,321.9,321.06,322,320.4,322.1Zm17.76-.07c-.65-.12-1.3-.21-2-.3l.13-1c.67.09,1.33.19,2,.3Zm-13.82-.44-.1-1c.67-.07,1.34-.12,2-.16l.07,1Zm9.89-.07c-.65,0-1.31-.1-2-.13l0-1c.68,0,1.35.08,2,.14Zm-5.93-.17,0-1,1.47,0h.55v1h-.54Zm-30.4-1.21-.81-.59a15,15,0,0,1,1.33-1.57l.72.69A15.39,15.39,0,0,0,297.9,320.14Zm2.66-2.83-.66-.74.78-.68.75-.63.64.76-.75.63Zm3.05-2.55L303,314c.52-.42,1-.83,1.58-1.24l.61.79Zm3.15-2.43-.6-.8c.53-.4,1.07-.8,1.62-1.19l.58.81ZM310,310l-.57-.82,1.65-1.13.56.83C311.08,309.25,310.53,309.62,310,310Zm3.3-2.21-.54-.84c.56-.37,1.13-.73,1.7-1.08l.53.85C314.41,307.07,313.85,307.42,313.29,307.79Zm3.38-2.12-.52-.85,1.73-1,.51.86Zm3.44-2-.49-.87,1.75-1,.48.88Zm3.5-1.92-.47-.88,1.78-.94.46.89Zm3.54-1.83-.45-.9,1.8-.89.44.9Zm3.59-1.75-.43-.91,1.82-.85.42.91Zm3.62-1.68-.41-.91,1.84-.82.4.92Zm3.66-1.6-.39-.92c.61-.27,1.23-.53,1.84-.78l.39.92C339.24,294.36,338.63,294.61,338,294.88Zm3.68-1.54-.38-.93,1.86-.75.37.93Zm3.71-1.49-.36-.93,1.86-.72.36.93Zm3.73-1.43-.36-.94,1.88-.7.35.94Zm3.74-1.39-.34-.94,1.88-.69.34,1Zm3.76-1.36-.33-.94,1.88-.66.34.94Zm3.77-1.32-.33-.94,1.89-.66.33.95Z"/><path class="cls-32" d="M615.94,293.15s1.87,1.85,2.6,1.83,4,0,3.25.67-3.11,1.44-3.88,1.05a17.42,17.42,0,0,1-2.64-2.32Z"/><path class="cls-7" d="M618.26,294.17s-.54,1.8-1.91,1.88L604,283.53s.11-2,2.46-1.21S618.26,294.17,618.26,294.17Z"/><path class="cls-22" d="M608,279.66a.54.54,0,0,1,.27.39c1.19-1.11,2.53-1.65,3.4-1.41a1.55,1.55,0,0,1,.23.08,1.14,1.14,0,0,1,.23.15c.87.75,0,2.56-1.56,4.24s-3.06,2.6-3.94,1.84a.75.75,0,0,1-.15-.16l0,0c-.46-.65-.27-1.82.44-3-.3-.21-.33-.79-.05-1.35S607.63,279.48,608,279.66Z"/><path class="cls-22" d="M612.41,279.49a1,1,0,0,0-.31-.62,1.14,1.14,0,0,0-.23-.15,1.55,1.55,0,0,0-.23-.08c-.87-.24-2.21.3-3.4,1.41a.54.54,0,0,0-.27-.39c-.34-.18-.86.15-1.16.73s-.25,1.14.05,1.35a4.92,4.92,0,0,0-.66,1.73,7.48,7.48,0,0,0,4.37-1.86A11,11,0,0,0,612.41,279.49Z"/><path class="cls-32" d="M610.57,281.61a7.48,7.48,0,0,1-4.37,1.86,1.8,1.8,0,0,0,.22,1.29l0,0a.75.75,0,0,0,.15.16c.88.76,2.42-.16,3.94-1.84,1.19-1.32,2-2.72,1.87-3.62A11,11,0,0,1,610.57,281.61Z"/><path class="cls-8" d="M608.29,276.12c.75-.69,2.59,1.41,3.39,1.26a1.1,1.1,0,0,1,1,.45,2.1,2.1,0,0,1,.42,1.48,1.18,1.18,0,0,1-1.25,1.08,7.37,7.37,0,0,0-1.51-.61c-1-.29-1.83,1.46-1.83,1.46l-.67-.13s.15-.51-.43-.39-1.61,1.53-1.61,1.53l-1.09-.11-.11,0a10,10,0,0,0,1.62-3.45s.21-.86.4-1.48S607.54,276.81,608.29,276.12Z"/><ellipse class="cls-22" cx="607.58" cy="281.03" rx="0.86" ry="0.61" transform="translate(68.19 677.49) rotate(-61.14)"/><path class="cls-8" d="M558.63,282.9a12.39,12.39,0,0,0-3.64,2,3.17,3.17,0,0,0-.5.47,3.77,3.77,0,0,0-.45.78l-.72,1.52a2.54,2.54,0,0,0-.29.92.82.82,0,0,0,.42.81,3.12,3.12,0,0,1,1.92-1.9,9.12,9.12,0,0,1,2.75-.47,13,13,0,0,1,1.8-1.84C560,284.73,558.8,283.47,558.63,282.9Z"/><path class="cls-8" d="M557.55,289a.55.55,0,0,0-.35-.1.65.65,0,0,0-.27.17,10.39,10.39,0,0,1-3.84,2.69c-.49,1.06-2,1.29-2.63,2.27a1.87,1.87,0,0,0,1.84.22,6.76,6.76,0,0,0,1.06-.71c1.48-1.05,3.42-1,5.23-1.13a.51.51,0,0,0,.28-.08A.48.48,0,0,0,559,292c0-.49.34-1.64.1-2.07S557.93,289.16,557.55,289Z"/><path class="cls-33" d="M588.05,289.45c-.24-.11-11.81-1.16-14.54-1l-14.94.64s-1.4,1.83,0,3.24c0,0,16.76,2.44,17,2.62s14.12-1.3,14.12-1.3S590.31,290.46,588.05,289.45Z"/><path class="cls-28" d="M573.37,294a11.34,11.34,0,0,0-3.88-2.9,94.48,94.48,0,0,1-9.26-6.38,1,1,0,0,0-.65-.26.79.79,0,0,0-.39.19,3.66,3.66,0,0,0-1.34,2.33,17.23,17.23,0,0,1,2.12,2.15,24.56,24.56,0,0,0,2.9,2.37,87.79,87.79,0,0,1,8,6.67,5.53,5.53,0,0,0,2.13,1.46,4.33,4.33,0,0,0,1.44.13c6.18-.15,11.77-3.52,17.71-5.28a8.05,8.05,0,0,0-.55-4.3c-1.74-3.58-5.59-1.78-8.44-.82C582.3,289.61,573.15,293.64,573.37,294Z"/><path class="cls-34" d="M591.6,290.14a3.52,3.52,0,0,0-3.81-2.11c-.2.51-.42,1-.67,1.52-1.67,3.3-4.83,6.1-8.52,6.28-1.19.06-2.38-.14-3.57-.14a4.73,4.73,0,0,0-3.3,1.11,9,9,0,0,0-3-4.09,25,25,0,0,0-3-1.21c-2.48-1.11-4-3.54-5.79-5.62-.3-.36-.64-.72-1-1.07a3.63,3.63,0,0,0-1.13,2.13,17.23,17.23,0,0,1,2.12,2.15,24.56,24.56,0,0,0,2.9,2.37,87.79,87.79,0,0,1,8,6.67,5.53,5.53,0,0,0,2.13,1.46,4.33,4.33,0,0,0,1.44.13c6.18-.15,11.77-3.52,17.71-5.28A8.05,8.05,0,0,0,591.6,290.14Z"/><path class="cls-28" d="M560,285.88c1.75,2.08,3.31,4.51,5.79,5.62a25,25,0,0,1,3,1.21,9,9,0,0,1,3,4.09,4.73,4.73,0,0,1,3.3-1.11c1.19,0,2.38.2,3.57.14,3.69-.18,6.85-3,8.52-6.28.25-.5.47-1,.67-1.52a20.53,20.53,0,0,0-4.63,1.29c-.86.29-10,4.32-9.79,4.64a11.34,11.34,0,0,0-3.88-2.9,94.48,94.48,0,0,1-9.26-6.38,1,1,0,0,0-.65-.26.79.79,0,0,0-.39.19c-.08.06-.14.14-.21.2C559.33,285.16,559.67,285.52,560,285.88Z"/><polyline class="cls-35" points="406.6 284.66 453.34 293.74 466.99 286.9 435.26 285.16"/><path class="cls-8" d="M435,279.8l2.28,3.39s-1.11,2.3-2,2c0,0-3.25.66-4.72.87l-.25-.77s3.65-2.23,3-4S435,279.8,435,279.8Z"/><path class="cls-7" d="M428.42,268.47c.38-1.71-1.31-15.89-1.31-15.89a7.33,7.33,0,0,0-4.53,1.5,7.25,7.25,0,0,0-1.75,1.82s3,8.66,4.15,13.08,6.76,13.66,6.76,13.66c.4.13,1.37-.3,1.7-.27,2.32.23,3.86-2.53,3.86-2.53C434.68,271.89,428.05,270.18,428.42,268.47Z"/><path class="cls-8" d="M413,280.34l.65,4.12s-2.25.9-2.9.2a10.69,10.69,0,0,1-4.12,0l.09-.8s4-1.11,4.22-3S413,280.34,413,280.34Z"/><path class="cls-7" d="M427.86,255.7c-.1-.45-.59-.82-1.29-1.14a11.36,11.36,0,0,0-5.74-.52s-7.77,6-8.52,11.23-3.43,16.26-3.43,16.26a11.11,11.11,0,0,0,3.43,1.1,10,10,0,0,0,3.09-.25s-1.12-6.27-.94-8.78,3.34-8.83,3.34-8.83,4.95-2.94,6.59-4.85C425.26,258.91,428.33,257.71,427.86,255.7Z"/><path class="cls-22" d="M431.85,230.9a.5.5,0,0,0-.45,0c.33-1.59.12-3-.52-3.64a.9.9,0,0,0-.18-.16,1,1,0,0,0-.23-.12c-1.07-.36-2.12,1.35-2.76,3.52s-.65,4,.42,4.32a.8.8,0,0,0,.21.05h0c.77.06,1.65-.7,2.29-1.92.33.15.83-.12,1.15-.65S432.18,231.1,431.85,230.9Z"/><path class="cls-22" d="M431.74,233.3a1.34,1.34,0,0,0-.44-.27.56.56,0,0,1,0-.12,2,2,0,0,0-.79-.2l-.06,0v0c-1,0-2,.53-1.81,1.15.34.95-.44,2.86-.44,2.86a3.7,3.7,0,0,0,2.07.69,2.47,2.47,0,0,0,1.24-.28C431,236.4,431.74,233.3,431.74,233.3Z"/><path class="cls-22" d="M418.34,228.15s-1.52-.71-1.62-2-.62-3.71-1.38-3-.53,2.65-.45,3.47,2.16,2.39,2.16,2.39Z"/><path class="cls-22" d="M414.46,229.15a3.08,3.08,0,0,1-.93-2.41c.28-1.21.56-3.72-.38-3.32s-1.31,2.31-1.5,3.12,1.32,3,1.32,3Z"/><path class="cls-36" d="M412.74,278.53a8.4,8.4,0,0,1,.42-6.61c.35-.68.8-1.32,1.14-2a7.37,7.37,0,0,0,.65-4.34,4.16,4.16,0,0,1-.09-1.75,3,3,0,0,1,1.09-1.4c2.11-1.77,4.56-3.17,6.41-5.21a9.51,9.51,0,0,0,2-3.24,13.42,13.42,0,0,0-3.49.07s-7.77,6-8.52,11.23-3.43,16.26-3.43,16.26a11.11,11.11,0,0,0,3.43,1.1,10,10,0,0,0,3.09-.25s0-.08,0-.2A8.4,8.4,0,0,1,412.74,278.53Z"/><path class="cls-7" d="M427.86,255.7c-.1-.45-.59-.82-1.29-1.14a7.88,7.88,0,0,0-2.25-.59,9.51,9.51,0,0,1-2,3.24c-1.85,2-4.3,3.44-6.41,5.21a3,3,0,0,0-1.09,1.4,4.16,4.16,0,0,0,.09,1.75,7.37,7.37,0,0,1-.65,4.34c-.34.69-.79,1.33-1.14,2a8.27,8.27,0,0,0,2.21,10.26,52.22,52.22,0,0,1-.91-8.58c.19-2.52,3.34-8.83,3.34-8.83s4.95-2.94,6.59-4.85C425.26,258.91,428.33,257.71,427.86,255.7Z"/><path class="cls-37" d="M430.59,237.08s-8.35-3.4-8.82-4.31-4.12-6.54-5-5.93a2.68,2.68,0,0,0-.94,1.81s4.31,6.43,4.68,7,4.5,2.91,4.5,2.91Z"/><path class="cls-32" d="M429.33,232.26a7.88,7.88,0,0,1,.94-5.33c-1-.11-2,1.5-2.56,3.54s-.65,4,.42,4.32a.8.8,0,0,0,.21.05h0a2.15,2.15,0,0,0,1.69-1,3.07,3.07,0,0,1-.41-.54A3.16,3.16,0,0,1,429.33,232.26Z"/><path class="cls-22" d="M431.74,233.3a1.34,1.34,0,0,0-.44-.27.56.56,0,0,1,0-.12,2,2,0,0,0-.79-.2l-.06,0v0a2.7,2.7,0,0,0-1.1.21l.22.21a1.72,1.72,0,0,1,.37.48,1.7,1.7,0,0,1,.06.95c-.11.92-.23,1.85-.37,2.77a3.11,3.11,0,0,0,.64.08,2.47,2.47,0,0,0,1.24-.28C431,236.4,431.74,233.3,431.74,233.3Z"/><path class="cls-22" d="M431.85,230.9a.5.5,0,0,0-.45,0c.33-1.59.12-3-.52-3.64a.9.9,0,0,0-.18-.16,1,1,0,0,0-.23-.12,1.5,1.5,0,0,0-.2,0,7.88,7.88,0,0,0-.94,5.33,3.16,3.16,0,0,0,.33,1,3.07,3.07,0,0,0,.41.54,5.22,5.22,0,0,0,.6-.92c.33.15.83-.12,1.15-.65S432.18,231.1,431.85,230.9Z"/><path class="cls-28" d="M433.1,239.31a6,6,0,0,0-1-1.33l-.66-1.49a5.29,5.29,0,0,0-3-.3c-1.31.4-1.4,1.31-1.4,1.31L421.4,235c-.66-.3-7.5-6.94-7.5-6.94s-1.31-.3-1.59,1.41c0,0,4.68,7.44,6.65,8.55a13,13,0,0,1,3.65,3.82l-3.09,9.52c-.17.48-.29.85-.33,1-.13.66-1.85,2.45-.57,3.6.95.85,3.27,1.64,5.19,2.17a7.8,7.8,0,0,0,1.78.46c1.68,0,3,.41,3.51-.48s.18-3.32.35-4.23c.41-2.3-.14-5.94.54-6.67C431.57,245.52,434.34,241.38,433.1,239.31Z"/><path class="cls-8" d="M434.64,228.81c.2-1-2.45-1.5-2.73-2.26a1.05,1.05,0,0,0-.89-.65,2,2,0,0,0-1.44.39,1.2,1.2,0,0,0-.28,1.62,6.74,6.74,0,0,1,1.26,1c.73.69-.3,2.31-.3,2.31l.44.51s.35-.39.54.17-.48,2.17-.48,2.17l.64.87.06.09a10,10,0,0,1,2.08-3.16s.61-.62,1-1.1S434.44,229.81,434.64,228.81Z"/><ellipse class="cls-22" cx="430.91" cy="231.94" rx="0.86" ry="0.59" transform="translate(23.28 502.71) rotate(-61.89)"/><path class="cls-8" d="M435.07,229.24c-.17,0-1.89-.4-2.1.88s1.21,2.35.71,4.7.08,5.86,2.9,6.11c0,0-1.26-.87,0-4S437.51,229.86,435.07,229.24Z"/><path class="cls-32" d="M430,233.61a1.72,1.72,0,0,0-.37-.48l-.22-.21c-.5.21-.85.56-.71.94.34.95-.44,2.86-.44,2.86a3.79,3.79,0,0,0,1.43.61c.14-.92.26-1.85.37-2.77A1.7,1.7,0,0,0,430,233.61Z"/><path class="cls-38" d="M424.48,255.29c-1.29-3.6-.29-7.55.42-11.31a5.58,5.58,0,0,0-.22-3.85,6,6,0,0,0-1.93-1.78,46.28,46.28,0,0,1-8.31-7,29.47,29.47,0,0,1-2-2.48,3.08,3.08,0,0,0-.15.55S417,236.89,419,238a13,13,0,0,1,3.65,3.82l-3.09,9.52c-.17.48-.29.85-.33,1-.13.66-1.85,2.45-.57,3.6.95.85,3.27,1.64,5.19,2.17a7.8,7.8,0,0,0,1.78.46l1.05.05A9,9,0,0,1,424.48,255.29Z"/><path class="cls-28" d="M429.1,258.11c.58-1,.18-3.32.35-4.23.41-2.3-.14-5.94.54-6.67,1.58-1.69,4.35-5.83,3.11-7.9a6,6,0,0,0-1-1.33l-.66-1.49a5.29,5.29,0,0,0-3-.3c-1.31.4-1.4,1.31-1.4,1.31L421.4,235c-.66-.3-7.5-6.94-7.5-6.94a1.27,1.27,0,0,0-1.44.86,29.47,29.47,0,0,0,2,2.48,46.28,46.28,0,0,0,8.31,7,6,6,0,0,1,1.93,1.78,5.58,5.58,0,0,1,.22,3.85c-.71,3.76-1.71,7.71-.42,11.31a9,9,0,0,0,2.16,3.35C427.8,258.72,428.68,258.81,429.1,258.11Z"/><path class="cls-22" d="M615.4,298.11s2.25,2.24,3.13,2.21,4.77,0,3.92.81-3.74,1.74-4.68,1.27a22,22,0,0,1-3.17-2.8Z"/><path class="cls-7" d="M617.65,299.18s-3.79-4.8-4.47-5.92-3.91-6.65-3.91-6.65l-2.85-4.29a3,3,0,0,0-.77-.4c-1.13-.42-3.47-.75-6.93,1.37-5,3.09-11.62,4-11.66,4.48a12.64,12.64,0,0,0,.69,2.94c.77,2.29,2.25,5,4.7,4.81,4-.34,13.2-5.72,13.2-5.72s3.63,3.71,4.72,5.16c1.37,1.83,4.87,6.26,4.87,6.26S617.84,300.36,617.65,299.18Z"/><path class="cls-39" d="M611.28,293.1a6.68,6.68,0,0,1-2-2c-.22-.52-.26-1.09-.43-1.63a4.11,4.11,0,0,0-3.31-2.64,6.49,6.49,0,0,0-4.25,1,10.51,10.51,0,0,1-2.91,1.6c-2.12.47-4.11-1.19-6.27-1.46a5.15,5.15,0,0,0-4.62,2c.07.24.14.48.23.73.77,2.29,2.25,5,4.7,4.81,4-.34,13.2-5.72,13.2-5.72s3.63,3.71,4.72,5.16,3.22,4.17,4.28,5.51c0-.36-.06-.72-.12-1.07A10.59,10.59,0,0,0,611.28,293.1Z"/><path class="cls-7" d="M617.65,299.18s-3.79-4.8-4.47-5.92-3.91-6.65-3.91-6.65l-2.85-4.29a3,3,0,0,0-.77-.4c-1.13-.42-3.47-.75-6.93,1.37-5,3.09-11.62,4-11.66,4.48a11.3,11.3,0,0,0,.46,2.21,5.15,5.15,0,0,1,4.62-2c2.16.27,4.15,1.93,6.27,1.46a10.51,10.51,0,0,0,2.91-1.6,6.49,6.49,0,0,1,4.25-1,4.11,4.11,0,0,1,3.31,2.64c.17.54.21,1.11.43,1.63a6.68,6.68,0,0,0,2,2,10.59,10.59,0,0,1,3.25,6.3c.06.35.08.71.12,1.07l.59.75S617.84,300.36,617.65,299.18Z"/><path class="cls-25" d="M635.75,293.57l-.51-.85.42-.27.54.84Zm2.11-1.51-.65-.76A15.91,15.91,0,0,0,638.6,290l.74.67A18.08,18.08,0,0,1,637.86,292.06Zm2.76-3-.81-.58a19,19,0,0,0,1-1.64l.87.48A17,17,0,0,1,640.62,289Zm2-3.59-.92-.39c.25-.58.47-1.2.67-1.83l.95.3A19,19,0,0,1,642.6,285.43Zm1.22-3.9-1-.21c.14-.63.25-1.28.33-1.93l1,.13Q644,280.54,643.82,281.53Zm.54-4-1-.06c0-.46,0-.93,0-1.39v-.57l1,0V276C644.4,276.52,644.39,277,644.36,277.49Zm-1.08-4c-.06-.65-.15-1.3-.26-1.94l1-.17c.11.67.2,1.34.27,2Zm-.66-3.87c-.12-.48-.25-1-.4-1.44l-.14-.44.95-.31.14.45q.24.75.42,1.5Zm-1.22-3.73c-.25-.6-.51-1.2-.8-1.8l.9-.43c.29.6.57,1.23.83,1.86Zm-1.71-3.54c-.33-.56-.67-1.13-1-1.67l.84-.55c.37.56.73,1.14,1.06,1.73Zm-24.83-2.54-.08-1a12.76,12.76,0,0,0,1.91-.28l.22,1A13.19,13.19,0,0,1,614.86,259.83Zm-2.08,0a11.25,11.25,0,0,1-2-.36l.26-1a11.35,11.35,0,0,0,1.88.33Zm24.73-.71c-.4-.52-.83-1-1.26-1.51l.74-.67c.45.5.89,1,1.31,1.57Zm-18.62-.18-.35-.93a15.53,15.53,0,0,0,1.76-.8l.47.88A15.19,15.19,0,0,1,618.89,258.93Zm-10.12-.22a9.87,9.87,0,0,1-1.76-1.15l.63-.77a9.74,9.74,0,0,0,1.58,1ZM622.53,257l-.59-.81a13.55,13.55,0,0,0,1.41-1.18l.76.65-.08.09A15.52,15.52,0,0,1,622.53,257Zm12.35-.79c-.48-.45-1-.88-1.48-1.28l.63-.78c.52.42,1,.87,1.54,1.34Zm-26.17-.27-.76-.65a14.37,14.37,0,0,1,1.46-1.46l.66.75A14.55,14.55,0,0,0,608.71,255.93Zm16.79-1.79-.77-.63c.4-.49.79-1,1.16-1.57l.83.56A19.92,19.92,0,0,1,625.5,254.14Zm6.32-.37c-.54-.36-1.11-.7-1.67-1l.47-.88a19.76,19.76,0,0,1,1.75,1.05Zm-20.21-.37-.56-.84a17.21,17.21,0,0,1,1.78-1l.45.89A17,17,0,0,0,611.61,253.4Zm16.77-1.47-.66-.26a11.46,11.46,0,0,0-1.17-.39l.28-1,.35.1-.29-.15c.31-.56.6-1.16.87-1.76l.91.4c-.26.6-.55,1.18-.84,1.73l.24.09.7.28Zm-13.31-.28-.35-.93a16.59,16.59,0,0,1,2-.6l.24,1A16.63,16.63,0,0,0,615.07,251.65Zm9.59-.82a18.13,18.13,0,0,0-1.93-.23l.07-1a19.74,19.74,0,0,1,2,.25Zm-5.82-.11-.14-1a20.23,20.23,0,0,1,2-.17l0,1C620.13,250.58,619.48,250.64,618.84,250.72ZM629.43,247l-.94-.34c.22-.62.43-1.25.62-1.88l1,.29C629.87,245.75,629.66,246.39,629.43,247Zm1.17-3.88-1-.24c.16-.65.3-1.29.44-1.94l1,.21C630.91,241.83,630.76,242.49,630.6,243.15Zm.84-4-1-.08c.12-.71.22-1.34.3-2l1,.13C631.64,237.85,631.54,238.49,631.44,239.12Zm.49-3.94-1-.08c0-.65.09-1.31.1-2l1,0C632,233.84,632,234.51,631.93,235.18Zm-.91-4c0-.67-.08-1.32-.16-1.95l1-.13c.09.66.14,1.34.17,2Zm-24.16-.87,0-1a8.92,8.92,0,0,0,1.86-.28l.26,1A9.14,9.14,0,0,1,606.86,230.3Zm-2.14-.27a3.88,3.88,0,0,1-1.89-1.24l.79-.63a2.81,2.81,0,0,0,1.4.92Zm6.19-.78-.44-.9a8.4,8.4,0,0,0,1.21-.72l.39-.3.61.8-.41.31A9,9,0,0,1,610.91,229.25Zm19.63-2a17,17,0,0,0-.53-1.87l1-.32a18.4,18.4,0,0,1,.55,2Zm-16.3-.48-.68-.73c.48-.45.94-.91,1.38-1.4l.74.67C615.22,225.86,614.74,226.35,614.24,226.81Zm-12.19-.16a1.48,1.48,0,0,1,0-.21,4.55,4.55,0,0,1,.48-2l.9.43a3.63,3.63,0,0,0-.38,1.54v.15ZM617,223.78l-.8-.61c.39-.51.76-1,1.11-1.6l.85.53C617.77,222.68,617.38,223.24,617,223.78Zm12.29-.14a12.43,12.43,0,0,0-1-1.65l.82-.58a14.41,14.41,0,0,1,1.06,1.78Zm-24.8-.27-.75-.65a11.64,11.64,0,0,1,1.22-1.21l.27-.23.64.76-.25.22A12,12,0,0,0,604.47,223.37Zm-25.66-.79a9.41,9.41,0,0,1-2.08-.33l.27-1a8.12,8.12,0,0,0,1.86.3Zm2.09-.09-.14-1a9.51,9.51,0,0,0,1.84-.45l.34,1A11.69,11.69,0,0,1,580.9,222.49Zm-6.13-1.06a7.51,7.51,0,0,1-1.67-1.34l.73-.68a6.23,6.23,0,0,0,1.45,1.15Zm10.06-.33-.51-.86.35-.22a12.92,12.92,0,0,0,1.19-.91l.66.75a13.39,13.39,0,0,1-1.29,1Zm22.57-.24-.57-.83c.56-.38,1.15-.75,1.74-1.08l.49.87C608.49,220.14,607.94,220.49,607.4,220.86Zm19.65-.33c-.2-.21-.41-.4-.63-.59s-.55-.45-.83-.65l.58-.81a9.89,9.89,0,0,1,.9.7c.24.21.47.42.69.64Zm-7.89-.2-.89-.46q.45-.87.84-1.77l.92.39C619.76,219.11,619.47,219.73,619.16,220.33Zm-8.36-1.4-.41-.91c.63-.28,1.27-.54,1.9-.76l.33,1C612,218.42,611.4,218.66,610.8,218.93ZM588,218.38l-.77-.65a15.57,15.57,0,0,0,1.15-1.55l.84.54A16.15,16.15,0,0,1,588,218.38Zm36,0a11,11,0,0,0-1.79-.67l.27-1a13,13,0,0,1,2,.72Zm-52,0a7.48,7.48,0,0,1-.66-2l1-.18a7.33,7.33,0,0,0,.57,1.77Zm42.59-.66-.23-1c.67-.16,1.35-.29,2-.38l.13,1A18.76,18.76,0,0,0,614.49,217.66Zm5.78-.38a15.22,15.22,0,0,0-1.79-.11h-.15v-1h.14c.45,0,.9,0,1.34.06.2-.61.38-1.23.53-1.85l1,.24c-.16.66-.35,1.32-.56,2l-.38-.13Zm-30.06-2.35-.9-.44c.28-.56.55-1.17.79-1.79l.94.37C590.78,213.72,590.5,214.35,590.21,214.93Zm-18.12-.69-1,0a10.65,10.65,0,0,1,.3-2.08l1,.24A10.27,10.27,0,0,0,572.09,214.24Zm49.63-1.62-1-.16c.11-.64.18-1.3.24-2l1,.08C621.91,211.27,621.83,212,621.72,212.62Zm-30-1.48-1-.29c.16-.52.3-1,.43-1.55l.08-.35,1,.23-.09.36C592,210.07,591.87,210.61,591.7,211.14ZM573,210.57l-.91-.42a11.55,11.55,0,0,1,.7-1.3l.34-.51.82.57c-.11.16-.21.32-.31.48A8.87,8.87,0,0,0,573,210.57Zm48-2c0-.66,0-1.32-.09-2l1-.09c.06.67.09,1.36.09,2Zm-45.88-1.14-.73-.69a17,17,0,0,1,1.5-1.41l.64.77A16.42,16.42,0,0,0,575.16,207.42Zm17.49-.23-1-.17c.11-.65.21-1.3.29-2l1,.12C592.87,205.86,592.77,206.53,592.65,207.19Zm-14.53-2.28-.56-.82c.53-.37,1.11-.74,1.71-1.1l.51.87C579.2,204.2,578.64,204.55,578.12,204.91Zm42.57-.25c-.12-.64-.26-1.28-.43-1.9l1-.27c.18.65.33,1.32.46,2Zm-27.54-1.49-1-.07c.05-.65.08-1.31.09-2l1,0C593.23,201.82,593.2,202.5,593.15,203.17Zm-11.64-.27L581,202l.16-.08c.54-.29,1.09-.56,1.65-.83l.43.91q-.82.39-1.62.81Zm3.57-1.72-.4-.92c.61-.27,1.24-.53,1.86-.77l.37.93C586.29,200.66,585.69,200.91,585.08,201.18Zm34.58-.27a10.65,10.65,0,0,0-.83-1.72l.84-.53a10.41,10.41,0,0,1,.92,1.89Zm-30.89-1.19-.34-.94c.63-.23,1.27-.45,1.91-.65l.3,1C590,199.28,589.39,199.49,588.77,199.72Zm3.45-.56c0-.66-.06-1.32-.12-2l1-.09a1.64,1.64,0,0,0,0,.22l1.1-.28.24,1c-.43.1-.85.21-1.27.33l0,.78Zm25.41-1.33-.2-.15A5.1,5.1,0,0,0,616,197l.28-1a6,6,0,0,1,1.69.78l.25.19Zm-21.24-.26-.2-1c.66-.14,1.32-.26,2-.38l.17,1C597.69,197.31,597,197.44,596.39,197.57Zm3.91-.68-.14-1q1-.14,2-.24l.1,1C601.61,196.72,601,196.8,600.3,196.89Zm13.84-.22-.51,0-1.46-.13.07-1c.5,0,1,.07,1.49.12l.52.06Zm-9.9-.18-.06-1c.67-.05,1.34-.08,2-.1l0,1C605.57,196.41,604.9,196.44,604.24,196.49Zm6-.1c-.66,0-1.32,0-2,0v-1c.67,0,1.34,0,2,0Zm-18.31-1.16c-.09-.65-.2-1.3-.32-1.95l1-.19c.12.66.24,1.33.33,2Zm-.75-3.88c-.15-.64-.33-1.27-.52-1.9l1-.29c.19.64.37,1.3.53,2ZM590,187.57c-.22-.62-.46-1.23-.71-1.84l.92-.38c.26.62.51,1.25.73,1.88Zm-1.52-3.64c-.29-.59-.59-1.17-.91-1.75l.88-.48q.48.88.93,1.8Zm-1.91-3.45c-.35-.55-.71-1.1-1.09-1.64l.81-.58c.4.56.77,1.12,1.13,1.69Z"/></g></svg>