<svg xmlns="http://www.w3.org/2000/svg" xmlns:xlink="http://www.w3.org/1999/xlink" viewBox="0 0 841.89 498.27"><defs><style>.cls-1{opacity:0.48;fill:url(#Naamloos_verloop_53);}.cls-2{fill:#e8366b;}.cls-3{fill:#fff;}.cls-4{fill:#611831;}.cls-5,.cls-6,.cls-7,.cls-8{opacity:0.5;}.cls-5{fill:url(#Naamloos_verloop_46);}.cls-6{fill:url(#Naamloos_verloop_46-2);}.cls-7{fill:url(#Naamloos_verloop_46-3);}.cls-8{fill:url(#Naamloos_verloop_46-4);}</style><linearGradient id="Naamloos_verloop_53" x1="413.82" y1="-108.79" x2="424.25" y2="454.33" gradientUnits="userSpaceOnUse"><stop offset="0.46" stop-color="#e8366b"/><stop offset="0.54" stop-color="#e8396d" stop-opacity="0.98"/><stop offset="0.61" stop-color="#e84273" stop-opacity="0.93"/><stop offset="0.68" stop-color="#e8517e" stop-opacity="0.85"/><stop offset="0.75" stop-color="#e8658c" stop-opacity="0.73"/><stop offset="0.81" stop-color="#e8809f" stop-opacity="0.58"/><stop offset="0.88" stop-color="#e8a1b6" stop-opacity="0.4"/><stop offset="0.95" stop-color="#e8c7d1" stop-opacity="0.18"/><stop offset="1" stop-color="#e8e8e8" stop-opacity="0"/></linearGradient><linearGradient id="Naamloos_verloop_46" x1="-45.83" y1="373.38" x2="341.26" y2="312.77" gradientUnits="userSpaceOnUse"><stop offset="0.02" stop-color="#1d1d1b"/><stop offset="0.48" stop-color="#2e1f22" stop-opacity="0.92"/><stop offset="0.74" stop-color="#672638" stop-opacity="0.64"/><stop offset="0.95" stop-color="#c8325e" stop-opacity="0.16"/><stop offset="1" stop-color="#e8366b" stop-opacity="0"/></linearGradient><linearGradient id="Naamloos_verloop_46-2" x1="206.28" y1="351.2" x2="305.69" y2="335.63" xlink:href="#Naamloos_verloop_46"/><linearGradient id="Naamloos_verloop_46-3" x1="195.41" y1="370.92" x2="522.87" y2="319.65" xlink:href="#Naamloos_verloop_46"/><linearGradient id="Naamloos_verloop_46-4" x1="377.39" y1="362.81" x2="713.51" y2="310.18" xlink:href="#Naamloos_verloop_46"/></defs><title>illustratie_6</title><g id="Mensen"><path class="cls-1" d="M786.34,410.21c1.75-1.54,3.48-3.1,5.14-4.72,6.56-6.41,12.52-13.73,15.57-22.38,4-11.27,2.62-23.79-.73-35.26-15.06-51.47-67.61-87.66-75-140.78-3.08-22.16,2.2-45.38-4.5-66.73C719,115.23,695.32,97.44,670,90.19s-52.26-5.5-78.38-2.28c-21.46,2.65-43.31,6.25-64.52,2-22.46-4.44-42.75-17.16-65.66-19.65-10.77-1.17-18.74,1.87-28.84,4.4-12.24,3.07-25,3.67-37.6,3.47-14.68-.25-29.3-1.73-44-2.42-30.77-1.46-65,2.28-85.84,25-6.63,7.22-11.45,16-18.13,23.12-20.32,21.78-52.92,25-81.41,33.71-37.56,11.48-73.93,38.59-81.19,77.19-2.06,11-1.67,22.29-3.73,33.27-6.29,33.44-34.23,59.29-42.38,92.33-4.16,16.85-2.57,33.88,3.17,49.84Z"/><polygon class="cls-2" points="702.15 295.01 697.44 296.05 709.55 420.15 714.26 419.11 702.15 295.01"/><path class="cls-3" d="M686.59,356.25l28.27,1.33c1.27-5.44,1.22-11.08,1.08-16.66-.06-2.27-.43-5-2.51-5.9a6.12,6.12,0,0,0-3.21-.15L687.09,338a18.65,18.65,0,0,0-5.64,1.38c-2.89,1.39-7.62,6.32-5.8,9.76.83,1.57,3.47,2.37,4.84,3.36C682.59,354,683.84,356.12,686.59,356.25Z"/><path class="cls-4" d="M466.33,197.86a12.89,12.89,0,0,0-13.53-10.65c-3.05-4.47-9.1-5.77-14.51-5.52-6.42.3-13.21,2.62-16.81,7.95a30.13,30.13,0,0,0-3.32,8c-1.73,5.52-3.62,11.06-6.68,16s-7.44,9.17-12.89,11.12c2.38,12.36,19.26,23.44,31.83,24,.51-9.49.22-19.15,5.15-27.28a22.23,22.23,0,0,1,2.91-4.08c2.23-2.28,5.33-3.49,8.39-4.41,4.39-1.32,10.34-.59,14.05-3.19A12.86,12.86,0,0,0,466.33,197.86Z"/><path class="cls-2" d="M242.05,235.39s-29.32,11.55-33.47,16.29-23.69,78.78-22.51,83.23S221,350,221,350a111.38,111.38,0,0,1,1.53,15.11c0,5.93-6.13,41.79-6.13,41.79s38.42,27.81,70.11,2.63v-9.18s11.68,3.2,13-3.55c.29-1.48-.3-74.93,0-76.42s-4.15-64-5.93-66.63-30.21-18.37-30.21-18.37A108.56,108.56,0,0,0,242.05,235.39Z"/><path class="cls-5" d="M251,397c3.3-10.49,11.06-19.11,14.53-29.54A39.78,39.78,0,0,0,254.18,326c-4.74-4.15-10.53-7.18-14.49-12.08-9.23-11.44-5.32-28.7,2.24-41.3,7.39-12.32,17.84-23,22.56-36.57l-1.12-.62a108.56,108.56,0,0,0-21.32,0s-29.32,11.55-33.47,16.29-23.69,78.78-22.51,83.23S221,350,221,350a111.38,111.38,0,0,1,1.53,15.11c0,5.93-6.13,41.79-6.13,41.79s15.3,11.07,34.56,12.91A39.57,39.57,0,0,1,251,397Z"/><path class="cls-2" d="M299.51,320.39c.29-1.48-4.15-64-5.93-66.63-1.56-2.35-23.83-14.82-29.09-17.75-4.72,13.53-15.17,24.25-22.56,36.57-7.56,12.6-11.47,29.86-2.24,41.3,4,4.9,9.75,7.93,14.49,12.08a39.78,39.78,0,0,1,11.3,41.48C262,377.87,254.25,386.49,251,397a39.57,39.57,0,0,0,0,22.84c11.25,1.08,23.86-1,35.55-10.28v-9.18s11.68,3.2,13-3.55C299.8,395.33,299.21,321.88,299.51,320.39Z"/><path class="cls-6" d="M289.24,341.33c-1.54-9.92-5.18-19.41-6.91-29.29-2.5-14.31-1-29.12-3.82-43.36-.31-1.55-1-3.41-2.6-3.56a3.57,3.57,0,0,0-2.63,1.35c-3.62,3.68-5.68,8.65-6.76,13.69-5.29,24.74,11.17,48.65,14.27,73.76,1,8.3.57,16.72,0,25.07q-1.27,18.18-3.35,36.3a50.37,50.37,0,0,0,9.06-5.75v-9.18s.29.08.79.19C287,380.78,292.26,360.89,289.24,341.33Z"/><path class="cls-2" d="M299.51,320.39c.29-1.48-4.15-64-5.93-66.63-1.56-2.35-23.83-14.82-29.09-17.75-4.72,13.53-15.17,24.25-22.56,36.57-7.56,12.6-11.47,29.86-2.24,41.3,4,4.9,9.75,7.93,14.49,12.08a39.78,39.78,0,0,1,11.3,41.48C262,377.87,254.25,386.49,251,397a39.57,39.57,0,0,0,0,22.84,48.83,48.83,0,0,0,26.49-4.53q2.07-18.1,3.35-36.3c.59-8.35,1-16.77,0-25.07-3.1-25.11-19.56-49-14.27-73.76,1.08-5,3.14-10,6.76-13.69a3.57,3.57,0,0,1,2.63-1.35c1.58.15,2.29,2,2.6,3.56,2.86,14.24,1.32,29.05,3.82,43.36,1.73,9.88,5.37,19.37,6.91,29.29,3,19.56-2.29,39.45-2,59.22,2.65.58,11.1,1.94,12.24-3.74C299.8,395.33,299.21,321.88,299.51,320.39Z"/><path class="cls-4" d="M221.05,184.8a6.22,6.22,0,0,1,6.64-7c-.35-4.34,2.66-8.41,6.47-10.51s8.29-2.56,12.63-2.71c3.36-.11,6.72-.06,10.06.16,2.45.15,5.21.58,6.6,2.59,1.65,2.4.62,6,2.53,8.23a9.61,9.61,0,0,0,3.71,2.11,11.7,11.7,0,0,1,5.55,4.41,6.58,6.58,0,0,1,.19,6.84c-.68,1-1.72,1.83-2.29,2.93-1,1.93-.32,4.31.7,6.23s2.41,3.71,2.89,5.84a7.43,7.43,0,0,1-1.77,6.55c-1.51,1.64-3.82,2.66-4.66,4.73s.17,4.65-.62,6.81c-1,2.7-4.42,3.66-7.28,3.36-2.62-.28-5.49-1.23-7.7.19-.55.34-1,.82-1.57,1.14-2.7,1.52-6-1.3-6.86-4.28s-.47-6.28-1.71-9.12c-1.37-3.15-4.44-5.13-7.13-7.26s-5.32-5-5.13-8.45c.2-3.67,2.2-7.23-2.49-8.12C226.31,188.86,222,189.64,221.05,184.8Z"/><ellipse class="cls-3" cx="241.16" cy="202.81" rx="13.33" ry="24.88"/><path class="cls-4" d="M234.69,188.06l5.17-.33c1.81-.11,3.86-.15,5.14,1.13a6.44,6.44,0,0,1,1.43,3.49l1.45,7.46a2.32,2.32,0,0,0,.37,1,2.46,2.46,0,0,0,1.69.75l6.16,1a5.4,5.4,0,0,0,3.19-.13,5.07,5.07,0,0,0,2.15-2.78c2-4.65,2.92-10.23.43-14.63a15.25,15.25,0,0,0-6.68-5.82,32.18,32.18,0,0,0-16-3,14,14,0,0,0-4.6.85c-2.13.88-5.23,1.94-6.34,3.94C226.28,184.58,231.91,188.24,234.69,188.06Z"/><path class="cls-3" d="M255.23,205.78S261,236,265.74,238.65c0,0-13.92,16.59-29.61,4.44,0,0,4.44-6.22,2.37-24S255.23,205.78,255.23,205.78Z"/><ellipse class="cls-3" cx="255.23" cy="202.07" rx="5.18" ry="7.26"/><path class="cls-3" d="M238.5,235.62s-5.63,2.55-8.59,3.09-19,8.83-19,8.83-21.18,88-21.1,90.47,35,16.44,39.47,15.56,14.54.29,13.49-16.59S238.5,235.62,238.5,235.62Z"/><path class="cls-3" d="M282.56,407.54a11.23,11.23,0,0,0-.33,3.73c.12.8.4,1.56.59,2.34,1,4.42-1.08,9.57,1.12,13.43,1.73,3,5.35,3.84,8.57,4.36a3.63,3.63,0,0,0,1.88,0,3,3,0,0,0,1.3-1.09c1.26-1.72,1.59-4,1.81-6.22a108.12,108.12,0,0,0-.66-26.66c-3.52.92-7.69,0-11,.94-1.91.58-1.63,1-2.13,3.5C283.33,403.74,283,405.64,282.56,407.54Z"/><path class="cls-2" d="M433.18,240.13s-28.53,11.26-33,17.77-15.41,59.83-10.37,63.38,21.62,7.82,21.62,7.82l-8.21,83.75s43.38,18.66,65.19-4.12c0,0-4.85-69.38-.71-78s15.7-39.59,15.4-56.08S433.18,240.13,433.18,240.13Z"/><path class="cls-7" d="M422.6,338.92a5.8,5.8,0,0,1,1.17-2.14c1-1,2.64-1.2,4.1-1.33A80.16,80.16,0,0,0,464,323.1c2.45-1.57,5-4.76,3.15-7a130.06,130.06,0,0,1-43,7.12c-6.74,0-14.31-1-18.44-6.33-3.12-4-3.43-9.49-3.37-14.57a159.81,159.81,0,0,1,9.75-52.68c-5.44,2.85-10.24,5.85-11.85,8.21-4.45,6.52-15.4,59.83-10.37,63.38s21.62,7.82,21.62,7.82l-8.21,83.75s17.69,7.61,36.16,7.17a78.33,78.33,0,0,1-14.88-22.17A79.54,79.54,0,0,1,422.6,338.92Z"/><path class="cls-2" d="M467.73,330.76c4.15-8.59,15.7-39.59,15.4-56.08s-49.95-34.55-49.95-34.55-11.56,4.57-21.12,9.56a159.81,159.81,0,0,0-9.75,52.68c-.06,5.08.25,10.56,3.37,14.57,4.13,5.32,11.7,6.3,18.44,6.33a130.06,130.06,0,0,0,43-7.12c1.9,2.19-.7,5.38-3.15,7a80.16,80.16,0,0,1-36.11,12.35c-1.46.13-3.07.28-4.1,1.33a5.8,5.8,0,0,0-1.17,2.14,79.54,79.54,0,0,0,1.93,58.93A78.33,78.33,0,0,0,439.41,420c10.45-.24,21.15-3.06,29-11.29C468.44,408.73,463.59,339.35,467.73,330.76Z"/><path class="cls-2" d="M475.7,254.42a6.13,6.13,0,0,1,2.93-1.16c2.83-.46,6,0,8,2.11a10,10,0,0,1,2.23,6.36A16.23,16.23,0,0,1,488,268a12.38,12.38,0,0,1-9.32,7.82,7.19,7.19,0,0,1-3.93-.29,6.52,6.52,0,0,1-3.58-5.41,15.74,15.74,0,0,1,1.13-6.65C473.17,261.14,473.67,256.11,475.7,254.42Z"/><path class="cls-3" d="M464.3,268.57a11.05,11.05,0,0,1,6.3-10.34,18.53,18.53,0,0,1,4.76-1.29c1.83-.31,3.79-.54,5.47.26s2.8,3,1.81,4.58a1.87,1.87,0,0,1-.64.64,8.87,8.87,0,0,1-1.55.43,2.26,2.26,0,0,0,.63,4.4,12,12,0,0,1-7.2,5.2"/><path class="cls-3" d="M449.43,318.2a18.35,18.35,0,0,0,5.54-.48,16.89,16.89,0,0,0,4.84-2.67,52.18,52.18,0,0,0,8.91-7.74c5.59-6.32,8.68-14.41,11.67-22.3,1.13-3,2.28-6.12,2.05-9.32-.5-7.18-8.16-12.25-15.36-12.16s-13.78,4.05-19.4,8.54c-9,7.16-16.53,15.93-23.34,25.16-2.32,3.16-4.75,6.74-5.31,10.71-.66,4.69,2,5.52,6,7C432.74,317.91,441.24,318.07,449.43,318.2Z"/><path class="cls-3" d="M457.32,319.33a2.43,2.43,0,0,1,0-1.23,2.41,2.41,0,0,1,1.31-1c3.76-1.85,6.13-5.7,9.64-8,.73-.47,1.74-.86,2.39-.29a2,2,0,0,1,.54,1.36,15.27,15.27,0,0,1-2.71,10.08,22.71,22.71,0,0,1-7.94,7c-2,1.08-7.28,3.79-6.43-.24C454.76,324.12,457.74,323,457.32,319.33Z"/><ellipse class="cls-3" cx="435.6" cy="212.49" rx="5.18" ry="7.21"/><path class="cls-3" d="M454.26,196.07a10.32,10.32,0,0,0-9.23,2.81,8.9,8.9,0,0,0-2.14,8.39c-5,1-8.27,5.26-9.29,9.56a16.61,16.61,0,0,0,2.69,13.31,11.88,11.88,0,0,0,4.53,4,8.07,8.07,0,0,0,6.33.37c2.47-1,3.73-3.37,4.73-5.56a119.15,119.15,0,0,0,6.9-19.36C460.08,204.65,462.32,197.75,454.26,196.07Z"/><path class="cls-4" d="M604.07,229.64c-.06-3.47-4.63-4.62-7.1-7-4-3.94-2.2-11.26-5.87-15.51-1.78-2.07-4.6-3.07-6.21-5.26-2.48-3.37-1.22-8.17.8-11.84,3.77-6.85,9.69-12.24,15.5-17.48a29.78,29.78,0,0,1,7-5.19,22.47,22.47,0,0,1,7.68-1.86c4.72-.43,9.64-.06,13.87,2.07s7.65,6.25,8,11a6.61,6.61,0,0,0,.56,2.95c.39.65,1,1.11,1.35,1.79a4,4,0,0,1-.19,2.75c-1.73,5.45-4.1,11.6-9.5,13.5-3.35,1.18-7,.35-10.58.3s-7.69,1.18-8.88,4.53c-.64,1.81-.24,3.8.16,5.68-3.42,2.33.45,6.79,1,10.89.37,2.83-2.2,5.87-2,8.4C609.9,232.71,606.34,230.69,604.07,229.64Z"/><path class="cls-3" d="M428,235.62c-1.19,7.24-4,16-2.36,23.06a13.92,13.92,0,0,0,2.46,5.82c2.13,2.52,5.29,2.68,8.16,2.7,2.19,0,5-.5,5.58-3.25.48-2.14-.72-4.22-1.5-6.2-1.47-3.7-1.58-8-1.65-12.21-.14-7.39-.17-15.29,2.89-21.52,1.06-2.15-5.74-9-7.95-7.19C430.12,219.76,428.77,230.79,428,235.62Z"/><path class="cls-2" d="M684.23,335.2c-.57,0-9.31-.27-20.92-.64,0-24.41-.21-45.58-.7-47-1.18-3.55-15.69-41.17-18.06-43.54s-28-10.65-28-10.65h-2.16c-2.3,2.21-5.73,2.61-8.85,3.34-14.16,3.35-17.5,8-29.38,16.45a8.74,8.74,0,0,0-3,2.93,8,8,0,0,0-.48,4.14c1.88,27.43,7.65,60.43,9.55,87.86.26,3.71.33,7.5,1.57,11s3.93,6.76,7.57,7.51c0,0,1.93,44.47,3.12,44.47s48,15.4,68.71,0c0,0,.14-24.85.17-52.26l21.33-3S694.7,335.2,684.23,335.2Z"/><path class="cls-8" d="M616.26,412.72a74,74,0,0,0-3.43-19.24c-2.54-8-6.32-17.15-1.73-24.17,3.88-5.92,11.9-7.16,18.95-7.85l23.54-2.28c2.49-.24,5.08-.51,7.22-1.83s3.64-4,2.8-6.35c-16.31-2.13-32.91,5.38-49.06,2.28-3.69-.71-7.39-2-10.06-4.68a16.42,16.42,0,0,1-4.32-9c-1.38-8.23,1.92-16.55,6.22-23.7s9.66-13.69,13.09-21.29a47.8,47.8,0,0,0,1.15-36c-2.67-7.09-7-13.41-10.83-19.94-.51-.87-1-1.75-1.51-2.63l-2.79.61c-14.16,3.35-17.5,8-29.38,16.45a8.74,8.74,0,0,0-3,2.93,8,8,0,0,0-.48,4.14c1.88,27.43,7.65,60.43,9.55,87.86.26,3.71.33,7.5,1.57,11s3.93,6.76,7.57,7.51c0,0,1.93,44.47,3.12,44.47.52,0,9.79,3,21.79,5A30.24,30.24,0,0,0,616.26,412.72Z"/><path class="cls-2" d="M684.23,335.2c-.57,0-9.31-.27-20.92-.64,0-24.41-.21-45.58-.7-47-1.18-3.55-15.69-41.17-18.06-43.54s-28-10.65-28-10.65h-2.16a12.42,12.42,0,0,1-6.06,2.73c.49.88,1,1.76,1.51,2.63,3.84,6.53,8.16,12.85,10.83,19.94a47.8,47.8,0,0,1-1.15,36c-3.43,7.6-8.8,14.14-13.09,21.29s-7.6,15.47-6.22,23.7a16.42,16.42,0,0,0,4.32,9c2.67,2.64,6.37,4,10.06,4.68,16.15,3.1,32.75-4.41,49.06-2.28.84,2.36-.67,5-2.8,6.35s-4.73,1.59-7.22,1.83l-23.54,2.28c-7,.69-15.07,1.93-18.95,7.85-4.59,7-.81,16.18,1.73,24.17a74,74,0,0,1,3.43,19.24,30.24,30.24,0,0,1,0,3.29c15.39,2.6,35.27,3.68,46.92-5,0,0,.14-24.85.17-52.26l21.33-3S694.7,335.2,684.23,335.2Z"/><ellipse class="cls-3" cx="622.48" cy="201.51" rx="15.34" ry="24.88" transform="matrix(0.96, -0.29, 0.29, 0.96, -31.65, 187.26)"/><path class="cls-3" d="M608,209s3.38,30.52-.21,34.38c0,0,13.1,11.3,22.88-1.48,0,0-.27-7.15-3.47-24.75S608,209,608,209Z"/><path class="cls-4" d="M609.6,187.21l14.88-6.42a5.81,5.81,0,0,1,3.24-.69c1.45.27,2.71,1.65,4.15,1.34a11.35,11.35,0,0,0-5.48-5.85,20,20,0,0,0-21.48,1.67,10.25,10.25,0,0,0-3,3.49c-2,4.1.44,12.91,3.17,16.42,1.28,1.65,3.59,2.36,5.23.12C611.6,195.51,609.63,189.81,609.6,187.21Z"/><path class="cls-4" d="M603.23,196.34l11.92.43s7.75-1.47,10.5,0l2.68-.16a9.62,9.62,0,0,1,7.8-1.53l2.07.52.87,4.5s1.78,8-1,8.46-8-3.4-9-6.93l-2.79.28s.34,10.63-5.85,9.44-9-3.92-8.39-11.05l-6.43-2.18A6.16,6.16,0,0,0,603.23,196.34Z"/><ellipse class="cls-3" cx="603.94" cy="205.27" rx="5.82" ry="8.95" transform="translate(-33.91 199.67) rotate(-18.27)"/><circle class="cls-3" cx="153.36" cy="215.39" r="15.6"/><circle class="cls-3" cx="173.69" cy="253.51" r="10.08"/><circle class="cls-3" cx="344.41" cy="132.09" r="10.08"/><circle class="cls-3" cx="354.49" cy="169.09" r="10.08"/><circle class="cls-3" cx="529.08" cy="122.9" r="10.08"/><circle class="cls-3" cx="589.77" cy="132.35" r="10.08"/><circle class="cls-3" cx="644.42" cy="113.39" r="10.08"/></g></svg>