<svg width="65" height="47" viewBox="0 0 65 47" fill="none" xmlns="http://www.w3.org/2000/svg">
<path d="M21.1404 43.9041L19.8534 40.3898C19.111 40.7858 17.8241 41.8747 14.8542 41.8747C11.8844 41.8747 10.6304 39.5318 10.6964 38.3604V11.1369C12.9931 11.1369 15.2172 14.0407 15.9927 15.4432C19.4245 21.3663 26.6445 33.8759 28.466 36.925C30.7428 40.7363 36.534 45.9335 44.6516 45.9335C59.3523 45.9335 64.5 33.4602 64.5 25.6396C64.5 17.819 57.8674 6.53364 44.6516 6.53364C34.079 6.53364 27.608 15.1132 25.8426 19.6999C26.3541 20.3434 28.3175 23.2538 29.9014 25.1941C29.9014 16.9281 38.0189 11.1369 44.6516 11.1369C50.6408 11.1369 59.8968 15.9381 59.8968 25.6396C59.8968 35.3411 52.7196 41.4787 44.6516 41.4787C38.1971 41.4787 34.1576 38.0634 32.3268 35.0441C27.6245 27.2895 18.2497 11.4636 16.3886 9.60248C14.5275 7.74138 11.6534 7.06161 10.6964 7.02862V0H6.83565V7.02862H0.5V10.9884H6.83565V39.5978C6.83565 42.1717 10.0035 46.2305 14.2107 46.2305C16.9331 46.2305 20.1669 44.6796 21.1404 43.9041Z" fill="black"/>
<circle cx="45" cy="27" r="5" fill="#B71F14"/>
</svg>
