<svg xmlns="http://www.w3.org/2000/svg" xmlns:xlink="http://www.w3.org/1999/xlink" viewBox="0 0 841.89 498.27"><defs><style>.cls-1{fill:none;}.cls-2,.cls-4{opacity:0.48;}.cls-2{fill:url(#Naamloos_verloop_53);}.cls-3{fill:#73b4d8;}.cls-4{fill:url(#Naamloos_verloop_53-2);}.cls-5{fill:url(#Naamloos_verloop_107);}.cls-6{fill:#cbe7f4;}.cls-7{fill:#611831;}.cls-8{fill:url(#Naamloos_verloop_107-2);}.cls-9{fill:url(#Naamloos_verloop_107-3);}.cls-10{fill:url(#Naamloos_verloop_107-4);}.cls-11{fill:#e8366b;}.cls-12{fill:url(#Naamloos_verloop_53-3);}.cls-13{fill:url(#Naamloos_verloop_90);}.cls-14{fill:url(#Naamloos_verloop_107-5);}.cls-15{fill:url(#Naamloos_verloop_107-6);}.cls-16{fill:url(#Naamloos_verloop_53-4);}.cls-17{fill:url(#Naamloos_verloop_107-7);}.cls-18{fill:url(#Naamloos_verloop_53-5);}.cls-19{fill:url(#Naamloos_verloop_107-8);}.cls-20{fill:url(#Naamloos_verloop_107-9);}.cls-21{fill:url(#Naamloos_verloop_108);}.cls-22{fill:url(#Naamloos_verloop_107-10);}.cls-23{fill:url(#Naamloos_verloop_107-11);}.cls-24{fill:url(#Naamloos_verloop_107-12);}.cls-25{fill:url(#Naamloos_verloop_53-6);}.cls-26{fill:url(#Naamloos_verloop_19);}.cls-27{fill:url(#Naamloos_verloop_36);}.cls-28,.cls-45{fill:#fff;}.cls-29{fill:url(#Naamloos_verloop_19-2);}.cls-30{fill:url(#Naamloos_verloop_108-2);}.cls-31{fill:url(#Naamloos_verloop_107-13);}.cls-32{fill:url(#Naamloos_verloop_36-2);}.cls-33{fill:url(#Naamloos_verloop_36-3);}.cls-34{fill:url(#Naamloos_verloop_36-4);}.cls-35{fill:url(#Naamloos_verloop_107-14);}.cls-36{fill:url(#Naamloos_verloop_107-15);}.cls-37{fill:url(#Naamloos_verloop_107-16);}.cls-38{fill:url(#Naamloos_verloop_107-17);}.cls-39{fill:url(#Naamloos_verloop_90-2);}.cls-40{fill:url(#Naamloos_verloop_53-7);}.cls-41,.cls-59,.cls-61,.cls-62,.cls-64,.cls-66,.cls-67,.cls-68,.cls-69{opacity:0.5;}.cls-41{fill:url(#Naamloos_verloop_46);}.cls-42,.cls-43,.cls-46{opacity:0.26;}.cls-42{fill:url(#Naamloos_verloop_90-3);}.cls-43{fill:url(#Naamloos_verloop_90-4);}.cls-44{clip-path:url(#clip-path);}.cls-45{opacity:0.2;}.cls-46{fill:url(#Naamloos_verloop_90-5);}.cls-47{clip-path:url(#clip-path-2);}.cls-48{fill:url(#Naamloos_verloop_90-6);}.cls-49{fill:url(#Naamloos_verloop_90-7);}.cls-50{fill:url(#Naamloos_verloop_19-3);}.cls-51{fill:url(#Naamloos_verloop_90-8);}.cls-52{fill:url(#Naamloos_verloop_90-9);}.cls-53{fill:url(#Naamloos_verloop_90-10);}.cls-54{fill:url(#Naamloos_verloop_90-11);}.cls-55{fill:url(#Naamloos_verloop_90-12);}.cls-56{fill:url(#Naamloos_verloop_90-13);}.cls-57{fill:url(#Naamloos_verloop_90-14);}.cls-58{fill:url(#Naamloos_verloop_53-8);}.cls-59{fill:url(#Naamloos_verloop_46-2);}.cls-60{fill:url(#Naamloos_verloop_90-15);}.cls-61{fill:url(#Naamloos_verloop_46-3);}.cls-62{fill:url(#Naamloos_verloop_46-4);}.cls-63{fill:#1a3a6b;}.cls-64{fill:url(#Naamloos_verloop_46-5);}.cls-65{fill:#a6274d;}.cls-66{fill:url(#Naamloos_verloop_46-6);}.cls-67{fill:url(#Naamloos_verloop_46-7);}.cls-68{fill:url(#Naamloos_verloop_46-8);}.cls-69{fill:url(#Naamloos_verloop_46-9);}</style><linearGradient id="Naamloos_verloop_53" x1="198.59" y1="94.8" x2="203.13" y2="339.7" gradientUnits="userSpaceOnUse"><stop offset="0.46" stop-color="#e8366b"/><stop offset="0.54" stop-color="#e8396d" stop-opacity="0.98"/><stop offset="0.61" stop-color="#e84273" stop-opacity="0.93"/><stop offset="0.68" stop-color="#e8517e" stop-opacity="0.85"/><stop offset="0.75" stop-color="#e8658c" stop-opacity="0.73"/><stop offset="0.81" stop-color="#e8809f" stop-opacity="0.58"/><stop offset="0.88" stop-color="#e8a1b6" stop-opacity="0.4"/><stop offset="0.95" stop-color="#e8c7d1" stop-opacity="0.18"/><stop offset="1" stop-color="#e8e8e8" stop-opacity="0"/></linearGradient><linearGradient id="Naamloos_verloop_53-2" x1="670" y1="184.44" x2="673.72" y2="385.52" xlink:href="#Naamloos_verloop_53"/><linearGradient id="Naamloos_verloop_107" x1="271.65" y1="243.91" x2="270.54" y2="237.63" gradientTransform="translate(167.59 -106.72) rotate(31.8)" gradientUnits="userSpaceOnUse"><stop offset="0.02"/><stop offset="1" stop-color="#a6274d"/></linearGradient><linearGradient id="Naamloos_verloop_107-2" x1="264.5" y1="285.17" x2="258.33" y2="250.01" gradientTransform="matrix(1, 0, 0, 1, 0, 0)" xlink:href="#Naamloos_verloop_107"/><linearGradient id="Naamloos_verloop_107-3" x1="288.02" y1="284.03" x2="280.12" y2="239.05" gradientTransform="matrix(1, 0, 0, 1, 0, 0)" xlink:href="#Naamloos_verloop_107"/><linearGradient id="Naamloos_verloop_107-4" x1="238.02" y1="290.02" x2="231.73" y2="254.2" gradientTransform="matrix(1, 0, 0, 1, 0, 0)" xlink:href="#Naamloos_verloop_107"/><linearGradient id="Naamloos_verloop_53-3" x1="268.47" y1="260.34" x2="288.62" y2="318.14" xlink:href="#Naamloos_verloop_53"/><linearGradient id="Naamloos_verloop_90" x1="494.47" y1="147.38" x2="586.74" y2="68.45" gradientUnits="userSpaceOnUse"><stop offset="0.46" stop-color="#73b4d8"/><stop offset="0.6" stop-color="#6fb1d6"/><stop offset="0.72" stop-color="#64aad0"/><stop offset="0.85" stop-color="#509dc6"/><stop offset="0.97" stop-color="#368ab8"/><stop offset="1" stop-color="#2f86b5"/></linearGradient><linearGradient id="Naamloos_verloop_107-5" x1="434.35" y1="178.83" x2="427.45" y2="139.51" gradientTransform="matrix(1, 0, 0, 1, 0, 0)" xlink:href="#Naamloos_verloop_107"/><linearGradient id="Naamloos_verloop_107-6" x1="501.53" y1="324.75" x2="481.16" y2="208.73" gradientTransform="matrix(1, 0, 0, 1, 0, 0)" xlink:href="#Naamloos_verloop_107"/><linearGradient id="Naamloos_verloop_53-4" x1="478.56" y1="180.96" x2="447.29" y2="275.4" xlink:href="#Naamloos_verloop_53"/><linearGradient id="Naamloos_verloop_107-7" x1="501.97" y1="251.2" x2="497.16" y2="223.77" gradientTransform="matrix(1, 0, 0, 1, 0, 0)" xlink:href="#Naamloos_verloop_107"/><linearGradient id="Naamloos_verloop_53-5" x1="532.44" y1="251.4" x2="510.3" y2="318.27" xlink:href="#Naamloos_verloop_53"/><linearGradient id="Naamloos_verloop_107-8" x1="498.28" y1="388.47" x2="473.24" y2="245.81" gradientTransform="matrix(1, 0, 0, 1, 0, 0)" xlink:href="#Naamloos_verloop_107"/><linearGradient id="Naamloos_verloop_107-9" x1="352.82" y1="341.79" x2="339.8" y2="267.6" gradientTransform="matrix(1, 0, 0, 1, 0, 0)" xlink:href="#Naamloos_verloop_107"/><linearGradient id="Naamloos_verloop_108" x1="228.97" y1="242.35" x2="342.38" y2="382.67" gradientUnits="userSpaceOnUse"><stop offset="0.29" stop-color="#611831"/><stop offset="0.5" stop-color="#611831"/><stop offset="0.59" stop-color="#6d2940" stop-opacity="0.93"/><stop offset="0.71" stop-color="#8d586a" stop-opacity="0.72"/><stop offset="0.86" stop-color="#c2a5af" stop-opacity="0.39"/><stop offset="1" stop-color="#fff" stop-opacity="0"/></linearGradient><linearGradient id="Naamloos_verloop_107-10" x1="581.35" y1="209.12" x2="572.38" y2="158.04" gradientTransform="matrix(1, 0, 0, 1, 0, 0)" xlink:href="#Naamloos_verloop_107"/><linearGradient id="Naamloos_verloop_107-11" x1="581.35" y1="184.25" x2="572.38" y2="133.17" gradientTransform="matrix(1, 0, 0, 1, 0, 0)" xlink:href="#Naamloos_verloop_107"/><linearGradient id="Naamloos_verloop_107-12" x1="579.59" y1="158.47" x2="570.62" y2="107.39" gradientTransform="matrix(1, 0, 0, 1, 0, 0)" xlink:href="#Naamloos_verloop_107"/><linearGradient id="Naamloos_verloop_53-6" x1="513.19" y1="247.36" x2="616.9" y2="411.34" xlink:href="#Naamloos_verloop_53"/><linearGradient id="Naamloos_verloop_19" x1="620.58" y1="244.92" x2="604.71" y2="436.28" gradientUnits="userSpaceOnUse"><stop offset="0.5" stop-color="#611831"/><stop offset="0.59" stop-color="#6d2940" stop-opacity="0.93"/><stop offset="0.71" stop-color="#8d586a" stop-opacity="0.72"/><stop offset="0.86" stop-color="#c2a5af" stop-opacity="0.39"/><stop offset="1" stop-color="#fff" stop-opacity="0"/></linearGradient><linearGradient id="Naamloos_verloop_36" x1="657.53" y1="347.61" x2="614.05" y2="405.5" gradientUnits="userSpaceOnUse"><stop offset="0.02" stop-color="#a6274d"/><stop offset="1" stop-color="#e8366b"/></linearGradient><linearGradient id="Naamloos_verloop_19-2" x1="604.63" y1="390.31" x2="597.59" y2="475.3" xlink:href="#Naamloos_verloop_19"/><linearGradient id="Naamloos_verloop_108-2" x1="622.21" y1="377.68" x2="669.82" y2="436.59" xlink:href="#Naamloos_verloop_108"/><linearGradient id="Naamloos_verloop_107-13" x1="383.11" y1="161.27" x2="371.29" y2="93.94" gradientTransform="matrix(1, 0, 0, 1, 0, 0)" xlink:href="#Naamloos_verloop_107"/><linearGradient id="Naamloos_verloop_36-2" x1="396.96" y1="76.87" x2="379.93" y2="99.54" xlink:href="#Naamloos_verloop_36"/><linearGradient id="Naamloos_verloop_36-3" x1="409.64" y1="97.25" x2="408.76" y2="132.92" xlink:href="#Naamloos_verloop_36"/><linearGradient id="Naamloos_verloop_36-4" x1="455.28" y1="63.33" x2="454.63" y2="89.5" xlink:href="#Naamloos_verloop_36"/><linearGradient id="Naamloos_verloop_107-14" x1="429.93" y1="376.69" x2="393.51" y2="169.21" gradientTransform="matrix(1, 0, 0, 1, 0, 0)" xlink:href="#Naamloos_verloop_107"/><linearGradient id="Naamloos_verloop_107-15" x1="274.76" y1="138.05" x2="270.92" y2="116.16" gradientTransform="matrix(1, 0, 0, 1, 0, 0)" xlink:href="#Naamloos_verloop_107"/><linearGradient id="Naamloos_verloop_107-16" x1="296.2" y1="175" x2="287.89" y2="127.61" gradientTransform="matrix(1, 0, 0, 1, 0, 0)" xlink:href="#Naamloos_verloop_107"/><linearGradient id="Naamloos_verloop_107-17" x1="263.82" y1="183.59" x2="253.82" y2="126.66" gradientTransform="matrix(1, 0, 0, 1, 0, 0)" xlink:href="#Naamloos_verloop_107"/><linearGradient id="Naamloos_verloop_90-2" x1="361.14" y1="239.08" x2="410.04" y2="197.25" xlink:href="#Naamloos_verloop_90"/><linearGradient id="Naamloos_verloop_53-7" x1="432.71" y1="328.91" x2="406.95" y2="446.81" xlink:href="#Naamloos_verloop_53"/><linearGradient id="Naamloos_verloop_46" x1="-138.36" y1="376.22" x2="650.25" y2="252.75" gradientUnits="userSpaceOnUse"><stop offset="0.02" stop-color="#1d1d1b"/><stop offset="0.48" stop-color="#2e1f22" stop-opacity="0.92"/><stop offset="0.74" stop-color="#672638" stop-opacity="0.64"/><stop offset="0.95" stop-color="#c8325e" stop-opacity="0.16"/><stop offset="1" stop-color="#e8366b" stop-opacity="0"/></linearGradient><linearGradient id="Naamloos_verloop_90-3" x1="210.47" y1="231.56" x2="280.7" y2="171.48" xlink:href="#Naamloos_verloop_90"/><linearGradient id="Naamloos_verloop_90-4" x1="234.92" y1="273.21" x2="311.05" y2="208.09" xlink:href="#Naamloos_verloop_90"/><clipPath id="clip-path"><polygon class="cls-1" points="310.54 192.88 310.54 255.01 254.53 276.24 254.53 209.96 310.54 192.88"/></clipPath><linearGradient id="Naamloos_verloop_90-5" x1="190.93" y1="266" x2="249.76" y2="215.68" xlink:href="#Naamloos_verloop_90"/><clipPath id="clip-path-2"><polygon class="cls-1" points="196.36 196.72 196.36 256.98 254.53 276.24 254.53 209.96 196.36 196.72"/></clipPath><linearGradient id="Naamloos_verloop_90-6" x1="455.81" y1="206.27" x2="489.97" y2="177.06" xlink:href="#Naamloos_verloop_90"/><linearGradient id="Naamloos_verloop_90-7" x1="379.76" y1="354.56" x2="595.95" y2="169.64" xlink:href="#Naamloos_verloop_90"/><linearGradient id="Naamloos_verloop_19-3" x1="568.92" y1="326.52" x2="560.4" y2="429.3" xlink:href="#Naamloos_verloop_19"/><linearGradient id="Naamloos_verloop_90-8" x1="581.84" y1="340.32" x2="589.56" y2="333.72" xlink:href="#Naamloos_verloop_90"/><linearGradient id="Naamloos_verloop_90-9" x1="537.97" y1="324.9" x2="601.52" y2="270.54" xlink:href="#Naamloos_verloop_90"/><linearGradient id="Naamloos_verloop_90-10" x1="600.2" y1="263.96" x2="632.24" y2="236.55" xlink:href="#Naamloos_verloop_90"/><linearGradient id="Naamloos_verloop_90-11" x1="600.2" y1="271.78" x2="632.24" y2="244.37" xlink:href="#Naamloos_verloop_90"/><linearGradient id="Naamloos_verloop_90-12" x1="600.2" y1="279.13" x2="632.24" y2="251.72" xlink:href="#Naamloos_verloop_90"/><linearGradient id="Naamloos_verloop_90-13" x1="600.2" y1="287.04" x2="632.24" y2="259.62" xlink:href="#Naamloos_verloop_90"/><linearGradient id="Naamloos_verloop_90-14" x1="263.96" y1="89.59" x2="276.96" y2="78.48" xlink:href="#Naamloos_verloop_90"/><linearGradient id="Naamloos_verloop_53-8" x1="233.99" y1="249.76" x2="220.78" y2="331.99" xlink:href="#Naamloos_verloop_53"/><linearGradient id="Naamloos_verloop_46-2" x1="274.81" y1="231.22" x2="417.29" y2="208.91" xlink:href="#Naamloos_verloop_46"/><linearGradient id="Naamloos_verloop_90-15" x1="363.13" y1="241.4" x2="412.03" y2="199.57" xlink:href="#Naamloos_verloop_90"/><linearGradient id="Naamloos_verloop_46-3" x1="624.34" y1="380.93" x2="607" y2="401.08" xlink:href="#Naamloos_verloop_46"/><linearGradient id="Naamloos_verloop_46-4" x1="650.42" y1="367.1" x2="633.08" y2="387.24" xlink:href="#Naamloos_verloop_46"/><linearGradient id="Naamloos_verloop_46-5" x1="564.24" y1="313.51" x2="665.29" y2="297.69" xlink:href="#Naamloos_verloop_46"/><linearGradient id="Naamloos_verloop_46-6" x1="607.68" y1="281.31" x2="663.87" y2="272.51" xlink:href="#Naamloos_verloop_46"/><linearGradient id="Naamloos_verloop_46-7" x1="530.28" y1="343.32" x2="645.18" y2="325.33" xlink:href="#Naamloos_verloop_46"/><linearGradient id="Naamloos_verloop_46-8" x1="572.63" y1="295.09" x2="636.51" y2="285.09" xlink:href="#Naamloos_verloop_46"/><linearGradient id="Naamloos_verloop_46-9" x1="294.54" y1="379.51" x2="386.4" y2="379.51" xlink:href="#Naamloos_verloop_46"/></defs><title>illustratie_5</title><g id="Background_details" data-name="Background details"><path class="cls-2" d="M326.32,176.62c-58.85-18.74-55.95,58.37-110,41.86-19.47-6.39-32.57-25.25-50.77-36.11-38.57-24-143.74,7.55-99.41,60.44,20.25,16.59,48.77,22.36,54.53,51,50.36,84.43,95.26-33.94,145.77-31.1,25.13-5.62,60.82,8.73,74.29-5.86C350.28,240.41,349.23,180.23,326.32,176.62Z"/><path class="cls-3" d="M653.08,213.09h-1v-2h1Zm0-4h-1v-2h1Zm0-4h-1v-2h1Zm0-4h-1v-2h1Zm0-4h-1v-2h1Zm0-4h-1v-2h1Zm0-4h-1v-2h1Zm0-4h-1v-2h1Zm0-4h-1v-2h1Zm0-4h-1v-2h1Zm0-4h-1v-2h1Zm0-4h-1v-2h1Zm0-4h-1v-2h1Zm0-4h-1v-2h1Zm0-4h-1v-2h1Zm0-4h-1v-2h1Zm0-4h-1v-2h1Zm0-4h-1v-2h1Zm0-4h-1v-2h1Zm0-4h-1v-2h1Zm0-4h-1v-2h1Zm0-4h-1v-2h1Zm0-4h-1v-2h1Zm0-4h-1v-2h1Zm0-4h-1v-2h1Zm0-4h-1v-2h1Zm0-4h-1v-2h1Zm0-4h-1v-2h1Zm0-4h-1v-2h1Zm0-4h-1v-2h1Zm0-4h-1v-2h1Zm0-4h-1v-2h1Zm0-4h-1v-2h1Zm0-4h-1v-2h1Zm0-4h-1v-2h1Zm0-4h-1v-2h1Zm0-4h-1v-2h1Zm0-4h-1v-2h1Zm0-4h-1v-2h1Zm0-4h-1v-2h1Zm0-4h-1v-2h1Zm0-4h-1v-2h1Zm0-4h-1v-2h1Zm0-4h-1v-2h1Zm0-4h-1v-2h1Z"/><path class="cls-3" d="M576.89,118.29h-1v-2h1Zm0-4h-1v-2h1Zm0-4h-1v-2h1Zm0-4h-1v-2h1Zm0-4h-1v-2h1Zm0-4h-1v-2h1Zm0-4h-1v-2h1Zm0-4h-1v-2h1Zm0-4h-1v-2h1Zm0-4h-1v-2h1Zm0-4h-1v-2h1Zm0-4h-1v-2h1Zm0-4h-1v-2h1Zm0-4h-1v-2h1Zm0-4h-1v-2h1Zm0-4h-1v-2h1Zm0-4h-1v-2h1Zm0-4h-1v-2h1Zm0-4h-1v-2h1Zm0-4h-1v-2h1Zm0-4h-1v-2h1Zm0-4h-1v-2h1Zm0-4h-1v-2h1Zm0-4h-1v-2h1Zm0-4h-1v-2h1Zm0-4h-1v-2h1Z"/><path class="cls-4" d="M635.41,259.83c44.88-1.79,132-33.86,131.68,39.34,1.85,6.72,4.66,10.31,11.51,14.53,40.58,23.3,4.74,60.11-29.55,44.93-20.24-7.42-42.12-19.82-63.16-8.34-67.38,52.6-118.83.89-133.4-25.49-11.23-25.6,2.17-62.56,23.77-72.61C594.31,245.23,616.51,257.74,635.41,259.83Z"/></g><g id="Organische_vormen" data-name="Organische vormen"><rect class="cls-5" x="270.6" y="237.53" width="1" height="6.48" transform="translate(-86.19 179.02) rotate(-31.8)"/><path class="cls-6" d="M266.83,236.73a4.13,4.13,0,0,1,1.67-1.44,6.4,6.4,0,0,1,1.52-.21,1.61,1.61,0,0,1,1,0,1.44,1.44,0,0,1,.58,1.07q.18,1,.3,1.92a2.69,2.69,0,0,1,0,.85c-.21.87-1.24,1.25-2.13,1.33a5,5,0,0,0-2.57.57c-.5.37-.81,1-1.39,1.21C263.05,240.33,265.47,238.43,266.83,236.73Z"/><path class="cls-7" d="M241.15,226.9c-.72-.13-1.26.32-4.24,2s-5.17,8.37-5.72,11.12,1.54,8.26,3.08,8.59,7.71,4.18,7.71,4.18l18.27-5.17,8-5.84-2.75-3.85s-5.4,2.07-7.05,1.91-2.2-8.85-4.4-10.06-5.49-2.9-7.92-2.88S241.15,226.9,241.15,226.9Z"/><path class="cls-7" d="M240.81,212.5s-2.11.87-2.48,2.12-1.43,5,.68,7.33,2.74,1.62,2.74,1.62,7.1-7.19,5.54-9.81S240.81,212.5,240.81,212.5Z"/><path class="cls-3" d="M239.86,222.27A2,2,0,0,1,239,220c.06-.17.15-.35.08-.51s-.26-.24-.35-.39a.64.64,0,0,1,.15-.72,2.36,2.36,0,0,0,.46-.64c.09-.3,0-.62,0-.93.07-.55.62-.88,1-1.3s.51-.78.81-1.14a3.74,3.74,0,0,1,2.21-1.1,7.42,7.42,0,0,1,3.18.12.75.75,0,0,1,.16.5,1.73,1.73,0,0,1,1,.22.61.61,0,0,1,.17.88.82.82,0,0,1,.13,1,2.43,2.43,0,0,1-.77.76c0,1.12-1.11,1.9-2.16,2.3a1.64,1.64,0,0,0-.72.42,2.34,2.34,0,0,0-.26.58,4.51,4.51,0,0,1-1.52,1.52c-.59.47-.92,1.55-1.65,1.78a1.12,1.12,0,0,1-1.05-.2C239.75,223,239.62,222.13,239.86,222.27Z"/><path class="cls-6" d="M246.15,225.27c0,1.11.22,2.43-.62,3.16a2.75,2.75,0,0,1-2.27.37,4.47,4.47,0,0,1-2.65-1.19.83.83,0,0,1-.23-.38,1,1,0,0,1,.05-.46,13.61,13.61,0,0,0,.36-5.39.68.68,0,0,1,.06-.49.65.65,0,0,1,.32-.16l3.05-.85a1.77,1.77,0,0,1,.82-.08,2.21,2.21,0,0,1,.72.36,11,11,0,0,0,1.75.49,19,19,0,0,1-1,2.12A7.9,7.9,0,0,0,246.15,225.27Z"/><path class="cls-6" d="M240.62,218.25s1.07,3.06,1.82,3.48,4.28,2.56,5.65,1.78c2.45-1.39-.37-6.66-.62-7s-2.21-3.45-4.2-2.54S240.15,217.06,240.62,218.25Z"/><ellipse class="cls-6" cx="241.15" cy="220.61" rx="1.2" ry="1.62" transform="translate(-85.64 215.32) rotate(-41.53)"/><path class="cls-3" d="M241.21,219.52a.26.26,0,0,0,.14.09.18.18,0,0,0,.14,0c.33-.2.24-.7.07-1s-.38-.76-.17-1.08.62-.31.92-.48c.51-.28.68-1,1.22-1.2s.87,0,1.29-.09.83-.63,1.33-.62a5.33,5.33,0,0,1,.76.2c.26,0,.6-.12.56-.38s-.23-.29-.4-.36l-1.62-.68a3.76,3.76,0,0,0-1.31-.36,3.26,3.26,0,0,0-1.53.47,4.31,4.31,0,0,0-1.79,1.44,4.93,4.93,0,0,0-.49,1.46A2.29,2.29,0,0,0,241.21,219.52Z"/><path class="cls-7" d="M239.73,222.4l.48-.78a3.21,3.21,0,0,1,0-4c1.66-2.08,5.95-3.75,7.26-2.45A1.77,1.77,0,0,0,246,213c-1.42-.39-5.65-1-6.55,1.22S237.8,218,238.11,219,238.55,221.87,239.73,222.4Z"/><path class="cls-8" d="M209,261.15s63.3-17.08,63.63-17.08,38,10.94,38,10.94l-56,21.23Z"/><path class="cls-6" d="M242.92,250.86c.29.33.55.69.86,1a5.46,5.46,0,0,0,3,1.59,2.15,2.15,0,0,0,1.94-.44,6,6,0,0,1,.52-.61c.45-.35,1.1-.21,1.66-.32a.54.54,0,0,0,.39-.24.57.57,0,0,0,0-.29,4.23,4.23,0,0,0-.93-2.45,3.1,3.1,0,0,0-2.33-1.13,8.29,8.29,0,0,0-2,.42,2.67,2.67,0,0,1-1.95-.07,5.72,5.72,0,0,0-1.07-.66,1.39,1.39,0,0,0-1.33.47C240.53,249.5,242,249.88,242.92,250.86Z"/><polygon class="cls-9" points="310.54 255.01 310.54 229.32 254.42 246.72 254.53 276.24 310.54 255.01"/><polygon class="cls-10" points="254.42 246.72 210.16 258.5 208.95 261.15 254.53 276.24 254.42 246.72"/><polygon class="cls-11" points="285.9 204.22 285.9 224.59 308.91 217.48 308.91 197.72 285.9 204.22"/></g><g id="Background"><polygon class="cls-12" points="254.53 276.24 254.53 346.37 309.23 321.52 310.54 255.01 254.53 276.24"/><path class="cls-3" d="M272.41,82.79h-1v-2h1Zm0-4h-1v-2h1Zm0-4h-1v-2h1Zm0-4h-1v-2h1Zm0-4h-1v-2h1Zm0-4h-1v-2h1Zm0-4h-1v-2h1Zm0-4h-1v-2h1Zm0-4h-1v-2h1Zm0-4h-1v-2h1Zm0-4h-1v-2h1Zm0-4h-1v-2h1Z"/><path class="cls-3" d="M352.68,83.74h-1v-2h1Zm0-4h-1v-2h1Zm0-4h-1v-2h1Zm0-4h-1v-2h1Zm0-4h-1v-2h1Zm0-4h-1v-2h1Zm0-4h-1v-2h1Zm0-4h-1v-2h1Zm0-4h-1v-2h1Zm0-4h-1v-2h1Zm0-4h-1v-2h1Zm0-4h-1v-2h1Z"/><path class="cls-3" d="M391.57,75.74h-1v-2h1Zm0-4h-1v-2h1Zm0-4h-1v-2h1Zm0-4h-1v-2h1Zm0-4h-1v-2h1Zm0-4h-1v-2h1Zm0-4h-1v-2h1Zm0-4h-1v-2h1Zm0-4h-1v-2h1Zm0-4h-1v-2h1Zm0-4h-1v-2h1Zm0-4h-1v-2h1Z"/><path class="cls-3" d="M447.58,185.39h-1v-2h1Zm0-4h-1v-2h1Zm0-4h-1v-2h1Zm0-4h-1v-2h1Zm0-4h-1v-2h1Zm0-4h-1v-2h1Zm0-4h-1v-2h1Zm0-4h-1v-2h1Zm0-4h-1v-2h1Zm0-4h-1v-2h1Zm0-4h-1v-2h1Zm0-4h-1v-2h1Zm0-4h-1v-2h1Zm0-4h-1v-2h1Zm0-4h-1v-2h1Zm0-4h-1v-2h1Zm0-4h-1v-2h1Zm0-4h-1v-2h1Zm0-4h-1v-2h1Zm0-4h-1v-2h1Zm0-4h-1v-2h1Zm0-4h-1v-2h1Zm0-4h-1v-2h1Zm0-4h-1v-2h1Zm0-4h-1v-2h1Zm0-4h-1v-2h1Zm0-4h-1v-2h1Zm0-4h-1v-2h1Zm0-4h-1v-2h1Zm0-4h-1v-2h1Zm0-4h-1V64.07h1Z"/><path class="cls-3" d="M481.94,235.27h-1v-2h1Zm0-4h-1v-2h1Zm0-4h-1v-2h1Zm0-4h-1v-2h1Zm0-4h-1v-2h1Zm0-4h-1v-2h1Zm0-4h-1v-2h1Zm0-4h-1v-2h1Zm0-4h-1v-2h1Zm0-4h-1v-2h1Zm0-4h-1v-2h1Zm0-4h-1v-2h1Zm0-4h-1v-2h1Zm0-4h-1v-2h1Zm0-4h-1v-2h1Zm0-4h-1v-2h1Zm0-4h-1v-2h1Zm0-4h-1v-2h1Zm0-4h-1v-2h1Zm0-4h-1v-2h1Zm0-4h-1v-2h1Zm0-4h-1v-2h1Zm0-4h-1v-2h1Zm0-4h-1v-2h1Zm0-4h-1v-2h1Zm0-4h-1v-2h1Zm0-4h-1v-2h1Zm0-4h-1v-2h1Zm0-4h-1v-2h1Zm0-4h-1v-2h1Zm0-4h-1v-1.33h1Z"/><circle class="cls-13" cx="550.93" cy="99.08" r="58.63"/><polygon class="cls-14" points="388.73 166.69 368.91 153.25 422.64 136.51 489.57 146.2 435.41 166.69 388.73 166.69"/><polygon class="cls-15" points="328.4 251.01 523.48 285.63 643.36 220.18 474.22 198.6 328.4 251.01"/><polygon class="cls-16" points="462.49 156.45 489.57 146.2 489.57 292.28 435.41 315.3 435.41 166.69 462.49 156.45"/><polygon class="cls-17" points="469.69 243.84 456.12 234.88 493.29 221.77 540.71 226.96 502.11 242.84 469.69 243.84"/><polygon class="cls-18" points="521.27 234.95 540.71 226.96 539.46 330.35 501.43 346.37 502.11 242.84 521.27 234.95"/><polygon class="cls-19" points="456.12 234.88 456.12 315.74 501.44 344.55 502.11 242.84 456.12 234.88"/><path class="cls-20" d="M261.46,291.26l78.83-31s88.95,13.46,83.23,16.19-74,43.36-74,43.36Z"/><polygon class="cls-21" points="261.46 291.26 261.46 354.26 349.54 386.59 349.54 319.81 261.46 291.26"/><polygon class="cls-22" points="503.67 179.67 592.95 191.56 645.73 162.75 571.26 153.25 503.67 179.67"/><polygon class="cls-23" points="503.67 154.8 592.95 166.69 645.73 137.88 571.26 128.38 503.67 154.8"/><polygon class="cls-24" points="501.9 129.02 591.19 140.91 643.96 112.1 569.5 102.6 501.9 129.02"/><path class="cls-3" d="M576.89,118.29h-1v-2h1Zm0-4h-1v-2h1Zm0-4h-1v-2h1Zm0-4h-1v-2h1Zm0-4h-1v-2h1Zm0-4h-1v-2h1Zm0-4h-1v-2h1Zm0-4h-1v-2h1Zm0-4h-1v-2h1Zm0-4h-1v-2h1Zm0-4h-1v-2h1Zm0-4h-1v-2h1Zm0-4h-1v-2h1Zm0-4h-1v-2h1Zm0-4h-1v-2h1Zm0-4h-1v-2h1Zm0-4h-1v-2h1Zm0-4h-1v-2h1Zm0-4h-1v-2h1Zm0-4h-1v-2h1Zm0-4h-1v-2h1Zm0-4h-1v-2h1Zm0-4h-1v-2h1Zm0-4h-1v-2h1Zm0-4h-1v-2h1Zm0-4h-1v-2h1Z"/><path class="cls-3" d="M504.16,230.75h-1v-1.36h1Zm0-3.36h-1v-2h1Zm0-4h-1v-2h1Zm0-4h-1v-2h1Zm0-4h-1v-2h1Zm0-4h-1v-2h1Zm0-4h-1v-2h1Zm0-4h-1v-2h1Zm0-4h-1v-2h1Zm0-4h-1v-2h1Zm0-4h-1v-2h1Zm0-4h-1v-2h1Z"/><polygon class="cls-25" points="643.36 220.18 640.99 386.59 518.96 489.47 523.48 285.63 643.36 220.18"/><path class="cls-26" d="M665.06,293.47s5.85,45.59-14.54,49.85l-1.34,22.84-94,62.32L561.13,349Z"/><polygon class="cls-27" points="645.52 354.26 685.58 358.02 625.93 415.07 576.39 407.89 645.52 354.26"/><polygon class="cls-7" points="641.7 290.12 665.06 293.47 584.14 352.92 549.13 348.98 641.7 290.12"/><polygon class="cls-28" points="549.13 281.1 549.13 342.81 637.26 287.38 639.01 230.75 549.13 281.1"/><polygon class="cls-29" points="624.32 475.87 576.39 468.99 576.39 407.89 624.32 414.77 624.32 475.87"/><polygon class="cls-30" points="685.58 358.02 684.76 417.91 623.87 477.8 624.32 414.77 685.58 358.02"/><polygon class="cls-11" points="346.45 138.28 328.4 133.87 328.4 59.89 346.45 64.29 346.45 138.28"/><polygon class="cls-11" points="346.45 224.59 328.4 220.18 328.4 146.2 346.45 150.6 346.45 224.59"/><polygon class="cls-31" points="352.18 90.72 352.18 129.47 397.54 138.28 397.54 99.08 352.18 90.72"/><polygon class="cls-32" points="378.16 82.79 352.18 90.72 397.54 99.08 420.94 90.72 378.16 82.79"/><polygon class="cls-33" points="420.94 90.72 420.94 128.15 397.54 138.28 397.54 99.08 420.94 90.72"/><path class="cls-34" d="M392.13,77.33l55.17-19.2,70.28,9.75a1.59,1.59,0,0,1,.38,3.05L461.39,93.8l-69-13.41A1.59,1.59,0,0,1,392.13,77.33Z"/><polygon class="cls-35" points="368.91 153.25 368.91 270.26 435.41 312.66 435.41 166.69 368.91 153.25"/><polygon class="cls-36" points="249.36 131.29 238.33 123.81 268.24 114.5 305.5 119.89 275.35 131.29 249.36 131.29"/><polygon class="cls-37" points="290.42 125.59 305.5 119.89 305.5 151.6 275.35 164.26 275.35 131.29 290.42 125.59"/><polygon class="cls-38" points="238.33 123.81 238.33 156.38 275.35 164.26 275.35 131.29 238.33 123.81"/><circle class="cls-39" cx="391.07" cy="213.48" r="31.07"/><polygon class="cls-40" points="328.4 251.01 331.48 428.7 518.96 489.47 523.48 285.63 328.4 251.01"/><path class="cls-41" d="M328.4,251l.2,11.82a81.39,81.39,0,0,0,26.22,21.61c17.31,9.14,36.94,12.88,56.38,15.12s39.1,3.14,58.26,7.11c18.41,3.81,36,10.39,53.15,18.19l.87-39.23Z"/><polygon class="cls-42" points="196.36 196.72 254.53 209.96 310.54 192.88 255.12 182.41 196.36 196.72"/><polygon class="cls-43" points="310.54 192.88 310.54 255.01 254.53 276.24 254.53 209.96 310.54 192.88"/><g class="cls-44"><rect class="cls-45" x="208.27" y="222.45" width="135.41" height="5.61" transform="translate(-40.84 388.13) rotate(-66.43)"/><rect class="cls-45" x="218.64" y="226.61" width="135.41" height="5.61" transform="translate(-38.43 400.13) rotate(-66.43)"/></g><polygon class="cls-46" points="196.36 196.72 196.36 256.98 254.53 276.24 254.53 209.96 196.36 196.72"/><g class="cls-47"><rect class="cls-45" x="131.82" y="227.17" width="158.67" height="3.99" transform="translate(-89.35 311.65) rotate(-62.69)"/><rect class="cls-45" x="140.74" y="231.78" width="158.67" height="3.99" transform="translate(-88.61 322.07) rotate(-62.69)"/><rect class="cls-45" x="148.23" y="234.48" width="158.67" height="3.99" transform="translate(-86.96 330.19) rotate(-62.69)"/></g><circle class="cls-48" cx="476.71" cy="188.39" r="21.7"/><path class="cls-49" d="M623.87,207.74c-9.75-.2-19.51-.17-29.22.54-2.42.19-4.84.42-7.24.79a26.47,26.47,0,0,0-6.92,1.78,3.92,3.92,0,0,0-1.29.94,1,1,0,0,0-.09,1.19,7.2,7.2,0,0,0,2.49,2.21,43.63,43.63,0,0,0,6.52,3.06c4.46,1.73,9.36,3.1,13.35,6.39a8.75,8.75,0,0,1,2.44,3.17,5,5,0,0,1,.35,2.15,4.93,4.93,0,0,1-.61,2.08,9,9,0,0,1-2.73,3,19.3,19.3,0,0,1-3.31,1.91,51.36,51.36,0,0,1-14.4,3.75,96,96,0,0,1-14.77.72A115.53,115.53,0,0,1,553.71,240q-3.66-.57-7.27-1.38c-1.2-.25-2.43-.57-3.59-.84s-2.32-.52-3.49-.74a68.15,68.15,0,0,0-28.3.76,48.15,48.15,0,0,0-13,5.15,23.48,23.48,0,0,0-5.25,4.14,8.42,8.42,0,0,0-2.53,5.11,6.07,6.07,0,0,0,2.27,4.7,19.78,19.78,0,0,0,5.52,3.44,60.55,60.55,0,0,0,13.48,3.79,61.22,61.22,0,0,1,7.44,1.77,28.43,28.43,0,0,1,7.31,3.38,13.91,13.91,0,0,1,3.28,3.07,9.94,9.94,0,0,1,1.94,4.57,10.87,10.87,0,0,1-.49,4.86,16.89,16.89,0,0,1-2,3.93,29.6,29.6,0,0,1-5.5,5.9,55.1,55.1,0,0,1-6.27,4.51,87.22,87.22,0,0,1-13.52,6.79,119,119,0,0,1-29,7.59,97.84,97.84,0,0,1-30.25-.52c-2.51-.49-5-1.07-7.48-1.79-2.31-.67-4.55-1.3-6.86-1.83a124.06,124.06,0,0,0-13.95-2.44,122.58,122.58,0,0,0-28.2-.1,83.58,83.58,0,0,0-13.61,2.66,49.21,49.21,0,0,0-6.29,2.26,24.61,24.61,0,0,0-5.29,3.08,10.21,10.21,0,0,0-1.78,1.75,4.06,4.06,0,0,0-.76,1.48,2.27,2.27,0,0,0,.08,1.17,5.33,5.33,0,0,0,.91,1.68,18.35,18.35,0,0,0,4.24,3.77,45.57,45.57,0,0,0,5.72,3.26l-4.49,8.94a58.1,58.1,0,0,1-6.88-4.14,27.56,27.56,0,0,1-6.42-6.14,14.6,14.6,0,0,1-2.35-4.83,11.81,11.81,0,0,1,0-6,13.34,13.34,0,0,1,2.56-5,19.9,19.9,0,0,1,3.46-3.32,34.54,34.54,0,0,1,7.38-4.14,59.15,59.15,0,0,1,7.51-2.52A92.56,92.56,0,0,1,387,295.14a131,131,0,0,1,30.15.74A132.82,132.82,0,0,1,432,298.79c2.43.62,4.87,1.36,7.23,2.1,2.19.69,4.43,1.26,6.69,1.75a90.44,90.44,0,0,0,28,1.05,112.32,112.32,0,0,0,27.56-6.57,82.3,82.3,0,0,0,12.71-6,48.75,48.75,0,0,0,5.68-3.91,24.41,24.41,0,0,0,4.57-4.64,11.29,11.29,0,0,0,1.38-2.53,5.32,5.32,0,0,0,.32-2.33,6,6,0,0,0-2.86-4,22.77,22.77,0,0,0-5.86-2.83,56.09,56.09,0,0,0-6.75-1.76,64.84,64.84,0,0,1-14.51-4.44,24.05,24.05,0,0,1-6.72-4.44,12.43,12.43,0,0,1-2.61-3.58,9.54,9.54,0,0,1-.88-4.64,10.79,10.79,0,0,1,1.31-4.35,16,16,0,0,1,2.51-3.38,27.88,27.88,0,0,1,6.28-4.77,52.33,52.33,0,0,1,14.2-5.29A71.58,71.58,0,0,1,540,234c1.22.26,2.43.53,3.64.86s2.33.62,3.51.9q3.51.85,7.07,1.5a113.13,113.13,0,0,0,14.35,1.62,93.8,93.8,0,0,0,14.42-.39,49.71,49.71,0,0,0,13.88-3.29,17.53,17.53,0,0,0,3-1.66,7.52,7.52,0,0,0,2.26-2.31,3.17,3.17,0,0,0,.24-2.81,7.12,7.12,0,0,0-1.94-2.59,24.56,24.56,0,0,0-6-3.67c-2.16-1-4.48-1.77-6.75-2.74a45.49,45.49,0,0,1-6.63-3.3,7.85,7.85,0,0,1-2.82-2.69,2.07,2.07,0,0,1-.23-1.14,1.44,1.44,0,0,1,.16-.59,2.07,2.07,0,0,1,.3-.5,4.85,4.85,0,0,1,1.65-1.18,27.22,27.22,0,0,1,7.22-1.72c2.43-.31,4.87-.5,7.31-.64C604.37,207.15,614.13,207.33,623.87,207.74Z"/><polygon class="cls-11" points="406.34 112.29 440.34 100.22 476.71 107.45 518.96 91.42 550.93 94.47 481.65 125.94 406.34 112.29"/><path class="cls-50" d="M584.14,352.92s2.2,28.87-16.84,38.5c-12.77,6.45-11.45,35.51-11.45,35.51l-6.72-1.76V349Z"/><ellipse class="cls-28" cx="574.01" cy="342.81" rx="6.28" ry="1.74"/><ellipse class="cls-51" cx="586.56" cy="336.28" rx="6.28" ry="1.74"/><polygon class="cls-52" points="554.09 282.93 554.09 327.14 600.36 299.71 600.36 256.98 554.09 282.93"/><polygon class="cls-53" points="602.91 254.87 602.91 258.76 636.7 239.51 636.7 235.62 602.91 254.87"/><polygon class="cls-54" points="602.91 262.69 602.91 266.58 636.7 247.32 636.7 243.43 602.91 262.69"/><polygon class="cls-55" points="602.91 270.04 602.91 273.93 636.7 254.68 636.7 250.78 602.91 270.04"/><polygon class="cls-56" points="602.91 277.94 602.91 281.84 636.7 262.58 636.7 258.69 602.91 277.94"/><path class="cls-3" d="M274.85,131.3c0-.16-.05-.87-.12-2l1-.06c.07,1.15.12,1.88.12,2Zm-.25-4-.14-2,1-.07.13,2Zm-.28-4,.5,0-.5,0-.14-2,1-.07.14,2Zm30.48-3.44-1.34-1.48.74-.67,1.34,1.48ZM274,119.3l-.14-2,1-.07.14,2Zm28.08-2.4-1.35-1.49.75-.67,1.34,1.48Zm-28.37-1.6-.14-2,1-.07.14,2Zm25.68-1.37-1.34-1.48.74-.67,1.34,1.48Zm-26-2.63-.14-2,1-.07.15,2Zm23.28-.33-1.34-1.49.74-.67,1.34,1.48Zm-2.69-3-1.34-1.48.74-.67,1.35,1.48Zm-20.88-.7-.14-2,1-.07.14,2Zm18.2-2.27L290,103.55l.74-.67,1.34,1.48ZM272.9,103.3l-.15-2,1-.07.14,2Zm15.79-1.23-1.34-1.48.74-.67,1.35,1.48ZM272.61,99.3l-.15-2,1-.07.15,2Zm13.4-.2-1.34-1.48.74-.67,1.34,1.48Zm-2.69-3L282,94.66l.75-.68,1.34,1.49Zm-11-.84-.14-2,1-.08.15,2Zm8.32-2.13-1.34-1.48L280,91l1.34,1.48ZM272,91.3l-.15-2,1-.07.15,2ZM278,90.21l-1.35-1.49.75-.67,1.34,1.49Zm-6.22-2.92-.15-2,1-.08.15,2Zm3.53-.05-1.34-1.48.74-.67L276,86.57Zm-2.68-3-.92-1-.22,0,0-.19c0-.37,0-.55.21-.72l.36-.24,1.33,1.48Z"/><path class="cls-3" d="M238.72,124.13l-.78-.64,1.27-1.54.77.63Zm2.53-3.1-.77-.63,1.26-1.55.78.64Zm2.53-3.09-.77-.64,1.27-1.54.77.63Zm2.54-3.1-.78-.63,1.27-1.55.78.64Zm2.53-3.09-.77-.64,1.27-1.54.77.63Zm2.54-3.1-.78-.63,1.27-1.55.77.64Zm2.53-3.09-.77-.64,1.26-1.54.78.63Zm2.53-3.1-.77-.63,1.27-1.55.77.63ZM259,99.37l-.78-.64,1.27-1.54.77.63Zm2.53-3.1-.77-.63L262,94.09l.77.63Zm2.54-3.09-.78-.64L264.55,91l.77.63Zm2.53-3.1-.77-.63,1.26-1.55.78.63ZM269.12,87l-.77-.64,1.27-1.54.77.63Zm2.54-3.1-.78-.63.65-.79.77.64Z"/><circle class="cls-57" cx="271.91" cy="82.79" r="8.26"/><path class="cls-3" d="M463,89h-1V87h1Zm0-4h-1V83h1Zm0-4h-1V79h1Zm0-4h-1V75h1Zm0-4h-1V71h1Zm0-4h-1V67h1Zm0-4h-1V63h1Zm0-4h-1V59h1Zm0-4h-1V55h1Zm0-4h-1V51h1Zm0-4h-1V47h1Zm0-4h-1V43h1Z"/><polygon class="cls-58" points="196.36 256.98 254.53 276.24 254.53 348.98 196.36 329.37 196.36 256.98"/><ellipse class="cls-28" cx="272.8" cy="213.25" rx="2.09" ry="3.29"/><ellipse class="cls-28" cx="278.31" cy="218.75" rx="2.09" ry="3.29"/><ellipse class="cls-28" cx="280.4" cy="211.16" rx="2.09" ry="3.29"/><path class="cls-59" d="M379.18,232.1c-4.66-11.83,1.06-25,7.28-36.11,1.9-3.39,3.92-7.1,3.26-10.93a9.92,9.92,0,0,0-.84-2.57,31.07,31.07,0,0,0-.53,61.94C384.54,240.92,381.07,236.91,379.18,232.1Z"/><path class="cls-60" d="M422.14,213.48a31.07,31.07,0,0,0-31.07-31.07c-.74,0-1.46,0-2.19.08a9.92,9.92,0,0,1,.84,2.57c.66,3.83-1.36,7.54-3.26,10.93-6.22,11.08-11.94,24.28-7.28,36.11,1.89,4.81,5.36,8.82,9.17,12.33.9.08,1.8.12,2.72.12A31.07,31.07,0,0,0,422.14,213.48Z"/></g><g id="Mensen"><path class="cls-61" d="M627.57,389.82l-22.35,22L589,409.38s26.64-20.61,27.74-20.38S627.57,389.82,627.57,389.82Z"/><path class="cls-62" d="M653.65,376,631.3,398l-16.23-2.47s26.64-20.61,27.74-20.38S653.65,376,653.65,376Z"/><path class="cls-28" d="M623.18,267.91a6.51,6.51,0,0,0,0-2.2,5.36,5.36,0,0,0-1.18-2l-1.66-2c-.22-.27-.51-.57-.86-.52s-.6.65-.48,1.08a11.9,11.9,0,0,1,.5,1.24c.16.89-.59,1.69-.7,2.59a4.4,4.4,0,0,0,.9,2.59,22.08,22.08,0,0,1,1.4,3.14c.37,1,.61,2.33,1.65,1S623,269.43,623.18,267.91Z"/><path class="cls-28" d="M635.59,303.3a3.39,3.39,0,0,0-1.23,2.72.38.38,0,0,0,.06.23.46.46,0,0,0,.26.13,13.57,13.57,0,0,0,5.06.41.49.49,0,0,0,.37-.18.53.53,0,0,0,0-.33c-.14-1-.5-3.22-1.4-3.88S636.36,302.68,635.59,303.3Z"/><path class="cls-11" d="M645.34,376.4a1.73,1.73,0,0,0-.32,0c-1.1.25-7.74,1.77-8.27,2.53s3.88,2.56,7.19,2.23c1.93-.19,4-.47,5.34-.67a1.45,1.45,0,0,0,1.2-1.79l-.32-1.24a1.44,1.44,0,0,0-1.4-1.09Z"/><path class="cls-11" d="M649.13,372.68s-7.84,1.74-8.42,2.56,3.88,2.56,7.18,2.23c1.8-.18,3.7-.43,5.05-.62a1.73,1.73,0,0,0,1.42-2.13l-.52-2Z"/><path class="cls-7" d="M639,332.39l2.63,43.68s.68,5.7,8.77,1.49V374a2.66,2.66,0,0,0,3.3-1.41l2.73-42.36S640.85,327.35,639,332.39Z"/><path class="cls-28" d="M646.15,272.05a5.45,5.45,0,0,1-.56,2.61c-.49,1.08-1.16,2.07-1.58,3.17a15.18,15.18,0,0,0-.64,5.66,7.75,7.75,0,0,0,.33,2.54,1.55,1.55,0,0,0,.51.74,1.64,1.64,0,0,0,1.37,0,14.29,14.29,0,0,0,3.87-2.2c1.06-.78,2.1-1.59,3.13-2.41a8.19,8.19,0,0,1-2.09,3.22c-1.74,1.19-4.2,3.05-7.14,2-2.56-.9-1.25-8.79-.86-10.83,0-.16.06-.32.1-.48A5.76,5.76,0,0,1,646.15,272.05Z"/><path class="cls-6" d="M645.58,286.77a1.64,1.64,0,0,1-1.37,0,1.55,1.55,0,0,1-.51-.74,7.75,7.75,0,0,1-.33-2.54,15.18,15.18,0,0,1,.64-5.66c.42-1.1,1.09-2.09,1.58-3.17a5.45,5.45,0,0,0,.56-2.61,5.71,5.71,0,0,1,3.41-.21,5.77,5.77,0,0,1,4.23,7q-.09.33-.21.66c-.21.63-.56,1.65-1,2.68-1,.82-2.07,1.63-3.13,2.41A14.29,14.29,0,0,1,645.58,286.77Z"/><path class="cls-6" d="M652.31,279.55s-2.22,6.5-1.27,10.45c0,0-1.53,2.12-6.69-.36,0,0-.24-5.47,1.5-9.32S652.31,276.38,652.31,279.55Z"/><path class="cls-7" d="M646,281.28a8.76,8.76,0,0,0,0-2.89c-.19-.95-.6-1.85-.79-2.81a3.13,3.13,0,0,1,.57-2.76c.88-.9,2.41-.85,3.33-1.7a3.85,3.85,0,0,0,.64-.86,3.51,3.51,0,0,1,1.2.95c1.31-.63,2.14,1.23,4.08,2.83s1.88,5.11-.31,7.45A52.9,52.9,0,0,0,650.9,286c-1.25,1.29-5-.51-5-.51l-.23-2.53A15,15,0,0,0,646,281.28Z"/><path class="cls-63" d="M645.35,279.21c-1-4.34-3-4.63-2.19-6.71s1.54-1.19,3.92-2.22a3,3,0,0,1,2.6,0,3.85,3.85,0,0,1-.64.86c-.92.85-2.45.8-3.33,1.7a3.13,3.13,0,0,0-.57,2.76c.19,1,.6,1.86.79,2.81a8.76,8.76,0,0,1,0,2.89,15,15,0,0,1-.3,1.65l-.16-1.75Z"/><ellipse class="cls-6" cx="645.52" cy="280.24" rx="2.46" ry="1.59" transform="translate(219.44 840.31) rotate(-76.2)"/><path class="cls-11" d="M646.31,288.16a13.6,13.6,0,0,1,2.82-.78c4.64-.63,6.47,1.08,6.47,1.08,2.73,1.43,3.5,5.93,3.5,5.93l-.83,37c-3.23,7.77-15.64,4.23-19.24,3-.69-.24-1.1-.41-1.1-.41.05-.34,1.19-15.81,1.11-18.93l-2.13-12.93a3.45,3.45,0,0,0-1.59-2.38L623,292l-3.18-20.85s.44-4.19,3.52-3.2l7.82,18.68s11-.51,11.83,1.69A5.84,5.84,0,0,0,646.31,288.16Z"/><path class="cls-64" d="M651.81,319.75a14.55,14.55,0,0,0-5.18-9.79c-1.62-1.35-3.58-2.46-4.5-4.36-1.49-3.05.35-6.69,0-10.07a2.28,2.28,0,0,0-1.43-2.08c-2.52-1.38-5.58-1.08-8.43-1.42s-6.07-1.88-6.43-4.73c-.22-1.77.74-3.7-.1-5.28a8.91,8.91,0,0,0-1.66-1.82c-1.42-1.48-2-3.58-2.48-5.57-.43-1.72-.87-3.44-1.3-5.16a6.2,6.2,0,0,0-.47,1.69L623,292l12.33,7.71a3.45,3.45,0,0,1,1.59,2.38L639,315c.08,3.12-1.06,18.59-1.11,18.93,0,0,.41.17,1.1.41a36.6,36.6,0,0,0,6.73,1.65c.65-1,1.3-2.06,1.93-3.1C650.1,328.91,652.18,324.41,651.81,319.75Z"/><path class="cls-11" d="M655.6,288.46s-1.83-1.71-6.47-1.08a13.6,13.6,0,0,0-2.82.78,5.84,5.84,0,0,1-3.33.17c-.82-2.2-11.83-1.69-11.83-1.69L623.33,268a2.33,2.33,0,0,0-3.05,1.51c.43,1.72.87,3.44,1.3,5.16.51,2,1.06,4.09,2.48,5.57a8.91,8.91,0,0,1,1.66,1.82c.84,1.58-.12,3.51.1,5.28.36,2.85,3.58,4.4,6.43,4.73s5.91,0,8.43,1.42a2.28,2.28,0,0,1,1.43,2.08c.37,3.38-1.47,7,0,10.07.92,1.9,2.88,3,4.5,4.36a14.55,14.55,0,0,1,5.18,9.79c.37,4.66-1.71,9.16-4.12,13.17-.63,1-1.28,2.07-1.93,3.1,4.82.68,10.48.27,12.51-4.62l.83-37S658.33,289.89,655.6,288.46Z"/><path class="cls-65" d="M650.22,266.62a12.58,12.58,0,0,0-7.13,5.09c-.37.58-1.58,0-2.1,1.52,0,0-.13,8,13.82,8.74,0,0,4.56-5.45,1.51-10.65C656.32,271.32,656.4,266.74,650.22,266.62Z"/><path class="cls-66" d="M650.65,269.52c.64-.88,1.5-1.63,2.1-2.52a9.31,9.31,0,0,0-2.53-.38,12.58,12.58,0,0,0-7.13,5.09c-.37.58-1.58,0-2.1,1.52,0,0-.13,8,13.82,8.74a11.51,11.51,0,0,0,.93-1.37,12.62,12.62,0,0,1-3.59-1.61A7,7,0,0,1,650.65,269.52Z"/><path class="cls-65" d="M656.32,271.32a4.69,4.69,0,0,0-3.57-4.32c-.6.89-1.46,1.64-2.1,2.52a7,7,0,0,0,1.5,9.47,12.62,12.62,0,0,0,3.59,1.61C656.89,278.66,658.44,274.93,656.32,271.32Z"/><path class="cls-11" d="M618.68,390.3a1.06,1.06,0,0,0-.31,0c-1.1.24-7.74,1.76-8.27,2.52s3.88,2.56,7.18,2.23c1.94-.19,4-.47,5.35-.67a1.44,1.44,0,0,0,1.19-1.79l-.31-1.24a1.46,1.46,0,0,0-1.41-1.09Z"/><path class="cls-11" d="M622.48,386.59s-7.84,1.73-8.42,2.56,3.88,2.56,7.18,2.23c1.8-.18,3.69-.44,5-.63a1.72,1.72,0,0,0,1.42-2.12l-.52-2Z"/><path class="cls-7" d="M612.38,346.29,615,390s.67,5.7,8.76,1.49v-3.55a2.67,2.67,0,0,0,3.31-1.41l2.72-42.35S614.2,341.26,612.38,346.29Z"/><path class="cls-28" d="M615.67,286.64a5.48,5.48,0,0,1,.08,2.67c-.21,1.16-.63,2.29-.78,3.46a15.31,15.31,0,0,0,.73,5.64,7.72,7.72,0,0,0,.93,2.39,1.44,1.44,0,0,0,.67.6,1.63,1.63,0,0,0,1.33-.32,14.25,14.25,0,0,0,3.23-3.07c.85-1,1.66-2,2.46-3.08a8,8,0,0,1-1.26,3.62c-1.4,1.57-3.34,4-6.45,3.65-2.7-.27-3.31-8.24-3.42-10.31,0-.17,0-.33,0-.5A5.76,5.76,0,0,1,615.67,286.64Z"/><path class="cls-6" d="M618.63,301.08a1.63,1.63,0,0,1-1.33.32,1.44,1.44,0,0,1-.67-.6,7.72,7.72,0,0,1-.93-2.39,15.31,15.31,0,0,1-.73-5.64c.15-1.17.57-2.3.78-3.46a5.48,5.48,0,0,0-.08-2.67,5.77,5.77,0,0,1,9,4.75,5.12,5.12,0,0,1,0,.69c0,.67-.15,1.74-.34,2.85-.8,1-1.61,2.07-2.46,3.08A14.25,14.25,0,0,1,618.63,301.08Z"/><path class="cls-28" d="M596.11,318.55a6.15,6.15,0,0,0-2.08,1.26c-.45-.61.2-1.11,2.08-2s4.21.61,4.21.61a3.31,3.31,0,0,1-.11.65C599.75,318.81,597.84,317.76,596.11,318.55Z"/><path class="cls-6" d="M598.5,321.29c-1.75.8-3.76-.7-4.38-1.37l-.09-.11a6.15,6.15,0,0,1,2.08-1.26c1.73-.79,3.64.26,4.1.54A3.22,3.22,0,0,1,598.5,321.29Z"/><path class="cls-6" d="M623.45,292.46s-.61,6.84,1.25,10.44c0,0-1,2.43-6.58,1.25,0,0-1.54-5.25-.77-9.41S622.69,289.38,623.45,292.46Z"/><path class="cls-7" d="M617.69,295.65a8.75,8.75,0,0,0-.71-2.8c-.42-.88-1-1.65-1.45-2.54a3.1,3.1,0,0,1-.1-2.81c.64-1.09,2.14-1.4,2.83-2.45a3.78,3.78,0,0,0,.42-1,3.35,3.35,0,0,1,1.38.64c1.13-.93,2.38.68,4.64,1.78s3,4.5,1.48,7.31A52.81,52.81,0,0,0,623.6,299c-.9,1.56-5,.71-5,.71l-.82-2.4A13.52,13.52,0,0,0,617.69,295.65Z"/><path class="cls-63" d="M616.61,293.79c-2-4-4-3.79-3.73-6s1.21-1.52,3.27-3.09a3.07,3.07,0,0,1,2.53-.64,3.78,3.78,0,0,1-.42,1c-.69,1.05-2.19,1.36-2.83,2.45a3.1,3.1,0,0,0,.1,2.81c.41.89,1,1.66,1.45,2.54a8.75,8.75,0,0,1,.71,2.8,13.52,13.52,0,0,1,.1,1.68l-.57-1.66Z"/><ellipse class="cls-6" cx="617.01" cy="294.74" rx="1.59" ry="2.46"/><path class="cls-11" d="M628.94,302.36s-1.83-1.7-6.46-1.07a12.78,12.78,0,0,0-2.82.77,36.6,36.6,0,0,0-6.78,2.76l-.65.35h0c-2.61,1.46-4.56,3.69-4.65,5-.15,2.18-1.95,8.6-2.52,10.9l0,.15a34.3,34.3,0,0,1-3.48-2.3,2.18,2.18,0,0,0-.87-.47,1.94,1.94,0,0,0-.86.07,1.88,1.88,0,0,0-.73.48c-.86.81-1.66,2.42-1.46,3.22a2.54,2.54,0,0,0,.49.84c2.06,2.65,4.41,3.78,6.93,6a7.07,7.07,0,0,0,2,1.3,2.84,2.84,0,0,0,2,.07,2,2,0,0,0,.3-.14c2.78-.68,2.88-10.41,2.88-10.41s.15,4.8.26,9c.08,3.11-1.06,18.58-1.11,18.92,0,0,.41.17,1.11.41,3.59,1.26,16,4.81,19.24-3l.83-37S631.67,303.8,628.94,302.36Z"/><path class="cls-67" d="M626.31,343.19c-1.11-5.47-4.59-10.5-4.35-16.07.15-3.3,1.59-6.39,2.14-9.64s-.16-7.16-3-8.75c-2.39-1.32-5.53-.5-7.54,1.33a14.39,14.39,0,0,0-3.79,7.13c-.51,1.93-.89,4-2.1,5.57s-3.6,2.52-5.25,1.38-1.55-3.21-1-5.32a1.68,1.68,0,0,0-.69-.35,1.94,1.94,0,0,0-.86.07,2,2,0,0,0-.74.48c-.85.81-1.65,2.42-1.45,3.22a2.54,2.54,0,0,0,.49.84c2.06,2.65,4.41,3.78,6.93,6a7.07,7.07,0,0,0,2,1.3,2.84,2.84,0,0,0,2,.07,2,2,0,0,0,.3-.14c2.78-.68,2.88-10.41,2.88-10.41s.15,4.8.26,9c.08,3.11-1.06,18.58-1.11,18.92,0,0,.41.17,1.11.41,2.49.88,9.21,2.84,14.18,1.39A20.43,20.43,0,0,0,626.31,343.19Z"/><path class="cls-11" d="M628.94,302.36s-1.83-1.7-6.46-1.07a12.78,12.78,0,0,0-2.82.77,36.6,36.6,0,0,0-6.78,2.76l-.65.35h0c-2.61,1.46-4.56,3.69-4.65,5-.15,2.18-1.95,8.6-2.52,10.9l0,.15a34.3,34.3,0,0,1-3.48-2.3l-.18-.12c-.51,2.11-.62,4.18,1,5.32s4,.21,5.25-1.38,1.59-3.64,2.1-5.57a14.39,14.39,0,0,1,3.79-7.13c2-1.83,5.15-2.65,7.54-1.33,2.88,1.59,3.58,5.5,3,8.75s-2,6.34-2.14,9.64c-.24,5.57,3.24,10.6,4.35,16.07a20.43,20.43,0,0,1,.25,6.47,7.45,7.45,0,0,0,5.06-4.36l.83-37S631.67,303.8,628.94,302.36Z"/><path class="cls-65" d="M618.33,280.4a12.6,12.6,0,0,0-5.71,6.64c-.22.65-1.54.34-1.67,2,0,0,1.78,7.8,15.5,5.19,0,0,3.13-6.38-1.08-10.7C625.37,283.51,624.36,279.05,618.33,280.4Z"/><path class="cls-68" d="M618.84,290.71a5.65,5.65,0,0,1-3-4.34c-.14-2.46,1.79-4.44,3.6-6.16a9.47,9.47,0,0,0-1.08.19,12.6,12.6,0,0,0-5.71,6.64c-.22.65-1.54.34-1.67,2,0,0,1.78,7.8,15.5,5.19a12.76,12.76,0,0,0,.57-1.52l-2.92-.43A15.32,15.32,0,0,1,618.84,290.71Z"/><path class="cls-65" d="M625.37,283.51s-.89-3.92-6-3.3c-1.81,1.72-3.74,3.7-3.6,6.16a5.65,5.65,0,0,0,3,4.34,15.32,15.32,0,0,0,5.26,1.55l2.92.43C627.67,290.53,628.31,286.52,625.37,283.51Z"/><path class="cls-69" d="M385.59,419.06l-41.33-85.57c-2.42-5-8.87-5.56-11.71-1l-36.9,59.69a7.72,7.72,0,0,0,3.89,11.22l78.23,25.89C383.52,431.21,388.38,424.84,385.59,419.06Z"/><path class="cls-65" d="M322.82,337.66l-36.9,59.69a7.72,7.72,0,0,0,3.89,11.23L368,434.46c5.75,1.9,10.61-4.47,7.81-10.25l-41.32-85.57C332.1,333.62,325.65,333.08,322.82,337.66Z"/><path class="cls-28" d="M322.78,343.86l-31.1,51.82c-2.13,3.54-.46,8.47,3.29,9.75l66,22.47c4.86,1.66,9-3.88,6.6-8.9l-34.95-74.29C330.62,340.35,325.17,339.88,322.78,343.86Z"/><path class="cls-65" d="M346.62,418l-40.27-13.75c-1.58-.54-2.75-3.25-2.62-6.07h0c.12-2.85,1.5-4.77,3.1-4.28l40.86,12.49c2.1.64,3.56,3.82,3.25,7.07h0C350.63,416.65,348.68,418.67,346.62,418Z"/><path class="cls-28" d="M309.22,399.91c-.09,1.86-1,3.07-2,2.73s-1.79-2.11-1.71-3.94,1-3.08,2-2.75S309.32,398.05,309.22,399.91Z"/><path class="cls-28" d="M316.38,402.23c-.11,1.9-1.08,3.13-2.17,2.77s-1.86-2.17-1.76-4,1.05-3.14,2.14-2.8S316.49,400.33,316.38,402.23Z"/><path class="cls-28" d="M323.89,404.66c-.13,1.94-1.16,3.19-2.3,2.81s-1.94-2.23-1.83-4.14,1.14-3.2,2.28-2.84S324,402.72,323.89,404.66Z"/><path class="cls-28" d="M331.79,407.22c-.15,2-1.25,3.25-2.45,2.85s-2-2.3-1.89-4.25,1.21-3.27,2.41-2.89S331.94,405.23,331.79,407.22Z"/><path class="cls-28" d="M340.1,409.91c-.18,2-1.34,3.32-2.6,2.89s-2.13-2.37-2-4.37,1.3-3.33,2.56-2.93S340.27,407.88,340.1,409.91Z"/><path class="cls-28" d="M348.85,412.75c-.2,2.07-1.44,3.38-2.77,2.93s-2.23-2.45-2.05-4.49,1.41-3.4,2.74-3S349.05,410.66,348.85,412.75Z"/><path class="cls-65" d="M322.2,400.5l-6.71-2.05a7,7,0,0,1-4.95-7.05l.66-13a7,7,0,0,1,8.47-6.49l7,1.51a7,7,0,0,1,5.52,7.36l-1,13.54A7,7,0,0,1,322.2,400.5Z"/><polygon class="cls-65" points="322.51 382.56 339.16 371.75 340.47 376.43 322.88 387.28 322.51 382.56"/><polygon class="cls-65" points="337.5 373.79 339.16 371.75 344.42 388.58 345.68 392.61 343.46 393.98 337.5 373.79"/><path class="cls-65" d="M345.68,392.61s3.3,14.72-6.3,8.15a11.88,11.88,0,0,1-2-6.71Z"/></g></svg>