<svg width="200" height="150" viewBox="0 0 200 150" fill="none" xmlns="http://www.w3.org/2000/svg">
<path d="M197.093 34.6285C196.807 37.223 196.407 39.809 195.826 42.3647C195.251 44.9232 194.521 47.4487 193.651 49.9193C191.899 54.86 189.558 59.583 186.719 63.8713C181.064 72.4778 173.609 79.5143 165.061 84.736C161.12 87.121 156.931 89.1068 152.538 90.616L137.192 74.882C139.726 74.389 142.235 73.604 144.664 72.5547C147.787 71.2107 150.764 69.44 153.521 67.3717C156.281 65.3008 158.795 62.899 161.001 60.2855C163.213 57.6748 165.096 54.8322 166.6 51.8745C167.347 50.393 168.019 48.892 168.553 47.358C169.095 45.8268 169.577 44.2842 169.919 42.709C170.613 39.5638 170.952 36.3472 170.88 33.0947C170.817 29.8447 170.395 26.5648 169.621 23.3479C169.241 21.7396 168.77 20.1505 168.233 18.6082C167.963 17.8371 167.68 17.077 167.371 16.3416C167.063 15.6008 166.746 14.9123 166.402 14.2128L193.951 3.75C194.356 5.02523 194.733 6.33343 195.058 7.6057C195.383 8.88643 195.675 10.1587 195.939 11.434C196.457 13.9815 196.848 16.5317 197.107 19.1039C197.616 24.2375 197.649 29.4428 197.093 34.6285Z" fill="#529FA4"/>
<path d="M142.635 78.9845C141.913 79.1277 141.192 79.246 140.467 79.3397C138.837 79.5517 137.21 79.64 135.593 79.5875C133.976 79.5352 132.368 79.3315 130.757 79.0037C127.537 78.3537 124.315 77.1145 121.09 75.4125C117.862 73.7105 114.662 71.532 111.412 69.1302C108.157 66.7205 104.86 64.0767 101.297 61.4355C99.512 60.1162 97.6695 58.789 95.6892 57.522C93.7227 56.2552 91.616 55.0462 89.3495 53.983C88.212 53.4542 87.0305 52.9695 85.8132 52.5317C84.5822 52.1102 83.3208 51.7357 82.0208 51.4437C80.7155 51.163 79.3853 50.9452 78.0358 50.8352C76.6862 50.7332 75.3285 50.6947 73.9845 50.7855C72.6405 50.8682 71.3047 51.0252 70.0133 51.287C69.3743 51.4025 68.694 51.5732 68.0247 51.7412C67.3555 51.934 66.6917 52.1322 66.039 52.3775C64.7335 52.854 63.4668 53.4405 62.2715 54.1152C61.0735 54.7927 59.9552 55.564 58.9142 56.3872C57.8732 57.2135 56.9092 58.0922 56.0225 59.001C55.1385 59.9152 54.3233 60.8545 53.566 61.8072C52.0485 63.7132 50.7705 65.6685 49.5973 67.6075C49.1483 68.3592 48.716 69.1085 48.2945 69.8547C45.2375 67.131 41.9272 64.6687 38.2752 62.6637C36.3035 61.5925 34.249 60.637 32.0705 59.8905C29.892 59.1497 27.5895 58.6155 25.1742 58.4695C22.7672 58.3262 20.2334 58.6045 17.8291 59.461C16.6256 59.8877 15.502 60.4525 14.4554 61.0995C13.4061 61.7495 12.4339 62.4792 11.5223 63.2697C9.7212 64.8645 8.16515 66.6765 6.87075 68.6595C6.2208 69.6482 5.6204 70.6727 5.09987 71.7412C4.57937 72.81 4.10565 73.9087 3.7311 75.0545C3.35105 76.1972 3.04535 77.376 2.82227 78.585C2.6102 79.7997 2.49729 81.0472 2.50005 82.3195C2.5028 83.592 2.62397 84.8892 2.9214 86.1807C3.2161 87.467 3.66225 88.7585 4.26815 89.954C5.4772 92.3555 7.2205 94.3632 9.16487 95.966C11.1147 97.5745 13.2684 98.8192 15.5185 99.7692C17.7713 100.717 20.1261 101.378 22.5524 101.738C24.9815 102.091 27.4713 102.168 30.0408 101.799C31.3158 101.614 32.5938 101.331 33.8385 100.92C35.0833 100.507 36.2925 99.9897 37.4408 99.3782C38.5892 98.7697 39.6772 98.0675 40.6908 97.3072C41.7012 96.5442 42.6432 95.7237 43.5218 94.87C45.2845 93.1625 46.7855 91.331 48.1515 89.4857C49.5148 87.6405 50.7402 85.7705 51.8997 83.9252C52.2192 83.4185 52.533 82.9117 52.8442 82.405C53.062 82.708 53.2712 83.0165 53.4777 83.3247C54.5822 84.9827 55.579 86.7015 56.3667 88.4667C57.16 90.2265 57.7465 92.047 57.9668 93.7902C58.0742 94.6577 58.088 95.5005 57.9863 96.2772L57.9475 96.5665L57.8898 96.8417C57.8595 97.0317 57.8018 97.2052 57.752 97.3815C57.7327 97.4725 57.6998 97.5552 57.6613 97.6377L57.5592 97.8885L57.4658 98.1417L57.3307 98.384L57.1985 98.6265C57.16 98.7062 57.1157 98.7887 57.0552 98.8632C56.945 99.0175 56.835 99.1745 56.7303 99.3315C56.4715 99.629 56.24 99.94 55.926 100.226C55.648 100.524 55.2983 100.794 54.976 101.077L54.4362 101.48C54.2627 101.617 54.07 101.747 53.8742 101.873C53.1197 102.394 52.2715 102.87 51.4095 103.336C50.531 103.793 49.633 104.236 48.694 104.669C46.8322 105.534 44.8823 106.387 42.8995 107.321C41.9108 107.784 40.911 108.29 39.9113 108.825C38.9142 109.381 37.9145 109.954 36.9258 110.631C36.4272 110.951 35.9427 111.328 35.4552 111.692C35.21 111.871 34.976 112.083 34.7363 112.281C34.4995 112.485 34.2545 112.672 34.0285 112.901L33.34 113.567C33.1087 113.785 32.8995 114.044 32.6818 114.283C32.2358 114.757 31.8417 115.302 31.4425 115.839C30.6908 116.952 30.002 118.158 29.5532 119.461C29.2887 120.102 29.1345 120.766 28.9555 121.43C28.7875 122.094 28.6803 122.768 28.6085 123.443C28.314 126.156 28.6747 128.866 29.4128 131.32L37.2122 128.577C36.5457 127.054 36.185 125.509 36.2043 123.999C36.207 123.622 36.2262 123.245 36.287 122.876C36.3585 122.515 36.3887 122.135 36.51 121.788C36.678 121.066 37.0058 120.4 37.3693 119.722C38.1543 118.398 39.333 117.147 40.8008 116.024C42.255 114.889 43.9487 113.881 45.736 112.909C47.5208 111.926 49.4128 111.014 51.335 110.003C53.2547 108.99 55.2237 107.921 57.1545 106.525C57.6365 106.194 58.11 105.79 58.581 105.41C59.0438 104.985 59.5092 104.586 59.9442 104.099C60.3932 103.65 60.7952 103.11 61.1948 102.587L61.7455 101.733C61.839 101.592 61.919 101.441 61.996 101.284L62.2275 100.821L62.4533 100.359L62.6377 99.8712L62.8167 99.381C62.8773 99.2185 62.9325 99.0535 62.971 98.8852C63.0592 98.552 63.15 98.2162 63.2023 97.883L63.2905 97.3815L63.3455 96.886C63.4832 95.5585 63.4173 94.275 63.2327 93.0522C62.858 90.6037 62.0457 88.3922 61.0928 86.3102C60.1287 84.2282 58.972 82.295 57.7135 80.4525C57.0745 79.5242 56.408 78.621 55.7168 77.7367C56.6533 76.2305 57.5895 74.7735 58.559 73.3937C60.798 70.1852 63.2077 67.3622 65.8187 65.6107C66.4688 65.17 67.127 64.7845 67.796 64.4705C68.4652 64.1565 69.1455 63.9032 69.8425 63.705C70.1868 63.603 70.5447 63.5315 70.8972 63.4515C71.258 63.3937 71.605 63.325 72.0153 63.2862C72.803 63.179 73.577 63.1512 74.3453 63.1652C77.4023 63.2202 80.3408 64.173 83.3538 65.8725C86.3613 67.5662 89.3605 69.9347 92.3928 72.5647C98.4655 77.8442 104.689 84.187 112.786 89.4167C116.824 92.0195 121.371 94.3135 126.337 95.7925C131.288 97.3017 136.595 97.949 141.754 97.77C146.923 97.602 151.999 96.66 156.813 95.1095C157.204 94.9827 157.592 94.8535 157.981 94.7185L142.635 78.9845ZM43.398 78.9237C41.4398 82.5042 39.421 85.8862 37.025 88.519C34.6345 91.1712 31.9135 92.9502 28.6775 93.5782C27.0772 93.9142 25.2928 93.972 23.5328 93.8177C21.7675 93.658 19.9938 93.267 18.3139 92.6695C16.6366 92.0717 15.0475 91.2592 13.676 90.2512C12.3017 89.246 11.1643 88.0397 10.3877 86.704C8.83715 84.0987 8.72147 80.436 9.746 76.9465C10.754 73.4515 12.7754 70.0915 15.4221 67.591C16.7523 66.3625 18.234 65.3215 19.7955 64.7102C21.3543 64.0795 23.1004 63.8397 24.9071 63.9005C26.7165 63.9692 28.5783 64.3412 30.4125 64.9195C31.3267 65.2112 32.2385 65.553 33.1418 65.9357C34.0395 66.324 34.9265 66.7592 35.8022 67.222C36.6753 67.6955 37.5373 68.1967 38.3855 68.7255C39.2283 69.2625 40.0627 69.819 40.878 70.4082C42.5082 71.587 44.0838 72.8537 45.568 74.2255C45.6453 74.2942 45.7222 74.366 45.7967 74.4375C44.987 75.9632 44.1992 77.4642 43.398 78.9237Z" fill="#529FA4"/>
<path fill-rule="evenodd" clip-rule="evenodd" d="M76.5335 63.7709C76.5585 63.6992 76.637 63.6612 76.7088 63.6862C80.896 65.1382 86.9508 67.7739 92.912 72.7332C96.9615 76.1022 99.4168 79.2534 101.429 82.1412C101.883 82.7924 102.313 83.4289 102.734 84.0509C104.181 86.1917 105.512 88.1599 107.27 89.9519C112.589 95.3749 122.984 100.358 145.452 97.0852C145.527 97.0742 145.597 97.1264 145.608 97.2017C145.619 97.2769 145.567 97.3467 145.491 97.3577C122.972 100.638 112.475 95.6524 107.073 90.1447C105.296 88.3332 103.947 86.3379 102.497 84.1929C102.078 83.5737 101.651 82.9419 101.203 82.2987C99.1993 79.4229 96.76 76.2929 92.7358 72.9449C86.8083 68.0134 80.7863 65.3917 76.6185 63.9462C76.5468 63.9214 76.5085 63.8429 76.5335 63.7709Z" fill="#191919"/>
<path d="M46.5494 128.025H43.8269C43.6326 128.025 43.4751 127.868 43.4751 127.674C43.4751 127.479 43.6326 127.322 43.8269 127.322H46.5494C46.7434 127.322 46.9008 127.479 46.9008 127.674C46.9008 127.868 46.7434 128.025 46.5494 128.025Z" fill="#231F20"/>
<path d="M54.3899 128.025H51.6674C51.4732 128.025 51.3159 127.868 51.3159 127.674C51.3159 127.479 51.4732 127.322 51.6674 127.322H54.3899C54.5842 127.322 54.7414 127.479 54.7414 127.674C54.7414 127.868 54.5842 128.025 54.3899 128.025Z" fill="#231F20"/>
<path d="M45.5 127.793H44.876V129.182H45.5V127.793Z" fill="#231F20"/>
<path d="M53.3403 127.793H52.7163V129.182H53.3403V127.793Z" fill="#231F20"/>
<path d="M118.711 140.138C118.711 140.138 113.287 141.655 111.137 142.898C108.988 144.142 95.5247 147.625 92.0585 145.934C89.3387 144.608 86.4495 136.284 91.1722 135.884C95.8952 135.484 101.84 137.326 102.937 137.145C104.035 136.964 105.689 135.315 109.029 135.689C112.368 136.063 117.474 133.887 117.474 133.887L118.711 140.138Z" fill="#2249B3"/>
<path d="M65.782 137.121H7.68311V141.762H65.782V137.121Z" fill="#529FA4"/>
<path d="M127.923 121.088C127.923 121.088 108.237 122.559 99.551 122.592L82.5035 86.195C81.4758 84.0008 82.276 81.3875 84.3553 80.143C86.5055 78.8563 89.467 77.219 92.8228 75.7398C96.9785 73.9083 101.735 72.3193 106.307 71.9393C107.676 71.8235 109.028 71.818 110.341 71.9448C115.129 72.412 118.319 72.7713 120.439 73.0388C122.788 73.3348 124.552 75.322 124.568 77.6893C124.638 88.643 125.092 118.45 127.923 121.088Z" fill="#2249B3"/>
<path d="M106.079 106.422L107.884 106.217C107.884 106.217 109.258 104.898 110.521 104.846C111.784 104.793 112.682 105.158 112.103 106.422C111.524 107.685 110.822 107.264 111.188 108.474C111.553 109.685 106.079 107.977 106.079 107.977V106.422Z" fill="#896756"/>
<path d="M84.0117 122.214L83.064 116.688C87.4852 116.827 91.5307 120.308 102.774 120.765C118.954 121.423 125.663 119.336 125.663 119.336L145.471 113.678L121.396 131.504L94.71 126.032L84.0117 122.214Z" fill="#529FA4"/>
<path opacity="0.33" d="M84.0117 122.214L83.064 116.688C87.4852 116.827 91.5307 120.308 102.774 120.765C118.954 121.423 125.663 119.336 125.663 119.336L145.471 113.678L121.396 131.504L94.71 126.032L84.0117 122.214Z" fill="#231F20"/>
<path d="M123.865 117.312L122.578 114.493L128.394 105.37L120.553 90.2906L116.112 73.9418C117.396 73.3581 120.642 72.4463 123.53 74.7681C129.199 79.3253 137.873 102.375 137.873 102.375C138.907 104.606 138.498 107.24 136.837 109.053L128.588 118.058C127.201 119.573 124.718 119.181 123.865 117.312Z" fill="#2249B3"/>
<path d="M87.7115 123.245C85.8355 123.245 83.9965 122.628 82.484 121.46C80.5022 119.93 79.293 117.618 79.1662 115.118C79.1662 115.118 78.6452 92.5525 80.6062 85.3697C81.4802 82.1687 85.2237 78.8435 86.754 79.11L89.4475 83.9632L90.8 110.689L100.766 108.614L103.181 120.208L89.4597 123.065C88.8792 123.186 88.2935 123.245 87.7115 123.245Z" fill="#2249B3"/>
<path d="M126.507 113.962C126.507 113.962 125.026 111.597 124.559 111.493C124.091 111.389 122.712 110.789 122.216 110.515C121.787 110.278 120.479 109.895 120.557 110.622C120.635 111.35 121.204 111.727 121.611 112.001C121.749 112.093 122.491 112.308 122.842 112.917C123.112 113.386 123.006 114.374 122.983 114.532C122.931 114.896 124.592 114.532 124.8 115.156C125.008 115.78 126.507 113.962 126.507 113.962Z" fill="#896756"/>
<path d="M104.225 82.538L105.171 90.1825C105.305 90.6002 105.117 91.0537 104.727 91.2545C104.238 91.506 103.64 91.2627 103.466 90.7415L100.994 83.363C100.994 83.363 97.345 83.7652 96.3535 82.8012C94.31 80.8237 93.1148 76.8057 92.8228 75.7397C96.9788 73.9082 101.735 72.3192 106.307 71.9392C106.475 72.9087 109.29 81.373 104.225 82.538Z" fill="#B5CDFB"/>
<path d="M122.501 116.846L108.379 110.203C107.59 109.832 107.251 108.892 107.622 108.103C107.994 107.313 108.934 106.975 109.723 107.346L123.846 113.989C124.635 114.36 124.974 115.3 124.602 116.09C124.231 116.879 123.29 117.218 122.501 116.846Z" fill="#191919"/>
<path d="M121.984 112.877L119.852 111.874C119.68 111.793 119.605 111.587 119.687 111.414L119.754 111.27C119.836 111.097 120.042 111.023 120.214 111.104L122.346 112.107C122.519 112.188 122.593 112.394 122.512 112.567L122.444 112.711C122.363 112.884 122.157 112.958 121.984 112.877Z" fill="#191919"/>
<path d="M116.997 113.408L114.865 112.405C114.693 112.324 114.619 112.118 114.7 111.945L114.768 111.801C114.849 111.629 115.055 111.554 115.227 111.636L117.359 112.638C117.532 112.72 117.606 112.925 117.525 113.098L117.457 113.242C117.376 113.415 117.17 113.489 116.997 113.408Z" fill="#529FA4"/>
<path d="M113.559 107.801L111.428 106.798C111.255 106.717 111.181 106.511 111.262 106.338L111.33 106.194C111.411 106.022 111.617 105.947 111.789 106.029L113.921 107.031C114.094 107.113 114.168 107.319 114.087 107.491L114.019 107.635C113.938 107.808 113.732 107.882 113.559 107.801Z" fill="#191919"/>
<path d="M111.589 108.224L112.222 106.878C112.29 106.732 112.464 106.67 112.609 106.738L112.852 106.852C112.997 106.921 113.06 107.094 112.991 107.24L112.358 108.586C112.29 108.731 112.116 108.794 111.971 108.725L111.729 108.611C111.583 108.543 111.52 108.369 111.589 108.224Z" fill="#191919"/>
<path d="M120.044 113.235L120.677 111.889C120.745 111.744 120.919 111.681 121.064 111.75L121.307 111.864C121.452 111.932 121.515 112.106 121.446 112.251L120.813 113.597C120.745 113.742 120.571 113.805 120.426 113.736L120.183 113.622C120.038 113.554 119.975 113.38 120.044 113.235Z" fill="#191919"/>
<path d="M120.036 113.252L120.669 111.907C120.738 111.761 120.911 111.698 121.057 111.767L121.299 111.881C121.445 111.949 121.507 112.123 121.439 112.268L120.806 113.614C120.737 113.76 120.564 113.822 120.418 113.754L120.176 113.64C120.03 113.571 119.968 113.398 120.036 113.252Z" fill="#191919"/>
<path d="M106.079 106.422C106.079 106.422 99.002 111.762 100.91 114.633C101.626 115.71 102.708 116.993 102.927 117.011C103.35 117.046 105.913 117.835 107.138 117.872C107.585 117.886 107.996 117.637 108.193 117.236L108.553 116.503L109.101 116.42C109.731 116.325 110.252 115.877 110.44 115.268L110.658 114.563C110.658 114.563 113.922 115.265 114.29 114.37C114.659 113.475 111.606 112.159 109.974 111.422C108.342 110.685 114.676 112.843 114.799 111.317C114.921 109.791 109.448 107.738 109.448 107.738L106.079 106.422Z" fill="#9C7761"/>
<path d="M67.1665 138.433H6.29883L7.24348 134.459H66.2218L67.1665 138.433Z" fill="#0E0F25"/>
<path d="M68.6123 144.512H4.85303L5.79768 140.538H67.6678L68.6123 144.512Z" fill="#0E0F25"/>
<path d="M9.74432 136.781C10.0551 136.781 10.307 136.529 10.307 136.218C10.307 135.907 10.0551 135.655 9.74432 135.655C9.43354 135.655 9.18164 135.907 9.18164 136.218C9.18164 136.529 9.43354 136.781 9.74432 136.781Z" fill="#B5CDFB"/>
<path d="M12.3024 136.781C12.6132 136.781 12.8651 136.529 12.8651 136.218C12.8651 135.907 12.6132 135.655 12.3024 135.655C11.9917 135.655 11.7397 135.907 11.7397 136.218C11.7397 136.529 11.9917 136.781 12.3024 136.781Z" fill="#529FA4"/>
<path d="M112.863 143.87C127.667 138.607 140.915 133.021 150.323 126.641C153.712 125.082 155.262 121.123 153.833 117.677C152.23 113.816 147.602 112.238 143.975 114.316L108.592 134.583L112.863 143.87Z" fill="#529FA4"/>
<path d="M125.183 143.266C125.183 143.266 130.964 141.868 133.224 142.898C135.484 143.927 149.221 146.089 152.508 144.07C155.086 142.487 157.155 133.923 152.416 133.982C147.677 134.041 141.939 136.451 140.829 136.377C139.719 136.303 137.912 134.822 134.625 135.518C131.337 136.213 126.044 134.542 126.044 134.542L125.183 143.266Z" fill="#2249B3"/>
<path d="M126.429 113.871L124.435 114.499C124.435 114.499 124.092 114.959 123.498 114.881C122.904 114.804 120.609 114.364 120.42 115.257C120.231 116.15 121.055 116.239 122.007 116.583C122.959 116.927 124.589 117.363 124.98 117.115C125.372 116.867 126.241 115.893 126.241 115.893L126.429 113.871Z" fill="#9C7761"/>
<path d="M126.351 113.928C126.351 113.928 126.294 117.833 125.98 119.143C125.667 120.454 123.6 121.252 123.6 121.252C123.6 121.252 120.965 121.423 120.024 120.483C119.084 119.542 119.682 118.773 119.682 118.773C119.682 118.773 118.841 117.761 119.169 117.191C119.169 117.191 117.83 116.308 118.371 115.595C118.913 114.883 120.551 116.094 120.551 116.094C120.551 116.094 123.752 117.576 124.855 116.906C125.958 116.237 126.351 113.928 126.351 113.928Z" fill="#9C7761"/>
<path d="M97.0901 72.4289L97.7796 76.9554C98.0228 78.5534 99.5158 79.6519 101.114 79.4084C102.712 79.1649 103.81 77.6722 103.567 76.0739L102.962 72.1009C102.93 71.8897 102.733 71.7447 102.521 71.7769L100.404 72.0995C99.4296 72.2477 98.4733 72.2024 97.5691 71.9879L97.5633 71.9865C97.2941 71.9267 97.0486 72.1562 97.0901 72.4289Z" fill="#9C7761"/>
<path d="M97.6958 72.6799C98.1071 72.9099 102.685 75.4511 103.393 74.7911L103.031 72.4106L100.531 72.7914C99.5563 72.9399 98.6001 72.8944 97.6958 72.6799Z" fill="#121430"/>
<path d="M92.5954 70.9713C94.4527 72.5453 98.8084 73.3778 102.185 72.6615C105.727 71.9103 109.573 68.3378 109.106 64.0483L108.018 54.0643C107.55 49.7748 103.694 46.6765 99.4044 47.1438L94.3412 47.6955C90.0514 48.163 86.9532 52.0193 87.4207 56.3088C87.4207 56.3088 89.6297 68.4583 92.5954 70.9713Z" fill="#9C7761"/>
<path d="M85.3869 63.0489C85.5661 64.6922 88.3661 65.3949 89.8199 65.2364C91.2734 65.0779 90.8299 64.1184 90.6506 62.4754C90.4716 60.8322 89.1481 59.6287 87.6946 59.7869C86.2411 59.9454 85.2079 61.4059 85.3869 63.0489Z" fill="#9C7761"/>
<path d="M93.918 51.3689C93.918 51.3689 90.4915 57.3694 91.024 59.9627C91.5565 62.5559 89.9418 62.7622 89.9418 62.7622C89.9418 62.7622 88.1598 59.7912 87.5388 59.8119C86.9175 59.8327 84.8515 52.6574 87.6643 51.8099C90.4768 50.9624 93.918 51.3689 93.918 51.3689Z" fill="#121430"/>
<path fill-rule="evenodd" clip-rule="evenodd" d="M101.58 58.2025C101.69 58.1443 101.826 58.1863 101.885 58.2963C103.094 60.5805 103.598 62.261 103.83 63.2648C103.882 63.4895 103.941 63.7708 103.942 64.0475C103.943 64.3248 103.884 64.6268 103.671 64.8665C103.488 65.0725 103.242 65.1748 102.996 65.2195C102.751 65.264 102.491 65.2543 102.257 65.224C101.788 65.1633 101.378 65.0138 101.302 64.9853C101.185 64.9415 101.126 64.8115 101.17 64.695C101.214 64.5785 101.344 64.5195 101.46 64.5633C101.525 64.5875 101.897 64.7228 102.315 64.777C102.523 64.804 102.732 64.8093 102.915 64.776C103.097 64.7428 103.238 64.6745 103.334 64.567C103.445 64.4428 103.492 64.2685 103.491 64.0485C103.491 63.8278 103.442 63.5905 103.391 63.3663L103.61 63.3155L103.391 63.3663C103.167 62.398 102.676 60.7548 101.486 58.5073C101.428 58.3973 101.47 58.2608 101.58 58.2025Z" fill="#121430"/>
<path d="M86.2265 54.9038C83.4757 53.1441 83.1787 49.7626 84.5742 48.2588C85.691 47.0556 88.089 46.8418 90.0995 48.1368C89.8047 45.4836 90.8385 43.1068 92.6992 42.1573C93.6897 41.6518 95.8332 41.0818 96.989 42.4173C97.8937 43.4628 97.87 45.3028 96.729 46.7068C97.5777 42.5086 100.194 39.3206 103.488 38.6476C105.58 38.2203 109 38.5916 109.858 40.7273C110.625 42.6393 109.222 45.6736 105.958 47.2268C108.437 44.7048 111.005 43.7208 112.002 44.4971C113.007 45.2786 112.672 48.0406 111.406 49.8066C110.941 50.4548 110.414 50.8803 109.858 51.2566C106.377 53.6091 102.234 53.6951 101.479 53.7021C97.663 53.7378 96.8782 52.6046 94.5015 53.3371C92.5695 53.9328 91.2615 55.2451 90.4895 56.1961C89.0685 55.7653 87.6475 55.3346 86.2265 54.9038Z" fill="#121430"/>
<path fill-rule="evenodd" clip-rule="evenodd" d="M98.857 59.5779C98.5058 59.5469 97.9143 59.5464 97.0295 59.6997C96.385 59.8112 95.9818 60.0252 95.752 60.1887C95.6358 60.2714 95.5605 60.3437 95.5188 60.3882C95.498 60.4104 95.4855 60.4257 95.4808 60.4319C95.4803 60.4324 95.4798 60.4329 95.4795 60.4334C95.27 60.7359 94.856 60.8169 94.5473 60.6129C94.2345 60.4064 94.1485 59.9852 94.3553 59.6724L94.9215 60.0467C94.3553 59.6724 94.3555 59.6722 94.3558 59.6717L94.3563 59.6712L94.357 59.6697L94.3593 59.6664L94.364 59.6594C94.3675 59.6544 94.3715 59.6487 94.3763 59.6422C94.3855 59.6292 94.3973 59.6134 94.4113 59.5954C94.4398 59.5592 94.478 59.5132 94.5275 59.4604C94.6265 59.3547 94.7695 59.2214 94.9648 59.0824C95.3583 58.8024 95.951 58.5084 96.798 58.3619L96.9138 59.0307L96.798 58.3619C97.7833 58.1912 98.4933 58.1829 98.9758 58.2254C99.217 58.2464 99.401 58.2804 99.5335 58.3127C99.5998 58.3287 99.6528 58.3444 99.6938 58.3577C99.714 58.3644 99.7315 58.3707 99.7458 58.3759C99.753 58.3787 99.7593 58.3812 99.765 58.3834L99.773 58.3867L99.7765 58.3882L99.7783 58.3887L99.779 58.3892C99.7795 58.3892 99.7798 58.3894 99.524 58.9977L99.7798 58.3894C100.126 58.5347 100.288 58.9327 100.143 59.2782C99.9995 59.6184 99.6118 59.7812 99.27 59.6477C99.2698 59.6477 99.2698 59.6474 99.2695 59.6474C99.263 59.6454 99.2443 59.6394 99.2125 59.6317C99.149 59.6162 99.0328 59.5932 98.857 59.5779Z" fill="#121430"/>
<path fill-rule="evenodd" clip-rule="evenodd" d="M109.697 57.3202C109.697 57.3205 109.697 57.3207 109.233 57.8157L109.697 57.3207C109.971 57.5775 109.984 58.007 109.728 58.2805C109.474 58.55 109.053 58.567 108.779 58.321C108.779 58.3207 108.778 58.3202 108.778 58.3197C108.771 58.3147 108.756 58.3027 108.73 58.286C108.68 58.2522 108.59 58.1992 108.458 58.1457C108.196 58.0397 107.754 57.9247 107.101 57.965C106.205 58.0202 105.63 58.1575 105.295 58.2685C105.128 58.3242 105.02 58.3735 104.962 58.403C104.933 58.418 104.916 58.428 104.91 58.4315C104.91 58.4317 104.91 58.4317 104.91 58.4317C104.608 58.6407 104.193 58.572 103.975 58.274C103.754 57.9712 103.82 57.5465 104.123 57.3255L104.52 57.8682C104.123 57.3255 104.123 57.3252 104.124 57.325L104.124 57.3245L104.126 57.3232L104.129 57.321L104.136 57.3162C104.141 57.3127 104.147 57.3087 104.153 57.3045C104.166 57.296 104.181 57.286 104.199 57.2747C104.236 57.2522 104.284 57.2247 104.345 57.1937C104.466 57.1317 104.638 57.0565 104.867 56.98C105.327 56.8275 106.02 56.6715 107.018 56.61C107.876 56.557 108.52 56.706 108.968 56.8875C109.19 56.9777 109.36 57.0742 109.481 57.1542C109.541 57.1942 109.589 57.23 109.625 57.2587C109.643 57.2732 109.658 57.2857 109.67 57.2962C109.676 57.3015 109.681 57.306 109.686 57.3102L109.692 57.316L109.695 57.3185L109.696 57.3197L109.697 57.3202Z" fill="#121430"/>
<path d="M98.0506 61.4684C98.0888 61.7954 97.8538 62.0929 97.5233 62.1317C97.4223 62.1434 97.3286 62.1304 97.2388 62.0932C97.0386 62.0174 96.8871 61.8337 96.8606 61.6077C96.8303 61.3482 96.9698 61.1097 97.1896 61.0019C97.2476 60.9714 97.3133 60.9499 97.3841 60.9417C97.7146 60.9029 98.0121 61.1382 98.0506 61.4684Z" fill="#121430"/>
<path d="M107.198 59.8421C107.236 60.1691 107.001 60.4666 106.674 60.5049C106.344 60.5436 106.046 60.3084 106.008 59.9814C105.97 59.6511 106.205 59.3536 106.535 59.3149C106.862 59.2766 107.16 59.5119 107.198 59.8421Z" fill="#121430"/>
<path d="M102.304 69.9247C99.9087 70.135 99.2982 67.833 99.1992 67.7302L104.174 66.8562C104.462 68.7907 103.491 69.8195 102.304 69.9247Z" fill="white"/>
<path d="M130.298 144.356C116.297 141.705 102.341 138.669 86.7895 131.504C83.464 130.289 80.5415 123.593 81.7563 120.268C83.0243 116.798 86.955 115.115 90.341 116.592L133.093 132.691L130.298 144.356Z" fill="#529FA4"/>
<path fill-rule="evenodd" clip-rule="evenodd" d="M107.276 85.2191L105.673 85.6936L105.595 85.4296L107.198 84.9551L107.276 85.2191Z" fill="#B5CDFB"/>
<path fill-rule="evenodd" clip-rule="evenodd" d="M107.719 88.6497L106.115 89.1243L106.037 88.8603L107.64 88.3855L107.719 88.6497Z" fill="#B5CDFB"/>
<path d="M54.2601 132.199H43.9566C42.9718 132.199 42.1733 131.401 42.1733 130.416C42.1733 129.431 42.9718 128.633 43.9566 128.633H54.2601C55.2451 128.633 56.0433 129.431 56.0433 130.416C56.0433 131.401 55.2451 132.199 54.2601 132.199Z" fill="#2249B3"/>
<path d="M46.6159 131.594L42.7009 134.237C42.1079 134.637 41.3024 134.481 40.9022 133.888C40.5017 133.295 40.6579 132.49 41.2509 132.089L45.1657 129.446C45.7587 129.046 46.5642 129.202 46.9647 129.795C47.3652 130.388 47.2089 131.193 46.6159 131.594Z" fill="#2249B3"/>
<path d="M51.6015 131.594L55.5163 134.237C56.1095 134.637 56.9148 134.481 57.3153 133.888C57.7158 133.295 57.5595 132.49 56.9665 132.089L53.0518 129.446C52.4585 129.046 51.6533 129.202 51.2528 129.795C50.8523 130.388 51.0085 131.193 51.6015 131.594Z" fill="#2249B3"/>
<path d="M44.0265 129.182C43.5793 129.182 43.2168 129.544 43.2168 129.992V131.95C43.2168 132.397 43.5793 132.759 44.0265 132.759C44.4738 132.759 44.8363 132.397 44.8363 131.95V129.992C44.8363 129.544 44.4738 129.182 44.0265 129.182Z" fill="#B5CDFB"/>
<path d="M54.1901 129.182C53.7429 129.182 53.3804 129.544 53.3804 129.992V131.95C53.3804 132.397 53.7429 132.759 54.1901 132.759C54.6374 132.759 54.9999 132.397 54.9999 131.95V129.992C54.9999 129.544 54.6374 129.182 54.1901 129.182Z" fill="#B5CDFB"/>
<path d="M15.2362 88.5176H3.12793V100.626H15.2362V88.5176Z" fill="#2249B3"/>
<path d="M170.469 29.8498L173.659 36.86L166.649 40.0495L163.46 33.0395L170.469 29.8498ZM171.562 26.9318L160.542 31.9465L165.556 42.9675L176.577 37.9528L171.562 26.9318Z" fill="#B5CDFB"/>
<path d="M146.06 69.8092C148.415 69.8092 150.331 71.7252 150.331 74.0802C150.331 76.4355 148.415 78.3515 146.06 78.3515C143.705 78.3515 141.789 76.4355 141.789 74.0802C141.789 71.7252 143.705 69.8092 146.06 69.8092ZM146.06 67.606C142.484 67.606 139.585 70.5047 139.585 74.0802C139.585 77.656 142.484 80.5547 146.06 80.5547C149.635 80.5547 152.534 77.656 152.534 74.0802C152.534 70.5047 149.635 67.606 146.06 67.606Z" fill="#2249B3"/>
<path d="M47.4266 25.7677L47.5486 33.4375L47.6709 41.1069L40.9676 37.3779L34.2646 33.6489L40.8456 29.7085L47.4266 25.7677Z" fill="#2249B3"/>
<path d="M77.1275 69.7773L79.8135 73.6873L82.4998 77.5971L77.7705 77.9683L73.0415 78.3398L75.0845 74.0586L77.1275 69.7773Z" fill="#B5CDFB"/>
<path d="M181.334 74.4793L183.461 77.6936L185.589 80.9076L181.741 81.1431L177.894 81.3783L179.614 77.9288L181.334 74.4793ZM181.065 70.0811L177.642 76.9458L174.22 83.8106L181.876 83.3421L189.532 82.8738L185.298 76.4773L181.065 70.0811Z" fill="#2249B3"/>
<path fill-rule="evenodd" clip-rule="evenodd" d="M120.969 127.341C120.993 127.269 121.071 127.23 121.143 127.254L132.345 130.998C132.788 131.147 133.029 131.623 132.887 132.068L130.214 140.431C130.191 140.503 130.114 140.543 130.041 140.52C129.969 140.497 129.929 140.42 129.952 140.347L132.625 131.984C132.721 131.683 132.557 131.36 132.257 131.26L121.056 127.515C120.984 127.491 120.945 127.413 120.969 127.341Z" fill="#191919"/>
<path fill-rule="evenodd" clip-rule="evenodd" d="M54.0072 61.3574C54.0642 61.4079 54.0695 61.4949 54.0192 61.5519C53.383 62.2731 52.4472 63.6321 51.3567 65.3479C50.268 67.0611 49.03 69.1221 47.7897 71.2416C47.7512 71.3071 47.667 71.3294 47.6015 71.2909C47.5357 71.2524 47.5137 71.1681 47.552 71.1026C48.793 68.9816 50.033 66.9174 51.1242 65.2001C52.214 63.4856 53.1602 62.1091 53.8127 61.3696C53.863 61.3126 53.9502 61.3071 54.0072 61.3574Z" fill="#191919"/>
<path fill-rule="evenodd" clip-rule="evenodd" d="M43.321 78.789C43.3875 78.8262 43.4113 78.91 43.374 78.9765C42.5455 80.4572 41.842 81.729 41.3458 82.6302C41.0975 83.081 40.9012 83.4392 40.767 83.6847C40.6997 83.8075 40.6483 83.902 40.6133 83.9657L40.5605 84.0627C40.5605 84.0627 40.5605 84.0627 40.4395 83.997C40.3185 83.9312 40.3185 83.9312 40.3185 83.9312L40.3715 83.834C40.4065 83.77 40.458 83.6752 40.5253 83.5525C40.6598 83.3067 40.8563 82.9485 41.1045 82.4975C41.601 81.5955 42.3048 80.3232 43.1338 78.842C43.1708 78.7755 43.2548 78.752 43.321 78.789ZM40.3738 84.118C40.3067 84.0817 40.2823 83.998 40.3185 83.9312L40.4395 83.997L40.5605 84.0627C40.5243 84.1295 40.4405 84.1542 40.3738 84.118Z" fill="#191919"/>
<path fill-rule="evenodd" clip-rule="evenodd" d="M65.1816 68.4594C65.2191 68.5254 65.1958 68.6096 65.1298 68.6471C61.2491 70.8496 58.3883 73.9366 56.4968 76.4761C55.5513 77.7456 54.8491 78.8769 54.3833 79.6904C54.1503 80.0971 53.9768 80.4241 53.8613 80.6494C53.8038 80.7619 53.7608 80.8489 53.7323 80.9076C53.7178 80.9371 53.7073 80.9594 53.7003 80.9741L53.6923 80.9909L53.6906 80.9949L53.6901 80.9959L53.5651 80.9381C53.4401 80.8804 53.4401 80.8804 53.4401 80.8801L53.4403 80.8799L53.4408 80.8786L53.4431 80.8739L53.4513 80.8561C53.4588 80.8406 53.4698 80.8174 53.4846 80.7874C53.5138 80.7269 53.5578 80.6381 53.6163 80.5239C53.7333 80.2951 53.9091 79.9641 54.1443 79.5536C54.6146 78.7321 55.3228 77.5914 56.2761 76.3116C58.1816 73.7534 61.0693 70.6351 64.9938 68.4076C65.0598 68.3701 65.1441 68.3931 65.1816 68.4594ZM53.5071 81.0631C53.4381 81.0311 53.4081 80.9491 53.4401 80.8801L53.5651 80.9381L53.6901 80.9959C53.6581 81.0649 53.5763 81.0951 53.5071 81.0631Z" fill="#191919"/>
<path d="M48.6464 89.5043C51.0014 89.5043 52.9174 91.4203 52.9174 93.7753C52.9174 96.1303 51.0014 98.0463 48.6464 98.0463C46.2911 98.0463 44.3754 96.1303 44.3754 93.7753C44.3754 91.4203 46.2911 89.5043 48.6464 89.5043ZM48.6464 87.301C45.0706 87.301 42.1721 90.1995 42.1721 93.7753C42.1721 97.351 45.0706 100.25 48.6464 100.25C52.2219 100.25 55.1206 97.351 55.1206 93.7753C55.1206 90.1995 52.2219 87.301 48.6464 87.301Z" fill="#B5CDFB"/>
<path fill-rule="evenodd" clip-rule="evenodd" d="M164.033 100.286L128.699 67.0618L128.887 66.8611L164.221 100.086L164.033 100.286Z" fill="#2249B3"/>
</svg>
