<svg width="200" height="150" viewBox="0 0 200 150" fill="none" xmlns="http://www.w3.org/2000/svg">
<g clip-path="url(#clip0)">
<path opacity="0.48" d="M63.9011 53.4608C46.4256 47.8945 47.2867 70.7984 31.2365 65.8944C25.4549 63.9964 21.5648 58.3945 16.1603 55.1688C4.70693 48.0401 -26.5234 57.4113 -13.3596 73.1211C-7.34631 78.0488 1.12273 79.7627 2.83317 88.2695C17.7876 113.348 31.1207 78.1884 46.1197 79.032C53.5821 77.3627 64.1803 81.625 68.1802 77.2914C71.0161 72.4083 70.7043 54.5331 63.9011 53.4608Z" fill="url(#paint0_linear)"/>
<path d="M160.933 64.2935H160.636V63.6995H160.933V64.2935ZM160.933 63.1054H160.636V62.5114H160.933V63.1054ZM160.933 61.9173H160.636V61.3233H160.933V61.9173ZM160.933 60.7292H160.636V60.1352H160.933V60.7292ZM160.933 59.5411H160.636V58.9471H160.933V59.5411ZM160.933 58.353H160.636V57.7589H160.933V58.353ZM160.933 57.1649H160.636V56.5708H160.933V57.1649ZM160.933 55.9768H160.636V55.3827H160.933V55.9768ZM160.933 54.7887H160.636V54.1946H160.933V54.7887ZM160.933 53.6006H160.636V53.0065H160.933V53.6006ZM160.933 52.4124H160.636V51.8184H160.933V52.4124ZM160.933 51.2243H160.636V50.6303H160.933V51.2243ZM160.933 50.0362H160.636V49.4422H160.933V50.0362ZM160.933 48.8481H160.636V48.2541H160.933V48.8481ZM160.933 47.66H160.636V47.0659H160.933V47.66ZM160.933 46.4719H160.636V45.8778H160.933V46.4719ZM160.933 45.2838H160.636V44.6897H160.933V45.2838ZM160.933 44.0957H160.636V43.5016H160.933V44.0957ZM160.933 42.9076H160.636V42.3135H160.933V42.9076ZM160.933 41.7194H160.636V41.1254H160.933V41.7194ZM160.933 40.5313H160.636V39.9373H160.933V40.5313ZM160.933 39.3432H160.636V38.7492H160.933V39.3432ZM160.933 38.1551H160.636V37.5611H160.933V38.1551ZM160.933 36.967H160.636V36.3729H160.933V36.967ZM160.933 35.7789H160.636V35.1848H160.933V35.7789ZM160.933 34.5908H160.636V33.9967H160.933V34.5908ZM160.933 33.4027H160.636V32.8086H160.933V33.4027ZM160.933 32.2146H160.636V31.6205H160.933V32.2146ZM160.933 31.0264H160.636V30.4324H160.933V31.0264ZM160.933 29.8383H160.636V29.2443H160.933V29.8383ZM160.933 28.6502H160.636V28.0562H160.933V28.6502ZM160.933 27.4621H160.636V26.8681H160.933V27.4621ZM160.933 26.274H160.636V25.6799H160.933V26.274ZM160.933 25.0859H160.636V24.4918H160.933V25.0859ZM160.933 23.8978H160.636V23.3037H160.933V23.8978ZM160.933 22.7097H160.636V22.1156H160.933V22.7097ZM160.933 21.5216H160.636V20.9275H160.933V21.5216ZM160.933 20.3334H160.636V19.7394H160.933V20.3334ZM160.933 19.1453H160.636V18.5513H160.933V19.1453ZM160.933 17.9572H160.636V17.3632H160.933V17.9572ZM160.933 16.7691H160.636V16.1751H160.933V16.7691ZM160.933 15.581H160.636V14.9869H160.933V15.581ZM160.933 14.3929H160.636V13.7988H160.933V14.3929ZM160.933 13.2048H160.636V12.6107H160.933V13.2048ZM160.933 12.0167H160.636V11.4226H160.933V12.0167Z" fill="#73B4D8"/>
<path d="M138.308 36.1353H138.011V35.5413H138.308V36.1353ZM138.308 34.9472H138.011V34.3532H138.308V34.9472ZM138.308 33.7591H138.011V33.1651H138.308V33.7591ZM138.308 32.571H138.011V31.9769H138.308V32.571ZM138.308 31.3829H138.011V30.7888H138.308V31.3829ZM138.308 30.1948H138.011V29.6007H138.308V30.1948ZM138.308 29.0067H138.011V28.4126H138.308V29.0067ZM138.308 27.8186H138.011V27.2245H138.308V27.8186ZM138.308 26.6304H138.011V26.0364H138.308V26.6304ZM138.308 25.4423H138.011V24.8483H138.308V25.4423ZM138.308 24.2542H138.011V23.6602H138.308V24.2542ZM138.308 23.0661H138.011V22.4721H138.308V23.0661ZM138.308 21.878H138.011V21.2839H138.308V21.878ZM138.308 20.6899H138.011V20.0958H138.308V20.6899ZM138.308 19.5018H138.011V18.9077H138.308V19.5018ZM138.308 18.3137H138.011V17.7196H138.308V18.3137ZM138.308 17.1256H138.011V16.5315H138.308V17.1256ZM138.308 15.9374H138.011V15.3434H138.308V15.9374ZM138.308 14.7493H138.011V14.1553H138.308V14.7493ZM138.308 13.5612H138.011V12.9672H138.308V13.5612ZM138.308 12.3731H138.011V11.7791H138.308V12.3731ZM138.308 11.185H138.011V10.5909H138.308V11.185ZM138.308 9.99689H138.011V9.40283H138.308V9.99689ZM138.308 8.80878H138.011V8.21472H138.308V8.80878ZM138.308 7.62067H138.011V7.02661H138.308V7.62067ZM138.308 6.43256H138.011V5.8385H138.308V6.43256Z" fill="#73B4D8"/>
<path opacity="0.48" d="M155.686 78.1766C169.013 77.6449 194.883 68.1192 194.788 89.8617C195.337 91.8577 196.172 92.924 198.206 94.1775C210.256 101.098 199.614 112.032 189.431 107.523C183.421 105.319 176.924 101.636 170.676 105.046C150.667 120.669 135.389 105.31 131.062 97.4745C127.728 89.8706 131.707 78.8924 138.121 75.9073C143.481 73.84 150.073 77.5558 155.686 78.1766Z" fill="url(#paint1_linear)"/>
<path d="M47.1196 71.6252L46.8672 71.7817L47.8812 73.4176L48.1336 73.261L47.1196 71.6252Z" fill="url(#paint2_linear)"/>
<path d="M46.235 71.3153C46.3585 71.1304 46.5299 70.9825 46.7309 70.8875C46.8783 70.8487 47.0299 70.8278 47.1823 70.8252C47.2788 70.7936 47.3828 70.7936 47.4792 70.8252C47.5294 70.8623 47.5708 70.9101 47.6006 70.965C47.6303 71.0199 47.6477 71.0806 47.6515 71.143C47.6871 71.341 47.7168 71.5311 47.7406 71.7133C47.7539 71.7969 47.7539 71.8821 47.7406 71.9657C47.6782 72.2242 47.3723 72.337 47.1081 72.3608C46.8431 72.348 46.5796 72.4065 46.3449 72.5301C46.1964 72.64 46.1044 72.8271 45.9321 72.8895C45.1125 72.3845 45.8312 71.8202 46.235 71.3153Z" fill="#CBE7F4"/>
<path d="M38.6096 68.3956C38.3958 68.357 38.2354 68.4907 37.3505 68.9897C36.4656 69.4887 35.8153 71.4758 35.652 72.2926C35.4886 73.1095 36.1093 74.7461 36.5666 74.8441C37.0239 74.9421 38.856 76.0857 38.856 76.0857L44.2813 74.5501L46.657 72.8154L45.8403 71.6719C45.8403 71.6719 44.2368 72.2867 43.7468 72.2392C43.2569 72.1917 43.0935 69.6105 42.4402 69.2511C41.787 68.8917 40.81 68.3897 40.0884 68.3956C39.3668 68.4016 38.6096 68.3956 38.6096 68.3956Z" fill="#611831"/>
<path d="M38.5087 64.1182C38.5087 64.1182 37.8821 64.3766 37.7722 64.7479C37.6624 65.1192 37.3476 66.2331 37.9741 66.9252C38.6007 67.6172 38.7878 67.4063 38.7878 67.4063C38.7878 67.4063 40.8961 65.2707 40.4329 64.4925C39.9697 63.7143 38.5087 64.1182 38.5087 64.1182Z" fill="#611831"/>
<path d="M38.2261 67.0205C38.1155 66.9516 38.0306 66.8484 37.9844 66.7265C37.9383 66.6047 37.9334 66.4711 37.9707 66.3462C37.9885 66.2957 38.0152 66.2423 37.9944 66.1947C37.9736 66.1472 37.9172 66.1235 37.8905 66.0789C37.875 66.043 37.871 66.0032 37.879 65.9649C37.887 65.9267 37.9065 65.8918 37.935 65.865C37.9909 65.8098 38.0371 65.7455 38.0716 65.6749C38.0984 65.5858 38.0716 65.4908 38.0716 65.3987C38.0924 65.2353 38.2557 65.1373 38.3686 65.0126C38.4814 64.8878 38.52 64.7809 38.6091 64.674C38.7846 64.4939 39.016 64.3787 39.2654 64.3472C39.579 64.2907 39.9012 64.3028 40.2097 64.3829C40.2429 64.425 40.2598 64.4778 40.2572 64.5314C40.3605 64.5227 40.464 64.5455 40.5541 64.5967C40.5754 64.6099 40.5937 64.6273 40.6079 64.6479C40.6221 64.6685 40.6318 64.6918 40.6366 64.7164C40.6413 64.7409 40.6409 64.7662 40.6354 64.7906C40.6299 64.815 40.6194 64.838 40.6046 64.8581C40.6432 64.8963 40.668 64.9462 40.675 65C40.682 65.0538 40.6708 65.1084 40.6432 65.1551C40.5849 65.2466 40.5068 65.3238 40.4146 65.3809C40.4146 65.7136 40.085 65.9452 39.7732 66.064C39.6923 66.0865 39.6187 66.1295 39.5594 66.1888C39.5259 66.2424 39.4999 66.3004 39.4822 66.3611C39.3703 66.5458 39.2154 66.7006 39.0308 66.8126C38.8556 66.9522 38.7576 67.2729 38.5408 67.3413C38.488 67.3581 38.4318 67.3615 38.3774 67.3512C38.3229 67.3408 38.2719 67.317 38.229 67.2818C38.1934 67.2373 38.1548 66.9789 38.2261 67.0205Z" fill="#73B4D8"/>
<path d="M40.0939 67.9114C40.0939 68.2411 40.1592 68.6332 39.9098 68.85C39.812 68.9159 39.7011 68.9599 39.5848 68.9789C39.4684 68.9978 39.3493 68.9914 39.2357 68.9599C38.9414 68.933 38.6644 68.8086 38.4488 68.6065C38.4162 68.5758 38.3926 68.5367 38.3805 68.4936C38.3747 68.4475 38.3798 68.4007 38.3953 68.357C38.5376 67.8358 38.5739 67.2915 38.5022 66.756C38.4897 66.707 38.4961 66.655 38.5201 66.6105C38.5467 66.586 38.5796 66.5696 38.6151 66.5629L39.5208 66.3105C39.599 66.2835 39.6824 66.2754 39.7643 66.2867C39.8415 66.309 39.914 66.3452 39.9781 66.3936C40.147 66.4564 40.3208 66.5051 40.4977 66.5392C40.4118 66.755 40.3126 66.9653 40.2008 67.1689C40.1256 67.4091 40.0895 67.6598 40.0939 67.9114Z" fill="#CBE7F4"/>
<path d="M38.4521 65.8262C38.4521 65.8262 38.7699 66.7351 38.9926 66.8599C39.2153 66.9846 40.2635 67.6203 40.6704 67.3886C41.3979 66.9757 40.5605 65.4104 40.4863 65.3094C40.412 65.2084 39.83 64.2847 39.2391 64.555C38.6481 64.8252 38.3126 65.4728 38.4521 65.8262Z" fill="#CBE7F4"/>
<path d="M38.9298 66.8801C39.0771 66.7496 39.0538 66.4825 38.8776 66.2836C38.7015 66.0846 38.4392 66.0292 38.2919 66.1597C38.1446 66.2902 38.1679 66.5573 38.3441 66.7562C38.5203 66.9552 38.7825 67.0106 38.9298 66.8801Z" fill="#CBE7F4"/>
<path d="M38.6273 66.2034C38.6378 66.2166 38.6524 66.226 38.6688 66.2301C38.6754 66.2329 38.6825 66.2343 38.6896 66.2343C38.6968 66.2343 38.7038 66.2329 38.7104 66.2301C38.8084 66.1707 38.7817 66.0222 38.7312 65.9331C38.6807 65.844 38.6184 65.7074 38.6807 65.6123C38.7431 65.5173 38.8648 65.5202 38.9539 65.4697C39.1054 65.3866 39.1558 65.1727 39.3162 65.1133C39.4765 65.0539 39.5745 65.1133 39.6993 65.0866C39.824 65.0598 39.9457 64.8994 40.0942 64.9024C40.1708 64.9166 40.2462 64.9365 40.3199 64.9618C40.3971 64.9618 40.4981 64.9262 40.4862 64.8489C40.4743 64.7717 40.4179 64.7628 40.3674 64.742L39.8863 64.54C39.7642 64.4811 39.6324 64.4448 39.4973 64.4331C39.3366 64.4412 39.1805 64.4891 39.043 64.5727C38.8304 64.6646 38.6467 64.8124 38.5115 65.0004C38.4405 65.1365 38.3914 65.2828 38.366 65.4341C38.321 65.5734 38.3221 65.7235 38.3692 65.8621C38.4162 66.0007 38.5068 66.1204 38.6273 66.2034Z" fill="#73B4D8"/>
<path d="M38.1877 67.0588L38.3303 66.8272C38.1958 66.6584 38.1226 66.4489 38.1226 66.2331C38.1226 66.0173 38.1958 65.8079 38.3303 65.639C38.8232 65.0212 40.0971 64.5252 40.4861 64.9113C40.5034 64.8401 40.5057 64.766 40.4926 64.6939C40.4796 64.6217 40.4517 64.5531 40.4105 64.4924C40.3694 64.4317 40.3161 64.3803 40.2539 64.3414C40.1918 64.3026 40.1222 64.2771 40.0496 64.2668C39.628 64.1509 38.3718 63.9697 38.1046 64.6292C37.8373 65.2886 37.6146 65.7519 37.7067 66.0489C37.7987 66.346 37.8373 66.9014 38.1877 67.0588Z" fill="#611831"/>
<path d="M29.0627 78.5686C29.0627 78.5686 47.8597 73.4954 47.9577 73.4954C48.0557 73.4954 59.2419 76.7448 59.2419 76.7448L42.6126 83.0507L29.0627 78.5686Z" fill="url(#paint3_linear)"/>
<path d="M39.135 75.5123C39.2211 75.6103 39.2983 75.7173 39.3903 75.8093C39.6296 76.0575 39.9416 76.2229 40.2812 76.2816C40.3806 76.3079 40.485 76.3097 40.5853 76.2869C40.6856 76.2642 40.7789 76.2175 40.8573 76.1509C40.9047 76.0871 40.9562 76.0266 41.0117 75.9697C41.1453 75.8658 41.3383 75.9074 41.5046 75.8747C41.528 75.872 41.5505 75.8642 41.5705 75.8519C41.5905 75.8396 41.6075 75.823 41.6204 75.8034C41.6279 75.7752 41.6279 75.7455 41.6204 75.7173C41.6077 75.4516 41.511 75.1968 41.3443 74.9895C41.26 74.887 41.1545 74.8039 41.0351 74.746C40.9156 74.6881 40.7851 74.6566 40.6524 74.6539C40.45 74.6708 40.2505 74.7127 40.0585 74.7787C39.8697 74.845 39.6629 74.8376 39.4794 74.7579C39.381 74.681 39.2745 74.6153 39.1617 74.5618C39.0894 74.5477 39.0146 74.5532 38.9452 74.5778C38.8757 74.6023 38.8141 74.645 38.7667 74.7014C38.4252 75.1084 38.8618 75.2212 39.135 75.5123Z" fill="#CBE7F4"/>
<path d="M59.2147 76.7449V69.1143L42.5498 74.2825L42.5825 83.0508L59.2147 76.7449Z" fill="url(#paint4_linear)"/>
<path d="M42.55 74.2827L29.4069 77.7817L29.0476 78.5688L42.5826 83.051L42.55 74.2827Z" fill="url(#paint5_linear)"/>
<path d="M51.8979 61.659V67.7094L58.7308 65.5975V59.7283L51.8979 61.659Z" fill="#E8366B"/>
<path d="M42.583 83.0508V103.881L58.8262 96.5002L59.2152 76.7449L42.583 83.0508Z" fill="url(#paint6_linear)"/>
<path d="M47.8927 25.5908H47.5957V24.9967H47.8927V25.5908ZM47.8927 24.4027H47.5957V23.8086H47.8927V24.4027ZM47.8927 23.2145H47.5957V22.6205H47.8927V23.2145ZM47.8927 22.0264H47.5957V21.4324H47.8927V22.0264ZM47.8927 20.8383H47.5957V20.2443H47.8927V20.8383ZM47.8927 19.6502H47.5957V19.0562H47.8927V19.6502ZM47.8927 18.4621H47.5957V17.868H47.8927V18.4621ZM47.8927 17.274H47.5957V16.6799H47.8927V17.274ZM47.8927 16.0859H47.5957V15.4918H47.8927V16.0859ZM47.8927 14.8978H47.5957V14.3037H47.8927V14.8978ZM47.8927 13.7097H47.5957V13.1156H47.8927V13.7097ZM47.8927 12.5215H47.5957V11.9275H47.8927V12.5215Z" fill="#73B4D8"/>
<path d="M71.7288 25.8731H71.4319V25.2791H71.7288V25.8731ZM71.7288 24.685H71.4319V24.091H71.7288V24.685ZM71.7288 23.4969H71.4319V22.9028H71.7288V23.4969ZM71.7288 22.3088H71.4319V21.7147H71.7288V22.3088ZM71.7288 21.1207H71.4319V20.5266H71.7288V21.1207ZM71.7288 19.9326H71.4319V19.3385H71.7288V19.9326ZM71.7288 18.7445H71.4319V18.1504H71.7288V18.7445ZM71.7288 17.5563H71.4319V16.9623H71.7288V17.5563ZM71.7288 16.3682H71.4319V15.7742H71.7288V16.3682ZM71.7288 15.1801H71.4319V14.5861H71.7288V15.1801ZM71.7288 13.992H71.4319V13.398H71.7288V13.992ZM71.7288 12.8039H71.4319V12.2098H71.7288V12.8039Z" fill="#73B4D8"/>
<path d="M83.2772 23.4969H82.9802V22.9028H83.2772V23.4969ZM83.2772 22.3088H82.9802V21.7147H83.2772V22.3088ZM83.2772 21.1207H82.9802V20.5266H83.2772V21.1207ZM83.2772 19.9326H82.9802V19.3385H83.2772V19.9326ZM83.2772 18.7445H82.9802V18.1504H83.2772V18.7445ZM83.2772 17.5563H82.9802V16.9623H83.2772V17.5563ZM83.2772 16.3682H82.9802V15.7742H83.2772V16.3682ZM83.2772 15.1801H82.9802V14.5861H83.2772V15.1801ZM83.2772 13.992H82.9802V13.398H83.2772V13.992ZM83.2772 12.8039H82.9802V12.2098H83.2772V12.8039ZM83.2772 11.6158H82.9802V11.0217H83.2772V11.6158ZM83.2772 10.4277H82.9802V9.83362H83.2772V10.4277Z" fill="#73B4D8"/>
<path d="M99.9091 56.0658H99.6121V55.4717H99.9091V56.0658ZM99.9091 54.8777H99.6121V54.2836H99.9091V54.8777ZM99.9091 53.6896H99.6121V53.0955H99.9091V53.6896ZM99.9091 52.5015H99.6121V51.9074H99.9091V52.5015ZM99.9091 51.3133H99.6121V50.7193H99.9091V51.3133ZM99.9091 50.1252H99.6121V49.5312H99.9091V50.1252ZM99.9091 48.9371H99.6121V48.3431H99.9091V48.9371ZM99.9091 47.749H99.6121V47.155H99.9091V47.749ZM99.9091 46.5609H99.6121V45.9669H99.9091V46.5609ZM99.9091 45.3728H99.6121V44.7787H99.9091V45.3728ZM99.9091 44.1847H99.6121V43.5906H99.9091V44.1847ZM99.9091 42.9966H99.6121V42.4025H99.9091V42.9966ZM99.9091 41.8085H99.6121V41.2144H99.9091V41.8085ZM99.9091 40.6204H99.6121V40.0263H99.9091V40.6204ZM99.9091 39.4322H99.6121V38.8382H99.9091V39.4322ZM99.9091 38.2441H99.6121V37.6501H99.9091V38.2441ZM99.9091 37.056H99.6121V36.462H99.9091V37.056ZM99.9091 35.8679H99.6121V35.2739H99.9091V35.8679ZM99.9091 34.6798H99.6121V34.0857H99.9091V34.6798ZM99.9091 33.4917H99.6121V32.8976H99.9091V33.4917ZM99.9091 32.3036H99.6121V31.7095H99.9091V32.3036ZM99.9091 31.1155H99.6121V30.5214H99.9091V31.1155ZM99.9091 29.9274H99.6121V29.3333H99.9091V29.9274ZM99.9091 28.7392H99.6121V28.1452H99.9091V28.7392ZM99.9091 27.5511H99.6121V26.9571H99.9091V27.5511ZM99.9091 26.363H99.6121V25.769H99.9091V26.363ZM99.9091 25.1749H99.6121V24.5809H99.9091V25.1749ZM99.9091 23.9868H99.6121V23.3927H99.9091V23.9868ZM99.9091 22.7987H99.6121V22.2046H99.9091V22.7987ZM99.9091 21.6106H99.6121V21.0165H99.9091V21.6106ZM99.9091 20.4225H99.6121V20.0304H99.9091V20.4225Z" fill="#73B4D8"/>
<path d="M110.113 70.8818H109.816V70.2877H110.113V70.8818ZM110.113 69.6936H109.816V69.0996H110.113V69.6936ZM110.113 68.5055H109.816V67.9115H110.113V68.5055ZM110.113 67.3174H109.816V66.7234H110.113V67.3174ZM110.113 66.1293H109.816V65.5353H110.113V66.1293ZM110.113 64.9412H109.816V64.3471H110.113V64.9412ZM110.113 63.7531H109.816V63.159H110.113V63.7531ZM110.113 62.565H109.816V61.9709H110.113V62.565ZM110.113 61.3769H109.816V60.7828H110.113V61.3769ZM110.113 60.1888H109.816V59.5947H110.113V60.1888ZM110.113 59.0007H109.816V58.4066H110.113V59.0007ZM110.113 57.8125H109.816V57.2185H110.113V57.8125ZM110.113 56.6244H109.816V56.0304H110.113V56.6244ZM110.113 55.4363H109.816V54.8423H110.113V55.4363ZM110.113 54.2482H109.816V53.6542H110.113V54.2482ZM110.113 53.0601H109.816V52.466H110.113V53.0601ZM110.113 51.872H109.816V51.2779H110.113V51.872ZM110.113 50.6839H109.816V50.0898H110.113V50.6839ZM110.113 49.4958H109.816V48.9017H110.113V49.4958ZM110.113 48.3077H109.816V47.7136H110.113V48.3077ZM110.113 47.1195H109.816V46.5255H110.113V47.1195ZM110.113 45.9314H109.816V45.3374H110.113V45.9314ZM110.113 44.7433H109.816V44.1493H110.113V44.7433ZM110.113 43.5552H109.816V42.9612H110.113V43.5552ZM110.113 42.3671H109.816V41.773H110.113V42.3671ZM110.113 41.179H109.816V40.5849H110.113V41.179ZM110.113 39.9909H109.816V39.3968H110.113V39.9909ZM110.113 38.8028H109.816V38.2087H110.113V38.8028ZM110.113 37.6147H109.816V37.0206H110.113V37.6147ZM110.113 36.4265H109.816V35.8325H110.113V36.4265ZM110.113 35.2384H109.816V34.8434H110.113V35.2384Z" fill="#73B4D8"/>
<path d="M130.599 47.8442C140.215 47.8442 148.009 40.0474 148.009 30.4295C148.009 20.8116 140.215 13.0148 130.599 13.0148C120.984 13.0148 113.189 20.8116 113.189 30.4295C113.189 40.0474 120.984 47.8442 130.599 47.8442Z" fill="url(#paint7_linear)"/>
<path d="M82.4339 50.5114L76.5483 46.5194L92.5035 41.5471L112.378 44.4253L96.2956 50.5114H82.4339Z" fill="url(#paint8_linear)"/>
<path d="M64.5186 75.5567L122.448 85.8398L158.046 66.3994L107.82 59.9895L64.5186 75.5567Z" fill="url(#paint9_linear)"/>
<path d="M104.337 47.4701L112.378 44.4255V87.8153L96.2952 94.6529V50.5116L104.337 47.4701Z" fill="url(#paint10_linear)"/>
<path d="M106.475 73.4272L102.445 70.7659L113.483 66.8718L127.564 68.4134L116.102 73.1302L106.475 73.4272Z" fill="url(#paint11_linear)"/>
<path d="M121.792 70.7866L127.565 68.4133L127.193 99.123L115.9 103.881L116.102 73.1301L121.792 70.7866Z" fill="url(#paint12_linear)"/>
<path d="M102.445 70.7656V94.7833L115.903 103.341L116.102 73.13L102.445 70.7656Z" fill="url(#paint13_linear)"/>
<path d="M44.6406 87.5123L68.0493 78.3044C68.0493 78.3044 94.463 82.3024 92.7645 83.1133C91.0659 83.9242 70.7901 95.9924 70.7901 95.9924L44.6406 87.5123Z" fill="url(#paint14_linear)"/>
<path d="M44.6406 87.5122V106.225L70.7961 115.828V95.9923L44.6406 87.5122Z" fill="url(#paint15_linear)"/>
<path d="M116.565 54.367L143.077 57.8987L158.75 49.3413L136.636 46.5195L116.565 54.367Z" fill="url(#paint16_linear)"/>
<path d="M116.565 46.9798L143.077 50.5115L158.75 41.9541L136.636 39.1323L116.565 46.9798Z" fill="url(#paint17_linear)"/>
<path d="M116.04 39.3224L142.554 42.8541L158.224 34.2967L136.113 31.475L116.04 39.3224Z" fill="url(#paint18_linear)"/>
<path d="M138.308 36.1353H138.011V35.5413H138.308V36.1353ZM138.308 34.9472H138.011V34.3532H138.308V34.9472ZM138.308 33.7591H138.011V33.1651H138.308V33.7591ZM138.308 32.571H138.011V31.9769H138.308V32.571ZM138.308 31.3829H138.011V30.7888H138.308V31.3829ZM138.308 30.1948H138.011V29.6007H138.308V30.1948ZM138.308 29.0067H138.011V28.4126H138.308V29.0067ZM138.308 27.8186H138.011V27.2245H138.308V27.8186ZM138.308 26.6304H138.011V26.0364H138.308V26.6304ZM138.308 25.4423H138.011V24.8483H138.308V25.4423ZM138.308 24.2542H138.011V23.6602H138.308V24.2542ZM138.308 23.0661H138.011V22.4721H138.308V23.0661ZM138.308 21.878H138.011V21.2839H138.308V21.878ZM138.308 20.6899H138.011V20.0958H138.308V20.6899ZM138.308 19.5018H138.011V18.9077H138.308V19.5018ZM138.308 18.3137H138.011V17.7196H138.308V18.3137ZM138.308 17.1256H138.011V16.5315H138.308V17.1256ZM138.308 15.9374H138.011V15.3434H138.308V15.9374ZM138.308 14.7493H138.011V14.1553H138.308V14.7493ZM138.308 13.5612H138.011V12.9672H138.308V13.5612ZM138.308 12.3731H138.011V11.7791H138.308V12.3731ZM138.308 11.185H138.011V10.5909H138.308V11.185ZM138.308 9.99689H138.011V9.40283H138.308V9.99689ZM138.308 8.80878H138.011V8.21472H138.308V8.80878ZM138.308 7.62067H138.011V7.02661H138.308V7.62067ZM138.308 6.43256H138.011V5.8385H138.308V6.43256Z" fill="#73B4D8"/>
<path d="M116.711 69.5389H116.414V69.1349H116.711V69.5389ZM116.711 68.5408H116.414V67.9468H116.711V68.5408ZM116.711 67.3527H116.414V66.7587H116.711V67.3527ZM116.711 66.1646H116.414V65.5706H116.711V66.1646ZM116.711 64.9765H116.414V64.3825H116.711V64.9765ZM116.711 63.7884H116.414V63.1943H116.711V63.7884ZM116.711 62.6003H116.414V62.0062H116.711V62.6003ZM116.711 61.4122H116.414V60.8181H116.711V61.4122ZM116.711 60.2241H116.414V59.63H116.711V60.2241ZM116.711 59.036H116.414V58.4419H116.711V59.036ZM116.711 57.8478H116.414V57.2538H116.711V57.8478ZM116.711 56.6597H116.414V56.0657H116.711V56.6597Z" fill="#73B4D8"/>
<path d="M158.046 66.3997L157.343 115.828L121.106 146.386L122.448 85.8401L158.046 66.3997Z" fill="url(#paint19_linear)"/>
<path d="M164.491 88.1687C164.491 88.1687 166.228 101.71 160.173 102.976L159.775 109.76L131.862 128.27L133.628 104.663L164.491 88.1687Z" fill="url(#paint20_linear)"/>
<path d="M158.688 106.225L170.584 107.342L152.871 124.287L138.16 122.154L158.688 106.225Z" fill="url(#paint21_linear)"/>
<path d="M157.553 87.1736L164.49 88.1686L140.461 105.827L130.065 104.657L157.553 87.1736Z" fill="#611831"/>
<path d="M130.065 84.4944V102.824L156.235 86.3597L156.755 69.5391L130.065 84.4944Z" fill="white"/>
<path d="M152.393 142.346L138.16 140.303V122.155L152.393 124.198V142.346Z" fill="url(#paint22_linear)"/>
<path d="M170.583 107.342L170.34 125.131L152.259 142.92L152.392 124.198L170.583 107.342Z" fill="url(#paint23_linear)"/>
<path d="M69.8785 42.0728L64.5186 40.7629V18.7888L69.8785 20.0957V42.0728Z" fill="#E8366B"/>
<path d="M69.8785 67.7096L64.5186 66.3997V44.4255L69.8785 45.7325V67.7096Z" fill="#E8366B"/>
<path d="M71.5803 27.9463V39.4561L85.05 42.0729V30.4294L71.5803 27.9463Z" fill="url(#paint24_linear)"/>
<path d="M79.2951 25.5908L71.5803 27.9462L85.05 30.4294L91.9987 27.9462L79.2951 25.5908Z" fill="url(#paint25_linear)"/>
<path d="M91.9984 27.9463V39.064L85.0498 42.0729V30.4294L91.9984 27.9463Z" fill="url(#paint26_linear)"/>
<path d="M83.4433 23.969L99.826 18.2661L120.696 21.1621C120.799 21.1762 120.895 21.224 120.968 21.2981C121.041 21.3721 121.088 21.4683 121.101 21.5717C121.113 21.675 121.092 21.7798 121.039 21.8695C120.986 21.9593 120.905 22.0291 120.809 22.0681L104.01 28.8611L83.5205 24.8779C83.4182 24.8596 83.3249 24.808 83.255 24.7312C83.185 24.6544 83.1423 24.5566 83.1335 24.4531C83.1247 24.3496 83.1503 24.246 83.2063 24.1585C83.2623 24.071 83.3456 24.0044 83.4433 23.969Z" fill="url(#paint27_linear)"/>
<path d="M76.5483 46.5195V81.2747L96.2956 93.8687V50.5116L76.5483 46.5195Z" fill="url(#paint28_linear)"/>
<path d="M41.0476 39.9967L37.7722 37.775L46.654 35.0096L57.7185 36.6106L48.7654 39.9967H41.0476Z" fill="url(#paint29_linear)"/>
<path d="M53.2404 38.3037L57.7184 36.6106V46.0293L48.7654 49.7897V39.9967L53.2404 38.3037Z" fill="url(#paint30_linear)"/>
<path d="M37.7722 37.7749V47.4491L48.7653 49.7897V39.9967L37.7722 37.7749Z" fill="url(#paint31_linear)"/>
<path d="M83.1286 73.638C88.2241 73.638 92.3549 69.5062 92.3549 64.4093C92.3549 59.3125 88.2241 55.1807 83.1286 55.1807C78.0331 55.1807 73.9023 59.3125 73.9023 64.4093C73.9023 69.5062 78.0331 73.638 83.1286 73.638Z" fill="url(#paint32_linear)"/>
<path d="M64.5186 75.5569L65.4332 128.336L121.105 146.386L122.448 85.84L64.5186 75.5569Z" fill="url(#paint33_linear)"/>
<path opacity="0.5" d="M64.5186 75.554L64.5779 79.0648C66.6929 81.7285 69.3461 83.9157 72.364 85.4836C77.5042 88.1984 83.3334 89.3093 89.1061 89.9746C94.8788 90.64 100.717 90.9073 106.406 92.0865C111.873 93.2182 117.097 95.1726 122.189 97.4894L122.448 85.837L64.5186 75.554Z" fill="url(#paint34_linear)"/>
<path opacity="0.26" d="M25.3093 59.4311L42.5829 63.3638L59.2152 58.2905L42.7581 55.1807L25.3093 59.4311Z" fill="url(#paint35_linear)"/>
<path opacity="0.26" d="M59.2152 58.2905V76.7449L42.583 83.0508V63.3638L59.2152 58.2905Z" fill="url(#paint36_linear)"/>
<path opacity="0.2" d="M56.2275 49.1401L40.1487 86.0051L41.6756 86.6714L57.7544 49.8064L56.2275 49.1401Z" fill="white"/>
<path opacity="0.2" d="M59.3068 50.3752L43.228 87.2402L44.7549 87.9065L60.8337 51.0415L59.3068 50.3752Z" fill="white"/>
<path opacity="0.26" d="M25.3093 59.4312V77.33L42.583 83.0508V63.3638L25.3093 59.4312Z" fill="url(#paint37_linear)"/>
<path opacity="0.2" d="M39.9838 47.8606L18.3662 89.7368L19.419 90.2806L41.0366 48.4044L39.9838 47.8606Z" fill="white"/>
<path opacity="0.2" d="M42.6352 49.2297L21.0176 91.106L22.0703 91.6497L43.688 49.7735L42.6352 49.2297Z" fill="white"/>
<path opacity="0.2" d="M44.8581 50.0327L23.2405 91.9089L24.2932 92.4527L45.9108 50.5765L44.8581 50.0327Z" fill="white"/>
<path d="M108.56 63.4025C112.118 63.4025 115.003 60.5167 115.003 56.957C115.003 53.3972 112.118 50.5115 108.56 50.5115C105.001 50.5115 102.116 53.3972 102.116 56.957C102.116 60.5167 105.001 63.4025 108.56 63.4025Z" fill="url(#paint38_linear)"/>
<path d="M152.259 62.7045C149.364 62.6451 146.465 62.654 143.582 62.8649C142.863 62.9213 142.145 62.9896 141.432 63.0995C140.726 63.1821 140.035 63.3599 139.377 63.6282C139.232 63.6941 139.101 63.7891 138.994 63.9074C138.952 63.9557 138.927 64.0161 138.922 64.0798C138.917 64.1434 138.933 64.2069 138.967 64.2609C139.159 64.5345 139.412 64.7593 139.707 64.9173C140.326 65.2732 140.974 65.5772 141.643 65.8263C142.967 66.3401 144.422 66.747 145.607 67.7243C145.918 67.9779 146.166 68.3002 146.332 68.6658C146.413 68.8685 146.448 69.0865 146.436 69.3044C146.422 69.5213 146.36 69.7323 146.255 69.9223C146.056 70.2771 145.778 70.5819 145.444 70.8133C145.136 71.0345 144.807 71.2246 144.461 71.3807C143.097 71.9576 141.657 72.3328 140.185 72.4945C138.731 72.6785 137.264 72.75 135.799 72.7084C134.333 72.6614 132.872 72.5206 131.425 72.2866C130.7 72.1737 129.981 72.0371 129.266 71.8767C128.91 71.8024 128.544 71.7074 128.2 71.6272C127.855 71.547 127.511 71.4727 127.164 71.4074C124.377 70.8934 121.514 70.9703 118.76 71.6331C117.406 71.9524 116.105 72.4678 114.9 73.1628C114.324 73.4963 113.799 73.9103 113.341 74.3925C112.921 74.7957 112.656 75.3324 112.589 75.9103C112.591 76.1785 112.652 76.443 112.769 76.6845C112.885 76.926 113.054 77.1385 113.263 77.3064C113.75 77.7351 114.303 78.0804 114.903 78.3281C116.189 78.857 117.532 79.2347 118.905 79.4539C119.652 79.5829 120.39 79.7585 121.115 79.9796C121.882 80.2095 122.613 80.5476 123.285 80.9836C123.657 81.2327 123.986 81.5407 124.259 81.8955C124.563 82.2919 124.761 82.7589 124.836 83.2529C124.897 83.7389 124.847 84.2325 124.69 84.6964C124.544 85.1098 124.344 85.5023 124.096 85.8637C123.634 86.5197 123.085 87.1093 122.463 87.6162C121.874 88.1057 121.252 88.5534 120.601 88.9558C119.324 89.7431 117.98 90.4179 116.586 90.9726C113.822 92.0842 110.929 92.8417 107.975 93.2271C104.99 93.6418 101.96 93.5897 98.9919 93.0726C98.2465 92.9271 97.5071 92.7548 96.7707 92.5409C96.0847 92.3419 95.4196 92.1548 94.7336 91.9974C93.3677 91.6771 91.9846 91.4351 90.5911 91.2726C87.8102 90.9405 85.0003 90.9306 82.2171 91.2429C80.8504 91.3938 79.4986 91.6581 78.1756 92.033C77.5385 92.2142 76.9145 92.4384 76.3078 92.7043C75.7482 92.9427 75.2205 93.25 74.7369 93.6191C74.5402 93.7701 74.3626 93.9447 74.2084 94.1389C74.1036 94.2683 74.0268 94.418 73.9827 94.5785C73.96 94.6945 73.9682 94.8143 74.0064 94.9261C74.0657 95.1073 74.1573 95.2764 74.2767 95.4251C74.6358 95.8614 75.0605 96.2392 75.5357 96.5449C76.0778 96.9082 76.6455 97.2318 77.2343 97.5132L75.901 100.169C75.1925 99.8063 74.5098 99.3954 73.858 98.9389C73.1281 98.4381 72.4842 97.8222 71.9515 97.1152C71.6322 96.6842 71.3956 96.1978 71.2537 95.6805C71.1003 95.0964 71.1003 94.4825 71.2537 93.8983C71.3989 93.3549 71.658 92.8487 72.0139 92.4132C72.3154 92.0443 72.6604 91.7132 73.0414 91.4271C73.7187 90.9289 74.4547 90.5159 75.2329 90.1974C75.9587 89.8983 76.7037 89.6482 77.4629 89.4489C78.9246 89.0654 80.4154 88.8031 81.9202 88.6647C84.903 88.393 87.9073 88.4667 90.8732 88.8845C92.3584 89.0886 93.8307 89.3772 95.283 89.7489C96.0046 89.933 96.7291 90.1528 97.4299 90.3726C98.0802 90.5776 98.7454 90.7469 99.4165 90.8924C102.155 91.4278 104.96 91.533 107.731 91.2043C110.531 90.902 113.28 90.2462 115.915 89.2528C117.222 88.7675 118.484 88.1713 119.689 87.4707C120.278 87.1238 120.842 86.7357 121.376 86.3093C121.888 85.9126 122.344 85.4491 122.733 84.9311C122.901 84.6991 123.039 84.4466 123.143 84.1796C123.226 83.9589 123.258 83.7224 123.238 83.4875C123.188 83.2407 123.087 83.0072 122.941 82.8024C122.794 82.5977 122.606 82.4262 122.389 82.2994C121.852 81.9373 121.266 81.6542 120.648 81.4588C119.992 81.2431 119.322 81.0685 118.644 80.9361C117.161 80.6666 115.715 80.224 114.335 79.6172C113.601 79.293 112.926 78.8471 112.34 78.2984C112.02 77.9933 111.757 77.6331 111.565 77.2351C111.364 76.8049 111.274 76.3309 111.303 75.8569C111.34 75.4035 111.473 74.963 111.692 74.5648C111.896 74.1988 112.146 73.8612 112.438 73.5609C112.989 73.0026 113.617 72.5255 114.303 72.144C115.625 71.4184 117.045 70.8891 118.519 70.5728C121.427 69.9314 124.437 69.9081 127.354 70.5044C127.716 70.5817 128.075 70.6619 128.435 70.7599C128.794 70.8579 129.126 70.944 129.477 71.0272C130.172 71.1955 130.872 71.344 131.576 71.4727C132.985 71.7238 134.408 71.8845 135.838 71.9539C137.266 72.0253 138.697 71.9866 140.12 71.8381C141.533 71.7122 142.921 71.3831 144.241 70.8609C144.554 70.726 144.852 70.5609 145.132 70.3678C145.403 70.1904 145.632 69.9563 145.803 69.6817C145.879 69.5575 145.924 69.4175 145.937 69.2727C145.949 69.1279 145.928 68.9822 145.874 68.847C145.744 68.5498 145.547 68.2865 145.298 68.0777C144.76 67.6307 144.16 67.2636 143.517 66.9876C142.875 66.6906 142.186 66.4619 141.512 66.1738C140.83 65.9011 140.172 65.5733 139.543 65.1936C139.202 65.0019 138.914 64.7271 138.706 64.3946C138.651 64.2906 138.628 64.173 138.638 64.056C138.641 63.9948 138.657 63.9351 138.685 63.8807C138.708 63.8273 138.738 63.7773 138.774 63.7322C138.911 63.5821 139.078 63.4627 139.264 63.3817C139.952 63.1143 140.674 62.9424 141.408 62.8708C142.13 62.7787 142.854 62.7223 143.579 62.6807C146.468 62.5292 149.367 62.5827 152.259 62.7045Z" fill="url(#paint39_linear)"/>
<path d="M87.6631 34.3533L97.7594 30.7681L108.56 32.9157L121.106 28.1543L130.599 29.0602L110.026 38.4077L87.6631 34.3533Z" fill="#E8366B"/>
<path d="M140.461 105.827C140.461 105.827 141.114 114.402 135.46 117.263C131.668 119.178 132.06 127.81 132.06 127.81L130.065 127.287V104.663L140.461 105.827Z" fill="url(#paint40_linear)"/>
<path d="M137.453 103.341C138.483 103.341 139.318 103.109 139.318 102.824C139.318 102.539 138.483 102.307 137.453 102.307C136.423 102.307 135.588 102.539 135.588 102.824C135.588 103.109 136.423 103.341 137.453 103.341Z" fill="white"/>
<path d="M141.18 101.401C142.209 101.401 143.044 101.17 143.044 100.884C143.044 100.599 142.209 100.368 141.18 100.368C140.15 100.368 139.315 100.599 139.315 100.884C139.315 101.17 140.15 101.401 141.18 101.401Z" fill="url(#paint41_linear)"/>
<path d="M131.538 85.0379V98.1695L145.278 90.0221V77.3301L131.538 85.0379Z" fill="url(#paint42_linear)"/>
<path d="M146.035 76.7031V77.8586L156.069 72.1408V70.9854L146.035 76.7031Z" fill="url(#paint43_linear)"/>
<path d="M146.035 79.0262V80.1816L156.069 74.4609V73.3054L146.035 79.0262Z" fill="url(#paint44_linear)"/>
<path d="M146.035 81.2093V82.3647L156.069 76.6469V75.4885L146.035 81.2093Z" fill="url(#paint45_linear)"/>
<path d="M146.035 83.5559V84.7143L156.069 78.9936V77.8381L146.035 83.5559Z" fill="url(#paint46_linear)"/>
<path d="M48.6171 39.9996C48.6171 39.952 48.6023 39.7411 48.5815 39.4055L48.8785 39.3877C48.8992 39.7293 48.9141 39.9461 48.9141 39.9817L48.6171 39.9996ZM48.5429 38.8114L48.5013 38.2174L48.7983 38.1966L48.8369 38.7906L48.5429 38.8114ZM48.4598 37.6233H48.6082H48.4598L48.4182 37.0293L48.7151 37.0085L48.7567 37.6025L48.4598 37.6233ZM57.5108 36.6016L57.1129 36.162L57.3326 35.9629L57.7306 36.4025L57.5108 36.6016ZM48.3647 36.4352L48.3232 35.8412L48.6201 35.8204L48.6617 36.4144L48.3647 36.4352ZM56.7031 35.7224L56.3022 35.2798L56.5249 35.0808L56.9229 35.5204L56.7031 35.7224ZM48.2786 35.2471L48.237 34.6531L48.534 34.6323L48.5756 35.2263L48.2786 35.2471ZM55.9043 34.8402L55.5064 34.4006L55.7261 34.2016L56.1241 34.6412L55.9043 34.8402ZM48.1836 34.059L48.142 33.4649L48.439 33.4441L48.4835 34.0382L48.1836 34.059ZM55.0966 33.961L54.6987 33.5184L54.9184 33.3194L55.3163 33.759L55.0966 33.961ZM54.2978 33.0699L53.8999 32.6303L54.1196 32.4313L54.5205 32.8709L54.2978 33.0699ZM48.0975 32.862L48.0559 32.2679L48.3529 32.2471L48.3944 32.8412L48.0975 32.862ZM53.502 32.1877L53.1159 31.757L53.3357 31.558L53.7336 31.9976L53.502 32.1877ZM48.0381 31.6828L47.9935 31.0887L48.2905 31.0679L48.3321 31.662L48.0381 31.6828ZM52.7269 31.3174L52.329 30.8778L52.5488 30.6788L52.9497 31.1184L52.7269 31.3174ZM47.952 30.4947L47.9074 29.9006L48.2044 29.8798L48.2489 30.4739L47.952 30.4947ZM51.9311 30.4353L51.5332 29.9957L51.7529 29.7966L52.1509 30.2362L51.9311 30.4353ZM51.1323 29.5442L50.7403 29.1165L50.9631 28.9145L51.361 29.357L51.1323 29.5442ZM47.8659 29.2947L47.8243 28.7006L48.1212 28.6769L48.1658 29.2709L47.8659 29.2947ZM50.3365 28.662L49.9386 28.2224L50.1464 28.0293L50.5444 28.4689L50.3365 28.662ZM47.7708 28.1184L47.7263 27.5244L48.0232 27.5036L48.0678 28.0976L47.7708 28.1184ZM49.5525 27.7947L49.1517 27.3521L49.3744 27.1531L49.7723 27.5957L49.5525 27.7947ZM47.7055 26.9274L47.661 26.3333L47.9579 26.3095L48.0025 26.9036L47.7055 26.9274ZM48.7537 26.9125L48.3558 26.4729L48.5756 26.2739L48.9586 26.7135L48.7537 26.9125ZM47.9579 26.0214L47.6847 25.7244H47.6194V25.668C47.6194 25.5581 47.6194 25.5046 47.6818 25.4541L47.7886 25.3828L48.1836 25.8224L47.9579 26.0214Z" fill="#73B4D8"/>
<path d="M37.8881 37.87L37.6565 37.6799L38.0336 37.2225L38.2623 37.4096L37.8881 37.87ZM38.6394 36.9492L38.4107 36.7621L38.7849 36.3017L39.0165 36.4918L38.6394 36.9492ZM39.3907 36.0314L39.162 35.8413L39.5392 35.3839L39.7678 35.571L39.3907 36.0314ZM40.1449 35.1106L39.9133 34.9235L40.2904 34.4631L40.5221 34.6532L40.1449 35.1106ZM40.8962 34.1928L40.6676 34.0027L41.0447 33.5453L41.2734 33.7324L40.8962 34.1928ZM41.6505 33.272L41.4189 33.0849L41.796 32.6245L42.0246 32.8146L41.6505 33.272ZM42.4018 32.3542L42.1731 32.1641L42.5473 31.7067L42.7789 31.8938L42.4018 32.3542ZM43.1531 31.4334L42.9244 31.2463L43.3015 30.7859L43.5302 30.973L43.1531 31.4334ZM43.9103 30.5156L43.6787 30.3255L44.0558 29.8681L44.2844 30.0552L43.9103 30.5156ZM44.6616 29.5948L44.4329 29.4077L44.8011 28.9473L45.0298 29.1344L44.6616 29.5948ZM45.4158 28.677L45.1842 28.4869L45.5583 28.0295L45.787 28.2166L45.4158 28.677ZM46.1671 27.7562L45.9384 27.5691L46.3126 27.1087L46.5442 27.2958L46.1671 27.7562ZM46.9154 26.8413L46.6868 26.6512L47.0639 26.1938L47.2926 26.3809L46.9154 26.8413ZM47.6697 25.9206L47.4381 25.7334L47.6311 25.4988L47.8597 25.6889L47.6697 25.9206Z" fill="#73B4D8"/>
<path d="M47.7441 28.0442C49.0987 28.0442 50.1969 26.9458 50.1969 25.5908C50.1969 24.2358 49.0987 23.1373 47.7441 23.1373C46.3894 23.1373 45.2913 24.2358 45.2913 25.5908C45.2913 26.9458 46.3894 28.0442 47.7441 28.0442Z" fill="url(#paint47_linear)"/>
<path d="M104.488 27.4354H104.191V26.8413H104.488V27.4354ZM104.488 26.2473H104.191V25.6532H104.488V26.2473ZM104.488 25.0591H104.191V24.4651H104.488V25.0591ZM104.488 23.871H104.191V23.277H104.488V23.871ZM104.488 22.6829H104.191V22.0889H104.488V22.6829ZM104.488 21.4948H104.191V20.9008H104.488V21.4948ZM104.488 20.3067H104.191V19.7127H104.488V20.3067ZM104.488 19.1186H104.191V18.5245H104.488V19.1186ZM104.488 17.9305H104.191V17.3364H104.488V17.9305ZM104.488 16.7424H104.191V16.1483H104.488V16.7424ZM104.488 15.5543H104.191V14.9602H104.488V15.5543ZM104.488 14.3662H104.191V13.7721H104.488V14.3662Z" fill="#73B4D8"/>
<path d="M25.3093 77.3301L42.583 83.0508V104.657L25.3093 98.8319V77.3301Z" fill="url(#paint48_linear)"/>
<path d="M48.0083 65.3184C48.3511 65.3184 48.629 64.8809 48.629 64.3412C48.629 63.8015 48.3511 63.364 48.0083 63.364C47.6656 63.364 47.3877 63.8015 47.3877 64.3412C47.3877 64.8809 47.6656 65.3184 48.0083 65.3184Z" fill="white"/>
<path d="M49.6446 66.952C49.9873 66.952 50.2652 66.5145 50.2652 65.9748C50.2652 65.4351 49.9873 64.9976 49.6446 64.9976C49.3018 64.9976 49.0239 65.4351 49.0239 65.9748C49.0239 66.5145 49.3018 66.952 49.6446 66.952Z" fill="white"/>
<path d="M50.2649 64.6974C50.6077 64.6974 50.8855 64.2599 50.8855 63.7201C50.8855 63.1804 50.6077 62.7429 50.2649 62.7429C49.9221 62.7429 49.6443 63.1804 49.6443 63.7201C49.6443 64.2599 49.9221 64.6974 50.2649 64.6974Z" fill="white"/>
<path opacity="0.5" d="M79.5978 69.9401C78.214 66.4263 79.9126 62.5144 81.7596 59.2145C82.3238 58.2075 82.9237 57.1056 82.7277 55.9679C82.6798 55.7033 82.5958 55.4465 82.4782 55.2046C80.1645 55.3697 77.9978 56.4006 76.4098 58.0919C74.8217 59.7832 73.9289 62.0107 73.909 64.3309C73.8892 66.651 74.7438 68.8935 76.3027 70.6117C77.8615 72.3299 80.0103 73.3977 82.3209 73.6025C81.1895 72.5599 80.159 71.3688 79.5978 69.9401Z" fill="url(#paint49_linear)"/>
<path d="M92.3548 64.4093C92.3548 61.9617 91.3827 59.6144 89.6525 57.8837C87.9222 56.153 85.5755 55.1807 83.1285 55.1807C82.9088 55.1807 82.695 55.1807 82.4782 55.2044C82.5958 55.4463 82.6797 55.7031 82.7276 55.9678C82.9236 57.1054 82.3238 58.2074 81.7596 59.2143C79.9125 62.5054 78.214 66.4261 79.5978 69.94C80.159 71.3687 81.1894 72.5598 82.3208 73.6023C82.5881 73.6261 82.8553 73.638 83.1285 73.638C85.5755 73.638 87.9222 72.6657 89.6525 70.935C91.3827 69.2042 92.3548 66.8569 92.3548 64.4093Z" fill="url(#paint50_linear)"/>
<path opacity="0.5" d="M153.357 116.788L146.721 123.322L141.904 122.597C141.904 122.597 149.815 116.476 150.141 116.544C150.468 116.612 153.357 116.788 153.357 116.788Z" fill="url(#paint51_linear)"/>
<path opacity="0.5" d="M161.102 112.682L154.465 119.217L149.646 118.483C149.646 118.483 157.557 112.362 157.883 112.43C158.21 112.498 161.102 112.682 161.102 112.682Z" fill="url(#paint52_linear)"/>
<path d="M152.054 80.5768C152.091 80.3605 152.091 80.1395 152.054 79.9233C151.982 79.702 151.862 79.4993 151.704 79.3292L151.211 78.7352C151.145 78.655 151.059 78.5659 150.955 78.5807C150.851 78.5956 150.777 78.7738 150.813 78.9015C150.869 79.0214 150.919 79.1444 150.961 79.2698C151.009 79.5342 150.786 79.7718 150.753 80.0391C150.758 80.3175 150.852 80.587 151.021 80.8084C151.183 81.1081 151.322 81.4199 151.436 81.7411C151.546 82.0381 151.618 82.4332 151.926 82.0381C152.235 81.6431 152.001 81.0282 152.054 80.5768Z" fill="white"/>
<path d="M155.739 91.0886C155.621 91.1865 155.526 91.3102 155.463 91.4502C155.399 91.5903 155.369 91.7429 155.374 91.8965C155.372 91.9206 155.379 91.9446 155.392 91.9649C155.412 91.9858 155.44 91.9993 155.469 92.0035C155.958 92.1383 156.467 92.1796 156.971 92.1253C156.992 92.1249 157.013 92.1199 157.032 92.1106C157.051 92.1014 157.068 92.0881 157.081 92.0718C157.092 92.04 157.092 92.0056 157.081 91.9738C157.04 91.6768 156.933 91.0173 156.666 90.8213C156.398 90.6253 155.968 90.9045 155.739 91.0886Z" fill="white"/>
<path d="M158.634 112.801C158.602 112.798 158.571 112.798 158.539 112.801C158.212 112.875 156.241 113.327 156.083 113.553C155.926 113.778 157.235 114.313 158.218 114.215C158.791 114.159 159.406 114.075 159.804 114.016C159.864 114.007 159.921 113.986 159.972 113.954C160.023 113.922 160.067 113.88 160.101 113.83C160.134 113.779 160.157 113.723 160.167 113.663C160.177 113.604 160.175 113.543 160.16 113.484L160.065 113.116C160.042 113.023 159.989 112.941 159.913 112.882C159.838 112.824 159.745 112.792 159.65 112.792L158.634 112.801Z" fill="#E8366B"/>
<path d="M159.76 111.696C159.76 111.696 157.432 112.213 157.259 112.457C157.087 112.7 158.412 113.217 159.391 113.119C159.926 113.066 160.49 112.991 160.891 112.935C160.962 112.924 161.03 112.899 161.09 112.86C161.15 112.822 161.202 112.771 161.242 112.712C161.281 112.652 161.308 112.585 161.32 112.515C161.333 112.444 161.33 112.372 161.313 112.302L161.158 111.708L159.76 111.696Z" fill="#E8366B"/>
<path d="M156.751 99.7291L157.532 112.703C157.532 112.703 157.734 114.396 160.137 113.146V112.088C160.323 112.154 160.527 112.147 160.708 112.069C160.889 111.992 161.035 111.849 161.117 111.67L161.927 99.0876C161.927 99.0876 157.301 98.2321 156.751 99.7291Z" fill="#611831"/>
<path d="M158.875 81.8064C158.884 82.0746 158.827 82.341 158.708 82.5816C158.563 82.9024 158.364 83.1965 158.239 83.5232C158.07 84.0666 158.006 84.637 158.049 85.2044C158.04 85.4596 158.073 85.7146 158.147 85.9589C158.175 86.0455 158.228 86.122 158.299 86.1787C158.362 86.208 158.432 86.2232 158.502 86.2232C158.572 86.2232 158.642 86.208 158.705 86.1787C159.12 86.0222 159.508 85.8017 159.855 85.5252C160.169 85.2935 160.478 85.0529 160.784 84.8094C160.656 85.1729 160.443 85.5007 160.163 85.7658C159.647 86.1193 158.916 86.6717 158.043 86.3599C157.283 86.0925 157.672 83.749 157.788 83.143C157.788 83.0955 157.806 83.048 157.818 83.0005C157.884 82.7305 158.014 82.4807 158.199 82.2727C158.383 82.0646 158.615 81.9046 158.875 81.8064Z" fill="white"/>
<path d="M158.705 86.1788C158.642 86.2081 158.572 86.2233 158.502 86.2233C158.432 86.2233 158.362 86.2081 158.299 86.1788C158.228 86.1221 158.175 86.0456 158.147 85.959C158.073 85.7147 158.04 85.4597 158.049 85.2045C158.006 84.6371 158.07 84.0667 158.239 83.5233C158.364 83.1966 158.563 82.9025 158.708 82.5818C158.827 82.3411 158.884 82.0747 158.875 81.8065C159.198 81.6828 159.551 81.6611 159.887 81.7441C160.107 81.7977 160.313 81.894 160.495 82.0276C160.677 82.1612 160.831 82.3295 160.947 82.5227C161.064 82.7159 161.141 82.9302 161.175 83.1534C161.209 83.3766 161.198 83.6043 161.143 83.8233C161.126 83.8887 161.105 83.954 161.081 84.0194C161.019 84.2065 160.915 84.5095 160.784 84.8154C160.487 85.059 160.169 85.2996 159.855 85.5312C159.508 85.8057 159.12 86.0241 158.705 86.1788Z" fill="#CBE7F4"/>
<path d="M160.704 84.034C160.704 84.034 160.045 85.9647 160.327 87.138C160.327 87.138 159.872 87.7677 158.34 87.031C158.34 87.031 158.269 85.4063 158.785 84.2627C159.302 83.1192 160.704 83.0925 160.704 84.034Z" fill="#CBE7F4"/>
<path d="M158.83 84.5482C158.878 84.264 158.878 83.9739 158.83 83.6897C158.774 83.4076 158.652 83.1402 158.596 82.8551C158.558 82.7147 158.554 82.5674 158.583 82.4251C158.612 82.2827 158.675 82.1492 158.765 82.0353C159.026 81.768 159.481 81.7828 159.754 81.5303C159.829 81.4545 159.893 81.3685 159.944 81.2749C160.082 81.3416 160.204 81.4379 160.3 81.5571C160.689 81.3699 160.936 81.9224 161.512 82.3977C162.088 82.8729 162.07 83.9155 161.42 84.6105C161.017 85.0356 160.638 85.4828 160.285 85.9501C159.914 86.3333 158.801 85.7986 158.801 85.7986L158.732 85.0472C158.774 84.8828 158.807 84.7162 158.83 84.5482Z" fill="#611831"/>
<path d="M158.637 83.9331C158.341 82.644 157.747 82.5579 157.987 81.94C158.228 81.3222 158.444 81.5866 159.151 81.2806C159.272 81.2227 159.404 81.1926 159.537 81.1926C159.671 81.1926 159.803 81.2227 159.923 81.2806C159.872 81.3742 159.808 81.4602 159.733 81.5361C159.46 81.7886 159.006 81.7737 158.744 82.041C158.654 82.1549 158.592 82.2884 158.562 82.4308C158.533 82.5732 158.537 82.7205 158.575 82.8608C158.632 83.1579 158.753 83.4133 158.81 83.6955C158.857 83.9796 158.857 84.2697 158.81 84.5539C158.789 84.7188 158.759 84.8824 158.721 85.044L158.673 84.5242L158.637 83.9331Z" fill="#1A3A6B"/>
<path d="M159.161 84.3607C159.257 83.9688 159.13 83.6007 158.876 83.5384C158.623 83.4762 158.34 83.7435 158.244 84.1354C158.147 84.5273 158.275 84.8954 158.528 84.9576C158.781 85.0198 159.064 84.7526 159.161 84.3607Z" fill="#CBE7F4"/>
<path d="M158.922 86.5916C159.192 86.4845 159.473 86.4068 159.76 86.3599C161.138 86.1728 161.681 86.6807 161.681 86.6807C162.492 87.1054 162.72 88.4421 162.72 88.4421L162.474 99.4321C161.515 101.74 157.83 100.689 156.761 100.323C156.556 100.252 156.434 100.201 156.434 100.201C156.449 100.1 156.787 95.5054 156.764 94.5787L156.131 90.7381C156.107 90.5933 156.053 90.4553 155.972 90.3333C155.89 90.2114 155.784 90.1083 155.659 90.0312L152 87.7322L151.056 81.5391C151.056 81.5391 151.187 80.2946 152.101 80.5887L154.424 86.1371C154.424 86.1371 157.69 85.9857 157.937 86.6391C158.263 86.7191 158.605 86.7026 158.922 86.5916Z" fill="#E8366B"/>
<path opacity="0.5" d="M160.555 95.9748C160.446 94.8406 159.893 93.7955 159.017 93.0669C158.536 92.6659 157.954 92.3362 157.681 91.7719C157.238 90.866 157.785 89.7848 157.681 88.7808C157.679 88.6475 157.637 88.5177 157.562 88.4078C157.486 88.2979 157.38 88.2127 157.256 88.163C156.508 87.7531 155.599 87.8422 154.753 87.7412C153.907 87.6402 152.95 87.1828 152.844 86.3363C152.778 85.8105 153.063 85.2373 152.814 84.768C152.675 84.5658 152.509 84.3839 152.321 84.2274C151.899 83.7878 151.727 83.164 151.584 82.5729C151.457 82.0621 151.326 81.5512 151.198 81.0403C151.128 81.2001 151.081 81.3692 151.059 81.5423L152 87.7323L155.662 90.0224C155.786 90.0996 155.893 90.2026 155.974 90.3246C156.056 90.4465 156.11 90.5846 156.134 90.7293L156.751 94.564C156.775 95.4907 156.437 100.086 156.422 100.187C156.422 100.187 156.543 100.237 156.748 100.308C157.398 100.535 158.067 100.699 158.747 100.799C158.94 100.502 159.133 100.187 159.32 99.8778C160.048 98.6956 160.665 97.359 160.555 95.9748Z" fill="url(#paint53_linear)"/>
<path d="M161.681 86.6806C161.681 86.6806 161.137 86.1727 159.759 86.3599C159.473 86.4067 159.192 86.4844 158.922 86.5915C158.604 86.7041 158.261 86.7217 157.933 86.642C157.69 85.9886 154.42 86.1401 154.42 86.1401L152.098 80.6035C152.009 80.5702 151.915 80.5554 151.82 80.5602C151.726 80.565 151.633 80.5891 151.548 80.6312C151.463 80.6732 151.388 80.7323 151.326 80.8047C151.265 80.877 151.22 80.9612 151.192 81.052C151.32 81.5629 151.451 82.0738 151.578 82.5846C151.73 83.1787 151.893 83.7995 152.315 84.2391C152.503 84.3956 152.669 84.5775 152.808 84.7797C153.057 85.249 152.772 85.8222 152.837 86.348C152.944 87.1945 153.901 87.6549 154.747 87.7529C155.593 87.8509 156.502 87.7529 157.25 88.1747C157.374 88.2244 157.48 88.3096 157.556 88.4195C157.631 88.5294 157.673 88.6592 157.675 88.7925C157.785 89.7965 157.238 90.8717 157.675 91.7836C157.948 92.3479 158.53 92.6747 159.011 93.0786C159.887 93.8072 160.44 94.8523 160.549 95.9865C160.659 97.3707 160.041 98.7073 159.326 99.8984C159.139 100.195 158.946 100.513 158.753 100.819C160.184 101.021 161.865 100.899 162.468 99.4469L162.714 88.4569C162.714 88.4569 162.491 87.1054 161.681 86.6806Z" fill="#E8366B"/>
<path d="M160.084 80.1936C159.22 80.4275 158.468 80.9641 157.966 81.7055C157.857 81.8778 157.497 81.7055 157.343 82.157C157.343 82.157 157.304 84.5332 161.447 84.753C161.447 84.753 162.801 83.1342 161.895 81.5896C161.895 81.5896 161.919 80.2292 160.084 80.1936Z" fill="#A6274D"/>
<path opacity="0.5" d="M160.211 81.055C160.401 80.7936 160.657 80.5708 160.835 80.3065C160.591 80.2344 160.338 80.1965 160.084 80.1936C159.22 80.4275 158.468 80.9641 157.966 81.7055C157.857 81.8778 157.497 81.7055 157.343 82.157C157.343 82.157 157.304 84.5332 161.447 84.753C161.548 84.6242 161.641 84.4882 161.723 84.3461C161.345 84.2434 160.985 84.082 160.657 83.8678C160.239 83.5437 159.96 83.0723 159.877 82.5497C159.794 82.027 159.914 81.4925 160.211 81.055Z" fill="url(#paint54_linear)"/>
<path d="M161.895 81.5898C161.88 81.2903 161.768 81.0036 161.577 80.7724C161.386 80.5412 161.126 80.3779 160.835 80.3066C160.656 80.571 160.401 80.7938 160.211 81.0551C159.913 81.4927 159.794 82.0272 159.877 82.5498C159.959 83.0725 160.238 83.5439 160.656 83.868C160.985 84.0822 161.344 84.2435 161.722 84.3462C162.064 83.77 162.524 82.6621 161.895 81.5898Z" fill="#A6274D"/>
<path d="M150.718 116.93C150.687 116.926 150.656 116.926 150.626 116.93C150.299 117.001 148.327 117.453 148.17 117.679C148.013 117.904 149.322 118.439 150.302 118.341C150.878 118.285 151.49 118.201 151.891 118.142C151.95 118.133 152.008 118.112 152.059 118.08C152.11 118.048 152.153 118.006 152.186 117.955C152.22 117.905 152.242 117.848 152.252 117.789C152.262 117.729 152.259 117.669 152.244 117.61L152.152 117.242C152.128 117.149 152.074 117.067 151.998 117.009C151.922 116.95 151.829 116.918 151.733 116.918L150.718 116.93Z" fill="#E8366B"/>
<path d="M151.846 115.828C151.846 115.828 149.518 116.342 149.346 116.589C149.173 116.835 150.498 117.349 151.478 117.251C152.012 117.197 152.573 117.12 152.962 117.064C153.033 117.053 153.101 117.028 153.161 116.99C153.222 116.952 153.273 116.902 153.313 116.843C153.353 116.783 153.38 116.716 153.392 116.646C153.404 116.575 153.401 116.503 153.384 116.434L153.23 115.84L151.846 115.828Z" fill="#E8366B"/>
<path d="M148.847 103.858L149.625 116.841C149.625 116.841 149.824 118.534 152.226 117.283V116.229C152.413 116.294 152.617 116.288 152.799 116.21C152.981 116.133 153.127 115.99 153.209 115.81L154.017 103.231C154.017 103.231 149.387 102.364 148.847 103.858Z" fill="#611831"/>
<path d="M149.824 86.1399C149.897 86.3982 149.905 86.6707 149.848 86.933C149.785 87.2775 149.661 87.6132 149.616 87.9607C149.583 88.5277 149.657 89.096 149.833 89.6359C149.885 89.8863 149.978 90.1262 150.109 90.3458C150.155 90.425 150.224 90.4874 150.308 90.524C150.377 90.5378 150.448 90.5364 150.516 90.52C150.584 90.5036 150.648 90.4725 150.703 90.429C151.068 90.1772 151.392 89.8695 151.662 89.5171C151.914 89.2201 152.155 88.9231 152.393 88.6023C152.357 88.9857 152.228 89.3547 152.018 89.6775C151.603 90.1438 151.027 90.8656 150.103 90.7617C149.301 90.6815 149.12 88.3141 149.087 87.6993C149.087 87.6488 149.087 87.6013 149.087 87.5508C149.087 87.2735 149.153 87.0002 149.282 86.7545C149.41 86.5087 149.596 86.2978 149.824 86.1399Z" fill="white"/>
<path d="M150.702 90.4293C150.647 90.4728 150.584 90.5038 150.515 90.5202C150.447 90.5366 150.376 90.538 150.307 90.5243C150.224 90.4877 150.154 90.4252 150.109 90.3461C149.978 90.1265 149.884 89.8866 149.832 89.6362C149.656 89.0962 149.583 88.528 149.616 87.9609C149.66 87.6134 149.785 87.2778 149.847 86.9332C149.905 86.671 149.897 86.3985 149.823 86.1402C150.081 85.9664 150.38 85.8658 150.69 85.849C150.999 85.8321 151.308 85.8997 151.582 86.0446C151.857 86.1894 152.087 86.4061 152.248 86.6714C152.408 86.9367 152.494 87.2407 152.496 87.551C152.501 87.6193 152.501 87.6878 152.496 87.756C152.496 87.955 152.451 88.2728 152.395 88.6025C152.157 88.8996 151.917 89.2174 151.665 89.5174C151.394 89.87 151.069 90.1777 150.702 90.4293Z" fill="#CBE7F4"/>
<path d="M144.016 95.6183C143.787 95.7007 143.577 95.8279 143.398 95.9925C143.264 95.8113 143.457 95.6628 144.016 95.3985C144.574 95.1342 145.266 95.5797 145.266 95.5797C145.261 95.645 145.25 95.7096 145.233 95.7727C145.096 95.6955 144.529 95.3836 144.016 95.6183Z" fill="white"/>
<path d="M144.725 96.4322C144.205 96.6698 143.608 96.2243 143.424 96.0253L143.397 95.9926C143.576 95.8279 143.786 95.7007 144.015 95.6183C144.529 95.3836 145.096 95.6955 145.233 95.7787C145.202 95.9187 145.141 96.0501 145.053 96.1632C144.965 96.2764 144.853 96.3683 144.725 96.4322Z" fill="#CBE7F4"/>
<path d="M152.134 87.8687C152.134 87.8687 151.953 89.9004 152.505 90.9697C152.505 90.9697 152.208 91.6915 150.551 91.341C150.551 91.341 150.094 89.7816 150.323 88.5459C150.551 87.3103 151.908 86.9539 152.134 87.8687Z" fill="#CBE7F4"/>
<path d="M150.423 88.8164C150.4 88.5294 150.328 88.2483 150.213 87.9847C150.088 87.7233 149.916 87.4946 149.782 87.2302C149.712 87.1033 149.672 86.9615 149.667 86.8165C149.662 86.6714 149.691 86.5272 149.752 86.3956C149.942 86.0718 150.388 85.9798 150.593 85.6679C150.648 85.5754 150.69 85.4753 150.717 85.3708C150.867 85.4019 151.007 85.467 151.127 85.561C151.463 85.2847 151.834 85.7629 152.505 86.0897C153.176 86.4164 153.396 87.4263 152.945 88.2609C152.661 88.7633 152.405 89.2809 152.178 89.8114C151.911 90.2748 150.694 90.0223 150.694 90.0223L150.45 89.3094C150.451 89.1447 150.442 88.98 150.423 88.8164Z" fill="#611831"/>
<path d="M150.103 88.2637C149.509 87.0755 148.915 87.1379 148.995 86.4815C149.075 85.825 149.354 86.03 149.966 85.5637C150.07 85.4787 150.191 85.4176 150.321 85.3848C150.45 85.3519 150.586 85.3481 150.717 85.3736C150.69 85.478 150.648 85.5781 150.593 85.6706C150.388 85.9825 149.942 86.0745 149.752 86.3983C149.691 86.5299 149.662 86.6741 149.667 86.8192C149.672 86.9642 149.712 87.106 149.782 87.233C149.904 87.4973 150.079 87.726 150.213 87.9874C150.328 88.251 150.4 88.5321 150.423 88.8191C150.444 88.9847 150.454 89.1513 150.453 89.3181L150.284 88.825L150.103 88.2637Z" fill="#1A3A6B"/>
<path d="M150.222 89.2768C150.482 89.2768 150.694 88.9497 150.694 88.5461C150.694 88.1426 150.482 87.8154 150.222 87.8154C149.961 87.8154 149.75 88.1426 149.75 88.5461C149.75 88.9497 149.961 89.2768 150.222 89.2768Z" fill="#CBE7F4"/>
<path d="M153.764 90.8096C153.764 90.8096 153.221 90.3047 151.846 90.4918C151.559 90.5357 151.278 90.6125 151.008 90.7205C150.312 90.9258 149.637 91.2004 148.995 91.5403L148.802 91.6443C148.027 92.0779 147.448 92.7403 147.421 93.1294C147.377 93.7769 146.842 95.6838 146.673 96.367V96.4115C146.315 96.205 145.97 95.9769 145.64 95.7284C145.565 95.6627 145.477 95.6149 145.381 95.5888C145.296 95.5764 145.208 95.5835 145.126 95.6096C145.043 95.6394 144.969 95.6883 144.909 95.7521C144.654 95.9927 144.416 96.4709 144.476 96.7086C144.508 96.8003 144.557 96.8851 144.621 96.9581C145.233 97.7452 145.931 98.0808 146.679 98.7402C146.854 98.9017 147.054 99.0322 147.273 99.1264C147.462 99.2051 147.673 99.2125 147.867 99.1472C147.898 99.1358 147.927 99.1219 147.956 99.1056C148.781 98.9036 148.811 96.0135 148.811 96.0135C148.811 96.0135 148.856 97.4393 148.888 98.6868C148.912 99.6105 148.573 104.206 148.559 104.307C148.559 104.307 148.68 104.357 148.888 104.428C149.954 104.803 153.639 105.857 154.602 103.537L154.848 92.5472C154.848 92.5472 154.575 91.2373 153.764 90.8096Z" fill="#E8366B"/>
<path opacity="0.5" d="M152.983 102.937C152.654 101.312 151.62 99.8183 151.692 98.1638C151.736 97.1836 152.164 96.2658 152.327 95.3005C152.49 94.3351 152.28 93.1737 151.436 92.7015C150.726 92.3094 149.794 92.5529 149.197 93.0965C148.628 93.6805 148.237 94.4154 148.072 95.2143C147.92 95.7876 147.807 96.4024 147.448 96.8688C147.089 97.3351 146.379 97.6173 145.889 97.2787C145.399 96.9401 145.429 96.3252 145.592 95.6985C145.533 95.6483 145.463 95.6128 145.387 95.5945C145.302 95.5822 145.214 95.5893 145.132 95.6153C145.049 95.6459 144.974 95.6946 144.912 95.7579C144.66 95.9985 144.422 96.4767 144.482 96.7143C144.514 96.8061 144.563 96.8908 144.627 96.9638C145.239 97.7509 145.937 98.0866 146.685 98.746C146.86 98.9074 147.06 99.038 147.279 99.1321C147.468 99.2109 147.679 99.2183 147.873 99.1529C147.904 99.1415 147.933 99.1276 147.962 99.1113C148.787 98.9093 148.817 96.0193 148.817 96.0193C148.817 96.0193 148.862 97.445 148.894 98.6925C148.918 99.6163 148.58 104.211 148.565 104.312C148.565 104.312 148.686 104.363 148.894 104.434C149.634 104.695 151.629 105.278 153.105 104.847C153.166 104.208 153.125 103.563 152.983 102.937Z" fill="url(#paint55_linear)"/>
<path d="M153.764 90.8096C153.764 90.8096 153.221 90.3047 151.846 90.4918C151.559 90.5357 151.278 90.6125 151.008 90.7205C150.311 90.9258 149.637 91.2004 148.995 91.5403L148.802 91.6443C148.027 92.0779 147.448 92.7403 147.421 93.1294C147.377 93.7769 146.842 95.6838 146.673 96.367V96.4116C146.315 96.205 145.97 95.9769 145.639 95.7284L145.586 95.6927C145.434 96.3195 145.402 96.9343 145.883 97.2729C146.364 97.6115 147.071 97.3353 147.442 96.863C147.813 96.3908 147.914 95.7819 148.065 95.2086C148.231 94.4097 148.621 93.6748 149.191 93.0908C149.785 92.5472 150.72 92.3037 151.43 92.6957C152.285 93.168 152.493 94.3294 152.321 95.2947C152.149 96.2601 151.727 97.1779 151.685 98.1581C151.614 99.8125 152.647 101.307 152.977 102.931C153.104 103.564 153.129 104.213 153.051 104.853C153.385 104.769 153.695 104.608 153.956 104.383C154.217 104.159 154.421 103.876 154.554 103.558L154.8 92.568C154.8 92.568 154.575 91.2373 153.764 90.8096Z" fill="#E8366B"/>
<path d="M150.613 84.2868C149.831 84.7203 149.229 85.42 148.918 86.259C148.852 86.4521 148.46 86.36 148.422 86.8531C148.422 86.8531 148.95 89.1699 153.025 88.3947C153.025 88.3947 153.954 86.4996 152.704 85.2165C152.704 85.2105 152.404 83.8858 150.613 84.2868Z" fill="#A6274D"/>
<path opacity="0.5" d="M150.765 87.349C150.523 87.2229 150.315 87.0395 150.16 86.8149C150.005 86.5902 149.907 86.3311 149.874 86.0599C149.833 85.3292 150.406 84.7411 150.943 84.2302C150.835 84.2428 150.728 84.2617 150.622 84.2867C149.84 84.7201 149.238 85.4199 148.927 86.2589C148.862 86.452 148.47 86.3599 148.431 86.853C148.431 86.853 148.959 89.1698 153.034 88.3946C153.1 88.2478 153.156 88.097 153.203 87.9431L152.336 87.8154C151.788 87.7563 151.256 87.5983 150.765 87.349Z" fill="url(#paint56_linear)"/>
<path d="M152.704 85.2104C152.704 85.2104 152.44 84.046 150.922 84.2302C150.385 84.7411 149.812 85.3292 149.853 86.0599C149.886 86.331 149.984 86.5902 150.139 86.8148C150.294 87.0395 150.502 87.2228 150.744 87.349C151.233 87.5952 151.762 87.7511 152.306 87.8094L153.173 87.9371C153.387 87.2955 153.577 86.1044 152.704 85.2104Z" fill="#A6274D"/>
<path opacity="0.5" d="M81.5013 125.472L69.2283 100.056C68.5097 98.5705 66.5943 98.4042 65.751 99.7586L54.7935 117.488C54.6194 117.776 54.5108 118.099 54.4755 118.434C54.4402 118.769 54.4791 119.108 54.5894 119.426C54.6996 119.744 54.8786 120.034 55.1135 120.275C55.3484 120.516 55.6336 120.702 55.9486 120.821L79.1791 128.511C80.8866 129.081 82.3298 127.189 81.5013 125.472Z" fill="url(#paint57_linear)"/>
<path d="M62.8616 101.294L51.9041 119.024C51.7294 119.312 51.6204 119.635 51.5848 119.971C51.5493 120.306 51.588 120.645 51.6983 120.963C51.8086 121.282 51.9877 121.572 52.223 121.813C52.4582 122.055 52.7437 122.241 53.0592 122.36L76.2778 130.047C77.9853 130.611 79.4285 128.719 78.597 127.002L66.327 101.586C65.6173 100.094 63.702 99.9341 62.8616 101.294Z" fill="#A6274D"/>
<path d="M62.8495 103.136L53.6143 118.528C52.9818 119.58 53.4777 121.044 54.5913 121.424L74.19 128.098C75.6332 128.591 76.8626 126.946 76.1499 125.455L65.7715 103.389C65.1776 102.094 63.5592 101.954 62.8495 103.136Z" fill="white"/>
<path d="M69.9291 125.158L57.9709 121.073C57.5017 120.913 57.1543 120.108 57.1929 119.271C57.2285 118.424 57.6383 117.854 58.1134 117.999L70.2468 121.709C70.8704 121.899 71.304 122.844 71.2119 123.809C71.1199 124.757 70.5408 125.357 69.9291 125.158Z" fill="#A6274D"/>
<path d="M58.8231 119.784C58.7964 120.337 58.5261 120.696 58.2292 120.595C57.9322 120.494 57.6976 119.969 57.7214 119.425C57.7451 118.882 58.0183 118.51 58.3153 118.608C58.6122 118.706 58.8528 119.232 58.8231 119.784Z" fill="white"/>
<path d="M60.9491 120.474C60.9165 121.038 60.6284 121.403 60.3048 121.296C59.9811 121.189 59.7524 120.652 59.7821 120.108C59.8118 119.565 60.0939 119.176 60.4176 119.276C60.7413 119.377 60.9818 119.909 60.9491 120.474Z" fill="white"/>
<path d="M63.1794 121.195C63.1408 121.771 62.8349 122.143 62.4964 122.03C62.1578 121.917 61.9203 121.368 61.953 120.8C61.9856 120.233 62.2915 119.85 62.63 119.957C62.9685 120.064 63.212 120.619 63.1794 121.195Z" fill="white"/>
<path d="M65.5254 121.956C65.4809 122.55 65.1542 122.921 64.7979 122.802C64.4415 122.683 64.204 122.119 64.2366 121.54C64.2693 120.961 64.5959 120.569 64.9523 120.682C65.3086 120.794 65.57 121.365 65.5254 121.956Z" fill="white"/>
<path d="M67.9926 122.755C67.9391 123.349 67.5947 123.741 67.2205 123.613C66.8464 123.485 66.588 122.909 66.6266 122.315C66.6652 121.721 67.0126 121.326 67.3868 121.445C67.761 121.564 68.0431 122.152 67.9926 122.755Z" fill="white"/>
<path d="M70.5911 123.598C70.5318 124.213 70.1635 124.602 69.7686 124.469C69.3737 124.335 69.1064 123.741 69.1599 123.135C69.2133 122.529 69.5786 122.125 69.9735 122.244C70.3684 122.363 70.6505 122.978 70.5911 123.598Z" fill="white"/>
<path d="M62.6773 119.96L60.6847 119.351C60.2414 119.216 59.8559 118.936 59.5896 118.557C59.3233 118.177 59.1914 117.72 59.2148 117.257L59.4108 113.396C59.426 113.094 59.5064 112.8 59.6466 112.533C59.7868 112.266 59.9833 112.033 60.2226 111.85C60.4618 111.666 60.7381 111.537 61.0322 111.471C61.3264 111.405 61.6313 111.404 61.926 111.468L64.0046 111.916C64.4958 112.021 64.9323 112.3 65.2337 112.702C65.535 113.104 65.6807 113.601 65.6438 114.102L65.3468 118.124C65.3235 118.434 65.231 118.735 65.076 119.005C64.9211 119.274 64.7077 119.505 64.4516 119.682C64.1954 119.858 63.9031 119.974 63.596 120.022C63.2889 120.07 62.975 120.049 62.6773 119.96Z" fill="#A6274D"/>
<path d="M62.7693 114.631L67.7135 111.42L68.1025 112.81L62.8792 116.033L62.7693 114.631Z" fill="#A6274D"/>
<path d="M67.2209 112.026L67.7139 111.42L69.2758 116.419L69.65 117.616L68.9908 118.023L67.2209 112.026Z" fill="#A6274D"/>
<path d="M69.6501 117.616C69.6501 117.616 70.6301 121.988 67.7794 120.037C67.3857 119.447 67.1788 118.753 67.1855 118.044L69.6501 117.616Z" fill="#A6274D"/>
</g>
<defs>
<linearGradient id="paint0_linear" x1="25.9716" y1="29.158" x2="27.3204" y2="101.9" gradientUnits="userSpaceOnUse">
<stop offset="0.46" stop-color="#E8366B"/>
<stop offset="0.54" stop-color="#E8396D" stop-opacity="0.98"/>
<stop offset="0.61" stop-color="#E84273" stop-opacity="0.93"/>
<stop offset="0.68" stop-color="#E8517E" stop-opacity="0.85"/>
<stop offset="0.75" stop-color="#E8658C" stop-opacity="0.73"/>
<stop offset="0.81" stop-color="#E8809F" stop-opacity="0.58"/>
<stop offset="0.88" stop-color="#E8A1B6" stop-opacity="0.4"/>
<stop offset="0.95" stop-color="#E8C7D1" stop-opacity="0.18"/>
<stop offset="1" stop-color="#E8E8E8" stop-opacity="0"/>
</linearGradient>
<linearGradient id="paint1_linear" x1="49512.7" y1="6807.98" x2="49580" y2="14150" gradientUnits="userSpaceOnUse">
<stop offset="0.46" stop-color="#E8366B"/>
<stop offset="0.54" stop-color="#E8396D" stop-opacity="0.98"/>
<stop offset="0.61" stop-color="#E84273" stop-opacity="0.93"/>
<stop offset="0.68" stop-color="#E8517E" stop-opacity="0.85"/>
<stop offset="0.75" stop-color="#E8658C" stop-opacity="0.73"/>
<stop offset="0.81" stop-color="#E8809F" stop-opacity="0.58"/>
<stop offset="0.88" stop-color="#E8A1B6" stop-opacity="0.4"/>
<stop offset="0.95" stop-color="#E8C7D1" stop-opacity="0.18"/>
<stop offset="1" stop-color="#E8E8E8" stop-opacity="0"/>
</linearGradient>
<linearGradient id="paint2_linear" x1="47.6684" y1="73.4499" x2="47.3386" y2="71.5846" gradientUnits="userSpaceOnUse">
<stop offset="0.02"/>
<stop offset="1" stop-color="#A6274D"/>
</linearGradient>
<linearGradient id="paint3_linear" x1="8011.44" y1="2798.4" x2="7992.26" y2="2453.16" gradientUnits="userSpaceOnUse">
<stop offset="0.02"/>
<stop offset="1" stop-color="#A6274D"/>
</linearGradient>
<linearGradient id="paint4_linear" x1="4842.37" y1="4027.51" x2="4749.46" y2="3394.95" gradientUnits="userSpaceOnUse">
<stop offset="0.02"/>
<stop offset="1" stop-color="#A6274D"/>
</linearGradient>
<linearGradient id="paint5_linear" x1="3250.65" y1="2617.25" x2="3214.29" y2="2297.62" gradientUnits="userSpaceOnUse">
<stop offset="0.02"/>
<stop offset="1" stop-color="#A6274D"/>
</linearGradient>
<linearGradient id="paint6_linear" x1="4507.83" y1="7141.45" x2="5263.82" y2="8470.56" gradientUnits="userSpaceOnUse">
<stop offset="0.46" stop-color="#E8366B"/>
<stop offset="0.54" stop-color="#E8396D" stop-opacity="0.98"/>
<stop offset="0.61" stop-color="#E84273" stop-opacity="0.93"/>
<stop offset="0.68" stop-color="#E8517E" stop-opacity="0.85"/>
<stop offset="0.75" stop-color="#E8658C" stop-opacity="0.73"/>
<stop offset="0.81" stop-color="#E8809F" stop-opacity="0.58"/>
<stop offset="0.88" stop-color="#E8A1B6" stop-opacity="0.4"/>
<stop offset="0.95" stop-color="#E8C7D1" stop-opacity="0.18"/>
<stop offset="1" stop-color="#E8E8E8" stop-opacity="0"/>
</linearGradient>
<linearGradient id="paint7_linear" x1="113.833" y1="44.7759" x2="141.239" y2="21.3386" gradientUnits="userSpaceOnUse">
<stop offset="0.46" stop-color="#73B4D8"/>
<stop offset="0.6" stop-color="#6FB1D6"/>
<stop offset="0.72" stop-color="#64AAD0"/>
<stop offset="0.85" stop-color="#509DC6"/>
<stop offset="0.97" stop-color="#368AB8"/>
<stop offset="1" stop-color="#2F86B5"/>
</linearGradient>
<linearGradient id="paint8_linear" x1="15639.4" y1="1644.63" x2="15623.4" y2="1282" gradientUnits="userSpaceOnUse">
<stop offset="0.02"/>
<stop offset="1" stop-color="#A6274D"/>
</linearGradient>
<linearGradient id="paint9_linear" x1="46971.5" y1="8454.88" x2="46821.8" y2="5370.54" gradientUnits="userSpaceOnUse">
<stop offset="0.02"/>
<stop offset="1" stop-color="#A6274D"/>
</linearGradient>
<linearGradient id="paint10_linear" x1="7792.9" y1="9133.57" x2="5162.62" y2="11677.2" gradientUnits="userSpaceOnUse">
<stop offset="0.46" stop-color="#E8366B"/>
<stop offset="0.54" stop-color="#E8396D" stop-opacity="0.98"/>
<stop offset="0.61" stop-color="#E84273" stop-opacity="0.93"/>
<stop offset="0.68" stop-color="#E8517E" stop-opacity="0.85"/>
<stop offset="0.75" stop-color="#E8658C" stop-opacity="0.73"/>
<stop offset="0.81" stop-color="#E8809F" stop-opacity="0.58"/>
<stop offset="0.88" stop-color="#E8A1B6" stop-opacity="0.4"/>
<stop offset="0.95" stop-color="#E8C7D1" stop-opacity="0.18"/>
<stop offset="1" stop-color="#E8E8E8" stop-opacity="0"/>
</linearGradient>
<linearGradient id="paint11_linear" x1="12711.5" y1="1713.59" x2="12703" y2="1528.63" gradientUnits="userSpaceOnUse">
<stop offset="0.02"/>
<stop offset="1" stop-color="#A6274D"/>
</linearGradient>
<linearGradient id="paint12_linear" x1="6326.4" y1="8985.08" x2="5010.56" y2="10292.1" gradientUnits="userSpaceOnUse">
<stop offset="0.46" stop-color="#E8366B"/>
<stop offset="0.54" stop-color="#E8396D" stop-opacity="0.98"/>
<stop offset="0.61" stop-color="#E84273" stop-opacity="0.93"/>
<stop offset="0.68" stop-color="#E8517E" stop-opacity="0.85"/>
<stop offset="0.75" stop-color="#E8658C" stop-opacity="0.73"/>
<stop offset="0.81" stop-color="#E8809F" stop-opacity="0.58"/>
<stop offset="0.88" stop-color="#E8A1B6" stop-opacity="0.4"/>
<stop offset="0.95" stop-color="#E8C7D1" stop-opacity="0.18"/>
<stop offset="1" stop-color="#E8E8E8" stop-opacity="0"/>
</linearGradient>
<linearGradient id="paint13_linear" x1="6907.35" y1="12725.2" x2="5200.91" y2="8649.29" gradientUnits="userSpaceOnUse">
<stop offset="0.02"/>
<stop offset="1" stop-color="#A6274D"/>
</linearGradient>
<linearGradient id="paint14_linear" x1="17051.4" y1="6123.88" x2="16964.6" y2="4776.78" gradientUnits="userSpaceOnUse">
<stop offset="0.02"/>
<stop offset="1" stop-color="#A6274D"/>
</linearGradient>
<linearGradient id="paint15_linear" x1="34.9927" y1="72.9846" x2="68.6804" y2="114.655" gradientUnits="userSpaceOnUse">
<stop offset="0.29" stop-color="#611831"/>
<stop offset="0.5" stop-color="#611831"/>
<stop offset="0.59" stop-color="#6D2940" stop-opacity="0.93"/>
<stop offset="0.71" stop-color="#8D586A" stop-opacity="0.72"/>
<stop offset="0.86" stop-color="#C2A5AF" stop-opacity="0.39"/>
<stop offset="1" stop-color="white" stop-opacity="0"/>
</linearGradient>
<linearGradient id="paint16_linear" x1="24640.7" y1="2426.12" x2="24612.4" y2="1828.29" gradientUnits="userSpaceOnUse">
<stop offset="0.02"/>
<stop offset="1" stop-color="#A6274D"/>
</linearGradient>
<linearGradient id="paint17_linear" x1="24640.7" y1="2135.74" x2="24612.4" y2="1537.91" gradientUnits="userSpaceOnUse">
<stop offset="0.02"/>
<stop offset="1" stop-color="#A6274D"/>
</linearGradient>
<linearGradient id="paint18_linear" x1="24565.9" y1="1834.73" x2="24537.6" y2="1236.9" gradientUnits="userSpaceOnUse">
<stop offset="0.02"/>
<stop offset="1" stop-color="#A6274D"/>
</linearGradient>
<linearGradient id="paint19_linear" x1="19078.7" y1="19851.9" x2="27824.2" y2="26238.1" gradientUnits="userSpaceOnUse">
<stop offset="0.46" stop-color="#E8366B"/>
<stop offset="0.54" stop-color="#E8396D" stop-opacity="0.98"/>
<stop offset="0.61" stop-color="#E84273" stop-opacity="0.93"/>
<stop offset="0.68" stop-color="#E8517E" stop-opacity="0.85"/>
<stop offset="0.75" stop-color="#E8658C" stop-opacity="0.73"/>
<stop offset="0.81" stop-color="#E8809F" stop-opacity="0.58"/>
<stop offset="0.88" stop-color="#E8A1B6" stop-opacity="0.4"/>
<stop offset="0.95" stop-color="#E8C7D1" stop-opacity="0.18"/>
<stop offset="1" stop-color="#E8E8E8" stop-opacity="0"/>
</linearGradient>
<linearGradient id="paint20_linear" x1="151.282" y1="73.748" x2="146.567" y2="130.587" gradientUnits="userSpaceOnUse">
<stop offset="0.5" stop-color="#611831"/>
<stop offset="0.59" stop-color="#6D2940" stop-opacity="0.93"/>
<stop offset="0.71" stop-color="#8D586A" stop-opacity="0.72"/>
<stop offset="0.86" stop-color="#C2A5AF" stop-opacity="0.39"/>
<stop offset="1" stop-color="white" stop-opacity="0"/>
</linearGradient>
<linearGradient id="paint21_linear" x1="162.254" y1="104.25" x2="149.339" y2="121.441" gradientUnits="userSpaceOnUse">
<stop offset="0.02" stop-color="#A6274D"/>
<stop offset="1" stop-color="#E8366B"/>
</linearGradient>
<linearGradient id="paint22_linear" x1="8743.77" y1="8003.27" x2="8543.48" y2="9707.62" gradientUnits="userSpaceOnUse">
<stop offset="0.5" stop-color="#611831"/>
<stop offset="0.59" stop-color="#6D2940" stop-opacity="0.93"/>
<stop offset="0.71" stop-color="#8D586A" stop-opacity="0.72"/>
<stop offset="0.86" stop-color="#C2A5AF" stop-opacity="0.39"/>
<stop offset="1" stop-color="white" stop-opacity="0"/>
</linearGradient>
<linearGradient id="paint23_linear" x1="11554.2" y1="13544.4" x2="13124.5" y2="14545.2" gradientUnits="userSpaceOnUse">
<stop offset="0.29" stop-color="#611831"/>
<stop offset="0.5" stop-color="#611831"/>
<stop offset="0.59" stop-color="#6D2940" stop-opacity="0.93"/>
<stop offset="0.71" stop-color="#8D586A" stop-opacity="0.72"/>
<stop offset="0.86" stop-color="#C2A5AF" stop-opacity="0.39"/>
<stop offset="1" stop-color="white" stop-opacity="0"/>
</linearGradient>
<linearGradient id="paint24_linear" x1="5231.96" y1="2306.15" x2="5057.36" y2="1357.83" gradientUnits="userSpaceOnUse">
<stop offset="0.02"/>
<stop offset="1" stop-color="#A6274D"/>
</linearGradient>
<linearGradient id="paint25_linear" x1="8176.85" y1="397.532" x2="8147.24" y2="563.853" gradientUnits="userSpaceOnUse">
<stop offset="0.02" stop-color="#A6274D"/>
<stop offset="1" stop-color="#E8366B"/>
</linearGradient>
<linearGradient id="paint26_linear" x1="2931.49" y1="1401.76" x2="2906.27" y2="1904.7" gradientUnits="userSpaceOnUse">
<stop offset="0.02" stop-color="#A6274D"/>
<stop offset="1" stop-color="#E8366B"/>
</linearGradient>
<linearGradient id="paint27_linear" x1="17371.2" y1="689.246" x2="17369.2" y2="966.674" gradientUnits="userSpaceOnUse">
<stop offset="0.02" stop-color="#A6274D"/>
<stop offset="1" stop-color="#E8366B"/>
</linearGradient>
<linearGradient id="paint28_linear" x1="8566.47" y1="17882.5" x2="4945.65" y2="9279.74" gradientUnits="userSpaceOnUse">
<stop offset="0.02"/>
<stop offset="1" stop-color="#A6274D"/>
</linearGradient>
<linearGradient id="paint29_linear" x1="5518.2" y1="723.478" x2="5513.27" y2="611.167" gradientUnits="userSpaceOnUse">
<stop offset="0.02"/>
<stop offset="1" stop-color="#A6274D"/>
</linearGradient>
<linearGradient id="paint30_linear" x1="2700.66" y1="2342.96" x2="2544.87" y2="1739.41" gradientUnits="userSpaceOnUse">
<stop offset="0.02"/>
<stop offset="1" stop-color="#A6274D"/>
</linearGradient>
<linearGradient id="paint31_linear" x1="2937.98" y1="2243.57" x2="2807.43" y2="1563.52" gradientUnits="userSpaceOnUse">
<stop offset="0.02"/>
<stop offset="1" stop-color="#A6274D"/>
</linearGradient>
<linearGradient id="paint32_linear" x1="6737.85" y1="4467.95" x2="7640.37" y2="3696.11" gradientUnits="userSpaceOnUse">
<stop offset="0.46" stop-color="#73B4D8"/>
<stop offset="0.6" stop-color="#6FB1D6"/>
<stop offset="0.72" stop-color="#64AAD0"/>
<stop offset="0.85" stop-color="#509DC6"/>
<stop offset="0.97" stop-color="#368AB8"/>
<stop offset="1" stop-color="#2F86B5"/>
</linearGradient>
<linearGradient id="paint33_linear" x1="25131" y1="23372" x2="22949.4" y2="31538.6" gradientUnits="userSpaceOnUse">
<stop offset="0.46" stop-color="#E8366B"/>
<stop offset="0.54" stop-color="#E8396D" stop-opacity="0.98"/>
<stop offset="0.61" stop-color="#E84273" stop-opacity="0.93"/>
<stop offset="0.68" stop-color="#E8517E" stop-opacity="0.85"/>
<stop offset="0.75" stop-color="#E8658C" stop-opacity="0.73"/>
<stop offset="0.81" stop-color="#E8809F" stop-opacity="0.58"/>
<stop offset="0.88" stop-color="#E8A1B6" stop-opacity="0.4"/>
<stop offset="0.95" stop-color="#E8C7D1" stop-opacity="0.18"/>
<stop offset="1" stop-color="#E8E8E8" stop-opacity="0"/>
</linearGradient>
<linearGradient id="paint34_linear" x1="-74.0862" y1="112.748" x2="160.095" y2="76.0922" gradientUnits="userSpaceOnUse">
<stop offset="0.02" stop-color="#1D1D1B"/>
<stop offset="0.48" stop-color="#2E1F22" stop-opacity="0.92"/>
<stop offset="0.74" stop-color="#672638" stop-opacity="0.64"/>
<stop offset="0.95" stop-color="#C8325E" stop-opacity="0.16"/>
<stop offset="1" stop-color="#E8366B" stop-opacity="0"/>
</linearGradient>
<linearGradient id="paint35_linear" x1="7161.47" y1="1950.06" x2="7465.5" y2="872.404" gradientUnits="userSpaceOnUse">
<stop offset="0.46" stop-color="#73B4D8"/>
<stop offset="0.6" stop-color="#6FB1D6"/>
<stop offset="0.72" stop-color="#64AAD0"/>
<stop offset="0.85" stop-color="#509DC6"/>
<stop offset="0.97" stop-color="#368AB8"/>
<stop offset="1" stop-color="#2F86B5"/>
</linearGradient>
<linearGradient id="paint36_linear" x1="3949.82" y1="6823.04" x2="5598.26" y2="5875.87" gradientUnits="userSpaceOnUse">
<stop offset="0.46" stop-color="#73B4D8"/>
<stop offset="0.6" stop-color="#6FB1D6"/>
<stop offset="0.72" stop-color="#64AAD0"/>
<stop offset="0.85" stop-color="#509DC6"/>
<stop offset="0.97" stop-color="#368AB8"/>
<stop offset="1" stop-color="#2F86B5"/>
</linearGradient>
<linearGradient id="paint37_linear" x1="3323.37" y1="6342.25" x2="4588.15" y2="5551.09" gradientUnits="userSpaceOnUse">
<stop offset="0.46" stop-color="#73B4D8"/>
<stop offset="0.6" stop-color="#6FB1D6"/>
<stop offset="0.72" stop-color="#64AAD0"/>
<stop offset="0.85" stop-color="#509DC6"/>
<stop offset="0.97" stop-color="#368AB8"/>
<stop offset="1" stop-color="#2F86B5"/>
</linearGradient>
<linearGradient id="paint38_linear" x1="5976.42" y1="2709.54" x2="6416.76" y2="2333.11" gradientUnits="userSpaceOnUse">
<stop offset="0.46" stop-color="#73B4D8"/>
<stop offset="0.6" stop-color="#6FB1D6"/>
<stop offset="0.72" stop-color="#64AAD0"/>
<stop offset="0.85" stop-color="#509DC6"/>
<stop offset="0.97" stop-color="#368AB8"/>
<stop offset="1" stop-color="#2F86B5"/>
</linearGradient>
<linearGradient id="paint39_linear" x1="30877.4" y1="13387.1" x2="37765.1" y2="669.832" gradientUnits="userSpaceOnUse">
<stop offset="0.46" stop-color="#73B4D8"/>
<stop offset="0.6" stop-color="#6FB1D6"/>
<stop offset="0.72" stop-color="#64AAD0"/>
<stop offset="0.85" stop-color="#509DC6"/>
<stop offset="0.97" stop-color="#368AB8"/>
<stop offset="1" stop-color="#2F86B5"/>
</linearGradient>
<linearGradient id="paint40_linear" x1="6057.8" y1="7662.74" x2="5631.13" y2="9979.6" gradientUnits="userSpaceOnUse">
<stop offset="0.5" stop-color="#611831"/>
<stop offset="0.59" stop-color="#6D2940" stop-opacity="0.93"/>
<stop offset="0.71" stop-color="#8D586A" stop-opacity="0.72"/>
<stop offset="0.86" stop-color="#C2A5AF" stop-opacity="0.39"/>
<stop offset="1" stop-color="white" stop-opacity="0"/>
</linearGradient>
<linearGradient id="paint41_linear" x1="2309.41" y1="452.135" x2="2314.15" y2="437.516" gradientUnits="userSpaceOnUse">
<stop offset="0.46" stop-color="#73B4D8"/>
<stop offset="0.6" stop-color="#6FB1D6"/>
<stop offset="0.72" stop-color="#64AAD0"/>
<stop offset="0.85" stop-color="#509DC6"/>
<stop offset="0.97" stop-color="#368AB8"/>
<stop offset="1" stop-color="#2F86B5"/>
</linearGradient>
<linearGradient id="paint42_linear" x1="7523.21" y1="6848.07" x2="8670.39" y2="6201.09" gradientUnits="userSpaceOnUse">
<stop offset="0.46" stop-color="#73B4D8"/>
<stop offset="0.6" stop-color="#6FB1D6"/>
<stop offset="0.72" stop-color="#64AAD0"/>
<stop offset="0.85" stop-color="#509DC6"/>
<stop offset="0.97" stop-color="#368AB8"/>
<stop offset="1" stop-color="#2F86B5"/>
</linearGradient>
<linearGradient id="paint43_linear" x1="6168.43" y1="1885.24" x2="6385.94" y2="1613.59" gradientUnits="userSpaceOnUse">
<stop offset="0.46" stop-color="#73B4D8"/>
<stop offset="0.6" stop-color="#6FB1D6"/>
<stop offset="0.72" stop-color="#64AAD0"/>
<stop offset="0.85" stop-color="#509DC6"/>
<stop offset="0.97" stop-color="#368AB8"/>
<stop offset="1" stop-color="#2F86B5"/>
</linearGradient>
<linearGradient id="paint44_linear" x1="6168.43" y1="1942.11" x2="6386.06" y2="1670.44" gradientUnits="userSpaceOnUse">
<stop offset="0.46" stop-color="#73B4D8"/>
<stop offset="0.6" stop-color="#6FB1D6"/>
<stop offset="0.72" stop-color="#64AAD0"/>
<stop offset="0.85" stop-color="#509DC6"/>
<stop offset="0.97" stop-color="#368AB8"/>
<stop offset="1" stop-color="#2F86B5"/>
</linearGradient>
<linearGradient id="paint45_linear" x1="6168.43" y1="1994.84" x2="6386.06" y2="1723.16" gradientUnits="userSpaceOnUse">
<stop offset="0.46" stop-color="#73B4D8"/>
<stop offset="0.6" stop-color="#6FB1D6"/>
<stop offset="0.72" stop-color="#64AAD0"/>
<stop offset="0.85" stop-color="#509DC6"/>
<stop offset="0.97" stop-color="#368AB8"/>
<stop offset="1" stop-color="#2F86B5"/>
</linearGradient>
<linearGradient id="paint46_linear" x1="6168.43" y1="2051.58" x2="6386.03" y2="1779.84" gradientUnits="userSpaceOnUse">
<stop offset="0.46" stop-color="#73B4D8"/>
<stop offset="0.6" stop-color="#6FB1D6"/>
<stop offset="0.72" stop-color="#64AAD0"/>
<stop offset="0.85" stop-color="#509DC6"/>
<stop offset="0.97" stop-color="#368AB8"/>
<stop offset="1" stop-color="#2F86B5"/>
</linearGradient>
<linearGradient id="paint47_linear" x1="1340.19" y1="462.746" x2="1403.98" y2="408.247" gradientUnits="userSpaceOnUse">
<stop offset="0.46" stop-color="#73B4D8"/>
<stop offset="0.6" stop-color="#6FB1D6"/>
<stop offset="0.72" stop-color="#64AAD0"/>
<stop offset="0.85" stop-color="#509DC6"/>
<stop offset="0.97" stop-color="#368AB8"/>
<stop offset="1" stop-color="#2F86B5"/>
</linearGradient>
<linearGradient id="paint48_linear" x1="4067.17" y1="6902.41" x2="3516.9" y2="9067.61" gradientUnits="userSpaceOnUse">
<stop offset="0.46" stop-color="#E8366B"/>
<stop offset="0.54" stop-color="#E8396D" stop-opacity="0.98"/>
<stop offset="0.61" stop-color="#E84273" stop-opacity="0.93"/>
<stop offset="0.68" stop-color="#E8517E" stop-opacity="0.85"/>
<stop offset="0.75" stop-color="#E8658C" stop-opacity="0.73"/>
<stop offset="0.81" stop-color="#E8809F" stop-opacity="0.58"/>
<stop offset="0.88" stop-color="#E8A1B6" stop-opacity="0.4"/>
<stop offset="0.95" stop-color="#E8C7D1" stop-opacity="0.18"/>
<stop offset="1" stop-color="#E8E8E8" stop-opacity="0"/>
</linearGradient>
<linearGradient id="paint49_linear" x1="2507.88" y1="4309.17" x2="3793.44" y2="4212.26" gradientUnits="userSpaceOnUse">
<stop offset="0.02" stop-color="#1D1D1B"/>
<stop offset="0.48" stop-color="#2E1F22" stop-opacity="0.92"/>
<stop offset="0.74" stop-color="#672638" stop-opacity="0.64"/>
<stop offset="0.95" stop-color="#C8325E" stop-opacity="0.16"/>
<stop offset="1" stop-color="#E8366B" stop-opacity="0"/>
</linearGradient>
<linearGradient id="paint50_linear" x1="4895.27" y1="4510.77" x2="5710.42" y2="4009.72" gradientUnits="userSpaceOnUse">
<stop offset="0.46" stop-color="#73B4D8"/>
<stop offset="0.6" stop-color="#6FB1D6"/>
<stop offset="0.72" stop-color="#64AAD0"/>
<stop offset="0.85" stop-color="#509DC6"/>
<stop offset="0.97" stop-color="#368AB8"/>
<stop offset="1" stop-color="#2F86B5"/>
</linearGradient>
<linearGradient id="paint51_linear" x1="7292.73" y1="2698.76" x2="7196.58" y2="2887.53" gradientUnits="userSpaceOnUse">
<stop offset="0.02" stop-color="#1D1D1B"/>
<stop offset="0.48" stop-color="#2E1F22" stop-opacity="0.92"/>
<stop offset="0.74" stop-color="#672638" stop-opacity="0.64"/>
<stop offset="0.95" stop-color="#C8325E" stop-opacity="0.16"/>
<stop offset="1" stop-color="#E8366B" stop-opacity="0"/>
</linearGradient>
<linearGradient id="paint52_linear" x1="7601.09" y1="2604.17" x2="7504.74" y2="2793.06" gradientUnits="userSpaceOnUse">
<stop offset="0.02" stop-color="#1D1D1B"/>
<stop offset="0.48" stop-color="#2E1F22" stop-opacity="0.92"/>
<stop offset="0.74" stop-color="#672638" stop-opacity="0.64"/>
<stop offset="0.95" stop-color="#C8325E" stop-opacity="0.16"/>
<stop offset="1" stop-color="#E8366B" stop-opacity="0"/>
</linearGradient>
<linearGradient id="paint53_linear" x1="5516.52" y1="6275.46" x2="6495.42" y2="6201.7" gradientUnits="userSpaceOnUse">
<stop offset="0.02" stop-color="#1D1D1B"/>
<stop offset="0.48" stop-color="#2E1F22" stop-opacity="0.92"/>
<stop offset="0.74" stop-color="#672638" stop-opacity="0.64"/>
<stop offset="0.95" stop-color="#C8325E" stop-opacity="0.16"/>
<stop offset="1" stop-color="#E8366B" stop-opacity="0"/>
</linearGradient>
<linearGradient id="paint54_linear" x1="2819.04" y1="1362.79" x2="3065.61" y2="1325.7" gradientUnits="userSpaceOnUse">
<stop offset="0.02" stop-color="#1D1D1B"/>
<stop offset="0.48" stop-color="#2E1F22" stop-opacity="0.92"/>
<stop offset="0.74" stop-color="#672638" stop-opacity="0.64"/>
<stop offset="0.95" stop-color="#C8325E" stop-opacity="0.16"/>
<stop offset="1" stop-color="#E8366B" stop-opacity="0"/>
</linearGradient>
<linearGradient id="paint55_linear" x1="4736.58" y1="4381.32" x2="5744.11" y2="4271.96" gradientUnits="userSpaceOnUse">
<stop offset="0.02" stop-color="#1D1D1B"/>
<stop offset="0.48" stop-color="#2E1F22" stop-opacity="0.92"/>
<stop offset="0.74" stop-color="#672638" stop-opacity="0.64"/>
<stop offset="0.95" stop-color="#C8325E" stop-opacity="0.16"/>
<stop offset="1" stop-color="#E8366B" stop-opacity="0"/>
</linearGradient>
<linearGradient id="paint56_linear" x1="2881.03" y1="1359.92" x2="3184.28" y2="1307.52" gradientUnits="userSpaceOnUse">
<stop offset="0.02" stop-color="#1D1D1B"/>
<stop offset="0.48" stop-color="#2E1F22" stop-opacity="0.92"/>
<stop offset="0.74" stop-color="#672638" stop-opacity="0.64"/>
<stop offset="0.95" stop-color="#C8325E" stop-opacity="0.16"/>
<stop offset="1" stop-color="#E8366B" stop-opacity="0"/>
</linearGradient>
<linearGradient id="paint57_linear" x1="8089.2" y1="11400.4" x2="10595" y2="11400.4" gradientUnits="userSpaceOnUse">
<stop offset="0.02" stop-color="#1D1D1B"/>
<stop offset="0.48" stop-color="#2E1F22" stop-opacity="0.92"/>
<stop offset="0.74" stop-color="#672638" stop-opacity="0.64"/>
<stop offset="0.95" stop-color="#C8325E" stop-opacity="0.16"/>
<stop offset="1" stop-color="#E8366B" stop-opacity="0"/>
</linearGradient>
<clipPath id="clip0">
<rect width="200" height="150" fill="white"/>
</clipPath>
</defs>
</svg>
