<svg width="200" height="150" viewBox="0 0 200 150" fill="none" xmlns="http://www.w3.org/2000/svg">
<g clip-path="url(#clip0)">
<path d="M167.816 101.322C169.825 98.9788 171.815 96.5794 173.135 93.7894C176.762 86.1262 174.902 76.789 178.343 69.0514C179.422 66.6334 180.966 64.4572 182.119 62.0578C183.179 59.8444 183.868 57.445 184.147 55.0084C180.65 53.8738 174.475 56.6266 174.475 56.6266L150.815 92.5804L153.382 106.27C153.382 106.27 157.79 106.568 162.775 105.972C162.85 105.935 162.924 105.898 162.998 105.842C164.877 104.67 166.384 102.996 167.816 101.322Z" fill="#56A0BA"/>
<path d="M186.397 57.4638C186.099 56.106 185.262 55.362 184.165 54.99C183.867 57.4266 183.198 59.826 182.138 62.0394C181.003 64.4202 179.441 66.5964 178.362 69.033C174.921 76.7706 176.781 86.1264 173.154 93.771C171.833 96.561 169.843 98.979 167.834 101.304C166.384 102.978 164.896 104.652 163.017 105.824C162.943 105.861 162.868 105.898 162.794 105.954C167.053 105.433 171.74 104.243 174.493 101.639C180.464 95.9658 175.535 82.611 180.445 74.7432C185.337 66.8568 187.606 63.0996 186.397 57.4638Z" fill="#418899"/>
<path d="M149.569 103.034C149.365 102.438 102.251 87.3353 87.3707 87.9305C72.4907 88.5257 29.4689 96.8957 26.5301 99.5555C23.5913 102.215 6.68394 108.558 13.9193 112.427C21.1547 116.295 17.5463 117.504 12.8033 122.34C8.07894 127.176 30.6221 139.843 83.1485 137.239C135.675 134.616 167.072 118.676 161.845 112.966C156.6 107.256 149.569 103.034 149.569 103.034Z" fill="#F8F9D7"/>
<path d="M177.934 37.2082C177.581 36.8734 177.246 36.5944 176.911 36.334C177.506 44.5366 176.613 54.004 170.494 58.0402C158.627 65.8894 168.076 67.8982 162.849 77.5702C158.311 85.9588 149.364 97.3792 136.94 97.8628C137.795 99.574 141.181 103.74 152.992 98.8114C167.481 92.7478 190.415 48.9076 177.934 37.2082Z" fill="#E2BD69"/>
<path d="M162.849 78.0725C168.076 68.4191 158.627 66.3917 170.494 58.5425C176.613 54.4877 177.488 45.0389 176.911 36.8363C165.212 27.9083 160.71 60.5513 156.377 62.8763C151.913 65.2757 152.991 57.6683 141.125 58.9331C129.258 60.1979 136.698 97.1189 136.698 97.7327C136.698 97.7327 136.754 97.9931 136.958 98.3837C149.364 97.8815 158.311 86.4611 162.849 78.0725Z" fill="#F4D37D"/>
<path d="M47.2688 113.803C49.8356 113.301 52.4582 112.78 54.746 111.534C57.0338 110.269 59.0054 108.13 59.3588 105.545C59.5262 104.391 59.3588 103.201 59.1728 102.048C58.9496 100.634 58.6334 99.1277 57.6662 98.0675C57.0338 97.3793 56.1968 96.9515 55.3226 96.6167C57.0338 100.281 56.9408 105.08 56.4014 107.051C56.4014 107.051 46.3388 109.116 41.447 111.218C41.447 111.218 41.9678 112.966 42.0422 114.789C42.1538 114.77 42.2654 114.752 42.377 114.715C44.0138 114.436 45.632 114.119 47.2688 113.803Z" fill="#144C5B"/>
<path d="M58.9683 94.8311C61.7583 95.5193 63.6555 97.9187 65.2179 100.43C65.2179 95.1101 65.2365 91.2599 65.2365 91.2599L62.7069 83.5223L54.7647 81.7925C54.7647 81.7925 48.9801 89.4929 53.5185 93.9941C53.6115 94.0871 53.6859 94.1801 53.7789 94.2731C54.1881 94.3847 54.6344 94.4591 55.0437 94.4963C56.3643 94.6079 57.7035 94.5149 58.9683 94.8311Z" fill="#144C5B"/>
<path d="M41.3726 117.951C41.3726 117.951 65.255 114.566 65.255 112.799C65.2178 108.521 65.2178 104.131 65.2178 100.43C63.6554 97.9372 61.7582 95.5192 58.9682 94.831C57.6848 94.5148 56.3642 94.6078 55.0436 94.4776C54.6158 94.4404 54.188 94.366 53.7788 94.2544C54.4112 94.9426 54.9134 95.7424 55.3226 96.6166C56.1968 96.9328 57.0338 97.3792 57.6662 98.0674C58.6334 99.1276 58.9496 100.616 59.1728 102.048C59.3588 103.201 59.5262 104.373 59.3588 105.545C58.9868 108.13 57.0338 110.288 54.746 111.534C52.4582 112.799 49.8356 113.301 47.2688 113.803C45.632 114.119 44.0138 114.435 42.377 114.752C42.2654 114.77 42.1538 114.789 42.0422 114.826C42.0794 115.961 41.9306 117.114 41.3726 117.951Z" fill="#114351"/>
<path d="M92.2251 30.0845L68.6589 26.2529V60.4025L88.0773 64.5503C94.8663 54.4691 94.1409 40.4075 92.2251 30.0845Z" fill="#CC567E"/>
<path d="M98.27 31.0703L92.225 30.0845C94.1408 40.3889 94.8847 54.4505 88.0771 64.5503L98.27 66.7265V31.0703Z" fill="#B54774"/>
<path d="M119.548 25.0438L98.27 31.0702V66.7264L119.548 57.2776V25.0438Z" fill="#9E3967"/>
<path d="M96.2055 21.6215L68.6589 26.2529L98.2701 31.0703L119.549 25.0439L96.2055 21.6215Z" fill="#C64B7B"/>
<path d="M42.0978 111.515C42.0978 111.515 40.0518 111.348 39.252 111.701C38.4336 112.055 37.5966 111.999 37.5966 111.999C37.5966 111.999 34.8438 115.142 37.0758 115.533C39.3078 115.923 41.4096 116.165 41.4096 116.165C41.4096 116.165 43.5114 114.473 42.0978 111.515Z" fill="white"/>
<path d="M35.0116 111.422C35.0116 111.422 38.7316 111.032 39.2524 111.72C39.7732 112.408 36.6298 113.989 38.3224 115.012C39.9964 116.035 36.016 118.788 37.69 119.03C39.1594 119.253 39.5314 119.867 39.2896 120.425C39.0664 120.964 34.9372 121.448 34.7512 120.704C34.5466 119.941 35.0116 111.422 35.0116 111.422Z" fill="#CC567E"/>
<path d="M47.957 115.272C47.957 115.272 45.8924 115.105 45.074 115.477C44.2556 115.849 43.4 115.793 43.4 115.793C43.4 115.793 40.61 118.992 42.8792 119.383C45.1298 119.774 47.2688 120.015 47.2688 120.015C47.2688 120.015 49.3706 118.267 47.957 115.272Z" fill="white"/>
<path d="M40.7403 115.031C40.7403 115.031 44.5533 114.77 45.0555 115.459C45.5577 116.147 42.3957 117.765 44.1069 118.807C45.7995 119.848 41.7819 122.638 43.4559 122.88C44.9439 123.103 45.3159 123.736 45.0741 124.294C44.8323 124.852 40.6845 125.335 40.4799 124.573C40.2939 123.829 40.7403 115.031 40.7403 115.031Z" fill="#CC567E"/>
<path d="M39.5684 123.568C39.68 124.052 40.052 124.572 40.61 124.74C40.61 124.74 41.447 122.136 41.5586 121.336L41.6144 120.964C41.8934 119.104 41.4098 115.105 40.8146 115.012C40.2194 114.919 39.5126 116.37 39.2336 118.211C39.0476 119.532 38.9918 120.518 39.122 121.355C39.122 121.392 39.4754 123.177 39.5684 123.568Z" fill="#DD729B"/>
<path d="M34.1558 119.848C34.2674 120.332 34.6394 120.852 35.1974 121.02C35.1974 121.02 36.0344 118.416 36.146 117.616L36.2018 117.244C36.4808 115.384 35.774 111.459 35.1602 111.385C34.5464 111.311 34.0814 112.65 33.821 114.51C33.635 115.83 33.5792 116.816 33.7094 117.653C33.7094 117.672 34.0628 119.439 34.1558 119.848Z" fill="#DD729B"/>
<path d="M103.962 56.2733C103.943 55.9571 103.72 55.8269 103.404 55.8269C103.106 56.9615 102.622 58.3193 101.86 59.2865C100.316 61.2395 99.7766 61.4255 96.689 63.6389C93.6014 65.8523 87.2216 71.8229 84.7478 70.7441C82.274 69.6653 80.321 69.3305 80.321 69.3305L79.8002 69.0515C79.3538 69.4235 79.019 69.6281 79.019 69.6281C79.019 69.6281 84.506 71.6927 85.7894 72.4553C87.0728 73.2179 99.6464 62.2997 99.6464 62.2997C99.6464 62.2997 100.13 61.5929 101.339 61.2023C102.567 60.8303 104.055 57.5567 103.962 56.2733Z" fill="#EF857F"/>
<path d="M84.7476 70.7627C87.2214 71.8415 93.6012 65.8709 96.6888 63.6575C99.7764 61.4441 100.316 61.2395 101.86 59.3051C102.622 58.3379 103.106 56.9801 103.403 55.8455C102.436 55.8269 100.483 56.8871 99.981 57.0359C99.33 57.2219 98.6046 59.1749 97.7862 59.9933C96.9678 60.7931 85.6404 67.6565 85.6404 67.6565L81.9762 65.8895C81.66 67.3031 80.5626 68.4377 79.8 69.0701L80.3209 69.3491C80.3209 69.3491 82.2738 69.6839 84.7476 70.7627Z" fill="#FF9C94"/>
<path d="M80.0049 70.9673C83.3715 70.2419 83.4087 65.2571 83.4087 65.2571C83.4087 65.2571 83.1297 65.0711 82.6647 64.7549C82.6275 66.3731 81.9207 68.4377 79.2051 70.2047C79.7073 70.6511 80.0049 70.9673 80.0049 70.9673Z" fill="#F8F9D7"/>
<path d="M72.9184 65.6292C71.3002 65.9268 72.8254 69.7584 71.7094 71.265C70.5934 72.7716 62.8558 74.985 62.6512 81.7368C62.6326 82.518 62.6326 83.262 62.6512 83.9502C63.3394 84.0432 64.009 84.1548 64.6786 84.2664C65.8504 84.471 67.4872 81.1974 68.659 81.4206C68.7706 80.286 68.8264 79.8024 69.589 79.0026C71.2258 77.2914 74.3506 75.4314 74.3134 72.8832C74.2762 70.3164 74.2018 68.1216 74.2018 68.1216C76.378 68.0286 78.238 69.312 79.2424 70.1676C79.7446 69.8328 80.191 69.498 80.563 69.1446C78.8146 68.0472 74.2204 65.3874 72.9184 65.6292Z" fill="#114351"/>
<path d="M82.6646 64.7548C81.623 64.048 79.6514 62.6716 77.6426 61.1278C74.7224 58.8772 71.5976 59.77 70.7048 59.9374L68.417 58.4494C68.417 58.4494 65.162 55.6222 62.2232 58.0402C59.2844 60.4768 58.5404 65.2756 58.8752 69.2188C59.1914 72.976 55.9737 80.8996 54.2625 83.299C57.0338 83.2804 59.861 83.578 62.6324 84.0058C62.6138 83.3176 62.6138 82.5922 62.6324 81.7924C62.837 75.0592 70.7606 72.9388 71.8766 71.4322C72.9926 69.9256 71.2814 65.9824 72.8996 65.6848C74.183 65.443 78.7958 68.1214 80.5628 69.1816C82.1624 67.6936 82.6274 66.0754 82.6646 64.7548Z" fill="#195266"/>
<path d="M72.974 47.866C71.579 47.9962 70.2397 50.005 69.8491 52.6276C69.4585 55.2874 70.2026 57.631 71.5418 58.096C73.067 54.934 73.5506 51.307 72.974 47.866Z" fill="#FF9C94"/>
<path d="M73.3276 47.866C73.216 47.8474 73.0858 47.8474 72.9742 47.866C73.5508 51.307 73.0486 54.934 71.542 58.096C71.635 58.1332 71.728 58.1518 71.821 58.1704C73.3276 58.3936 74.3134 56.3476 74.7412 53.5018C75.169 50.656 74.8342 48.0892 73.3276 47.866Z" fill="#EF857F"/>
<path d="M68.268 54.3202C68.268 54.3202 67.4124 58.2634 66.3894 58.7842C66.3894 58.7842 67.617 60.5884 70.6488 60.2908C70.6488 60.2908 70.7604 57.6682 71.709 56.7754C72.6576 55.8826 69.8118 53.3902 68.268 54.3202Z" fill="#FF9C94"/>
<path d="M71.5789 49.5958C73.4947 48.6844 72.7879 48.2938 70.7791 46.7872C70.0351 46.2292 69.4771 45.169 69.0679 44.0344C68.8819 44.0716 68.7145 44.146 68.5285 44.2576C67.3195 45.0946 66.4639 44.9086 66.5941 46.8802C66.5941 46.8802 66.0361 47.959 65.6269 49.7818C65.2177 51.6232 65.1991 52.2928 65.7571 53.5948C66.2407 54.7108 66.7243 55.6222 67.4311 56.0128C68.0449 55.8268 68.8447 55.4734 69.7003 54.8224C71.4673 53.4088 69.6631 50.5072 71.5789 49.5958Z" fill="#89403D"/>
<path d="M72.9741 45.4109C71.0955 44.9087 70.0539 43.8299 69.0495 44.0159C69.4587 45.1505 70.0353 46.2293 70.7607 46.7687C72.7695 48.2753 73.4763 48.6845 71.5605 49.5773C69.6447 50.4887 71.4675 53.4089 69.6447 54.8039C68.7891 55.4549 67.9893 55.8084 67.3755 55.9944C67.4871 56.0502 67.6173 56.1059 67.7475 56.1431C68.6775 56.3849 69.8121 56.478 70.7049 55.5294C71.5977 54.5808 71.9325 51.8093 71.9325 51.8093C71.9325 51.8093 74.3691 50.8793 75.2433 49.0751C76.2291 47.0663 74.3877 45.7829 72.9741 45.4109Z" fill="#7A3131"/>
<path d="M72.871 52.8646C72.9866 52.0717 72.6519 51.3665 72.1233 51.2894C71.5947 51.2124 71.0725 51.7926 70.9569 52.5854C70.8413 53.3783 71.176 54.0835 71.7046 54.1606C72.2332 54.2376 72.7554 53.6574 72.871 52.8646Z" fill="#FF9C94"/>
<path d="M62.4093 57.0917C62.9115 55.0271 64.8831 54.6179 64.6227 52.5719C64.3623 50.5073 65.2179 49.9493 66.7803 47.9405C67.4871 47.0291 67.2267 45.0761 66.7431 43.1789C66.6687 43.1603 66.5943 43.1603 66.5013 43.1603C66.5013 43.1603 63.8787 42.4349 63.0975 46.3967C62.3163 50.3585 62.9487 49.6889 62.9301 51.2513C62.9115 52.8137 62.5209 54.5435 61.0887 56.0315C60.4005 56.7383 60.4749 58.7657 60.9027 59.4539C61.2003 59.9375 61.9257 59.8073 62.0745 59.2679C62.1303 59.0633 62.2233 58.8587 62.3349 58.6355C62.2977 58.0589 62.3163 57.5381 62.4093 57.0917Z" fill="#89403D"/>
<path d="M68.3425 45.4108C68.3425 45.3736 68.3239 45.355 68.3239 45.3178C68.2495 45.0202 67.7659 43.3648 66.7429 43.1602C67.2265 45.0574 67.4869 47.029 66.7801 47.9218C65.2177 49.9305 64.3621 50.4886 64.6225 52.5532C64.8829 54.6178 62.9113 55.027 62.4091 57.0729C62.2975 57.5194 62.2975 58.0402 62.3533 58.5982C62.5393 58.282 62.8183 57.9657 63.2275 57.6867C64.9573 56.5149 66.5197 55.585 66.3895 52.795C66.2407 50.0236 68.9191 49.6701 68.3425 45.4108Z" fill="#7A3131"/>
<path d="M71.3932 92.8967L69.1612 86.0147L63.3766 84.9731C63.4324 86.2007 63.637 87.4097 64.0834 88.5443C64.7344 90.1997 65.8876 91.6133 66.6316 93.2129C67.6174 95.3147 67.915 97.6769 68.2126 99.9833C68.4544 101.955 68.6962 103.927 68.9566 105.917C69.1798 107.758 69.31 109.897 67.9336 111.143C67.0594 111.943 65.8132 112.129 64.6414 112.315C58.894 113.245 53.2768 115.105 48.106 117.765C48.013 118.472 47.7712 119.253 47.269 119.997C47.269 119.997 71.6722 114.64 72.0628 112.873C74.1088 103.666 71.3932 92.8967 71.3932 92.8967Z" fill="#114351"/>
<path d="M67.9334 111.143C69.2912 109.897 69.1796 107.758 68.9564 105.917C68.7146 103.945 68.4728 101.973 68.2124 99.9832C67.9334 97.6768 67.6172 95.3146 66.6314 93.2128C65.8688 91.6132 64.7342 90.181 64.0832 88.5442C63.6368 87.4096 63.4322 86.2006 63.3764 84.973L59.8982 84.3406C59.8982 84.3406 53.537 93.9754 60.605 97.4722C65.1062 99.7042 63.3578 106.4 62.6696 108.948C62.6696 108.948 52.9046 113.115 47.9756 115.254C47.9756 115.254 48.3104 116.37 48.1244 117.746C53.3138 115.086 58.9124 113.226 64.6598 112.296C65.813 112.129 67.0592 111.943 67.9334 111.143Z" fill="#195266"/>
<path d="M69.1609 86.0333C69.1609 86.0333 68.0635 84.8057 68.6401 81.4949C68.6401 81.4949 58.4287 77.3471 57.0709 77.5145C55.7131 77.7005 53.7043 83.3735 53.7043 83.3735C53.7043 83.3735 61.1815 86.0705 69.1609 86.0333Z" fill="#F8F9D7"/>
<path d="M152.173 55.7339C153.395 55.7339 154.386 54.743 154.386 53.5205C154.386 52.2981 153.395 51.3071 152.173 51.3071C150.95 51.3071 149.959 52.2981 149.959 53.5205C149.959 54.743 150.95 55.7339 152.173 55.7339Z" fill="#F4D37D"/>
<path d="M156.823 50.6932C157.603 50.6932 158.236 50.0603 158.236 49.2796C158.236 48.4989 157.603 47.866 156.823 47.866C156.042 47.866 155.409 48.4989 155.409 49.2796C155.409 50.0603 156.042 50.6932 156.823 50.6932Z" fill="#F4D37D"/>
<path d="M157.53 129.371C170.309 129.371 180.668 127.797 180.668 125.856C180.668 123.914 170.309 122.34 157.53 122.34C144.751 122.34 134.391 123.914 134.391 125.856C134.391 127.797 144.751 129.371 157.53 129.371Z" fill="#F8F9D7"/>
<path d="M129.109 73.1062L106.715 82.8154L107.105 116.649L129.109 105.284V73.1062Z" fill="#9E3967"/>
<path d="M103.069 70.0186L76.7129 78.277L106.715 82.8154L129.109 73.1062L103.069 70.0186Z" fill="#C64B7B"/>
<path d="M13.51 102.029L23.368 106.344L26.4742 54.5806L13.51 102.029Z" fill="#CC567E"/>
<path d="M26.4744 54.5806L23.3682 106.344L38.676 101.211L26.4744 54.5806Z" fill="#9E3967"/>
<path d="M145.124 86.3308C144.584 86.3308 144.026 86.3494 143.506 86.3866C154.628 87.2236 163.408 96.505 163.408 107.851C163.408 119.197 154.647 128.478 143.506 129.315C144.045 129.353 144.584 129.371 145.124 129.371C157.009 129.371 166.644 119.736 166.644 107.851C166.644 95.9656 157.009 86.3308 145.124 86.3308Z" fill="#B54774"/>
<path d="M143.506 129.315C154.497 129.315 163.408 119.705 163.408 107.851C163.408 95.9964 154.497 86.3865 143.506 86.3865C132.514 86.3865 123.604 95.9964 123.604 107.851C123.604 119.705 132.514 129.315 143.506 129.315Z" fill="#CC567E"/>
<path d="M101.228 81.9783L76.7129 78.2583L77.3453 110.604L80.0051 111.143C98.7353 110.38 101.339 92.5059 101.228 81.9783Z" fill="#CC567E"/>
<path d="M106.715 82.8153L101.209 81.9783C101.321 92.4873 98.7165 110.362 79.9863 111.143L107.087 116.63L106.715 82.8153Z" fill="#B54774"/>
</g>
<defs>
<clipPath id="clip0">
<rect width="200" height="150" fill="white"/>
</clipPath>
</defs>
</svg>
