<svg width="32" height="32" viewBox="0 0 32 32" fill="none" xmlns="http://www.w3.org/2000/svg">
<path fill-rule="evenodd" clip-rule="evenodd" d="M16 32C24.8366 32 32 24.8366 32 16C32 7.16344 24.8366 0 16 0C7.16344 0 0 7.16344 0 16C0 24.8366 7.16344 32 16 32Z" fill="#18204D"/>
<path d="M17.0029 16.3114C17.0029 16.1818 17.0566 16.0574 17.1522 15.9657C17.2478 15.8741 17.3774 15.8226 17.5125 15.8226H21.6478C21.6754 15.8225 21.7025 15.8162 21.727 15.8041C21.7515 15.7919 21.7726 15.7744 21.7885 15.7528C23.8657 12.9833 24.7823 9.93616 23.1984 8.41421C23.1349 8.3545 23.0495 8.32105 22.9606 8.32105C22.8717 8.32105 22.7863 8.3545 22.7228 8.41421C22.7093 8.42659 22.697 8.44011 22.6861 8.45462L19.5007 11.5116C19.4768 11.5341 19.4465 11.5494 19.4137 11.5555C19.3808 11.5616 19.3467 11.5584 19.3158 11.5461C19.2849 11.5337 19.2584 11.513 19.2397 11.4863C19.2209 11.4597 19.2108 11.4283 19.2106 11.3962V8.32687C19.2107 8.27115 19.196 8.21632 19.1678 8.16761C19.1396 8.1189 19.0988 8.07795 19.0494 8.04866C19 8.01937 18.9436 8.00272 18.8856 8.00031C18.8275 7.99789 18.7698 8.00979 18.7179 8.03486C16.91 8.97691 15.2607 10.1754 13.8257 11.5898C12.2442 13.0634 11.0017 14.8383 10.1783 16.8003C9.62924 18.2153 9.55994 19.4133 9.94656 20.2196L8.19894 21.8915C8.07156 22.0137 8 22.1795 8 22.3523C8 22.5251 8.07156 22.6909 8.19894 22.8131C8.32764 22.933 8.49996 23 8.67933 23C8.85871 23 9.03102 22.933 9.15972 22.8131L10.8965 21.1478C11.4128 21.3751 11.9763 21.4866 12.5442 21.4737C14.5823 21.3546 16.5291 20.6207 18.1064 19.3768C18.1347 19.3558 18.1555 19.3268 18.1658 19.2939C18.1761 19.261 18.1754 19.2259 18.1639 19.1934C18.1524 19.1609 18.1306 19.1326 18.1015 19.1126C18.0724 19.0925 18.0376 19.0817 18.0018 19.0816H14.4549C14.3197 19.0816 14.1901 19.0301 14.0945 18.9384C13.999 18.8467 13.9453 18.7224 13.9453 18.5927C13.9453 18.4631 13.999 18.3387 14.0945 18.247C14.1901 18.1554 14.3197 18.1039 14.4549 18.1039H19.5917C19.6369 18.1037 19.6802 18.0869 19.7127 18.0569C20.0524 17.7408 20.3806 17.411 20.6925 17.0721C20.7138 17.0481 20.7274 17.0188 20.7319 16.9877C20.7364 16.9565 20.7315 16.9248 20.7178 16.8962C20.704 16.8676 20.6821 16.8434 20.6545 16.8264C20.6269 16.8094 20.5948 16.8003 20.562 16.8003H17.5125C17.4456 16.8003 17.3794 16.7876 17.3175 16.763C17.2557 16.7385 17.1995 16.7025 17.1522 16.6571C17.1049 16.6117 17.0673 16.5578 17.0417 16.4985C17.0161 16.4392 17.0029 16.3756 17.0029 16.3114Z" fill="#B5CDFB"/>
</svg>
