<svg width="32" height="32" viewBox="0 0 32 32" fill="none" xmlns="http://www.w3.org/2000/svg">
<path fill-rule="evenodd" clip-rule="evenodd" d="M16 32C24.8366 32 32 24.8366 32 16C32 7.16344 24.8366 0 16 0C7.16344 0 0 7.16344 0 16C0 24.8366 7.16344 32 16 32Z" fill="#F5DE50"/>
<path d="M24.9301 17.9014C24.741 16.7303 23.9723 15.7471 21.6958 14.8298C20.9051 14.4687 20.0234 14.2101 19.7607 13.6148C19.6674 13.2683 19.6551 13.0732 19.714 12.8633C19.8835 12.1827 20.7012 11.9704 21.3496 12.1656C21.767 12.3047 22.1624 12.6243 22.4006 13.1342C23.5155 12.4169 23.5131 12.4218 24.2916 11.929C24.0067 11.4898 23.8544 11.2873 23.6678 11.0994C22.9974 10.3553 22.0838 9.97228 20.6226 10.0016C20.3697 10.0333 20.1143 10.0674 19.8614 10.0992C19.132 10.2821 18.437 10.6627 18.0294 11.1726C16.8064 12.5511 17.1551 14.964 18.6433 15.957C20.1094 17.05 22.2631 17.2988 22.5381 18.3211C22.8058 19.5727 21.6123 19.9776 20.4262 19.8337C19.5519 19.6532 19.0657 19.2116 18.5402 18.4089C17.5726 18.9652 17.5726 18.9652 16.578 19.5336C16.8138 20.046 17.0618 20.2777 17.4572 20.7218C19.3285 22.6077 24.0116 22.515 24.8515 19.6605C24.8859 19.5629 25.1118 18.909 24.9301 17.9014ZM15.2543 10.1528H12.8379C12.8379 12.2266 12.8281 14.2857 12.8281 16.3595C12.8281 17.6794 12.8968 18.8895 12.6807 19.2603C12.3271 19.9898 11.4111 19.8996 10.9936 19.758C10.5688 19.5506 10.3527 19.2554 10.1022 18.8383C10.0334 18.7187 9.98183 18.626 9.96461 18.6187C9.30895 19.0164 8.65569 19.4165 8 19.8142C8.32664 20.4802 8.80795 21.0584 9.42435 21.4341C10.3453 21.9831 11.583 22.1514 12.8772 21.8562C13.7195 21.6122 14.4464 21.1072 14.827 20.3387C15.3771 19.3311 15.2592 18.1112 15.2543 16.7621C15.2666 14.5614 15.2543 12.3608 15.2543 10.1528Z" fill="#323330"/>
</svg>
