<svg width="132" height="44" viewBox="0 0 132 44" fill="none" xmlns="http://www.w3.org/2000/svg">
<g clip-path="url(#clip0)">
<path fill-rule="evenodd" clip-rule="evenodd" d="M17.5355 36.5802C17.0308 36.6328 16.5186 36.6597 16 36.6597C11.5179 36.6597 7.50566 34.6482 4.81663 31.4788L9.58805 23.2863L17.5355 36.5802ZM18.9652 36.3597L13.9363 27.9476L29.403 27.9476C27.5094 32.2083 23.6439 35.3986 18.9652 36.3597ZM29.921 26.6073C30.4003 25.1585 30.6597 23.6095 30.6597 22C30.6597 18.7808 29.622 15.8039 27.8629 13.3856L20.1024 26.6073L29.921 26.6073ZM26.9643 12.2688L22.1745 20.4292L14.4012 7.4265C14.9263 7.36954 15.4597 7.34031 16 7.34031C20.3619 7.34031 24.2789 9.24537 26.9643 12.2688ZM12.9749 7.65279L17.8962 15.8848L2.67277 15.8848C4.58406 11.7262 8.38452 8.61582 12.9749 7.65279ZM13.613 6.17685C5.90861 7.3293 0 13.9746 0 22C0 30.8366 7.16344 38 16 38C24.8366 38 32 30.8366 32 22C32 13.1634 24.8366 6 16 6C15.2019 6 14.4175 6.05843 13.6507 6.17125L13.6433 6.15874L13.613 6.17685ZM2.13551 17.2251C1.62014 18.7219 1.34031 20.3283 1.34031 22C1.34031 25.0939 2.29876 27.964 3.93494 30.3295L11.5671 17.2251L2.13551 17.2251ZM21.4009 21.7472L18.6975 17.2251H13.1182L10.3586 21.9633L13.135 26.6073H18.5482L21.4009 21.7472Z" fill="url(#paint0_linear)"/>
<path d="M45.056 28.112C44.2347 28.112 43.4987 27.9787 42.848 27.712C42.1973 27.4453 41.6747 27.0507 41.28 26.528C40.896 26.0053 40.6933 25.376 40.672 24.64H43.584C43.6267 25.056 43.7707 25.376 44.016 25.6C44.2613 25.8133 44.5813 25.92 44.976 25.92C45.3813 25.92 45.7013 25.8293 45.936 25.648C46.1707 25.456 46.288 25.1947 46.288 24.864C46.288 24.5867 46.192 24.3573 46 24.176C45.8187 23.9947 45.5893 23.8453 45.312 23.728C45.0453 23.6107 44.6613 23.4773 44.16 23.328C43.4347 23.104 42.8427 22.88 42.384 22.656C41.9253 22.432 41.5307 22.1013 41.2 21.664C40.8693 21.2267 40.704 20.656 40.704 19.952C40.704 18.9067 41.0827 18.0907 41.84 17.504C42.5973 16.9067 43.584 16.608 44.8 16.608C46.0373 16.608 47.0347 16.9067 47.792 17.504C48.5493 18.0907 48.9547 18.912 49.008 19.968H46.048C46.0267 19.6053 45.8933 19.3227 45.648 19.12C45.4027 18.9067 45.088 18.8 44.704 18.8C44.3733 18.8 44.1067 18.8907 43.904 19.072C43.7013 19.2427 43.6 19.4933 43.6 19.824C43.6 20.1867 43.7707 20.4693 44.112 20.672C44.4533 20.8747 44.9867 21.0933 45.712 21.328C46.4373 21.5733 47.024 21.808 47.472 22.032C47.9307 22.256 48.3253 22.5813 48.656 23.008C48.9867 23.4347 49.152 23.984 49.152 24.656C49.152 25.296 48.9867 25.8773 48.656 26.4C48.336 26.9227 47.8667 27.3387 47.248 27.648C46.6293 27.9573 45.8987 28.112 45.056 28.112ZM56.2758 18.976C57.3211 18.976 58.1531 19.3173 58.7718 20C59.4011 20.672 59.7158 21.6 59.7158 22.784V28H56.9958V23.152C56.9958 22.5547 56.8411 22.0907 56.5318 21.76C56.2224 21.4293 55.8064 21.264 55.2838 21.264C54.7611 21.264 54.3451 21.4293 54.0358 21.76C53.7264 22.0907 53.5718 22.5547 53.5718 23.152V28H50.8358V19.072H53.5718V20.256C53.8491 19.8613 54.2224 19.552 54.6918 19.328C55.1611 19.0933 55.6891 18.976 56.2758 18.976ZM61.073 23.52C61.073 22.6027 61.2437 21.7973 61.585 21.104C61.937 20.4107 62.4117 19.8773 63.009 19.504C63.6063 19.1307 64.273 18.944 65.009 18.944C65.6383 18.944 66.1877 19.072 66.657 19.328C67.137 19.584 67.505 19.92 67.761 20.336V19.072H70.497V28H67.761V26.736C67.4943 27.152 67.121 27.488 66.641 27.744C66.1717 28 65.6223 28.128 64.993 28.128C64.2677 28.128 63.6063 27.9413 63.009 27.568C62.4117 27.184 61.937 26.6453 61.585 25.952C61.2437 25.248 61.073 24.4373 61.073 23.52ZM67.761 23.536C67.761 22.8533 67.569 22.3147 67.185 21.92C66.8117 21.5253 66.353 21.328 65.809 21.328C65.265 21.328 64.801 21.5253 64.417 21.92C64.0437 22.304 63.857 22.8373 63.857 23.52C63.857 24.2027 64.0437 24.7467 64.417 25.152C64.801 25.5467 65.265 25.744 65.809 25.744C66.353 25.744 66.8117 25.5467 67.185 25.152C67.569 24.7573 67.761 24.2187 67.761 23.536ZM75.2124 20.336C75.479 19.92 75.847 19.584 76.3164 19.328C76.7857 19.072 77.335 18.944 77.9644 18.944C78.7004 18.944 79.367 19.1307 79.9644 19.504C80.5617 19.8773 81.031 20.4107 81.3724 21.104C81.7244 21.7973 81.9004 22.6027 81.9004 23.52C81.9004 24.4373 81.7244 25.248 81.3724 25.952C81.031 26.6453 80.5617 27.184 79.9644 27.568C79.367 27.9413 78.7004 28.128 77.9644 28.128C77.3457 28.128 76.7964 28 76.3164 27.744C75.847 27.488 75.479 27.1573 75.2124 26.752V32.256H72.4764V19.072H75.2124V20.336ZM79.1164 23.52C79.1164 22.8373 78.9244 22.304 78.5404 21.92C78.167 21.5253 77.703 21.328 77.1484 21.328C76.6044 21.328 76.1404 21.5253 75.7564 21.92C75.383 22.3147 75.1964 22.8533 75.1964 23.536C75.1964 24.2187 75.383 24.7573 75.7564 25.152C76.1404 25.5467 76.6044 25.744 77.1484 25.744C77.6924 25.744 78.1564 25.5467 78.5404 25.152C78.9244 24.7467 79.1164 24.2027 79.1164 23.52ZM86.9678 28.128C86.1891 28.128 85.4958 27.9947 84.8878 27.728C84.2798 27.4613 83.7998 27.0987 83.4478 26.64C83.0958 26.1707 82.8984 25.648 82.8558 25.072H85.5598C85.5918 25.3813 85.7358 25.632 85.9918 25.824C86.2478 26.016 86.5624 26.112 86.9358 26.112C87.2771 26.112 87.5384 26.048 87.7198 25.92C87.9118 25.7813 88.0078 25.6053 88.0078 25.392C88.0078 25.136 87.8744 24.9493 87.6078 24.832C87.3411 24.704 86.9091 24.5653 86.3118 24.416C85.6718 24.2667 85.1384 24.112 84.7118 23.952C84.2851 23.7813 83.9171 23.52 83.6078 23.168C83.2984 22.8053 83.1438 22.32 83.1438 21.712C83.1438 21.2 83.2824 20.736 83.5598 20.32C83.8478 19.8933 84.2638 19.5573 84.8078 19.312C85.3624 19.0667 86.0184 18.944 86.7758 18.944C87.8958 18.944 88.7758 19.2213 89.4158 19.776C90.0664 20.3307 90.4398 21.0667 90.5358 21.984H88.0078C87.9651 21.6747 87.8264 21.4293 87.5918 21.248C87.3678 21.0667 87.0691 20.976 86.6958 20.976C86.3758 20.976 86.1304 21.04 85.9598 21.168C85.7891 21.2853 85.7038 21.4507 85.7038 21.664C85.7038 21.92 85.8371 22.112 86.1038 22.24C86.3811 22.368 86.8078 22.496 87.3838 22.624C88.0451 22.7947 88.5838 22.9653 88.9998 23.136C89.4158 23.296 89.7784 23.5627 90.0878 23.936C90.4078 24.2987 90.5731 24.7893 90.5838 25.408C90.5838 25.9307 90.4344 26.4 90.1358 26.816C89.8478 27.2213 89.4264 27.5413 88.8718 27.776C88.3278 28.0107 87.6931 28.128 86.9678 28.128ZM97.7456 18.976C98.7696 18.976 99.591 19.3173 100.21 20C100.828 20.672 101.138 21.6 101.138 22.784V28H98.4176V23.152C98.4176 22.5547 98.263 22.0907 97.9536 21.76C97.6443 21.4293 97.2283 21.264 96.7056 21.264C96.183 21.264 95.767 21.4293 95.4576 21.76C95.1483 22.0907 94.9936 22.5547 94.9936 23.152V28H92.2576V16.16H94.9936V20.272C95.271 19.8773 95.6496 19.5627 96.1296 19.328C96.6096 19.0933 97.1483 18.976 97.7456 18.976ZM107.103 28.128C106.228 28.128 105.439 27.9413 104.735 27.568C104.042 27.1947 103.492 26.6613 103.087 25.968C102.692 25.2747 102.495 24.464 102.495 23.536C102.495 22.6187 102.698 21.8133 103.103 21.12C103.508 20.416 104.063 19.8773 104.767 19.504C105.471 19.1307 106.26 18.944 107.135 18.944C108.01 18.944 108.799 19.1307 109.503 19.504C110.207 19.8773 110.762 20.416 111.167 21.12C111.572 21.8133 111.775 22.6187 111.775 23.536C111.775 24.4533 111.567 25.264 111.151 25.968C110.746 26.6613 110.186 27.1947 109.471 27.568C108.767 27.9413 107.978 28.128 107.103 28.128ZM107.103 25.76C107.626 25.76 108.068 25.568 108.431 25.184C108.804 24.8 108.991 24.2507 108.991 23.536C108.991 22.8213 108.81 22.272 108.447 21.888C108.095 21.504 107.658 21.312 107.135 21.312C106.602 21.312 106.159 21.504 105.807 21.888C105.455 22.2613 105.279 22.8107 105.279 23.536C105.279 24.2507 105.45 24.8 105.791 25.184C106.143 25.568 106.58 25.76 107.103 25.76ZM118.202 25.68V28H116.81C115.818 28 115.045 27.76 114.49 27.28C113.936 26.7893 113.658 25.9947 113.658 24.896V21.344H112.57V19.072H113.658V16.896H116.394V19.072H118.186V21.344H116.394V24.928C116.394 25.1947 116.458 25.3867 116.586 25.504C116.714 25.6213 116.928 25.68 117.226 25.68H118.202ZM123.358 28.128C122.58 28.128 121.886 27.9947 121.278 27.728C120.67 27.4613 120.19 27.0987 119.838 26.64C119.486 26.1707 119.289 25.648 119.246 25.072H121.95C121.982 25.3813 122.126 25.632 122.382 25.824C122.638 26.016 122.953 26.112 123.326 26.112C123.668 26.112 123.929 26.048 124.11 25.92C124.302 25.7813 124.398 25.6053 124.398 25.392C124.398 25.136 124.265 24.9493 123.998 24.832C123.732 24.704 123.3 24.5653 122.702 24.416C122.062 24.2667 121.529 24.112 121.102 23.952C120.676 23.7813 120.308 23.52 119.998 23.168C119.689 22.8053 119.534 22.32 119.534 21.712C119.534 21.2 119.673 20.736 119.95 20.32C120.238 19.8933 120.654 19.5573 121.198 19.312C121.753 19.0667 122.409 18.944 123.166 18.944C124.286 18.944 125.166 19.2213 125.806 19.776C126.457 20.3307 126.83 21.0667 126.926 21.984H124.398C124.356 21.6747 124.217 21.4293 123.982 21.248C123.758 21.0667 123.46 20.976 123.086 20.976C122.766 20.976 122.521 21.04 122.35 21.168C122.18 21.2853 122.094 21.4507 122.094 21.664C122.094 21.92 122.228 22.112 122.494 22.24C122.772 22.368 123.198 22.496 123.774 22.624C124.436 22.7947 124.974 22.9653 125.39 23.136C125.806 23.296 126.169 23.5627 126.478 23.936C126.798 24.2987 126.964 24.7893 126.974 25.408C126.974 25.9307 126.825 26.4 126.526 26.816C126.238 27.2213 125.817 27.5413 125.262 27.776C124.718 28.0107 124.084 28.128 123.358 28.128ZM129.928 28.128C129.448 28.128 129.054 27.9893 128.744 27.712C128.446 27.424 128.296 27.072 128.296 26.656C128.296 26.2293 128.446 25.872 128.744 25.584C129.054 25.296 129.448 25.152 129.928 25.152C130.398 25.152 130.782 25.296 131.08 25.584C131.39 25.872 131.544 26.2293 131.544 26.656C131.544 27.072 131.39 27.424 131.08 27.712C130.782 27.9893 130.398 28.128 129.928 28.128Z" fill="white"/>
</g>
<defs>
<linearGradient id="paint0_linear" x1="16" y1="6" x2="16" y2="38" gradientUnits="userSpaceOnUse">
<stop stop-color="#E5A8E0"/>
<stop offset="1" stop-color="#9EE1EC"/>
</linearGradient>
<clipPath id="clip0">
<rect width="132" height="44" fill="white"/>
</clipPath>
</defs>
</svg>
