<svg width="24" height="24" viewBox="0 0 24 24" fill="none" xmlns="http://www.w3.org/2000/svg">
<path d="M12.017 2C9.63299 1.99928 7.32694 2.86858 5.51351 4.45161C3.70009 6.03463 2.49825 8.22752 2.12411 10.6359C1.74997 13.0444 2.22808 15.5103 3.47246 17.5904C4.71685 19.6705 6.64586 21.2282 8.91265 21.9834H9.15465C9.27272 21.9909 9.391 21.9727 9.50164 21.9298C9.61228 21.887 9.71276 21.8206 9.7964 21.7351C9.88005 21.6495 9.94496 21.5467 9.98682 21.4335C10.0287 21.3204 10.0465 21.1994 10.0392 21.0786V20.8993C10.0392 20.7542 10.0392 20.5579 10.0392 19.9689C10.031 19.913 10.0121 19.8593 9.98341 19.8109C9.95476 19.7625 9.917 19.7205 9.87232 19.6872C9.82385 19.6471 9.7672 19.6186 9.70655 19.6038C9.64589 19.589 9.58278 19.5884 9.52183 19.6018C7.28538 20.0969 6.80971 18.6628 6.77633 18.5689C6.49628 17.8101 5.99527 17.1576 5.34099 16.6995C5.30179 16.6648 5.25993 16.6334 5.21582 16.6056C5.31279 16.5522 5.42371 16.5313 5.53293 16.5458C5.74267 16.5757 5.94129 16.6605 6.10946 16.7922C6.27763 16.9238 6.40963 17.0977 6.4926 17.297C6.81543 17.872 7.34369 18.2965 7.96625 18.4812C8.58881 18.6659 9.25713 18.5963 9.8306 18.2872C9.89213 18.2597 9.94627 18.2174 9.9884 18.1639C10.0305 18.1104 10.0594 18.0473 10.0726 17.9799C10.1046 17.5851 10.2698 17.2139 10.5399 16.93C10.5999 16.8755 10.6432 16.8045 10.6648 16.7254C10.6863 16.6464 10.6851 16.5627 10.6614 16.4843C10.6376 16.4059 10.5922 16.3363 10.5307 16.2836C10.4692 16.2309 10.3942 16.1975 10.3146 16.1873C8.33684 15.9568 6.31736 15.2483 6.31736 11.757C6.30068 10.8802 6.61443 10.0305 7.19358 9.38388C7.24692 9.32362 7.28233 9.24902 7.29563 9.16888C7.30894 9.08873 7.29959 9.00636 7.26868 8.93146C7.03676 8.26864 7.03971 7.54357 7.27703 6.88275C8.04796 7.02254 8.77156 7.36033 9.37997 7.86443C9.43023 7.90071 9.48785 7.92493 9.54853 7.93528C9.60922 7.94563 9.6714 7.94183 9.73046 7.92418C10.4759 7.71733 11.2446 7.61115 12.017 7.60834C12.7923 7.609 13.564 7.71522 14.3119 7.92418C14.3697 7.9405 14.4303 7.94361 14.4894 7.93328C14.5486 7.92295 14.6047 7.89945 14.654 7.86443C15.2634 7.36191 15.9865 7.02432 16.7569 6.88275C16.9841 7.54003 16.9841 8.25711 16.7569 8.91439C16.726 8.98929 16.7167 9.07165 16.73 9.1518C16.7433 9.23195 16.7787 9.30655 16.832 9.36681C17.4052 10.0069 17.7185 10.8463 17.7083 11.7143C17.7083 15.2056 15.6804 15.9056 13.6943 16.1361C13.6129 16.1448 13.5357 16.1778 13.4725 16.231C13.4092 16.2842 13.3627 16.3553 13.3386 16.4354C13.3146 16.5155 13.3142 16.6011 13.3374 16.6814C13.3605 16.7618 13.4063 16.8334 13.469 16.8873C13.6539 17.0824 13.7951 17.3163 13.883 17.5727C13.9709 17.8292 14.0033 18.1021 13.9781 18.3726V21.0871C13.9739 21.2206 13.9987 21.3533 14.0507 21.4758C14.1026 21.5983 14.1804 21.7075 14.2785 21.7956C14.4034 21.8913 14.5484 21.9558 14.702 21.9839C14.8556 22.0121 15.0134 22.0032 15.163 21.9578C17.4146 21.1873 19.3253 19.6235 20.5542 17.5455C21.7831 15.4675 22.2502 13.0105 21.8723 10.6128C21.4943 8.21512 20.2958 6.0328 18.4907 4.45525C16.6856 2.87769 14.3912 2.00752 12.017 2Z" fill="#C1B3F3"/>
</svg>
